<?xml version="1.0" encoding="utf-8"?>
<!-- Generator: Adobe Illustrator 16.0.0, SVG Export Plug-In . SVG Version: 6.00 Build 0)  -->
<!DOCTYPE svg PUBLIC "-//W3C//DTD SVG 1.1//EN" "http://www.w3.org/Graphics/SVG/1.1/DTD/svg11.dtd">
<svg version="1.1" id="Layer_11" xmlns="http://www.w3.org/2000/svg" xmlns:xlink="http://www.w3.org/1999/xlink" x="0px" y="0px"
	 width="100px" height="100px" viewBox="0 0 100 100" enable-background="new 0 0 100 100" xml:space="preserve">
<path d="M61.932,24.565c-3.282,0-6.415,0.77-9.289,2.165c0.545-2.005,1.508-4.156,3.237-5.702c2.217-1.98,5.407-2.658,9.484-2.016
	l0.611-3.869c-5.307-0.841-9.587,0.164-12.724,2.981c-2.9,2.603-4.191,6.238-4.766,9.194c-3.174-1.765-6.701-2.754-10.418-2.754
	C24.223,24.565,13,34.289,13,51.118c0,16.828,11.224,34.388,25.068,34.388c4.319,0,8.384,1.283,11.932-1.056
	c3.548,2.339,7.613,1.056,11.932,1.056C75.776,85.506,87,67.946,87,51.118C87,34.289,75.776,24.565,61.932,24.565z M25.696,38.474
	c-2.1,2.76-4.771,4.261-5.968,3.35c-1.196-0.909-0.462-3.883,1.637-6.646c2.1-2.761,4.771-4.262,5.967-3.352
	C28.529,32.736,27.796,35.711,25.696,38.474z M80.688,55.946c-1.082,0-1.958-0.878-1.958-1.959c0-11.881-8.006-21.547-17.847-21.547
	c-1.082,0-1.959-0.878-1.959-1.959c0-1.082,0.877-1.959,1.959-1.959c12.001,0,21.765,11.424,21.765,25.465
	C82.647,55.068,81.771,55.946,80.688,55.946z"/>
</svg>
