<?xml version="1.0" encoding="iso-8859-1"?>
<!-- Generator: Adobe Illustrator 16.0.0, SVG Export Plug-In . SVG Version: 6.00 Build 0)  -->
<!DOCTYPE svg PUBLIC "-//W3C//DTD SVG 1.1//EN" "http://www.w3.org/Graphics/SVG/1.1/DTD/svg11.dtd">
<svg version="1.1" id="Layer_1" xmlns="http://www.w3.org/2000/svg" xmlns:xlink="http://www.w3.org/1999/xlink" x="0px" y="0px"
	 width="27.938px" height="32px" viewBox="0 0 27.938 32" style="enable-background:new 0 0 27.938 32;" xml:space="preserve">
<g>
	<path d="M24.54,9.734c-1.163-0.962-2.651-1.449-4.423-1.449c-1.863,0-3.658,0.546-4.876,1.022
		c-0.002-0.758,0.043-3.182,0.043-3.182c0.964,0.202,2.361,0.113,3.357,0.113c0.55,0,1.075-0.034,1.563-0.1
		c3.053-0.414,4.608-2.833,5.192-3.743l0.054-0.083c0.063-0.098,0.075-0.22,0.032-0.328C25.44,1.876,22.527,0,19.742,0
		c-3.861,0-6.082,3.556-6.192,3.707c-0.045,0.062-0.069,0.136-0.069,0.211v5.403c-1.279-0.5-3.322-1.142-5.416-1.142
		c-1.901,0-3.477,0.527-4.667,1.555c-4.918,4.067-3.871,11.071-0.817,15.857c2.892,4.533,5.439,6.183,10.112,6.375V32l1.276-0.005
		l0.293,0l0.982-0.007v-0.024c4.624-0.2,7.258-1.9,10.112-6.373C28.411,20.805,29.458,13.801,24.54,9.734z M23.707,24.54
		c-2.683,4.206-4.889,5.489-9.44,5.489h-0.595c-4.607,0-6.725-1.231-9.44-5.489c-2.606-4.084-3.588-9.987,0.43-13.31
		c0.841-0.725,1.986-1.093,3.404-1.093c2.865,0,5.81,1.487,5.84,1.502l0.443,0.226l0.443-0.223c0.651-0.329,2.962-1.4,5.325-1.4
		c1.304,0,2.373,0.337,3.176,1.001C27.295,14.552,26.313,20.455,23.707,24.54z"/>
	<path d="M10.769,27.002c-0.212-0.156-0.424-0.37-0.666-0.567c-0.241-0.2-0.464-0.465-0.724-0.695
		c-0.23-0.274-0.501-0.515-0.735-0.821c-0.25-0.291-0.496-0.592-0.719-0.902c-0.229-0.282-0.483-0.666-0.734-1.024
		c-0.885-1.224-1.435-2.802-1.853-4.027c-0.406-1.273-0.677-2.121-0.677-2.121S4.292,17.72,4.24,19.112
		c-0.035,0.695,0.009,1.515,0.21,2.387c0.198,0.866,0.564,1.802,1.143,2.621c0.258,0.359,0.488,0.713,0.836,1.079
		c0.31,0.374,0.654,0.688,0.995,0.974c0.329,0.3,0.716,0.52,1.05,0.749c0.37,0.188,0.705,0.377,1.046,0.489
		c0.662,0.262,1.248,0.354,1.651,0.394c0.409,0.029,0.64,0.023,0.64,0.023s-0.183-0.156-0.497-0.391
		C11.154,27.328,10.979,27.158,10.769,27.002z"/>
</g>
<g>
</g>
<g>
</g>
<g>
</g>
<g>
</g>
<g>
</g>
<g>
</g>
<g>
</g>
<g>
</g>
<g>
</g>
<g>
</g>
<g>
</g>
<g>
</g>
<g>
</g>
<g>
</g>
<g>
</g>
</svg>
