<?xml version="1.0" encoding="utf-8"?>
<!-- Generator: Adobe Illustrator 16.0.4, SVG Export Plug-In . SVG Version: 6.00 Build 0)  -->
<!DOCTYPE svg PUBLIC "-//W3C//DTD SVG 1.1//EN" "http://www.w3.org/Graphics/SVG/1.1/DTD/svg11.dtd">
<svg version="1.1" id="Layer_1" xmlns="http://www.w3.org/2000/svg" xmlns:xlink="http://www.w3.org/1999/xlink" x="0px" y="0px"
	 width="32px" height="32px" viewBox="0 0 32 32" enable-background="new 0 0 32 32" xml:space="preserve">
<path d="M26.58,7.773c-1.413-0.911-3.053-0.847-4.874-0.594c2.813-1.479,3.521-3.493,3.628-4.887
	c0.033-0.431-0.132-0.853-0.449-1.146c-0.316-0.294-0.75-0.426-1.177-0.36c-3.872,0.599-5.437,3.331-6.039,5.015
	c-0.282-0.868-0.694-1.74-1.286-2.542c-1.064-1.442-2.52-2.438-4.342-2.972c-0.391-0.114-0.811-0.053-1.152,0.168
	c-0.342,0.221-0.571,0.579-0.627,0.982l-0.017,0.119c-0.095,0.686,0.325,1.335,0.99,1.531c1.196,0.353,2.115,0.976,2.792,1.889
	c0.588,0.794,0.924,1.721,1.109,2.61c-2.56-0.542-4.411-2.142-8.197-0.353C3.112,9.04,0.163,13.771,2.377,20.954
	c1.781,5.79,6.019,9.739,8.252,11.045h11.566c2.576-1.542,6.769-5.06,7.871-11.409C31.285,13.556,29.668,9.763,26.58,7.773z
	 M9.787,12.048c-0.349,0.191-3.283,1.929-2.213,5.728c0.219,0.775-0.232,1.58-1.007,1.799C6.434,19.611,6.3,19.628,6.17,19.628
	c-0.638,0-1.222-0.42-1.402-1.063c-1.39-4.933,1.781-8.103,3.651-9.088c0.709-0.376,1.592-0.102,1.969,0.608
	C10.763,10.793,10.493,11.67,9.787,12.048z"/>
</svg>
