<?xml version="1.0" encoding="iso-8859-1"?>
<!-- Generator: Adobe Illustrator 17.1.0, SVG Export Plug-In . SVG Version: 6.00 Build 0)  -->
<!DOCTYPE svg PUBLIC "-//W3C//DTD SVG 1.1//EN" "http://www.w3.org/Graphics/SVG/1.1/DTD/svg11.dtd">
<svg version="1.1" id="Capa_1" xmlns="http://www.w3.org/2000/svg" xmlns:xlink="http://www.w3.org/1999/xlink" x="0px" y="0px"
	 viewBox="0 0 200 200" style="enable-background:new 0 0 200 200;" xml:space="preserve">
<g>
	<path d="M178,109.364c-1.487,0.404-3.049,0.636-4.667,0.636c-3.864,0-7.515-1.223-10.476-3.413
		c-2.962,2.19-6.612,3.413-10.476,3.413c-3.864,0-7.515-1.223-10.476-3.413c-2.962,2.19-6.612,3.413-10.476,3.413
		c-3.864,0-7.515-1.223-10.476-3.413c-2.962,2.19-6.612,3.413-10.476,3.413s-7.515-1.223-10.476-3.413
		c-2.961,2.19-6.612,3.413-10.476,3.413s-7.514-1.223-10.476-3.413c-2.961,2.19-6.612,3.413-10.476,3.413
		c-3.864,0-7.514-1.223-10.476-3.413C55.134,108.777,51.484,110,47.62,110c-3.864,0-7.514-1.223-10.476-3.413
		c-2.961,2.19-6.612,3.413-10.476,3.413c-1.619,0-3.18-0.232-4.667-0.636v15.803h156V109.364z"/>
	<path d="M22,161.5c0,0.285,0.038,0.561,0.084,0.833h155.832c0.046-0.272,0.084-0.548,0.084-0.833v-31.333H22V161.5z"/>
	<path d="M22,104.12c1.44,0.564,3.014,0.88,4.667,0.88c4.434,0,8.309-2.246,10.476-5.603C39.311,102.754,43.186,105,47.62,105
		c4.434,0,8.309-2.246,10.476-5.603c2.167,3.357,6.042,5.603,10.476,5.603c4.434,0,8.309-2.246,10.476-5.603
		C81.215,102.754,85.09,105,89.524,105s8.309-2.246,10.476-5.603c2.167,3.357,6.042,5.603,10.476,5.603s8.309-2.246,10.476-5.603
		c2.167,3.357,6.042,5.603,10.476,5.603c4.434,0,8.309-2.246,10.476-5.603c2.167,3.357,6.042,5.603,10.476,5.603
		c4.434,0,8.309-2.246,10.476-5.603c2.167,3.357,6.042,5.603,10.476,5.603c1.653,0,3.227-0.316,4.667-0.88
		c4.482-1.756,7.642-5.958,7.642-10.87c0-0.492-0.042-0.974-0.104-1.451c0.065-0.248,0.104-0.503,0.104-0.765V75.966
		c0-2.19-2.382-3.966-5.32-3.966h-73.989v-2.5V67V56.895c0-2.761-2.239-5-5-5h-2.667c-2.761,0-5,2.239-5,5V67v2.5V72H19.678
		c-2.938,0-5.32,1.775-5.32,3.966v15.069c0,0.262,0.039,0.517,0.104,0.765c-0.062,0.476-0.104,0.959-0.104,1.451
		C14.358,98.161,17.518,102.364,22,104.12z"/>
	<path d="M183,167.333H17c-2.761,0-5,2.816-5,6.29v0.419c0,3.474,2.239,6.29,5,6.29h166c2.761,0,5-2.816,5-6.29v-0.419
		C188,170.15,185.761,167.333,183,167.333z"/>
	<path d="M101,48.729c0.188,0.007,0.377,0.03,0.562-0.008c5.825-1.204,11.468-8.971,10.279-15.855
		c-1.101-6.376-5.729-9.041-8.407-13.691c-1.11-1.925-1.69-4.503-1.278-7.031c0.267-1.635-0.021-1.892-1.135-0.666
		c-2.86,3.145-6.1,7.279-7.684,10.58c-1.813,3.683-1.984,6.315-0.929,10.254c0.269,0.984,0.546,1.746,0.909,2.502
		c0.638,1.327-0.058,2.37-1.603,1.77c-0.768-0.298-1.474-0.704-2.068-1.184c-1.289-1.041-1.78-1.047-1.427,0.571
		C89.51,41.892,94.922,48.494,101,48.729z"/>
</g>
</svg>
