<?xml version="1.0" encoding="iso-8859-1"?>
<!-- Generator: Adobe Illustrator 17.0.0, SVG Export Plug-In . SVG Version: 6.00 Build 0)  -->
<!DOCTYPE svg PUBLIC "-//W3C//DTD SVG 1.1//EN" "http://www.w3.org/Graphics/SVG/1.1/DTD/svg11.dtd">
<svg version="1.1" id="Capa_1" xmlns="http://www.w3.org/2000/svg" xmlns:xlink="http://www.w3.org/1999/xlink" x="0px" y="0px"
	 width="64px" height="64px" viewBox="0 0 64 64" style="enable-background:new 0 0 64 64;" xml:space="preserve">
<g>
	<path d="M12.086,48.467C8.593,49.774,6.5,51.431,6.5,53.236c0,4.219,11.417,7.639,25.5,7.639s25.5-3.42,25.5-7.639
		c0-1.805-2.093-3.462-5.586-4.769c-1.187,1.09-2.465,2.08-3.818,2.966c2.181,0.589,3.765,1.235,4.703,1.803
		c-2.532,1.532-9.751,3.639-20.799,3.639s-18.267-2.108-20.799-3.639c0.938-0.567,2.523-1.214,4.703-1.803
		C14.551,50.547,13.273,49.557,12.086,48.467z"/>
	<path d="M3.529,26.764c0,8.492,3.722,16.111,9.619,21.327c1.263,1.118,2.623,2.129,4.071,3.011
		c4.309,2.622,9.368,4.133,14.781,4.133s10.472-1.511,14.781-4.133c1.448-0.881,2.808-1.893,4.071-3.011
		c5.897-5.216,9.619-12.835,9.619-21.327H3.529z"/>
	<path d="M17.988,2.716c-2.673,2-3.701,4.681-2.4,7.861c0.723,1.766,4.515,6.008,2.894,7.78c-2.172,2.373,1.355,5.919,3.536,3.536
		c2.163-2.364,2.345-5.167,1.009-8.019c-0.651-1.388-4.217-5.567-2.515-6.84C23.061,5.127,20.573,0.783,17.988,2.716z"/>
	<path d="M29.988,2.716c-2.673,2-3.701,4.681-2.4,7.861c0.723,1.766,4.515,6.008,2.894,7.78c-2.172,2.373,1.355,5.919,3.536,3.536
		c2.163-2.364,2.345-5.167,1.009-8.019c-0.651-1.388-4.217-5.567-2.515-6.84C35.061,5.127,32.573,0.783,29.988,2.716z"/>
	<path d="M41.988,2.716c-2.673,2-3.701,4.681-2.4,7.861c0.723,1.766,4.515,6.008,2.894,7.78c-2.172,2.373,1.355,5.919,3.536,3.536
		c2.163-2.364,2.345-5.167,1.009-8.019c-0.651-1.388-4.217-5.567-2.515-6.84C47.061,5.127,44.573,0.783,41.988,2.716z"/>
</g>
</svg>
