<?xml version="1.0" encoding="iso-8859-1"?>
<!-- Generator: Adobe Illustrator 16.0.4, SVG Export Plug-In . SVG Version: 6.00 Build 0)  -->
<!DOCTYPE svg PUBLIC "-//W3C//DTD SVG 1.1//EN" "http://www.w3.org/Graphics/SVG/1.1/DTD/svg11.dtd">
<svg version="1.1" id="Capa_1" xmlns="http://www.w3.org/2000/svg" xmlns:xlink="http://www.w3.org/1999/xlink" x="0px" y="0px"
	 width="300px" height="300px" viewBox="0 0 300 300" style="enable-background:new 0 0 300 300;" xml:space="preserve">
<path d="M276.605,78.31C242.348,41.366,144.708,26.321,94.174,56.441l0.001,0c-27.141-1.582-31.787,47.159-6.008,50.732
	L72.821,235.183c-0.628,5.24,1.804,10.161,5.876,12.977l-4.253-0.511c-7.538-0.896-12.939-7.784-12.039-15.306l15.35-128.015
	c-25.777-3.571-21.134-52.311,6.01-50.729c25.986-15.495,64.441-19.035,100.322-13.794C138.63,22.116,59.572,30.986,22.878,65.595v0
	c-25.976,4.203-20.126,51.221,4.971,49.187l12.376,124.152c0.727,7.301,7.282,12.67,14.578,11.938l24.344-2.425
	c1.68,1.067,3.606,1.798,5.707,2.05l154.058,18.466c7.828,0.939,14.975-4.682,15.912-12.509l15.281-127.472
	C296.703,132.267,304.17,82.594,276.605,78.31z M162.156,95.95c0.332-2.78,2.857-4.765,5.639-4.431
	c2.779,0.333,4.764,2.858,4.43,5.638c-0.333,2.783-2.857,4.767-5.639,4.434C163.807,101.258,161.822,98.733,162.156,95.95z
	 M113.839,174.001c0.314-2.626,2.719-4.515,5.332-4.201c2.639,0.315,4.528,2.72,4.213,5.346c-0.313,2.612-2.718,4.503-5.356,4.187
	C115.416,179.019,113.526,176.613,113.839,174.001z M127.082,213.751c-0.315,2.626-2.718,4.503-5.343,4.187
	c-2.626-0.313-4.517-2.705-4.201-5.33c0.315-2.639,2.72-4.527,5.346-4.214C125.509,208.709,127.398,211.112,127.082,213.751z
	 M127.021,97.657c-4.963-0.596-8.528-5.112-7.933-10.075c0.596-4.965,5.128-8.525,10.09-7.93c4.963,0.594,8.514,5.123,7.918,10.089
	C136.501,94.703,131.983,98.251,127.021,97.657z M133.861,166.185c0.315-2.636,2.708-4.517,5.334-4.202s4.503,2.708,4.187,5.344
	c-0.314,2.625-2.705,4.506-5.329,4.191C135.428,171.203,133.546,168.809,133.861,166.185z M143.549,205.242
	c-0.183,1.527-1.576,2.635-3.116,2.449c-1.538-0.186-2.629-1.59-2.446-3.116c0.185-1.536,1.577-2.64,3.114-2.456
	C142.642,202.304,143.733,203.705,143.549,205.242z M167.027,143.846c-5.188-0.621-8.906-5.363-8.285-10.541
	c0.621-5.19,5.354-8.908,10.541-8.286c5.18,0.62,8.898,5.352,8.276,10.54C176.938,140.739,172.206,144.468,167.027,143.846z
	 M177.558,187.277c0.316-2.635,2.71-4.515,5.331-4.201c2.626,0.314,4.508,2.707,4.191,5.344c-0.314,2.625-2.71,4.516-5.334,4.201
	C179.123,192.307,177.243,189.903,177.558,187.277z M187.646,219.654c-0.315,2.625-2.72,4.516-5.345,4.201
	c-2.639-0.316-4.516-2.721-4.201-5.345c0.312-2.612,2.705-4.503,5.344-4.188C186.068,214.639,187.958,217.041,187.646,219.654z
	 M199.914,101.554c-4.533-0.543-7.77-4.673-7.229-9.193c0.544-4.535,4.662-7.769,9.195-7.226c4.533,0.543,7.771,4.659,7.227,9.195
	C208.566,98.85,204.446,102.097,199.914,101.554z M215.986,131.03c-0.463,3.863-3.99,6.637-7.846,6.175
	c-3.877-0.465-6.649-3.993-6.187-7.858c0.464-3.877,3.991-6.64,7.868-6.175C213.678,123.634,216.451,127.153,215.986,131.03z
	 M225.638,214.806c-0.249,2.075-2.145,3.554-4.22,3.305c-2.079-0.249-3.559-2.132-3.31-4.207c0.249-2.077,2.132-3.558,4.21-3.31
	C224.393,210.844,225.886,212.729,225.638,214.806z M233.043,168.67c-0.249,2.074-2.146,3.557-4.22,3.309
	c-2.075-0.25-3.559-2.137-3.31-4.211c0.25-2.074,2.136-3.558,4.211-3.309C231.799,164.707,233.291,166.596,233.043,168.67z
	 M244.492,104.477c-0.25,2.078-2.135,3.571-4.213,3.321c-2.074-0.248-3.566-2.146-3.316-4.224c0.248-2.065,2.145-3.554,4.219-3.305
	C243.26,100.519,244.738,102.411,244.492,104.477z"/>
</svg>
