<?xml version="1.0" encoding="iso-8859-1"?>
<!-- Generator: Adobe Illustrator 16.0.0, SVG Export Plug-In . SVG Version: 6.00 Build 0)  -->
<!DOCTYPE svg PUBLIC "-//W3C//DTD SVG 1.1//EN" "http://www.w3.org/Graphics/SVG/1.1/DTD/svg11.dtd">
<svg version="1.1" id="Layer_1" xmlns="http://www.w3.org/2000/svg" xmlns:xlink="http://www.w3.org/1999/xlink" x="0px" y="0px"
	 width="500px" height="500px" viewBox="0 0 500 500" style="enable-background:new 0 0 500 500;" xml:space="preserve">
<g>
	<path d="M486.152,13.872c-7.916-7.905-19.33-11.914-33.926-11.914c-39.038,0-98.305,28.232-166.922,79.487
		C211.833,134,116.5,238.5,91.524,272.097C12.841,373.282-16.901,455.268,13.917,486.077c7.924,7.948,19.362,11.965,33.952,11.965
		h0.015c60.561,0,171.379-70.106,275.742-174.485c63.721-63.739,115.58-130.433,146.084-187.821
		C500.62,77.476,506.458,34.199,486.152,13.872z M168.987,356.945c-17.072-5.681-38.098-16.131-59.227-29.42
		c-9.352-5.869-18.583-12.334-27.483-19.224c5.559-7.807,11.49-15.792,17.641-23.817c9.113,4.69,18.245,9.916,27.173,15.52
		c21.081,13.26,39.613,27.702,52.153,40.671c12.526,12.944,13.714,18.923,13.852,20.076
		C191.956,361.191,186.918,362.939,168.987,356.945z M304.638,246.861c-0.234,0.338-2.095,1.601-7.405,1.601
		c-4.698,0-13.307-1.012-27.634-5.763c-22.948-7.645-51.18-21.68-79.491-39.502c-4.072-2.546-8.088-5.245-12.16-7.991
		c11.509-11.796,23.32-23.356,35.097-34.38c0.902,0.565,1.793,1.111,2.691,1.671c28.294,17.798,53.159,37.2,69.995,54.575
		C302.771,234.693,305.839,244.912,304.638,246.861z M386.914,120.626c0,0-1.013,0.659-4.183,0.659
		c-3.357,0-9.596-0.75-20.233-4.276c-17.058-5.685-38.074-16.123-59.21-29.433c-0.425-0.275-0.832-0.533-1.24-0.797
		c9.832-7.143,19.513-13.874,28.856-19.97C373.396,95.481,388.082,117.966,386.914,120.626z"/>
</g>
</svg>
