<?xml version="1.0" encoding="iso-8859-1"?>
<!-- Generator: Adobe Illustrator 16.0.0, SVG Export Plug-In . SVG Version: 6.00 Build 0)  -->
<!DOCTYPE svg PUBLIC "-//W3C//DTD SVG 1.1//EN" "http://www.w3.org/Graphics/SVG/1.1/DTD/svg11.dtd">
<svg version="1.1" id="Capa_1" xmlns="http://www.w3.org/2000/svg" xmlns:xlink="http://www.w3.org/1999/xlink" x="0px" y="0px"
	 width="500px" height="500px" viewBox="0 0 500 500" style="enable-background:new 0 0 500 500;" xml:space="preserve">
<g>
	<path d="M452.858,149.939h-0.038c0-51.819-90.47-114.412-202.816-114.412c-112.374,0-202.863,62.574-202.863,114.412v11.486
		h405.717V149.939z M72.663,138.405c14.183-35.223,88.206-79.79,177.361-79.79c89.108,0,163.18,44.567,177.344,79.79H72.663z"/>
	<path d="M47.123,350.088c0,37.119,0,114.385,122.105,114.385c1.541,0,154.556-0.02,157.037-0.096
		c126.575-3.004,126.575-75.422,126.575-114.289v-11.553H47.123V350.088z M429.658,361.642
		c-0.867,36.965-9.859,77.453-103.901,79.706c-3.663,0.038-149.043,0.074-156.548,0.074c-84.074,0-97.251-36.518-98.83-79.78
		H429.658z"/>
	<path d="M350.436,180.55c-8.205-6.26-18.417-14.05-37.525-14.05s-29.319,7.79-37.524,14.05c-7.287,5.56-13.043,9.95-25.394,9.95
		c-12.35,0-18.105-4.391-25.392-9.95c-8.204-6.26-18.415-14.05-37.523-14.05c-19.107,0-29.318,7.79-37.522,14.05
		c-7.286,5.56-13.042,9.95-25.39,9.95c-12.35,0-18.105-4.391-25.392-9.95c-8.204-6.26-18.415-14.05-37.523-14.05v20
		c12.35,0,18.105,4.392,25.392,9.95c8.204,6.26,18.415,14.05,37.523,14.05c19.107,0,29.318-7.79,37.522-14.05
		c7.286-5.559,13.042-9.95,25.39-9.95c12.35,0,18.105,4.392,25.392,9.95c8.204,6.26,18.415,14.05,37.523,14.05
		c19.108,0,29.319-7.79,37.524-14.049c7.287-5.56,13.043-9.951,25.394-9.951s18.107,4.392,25.395,9.951
		c8.205,6.259,18.417,14.049,37.525,14.049s29.32-7.79,37.525-14.049c7.287-5.56,13.044-9.951,25.395-9.951v-20
		c-19.108,0-29.32,7.79-37.525,14.05c-7.287,5.56-13.044,9.95-25.395,9.95C363.479,190.5,357.723,186.109,350.436,180.55z"/>
	<path d="M445.063,219.056l-390.397,0.212c-29.108,0.057-52.618,23.727-52.515,52.769c0.057,29.098,23.698,52.617,52.758,52.543
		l390.397,0.131c29.099-0.095,52.654-24.834,52.542-53.933C497.774,241.752,474.142,218.98,445.063,219.056z M451.941,295.42
		c-20.443,0-31.369-8.333-40.148-15.03c-7.796-5.948-13.955-10.646-27.169-10.646c-13.215,0-19.373,4.698-27.169,10.646
		c-8.778,6.697-19.704,15.03-40.148,15.03c-20.443,0-31.368-8.333-40.146-15.03c-7.797-5.948-13.955-10.646-27.168-10.646
		c-13.213,0-19.371,4.698-27.167,10.646c-8.778,6.697-19.702,15.03-40.146,15.03c-20.443,0-31.367-8.333-40.145-15.03
		c-7.795-5.948-13.953-10.646-27.165-10.646c-13.212,0-19.37,4.698-27.167,10.646c-8.778,6.697-19.702,15.03-40.146,15.03v-21.397
		c13.213,0,19.37-4.697,27.167-10.645c8.778-6.697,19.702-15.032,40.146-15.032c20.443,0,31.367,8.335,40.145,15.032
		c7.795,5.947,13.953,10.645,27.165,10.645c13.212,0,19.37-4.697,27.167-10.645c8.777-6.697,19.702-15.032,40.146-15.032
		c20.444,0,31.369,8.335,40.147,15.031c7.796,5.948,13.954,10.646,27.168,10.646s19.373-4.697,27.17-10.646
		c8.778-6.696,19.704-15.031,40.147-15.031c20.444,0,31.369,8.335,40.148,15.031c7.796,5.948,13.955,10.646,27.169,10.646V295.42z"
		/>
</g>
</svg>
