<?xml version="1.0" encoding="iso-8859-1"?>
<!-- Generator: Adobe Illustrator 16.0.0, SVG Export Plug-In . SVG Version: 6.00 Build 0)  -->
<!DOCTYPE svg PUBLIC "-//W3C//DTD SVG 1.1//EN" "http://www.w3.org/Graphics/SVG/1.1/DTD/svg11.dtd">
<svg version="1.1" xmlns="http://www.w3.org/2000/svg" xmlns:xlink="http://www.w3.org/1999/xlink" x="0px" y="0px" width="33.24px"
	 height="35.928px" viewBox="0 0 33.24 35.928" style="enable-background:new 0 0 33.24 35.928;" xml:space="preserve">
<g id="b28_carrot">
	<path d="M22.43,18.125c0,0-0.005-0.01-0.016-0.025c-0.228,0.262-0.462,0.533-0.707,0.811L22.43,18.125z"/>
	<path d="M24.568,7.388c-3.971-3.473-7.102,0.334-7.102,0.334s3.401,2.491,2.824,4.317c-1.183-0.128-3.497-3.14-3.707-3.352
		c-1.406,1.466-3.147,3.493-5.445,6.167c-2.073,2.412-3.837,4.75-5.31,6.944c0.701,0.411,1.455,1.223,1.853,2.826l-2.285-2.16
		c-4.13,6.317-5.791,11.363-5.318,13.431c1.655,0.233,4.194-0.771,7.296-2.927L4.638,30.38c0,0,2.082-0.194,3.127,2.321
		c3.319-2.372,7.254-6.033,11.446-10.912c0.913-1.063,1.741-2.013,2.496-2.878l-0.224,0.245l-2.643-2.655
		c1.885-0.714,3.403,1.358,3.573,1.599C27.896,11.815,28.543,10.803,24.568,7.388z M12.718,17.517c0,0,2.57-0.253,3.434,3.247
		L12.718,17.517z"/>
	<path d="M30.721,5.498l-2.915,0.119l1.829-1.987c0.311-0.335,1.084-1.376,0.752-1.684c-0.334-0.307-1.65,0.236-1.959,0.57
		l-1.833,1.987l-0.11-2.701C26.466,1.349,26.152-0.019,25.698,0c-0.457,0.018-0.873,1.416-0.856,1.87l0.194,4.683
		c-0.004,0.004,0.001,0.009,0.003,0.013c0.006,0.103,0.028,0.203,0.071,0.297c0.094,0.198,0.258,0.351,0.462,0.427
		c0.099,0.035,0.202,0.051,0.304,0.047c0.004,0.001,0.008,0.004,0.013,0.002c0.005,0.002,0.01-0.002,0.014-0.003
		C25.937,7.335,25.968,7.32,26,7.315c0.037,0.003,0.069,0.018,0.105,0.016L30.79,7.14c0.453-0.018,2.468-0.052,2.45-0.507
		C33.221,6.179,31.176,5.479,30.721,5.498z"/>
</g>
<g id="Capa_1">
</g>
</svg>
