<?xml version="1.0" encoding="iso-8859-1"?>
<!-- Generator: Adobe Illustrator 17.0.0, SVG Export Plug-In . SVG Version: 6.00 Build 0)  -->
<!DOCTYPE svg PUBLIC "-//W3C//DTD SVG 1.1//EN" "http://www.w3.org/Graphics/SVG/1.1/DTD/svg11.dtd">
<svg version="1.1" id="Capa_1" xmlns="http://www.w3.org/2000/svg" xmlns:xlink="http://www.w3.org/1999/xlink" x="0px" y="0px"
	 width="64px" height="64px" viewBox="0 0 64 64" style="enable-background:new 0 0 64 64;" xml:space="preserve">
<g>
	<path d="M36.424,32.234c-2.634,0-5.149-0.18-7.508-0.514v21.683c0.274-0.006,0.548-0.01,0.825-0.01h13.365
		c10.238,0,18.538-8.3,18.538-18.538v-6.707c0-1.635-0.233-3.212-0.63-4.722C57.743,28.65,48.255,32.234,36.424,32.234z"/>
	<path d="M37.363,19.636c-0.021,0.065-0.05,0.123-0.083,0.182c-0.019,0.033-0.024,0.07-0.047,0.102l-7.13,9.818
		c-0.004,0.007-0.01,0.013-0.014,0.019l-0.055,0.076c2.034,0.259,4.175,0.4,6.39,0.4c12.167,0,22.196-4.174,23.638-9.563
		c0.117-0.439,0.185-0.885,0.185-1.338c0-6.02-10.666-10.901-23.823-10.901s-23.823,4.88-23.823,10.901
		c0,0.453,0.068,0.899,0.185,1.338c0.528,1.972,2.203,3.781,4.716,5.282l18.545-7.546c0.032-0.013,0.066-0.009,0.099-0.019
		c0.07-0.021,0.138-0.036,0.212-0.041c0.061-0.004,0.119-0.001,0.179,0.006c0.066,0.008,0.128,0.019,0.192,0.04
		c0.064,0.021,0.121,0.049,0.179,0.082c0.034,0.019,0.072,0.024,0.104,0.048c0.022,0.016,0.032,0.04,0.053,0.057
		c0.05,0.042,0.09,0.091,0.132,0.144c0.043,0.055,0.082,0.109,0.113,0.17c0.011,0.023,0.031,0.038,0.041,0.062
		c0.014,0.035,0.01,0.071,0.02,0.106c0.019,0.068,0.034,0.133,0.039,0.203c0.004,0.064,0.001,0.124-0.006,0.186
		C37.395,19.515,37.383,19.575,37.363,19.636z"/>
	<path d="M27.381,31.48l-0.004-0.134l-0.007-0.227l-0.002-0.072l-0.02-0.61l-0.009-0.297l-0.023-0.734l-0.069-2.15l-0.08,0.003
		c0.328-0.131,0.513-0.205,0.515-0.206c0.058-0.035,1.751-0.728,2.476-1.069c0.109-0.051,0.196-0.086,0.296-0.132l3.104-4.273
		l-13.71,5.579c0.006,0.003,0.012,0.005,0.018,0.008c-0.167,0.064-0.335,0.126-0.503,0.19c-0.271,0.103-0.542,0.207-0.814,0.307
		c-0.415,0.153-0.835,0.292-1.254,0.435c-0.03,0.01-0.06,0.021-0.089,0.031c-0.036-0.02-0.073-0.04-0.109-0.06
		c-0.184-0.045-0.35-0.141-0.483-0.28c-2.123-1.254-3.755-2.727-4.779-4.362c-0.397,1.51-0.63,3.087-0.63,4.722v4.875l-5.261,2.042
		l-2,0.776L3.42,36.043l0.204,0.208l-0.292-0.082l0.61,12.922l0.002,0.041l0.069,0.111c0.557,0.887,1.219,1.695,1.929,2.463
		c3.112,3.367,7.609,5.581,13.024,6.303l0.004,0.134l0.515-0.033c0.048-0.003,0.093-0.009,0.134-0.016l0.353,0.046l-0.008-0.212
		c0.072-0.076,0.099-0.166,0.111-0.254l0.493-1.003l1.46-2.969l4.888-9.943l0.806-1.639l-0.327-10.232L27.381,31.48z M20.384,53.648
		l-0.529,1.076l-0.038-1.132l-0.419-12.399l5.539-10.214l0.505-0.932l0.37-0.682l0.025,0.77l0.034,1.051l0.34,10.612L20.384,53.648z
		"/>
</g>
</svg>
