<?xml version="1.0" encoding="iso-8859-1"?>
<!-- Generator: Adobe Illustrator 16.0.0, SVG Export Plug-In . SVG Version: 6.00 Build 0)  -->
<!DOCTYPE svg PUBLIC "-//W3C//DTD SVG 1.1//EN" "http://www.w3.org/Graphics/SVG/1.1/DTD/svg11.dtd">
<svg version="1.1" id="Layer_1" xmlns="http://www.w3.org/2000/svg" xmlns:xlink="http://www.w3.org/1999/xlink" x="0px" y="0px"
	 width="32px" height="27.332px" viewBox="0 0 32 27.332" style="enable-background:new 0 0 32 27.332;" xml:space="preserve">
<g>
	<path d="M9.317,12.999v6.804c0,0.555,0.45,1.004,1.005,1.004h13.287c0.555,0,1.004-0.449,1.004-1.004v-7.321
		c1.212-0.608,2.232-1.446,2.841-2.591c1.253-2.357,1.351-4.64,0.277-6.428c-1.072-1.782-3.164-2.804-5.742-2.804
		c-1.844,0-3.495,0.809-4.847,1.833c-1.207-1.336-3.537-2.555-6.027-2.49c-1.608,0.042-3.888,0.637-5.624,3.24
		C4.598,4.583,4.324,5.999,4.677,7.453C5.345,10.201,8.142,12.245,9.317,12.999z M7.164,4.357c1.01-1.515,2.357-2.304,4.003-2.346
		c1.793-0.042,3.603,0.851,4.471,1.81c-1.37,1.386-2.197,2.727-2.267,2.844c-0.288,0.473-0.137,1.09,0.337,1.379
		c0.474,0.288,1.091,0.138,1.38-0.337c0.03-0.05,3.116-5.037,6.901-5.037c1.855,0,3.32,0.667,4.019,1.828
		c0.697,1.159,0.58,2.739-0.329,4.448c-1.665,3.132-8.769,3.258-11.367,3.043c-0.551-0.049-1.039,0.366-1.084,0.918
		c-0.046,0.554,0.364,1.04,0.917,1.086c0.112,0.009,0.87,0.068,1.979,0.068c1.691,0,4.199-0.14,6.479-0.806v5.541H11.327v-6.363
		c0-0.365-0.198-0.701-0.517-0.879c-0.035-0.02-3.559-2.009-4.181-4.581C6.413,6.079,6.588,5.223,7.164,4.357z"/>
	<path d="M0,22.2v1.66c0,0,4.84-0.093,5.914-0.093c1.073,0,2.693,3.564,3.726,3.564c1.033,0,11.079,0,12.456,0
		s3.221-3.564,4.477-3.564s5.428,0,5.428,0v-1.661L0,22.2z"/>
</g>
<g>
</g>
<g>
</g>
<g>
</g>
<g>
</g>
<g>
</g>
<g>
</g>
<g>
</g>
<g>
</g>
<g>
</g>
<g>
</g>
<g>
</g>
<g>
</g>
<g>
</g>
<g>
</g>
<g>
</g>
</svg>
