<?xml version="1.0" encoding="utf-8"?>
<!-- Generator: Adobe Illustrator 16.0.0, SVG Export Plug-In . SVG Version: 6.00 Build 0)  -->
<!DOCTYPE svg PUBLIC "-//W3C//DTD SVG 1.1//EN" "http://www.w3.org/Graphics/SVG/1.1/DTD/svg11.dtd">
<svg version="1.1" id="Capa_1" xmlns="http://www.w3.org/2000/svg" xmlns:xlink="http://www.w3.org/1999/xlink" x="0px" y="0px"
	 width="100px" height="100px" viewBox="0 0 100 100" enable-background="new 0 0 100 100" xml:space="preserve">
<g>
	<path d="M82.121,67.161c-0.844,0-1.592,0.328-2.106,0.93c-0.445,0.52-0.689,1.206-0.689,1.928c0,1.385,0.98,2.858,2.796,2.858
		c0.845,0,1.591-0.33,2.108-0.931c0.445-0.52,0.689-1.203,0.689-1.928C84.922,68.634,83.939,67.161,82.121,67.161z"/>
	<path d="M84.931,61.542c-0.448,0.52-0.692,1.203-0.692,1.929c0,1.384,0.98,2.857,2.798,2.857c0.846,0,1.592-0.33,2.106-0.932
		c0.445-0.518,0.691-1.203,0.691-1.925c0-1.386-0.98-2.858-2.798-2.858C86.19,60.612,85.442,60.941,84.931,61.542z"/>
	<path d="M84.172,53.544c-0.446,0.518-0.689,1.203-0.689,1.926c0,1.386,0.979,2.859,2.797,2.859c0.845,0,1.592-0.329,2.107-0.931
		c0.445-0.52,0.689-1.204,0.689-1.929c0-1.385-0.979-2.856-2.797-2.856C85.436,52.614,84.688,52.943,84.172,53.544z"/>
	<path d="M81.465,60.836c0-1.385-0.98-2.857-2.798-2.857c-0.844,0-1.591,0.328-2.107,0.931c-0.445,0.519-0.689,1.204-0.689,1.927
		c0,1.386,0.979,2.857,2.797,2.857c0.844,0,1.592-0.328,2.107-0.93C81.22,62.244,81.465,61.56,81.465,60.836z"/>
	<path d="M48.18,67.444c0.844,0,1.591-0.329,2.107-0.93c0.447-0.52,0.69-1.204,0.69-1.928c0-1.386-0.98-2.857-2.798-2.857
		c-0.844,0-1.591,0.328-2.107,0.93c-0.446,0.519-0.691,1.203-0.691,1.927C45.382,65.972,46.362,67.444,48.18,67.444z"/>
	<path d="M52.786,52.85c0.845,0,1.593-0.331,2.107-0.931c0.445-0.517,0.691-1.2,0.691-1.926c0-1.385-0.98-2.858-2.799-2.858
		c-0.845,0-1.591,0.331-2.106,0.931c-0.447,0.519-0.691,1.202-0.691,1.927C49.989,51.378,50.97,52.85,52.786,52.85z"/>
	<path d="M52.048,55.622c-0.445,0.52-0.691,1.203-0.691,1.928c0,1.385,0.98,2.857,2.798,2.857c0.846,0,1.592-0.329,2.106-0.931
		c0.447-0.518,0.692-1.203,0.692-1.926c0-1.385-0.981-2.857-2.799-2.857C53.31,54.691,52.562,55.021,52.048,55.622z"/>
	<path d="M41.426,67.68c0.844,0,1.591-0.328,2.107-0.931c0.447-0.518,0.692-1.203,0.692-1.926c0-1.386-0.981-2.859-2.798-2.859
		c-0.844,0-1.591,0.329-2.107,0.931c-0.446,0.52-0.691,1.205-0.691,1.929C38.628,66.208,39.608,67.68,41.426,67.68z"/>
	<path d="M74.936,65.604c-0.846,0-1.593,0.328-2.107,0.931c-0.445,0.518-0.691,1.203-0.691,1.927c0,1.385,0.981,2.858,2.799,2.858
		c0.844,0,1.591-0.329,2.106-0.931c0.446-0.518,0.691-1.204,0.691-1.927C77.734,67.074,76.752,65.604,74.936,65.604z"/>
	<path d="M79.87,55.212c0.848,0,1.593-0.329,2.107-0.93c0.446-0.519,0.692-1.204,0.692-1.927c0-1.385-0.981-2.857-2.8-2.857
		c-0.844,0-1.591,0.331-2.106,0.931c-0.444,0.518-0.69,1.201-0.69,1.927C77.073,53.738,78.054,55.212,79.87,55.212z"/>
	<path d="M91.293,41.073C85.98,32.431,78.625,25.22,68.927,21.736c-10.2-3.667-19.62-2.036-27.636,2.738
		c-0.696-0.603-1.429-1.348-2.137-2.261c0.584-2.38,0.228-4.431-1.029-5.827c-1.238-1.378-3.175-2.2-5.181-2.2
		c-2.165,0-3.742,0.576-4.923,2.147c-0.797,1.062-1.489,2.877-1.669,4.549c-2.608,0.433-5.181,1.943-5.911,4.273
		c-0.697,2.228,0.324,4.824,2.598,6.215c2.464,1.507,7.075,0.364,7.401,0.285c0.069,0.043,0.741,0.442,1.268,0.786
		c-2.492,2.726-5.004,5.781-6.567,8.352c-0.892-0.343-3.282-1.6-5.429-4.37c0.584-2.38,0.227-4.43-1.029-5.827
		c-1.238-1.377-3.175-2.199-5.182-2.199c-2.165,0-3.742,0.576-4.923,2.147c-0.796,1.061-1.489,2.877-1.669,4.548
		c-2.608,0.433-5.181,1.943-5.91,4.273c-0.697,2.227,0.323,4.823,2.598,6.214c2.463,1.508,7.075,0.364,7.4,0.286
		c0.11,0.067,0.233,0.142,0.364,0.218c0.413,0.246,1.38,0.821,1.533,1.029c0.046,0.125,0.045,0.129-0.02,0.332
		c-0.205,0.638-0.278,1.355,0.569,2.272c0.611,0.661,1.471,1.09,2.301,1.504c0.542,0.27,1.056,0.526,1.417,0.807
		c0.721,0.563,1.404,1.174,2.063,1.816c-3.993,7.396-5.786,18.979,0.857,25.28c4.774,4.527,13.25,5.448,19.469,6.477
		c8.716,1.44,18.43,1.27,27.219,0.488c11.061-0.985,24.565-3.057,30.594-13.213C103.354,62.784,96.688,49.848,91.293,41.073z
		 M26.879,28.089c-1.137,0-2.252-0.462-2.08-1.521c0.236-1.445,2.237-2.137,4.117-1.715c1.115,0.251,2.944-0.91,2.371-2.619
		c-0.696-1.578-0.691-2.958,0.641-3.523c1.352-0.572,2.345-0.065,2.708,0.413c0.499,0.657,0.47,1.573-0.094,2.974
		c-0.257,0.641-0.216,1.323,0.113,1.899c0.152,0.414,2.014,1.872,2.603,2.443c-0.86,0.846-1.796,1.784-2.731,2.76
		c-0.783-0.601-1.525-1.34-2.449-1.784C30.805,26.804,27.7,28.089,26.879,28.089z M15.085,43.41
		c-0.783-0.601-1.525-1.34-2.449-1.784c-1.274-0.612-4.377,0.675-5.199,0.675c-1.137,0-2.252-0.463-2.08-1.522
		c0.236-1.447,2.238-2.137,4.118-1.715c1.115,0.251,2.943-0.91,2.37-2.62c-0.695-1.578-0.69-2.957,0.641-3.521
		c1.353-0.573,2.346-0.065,2.708,0.413c0.5,0.656,0.47,1.573-0.093,2.974c-0.258,0.64-0.217,1.324,0.112,1.899
		c0.153,0.414,2.014,1.871,2.604,2.443C16.957,41.498,16.02,42.433,15.085,43.41z M17.79,47.148l3.292-3.513
		c1.857,1.381,3.981,2.054,6.463,2.054c2.193,0,4.448-0.511,6.568-1.036c5.366-1.324,9.746-1.708,13.5-1.193
		c3.522,0.482,8.134,2.064,10.106,6.86c1.984,4.833,1.161,10.214-2.15,14.038c-3.4,3.931-8.379,5.823-13.047,4.915
		c-3.519-0.688-6.704-2.685-9.735-6.104c-1.407-1.589-2.755-3.324-4.06-5.002C25.577,54.11,22.328,49.93,17.79,47.148z
		 M88.957,75.679c-7.163,4.695-19.717,6.317-28.206,6.652c-12.743,0.504-33.09-1.475-38.542-6.843
		c-2.344-2.309-4.037-10.424,0.024-18.303c0.921,1.13,1.805,2.295,2.677,3.445c2.913,3.84,5.923,7.812,10.216,10.411
		c2.968,1.799,6.352,2.747,9.785,2.747c0.001,0,0.001,0,0.002,0c6.593,0,12.504-3.391,15.811-9.072
		c2.72-4.674,3.203-10.418,1.297-15.371c-1.783-4.62-5.349-7.987-10.042-9.479c-3.834-1.218-8.237-1.383-14.118-0.476
		c-1.315,0.203-2.658,0.539-3.959,0.864c-1.296,0.324-2.617,0.641-3.903,0.834c9.017-12.957,23.832-22.174,39.699-14.494
		c6.839,3.309,13.935,11.231,18.287,17.296C94.313,52.706,100.368,68.196,88.957,75.679z"/>
</g>
</svg>
