<?xml version="1.0" encoding="utf-8"?>
<!-- Generator: Adobe Illustrator 17.1.0, SVG Export Plug-In . SVG Version: 6.00 Build 0)  -->
<!DOCTYPE svg PUBLIC "-//W3C//DTD SVG 1.1//EN" "http://www.w3.org/Graphics/SVG/1.1/DTD/svg11.dtd">
<svg version="1.1" xmlns="http://www.w3.org/2000/svg" xmlns:xlink="http://www.w3.org/1999/xlink" x="0px" y="0px"
	 viewBox="0 0 64 64" enable-background="new 0 0 64 64" xml:space="preserve">
<g id="Imagenes">
</g>
<g id="Layer_2">
	<path d="M7.551,45.513c1.896,1.5,3.875,2.807,5.909,3.936c2.692-3.484,4.227-6.722,5.171-9.719
		c-2.631,0.225-5.576,0.209-8.926-0.163C7.516,39.11,2.061,41.17,7.551,45.513z"/>
	<path d="M54.486,49.588c5.742-3.715,2.157-11.947-2.804-16.341c-1.225-1.085-2.34-1.888-3.379-2.467
		c-1.361,6.963-5.106,13.887-10.696,19.688c-1.552,1.611-3.208,3.091-4.949,4.444C40.823,55.312,48.61,53.391,54.486,49.588z
		 M49.788,34.847c0.971-0.437,2.584,1.044,3.604,3.309c1.02,2.265,1.06,4.455,0.089,4.892c-0.971,0.437-2.584-1.044-3.604-3.309
		C48.857,37.474,48.817,35.284,49.788,34.847z"/>
	<path d="M9.984,56.201c-1.574,1.221-3.308,5.711,1.188,5.711c0.55,0,1.195-0.067,1.944-0.216c6.187-1.23,11.751-3.733,16.498-7.04
		c9.093-6.335,15.176-15.635,16.814-24.696c0.082-0.455,0.154-0.909,0.214-1.363c0.448-3.4-1.495-5.745-4.366-7.126
		c-0.603,0.769-1.242,1.508-1.921,2.196c0.519,0.497,0.785,1.011,0.656,1.456c-0.296,1.022-2.47,1.291-4.856,0.6
		c-2.386-0.691-4.079-2.081-3.783-3.103c0.206-0.711,1.328-1.047,2.789-0.96c0.197-0.475,0.415-1.037,0.644-1.679
		c-0.263-0.01-0.526-0.022-0.788-0.022c-0.896,0-1.783,0.061-2.636,0.182c-12.166,1.724-8.582,8.845-11.59,19.344
		c-0.95,3.317-2.571,6.971-5.543,10.899C13.826,52.263,12.109,54.202,9.984,56.201z"/>
	<path d="M37.168,19.08c-0.107,0.337-0.215,0.664-0.322,0.971c-0.227,0.651-0.448,1.232-0.651,1.732
		c-0.525,1.294-0.919,2.043-0.919,2.043l2.517,0.788c0.616-0.474,1.205-1.003,1.77-1.569c0.619-0.62,1.206-1.288,1.761-1.985
		c0.214-0.269,0.423-0.542,0.627-0.819c0.203-0.273,0.4-0.55,0.593-0.829c3.722-5.374,5.706-11.59,5.706-11.59
		c-1.155-1.237-3.078-1.898-4.98-1.898c-1.71,0-3.403,0.536-4.504,1.67c0.227,3.936-0.475,7.638-1.307,10.517
		C37.364,18.444,37.267,18.77,37.168,19.08z"/>
</g>
</svg>
