<?xml version="1.0" encoding="iso-8859-1"?>
<!-- Generator: Adobe Illustrator 17.0.2, SVG Export Plug-In . SVG Version: 6.00 Build 0)  -->
<!DOCTYPE svg PUBLIC "-//W3C//DTD SVG 1.1//EN" "http://www.w3.org/Graphics/SVG/1.1/DTD/svg11.dtd">
<svg version="1.1" id="Capa_1" xmlns="http://www.w3.org/2000/svg" xmlns:xlink="http://www.w3.org/1999/xlink" x="0px" y="0px"
	 width="64px" height="64px" viewBox="0 0 64 64" style="enable-background:new 0 0 64 64;" xml:space="preserve">
<g>
	<path d="M58.039,31.255c-0.676-1.001-1.875-1.6-3.205-1.6h-6.486c0.068-0.977,0.094-1.787,0.101-2.368c0.006-0.552-0.454-1-1.007-1
		H7.174c-0.553,0-1.014,0.447-1.006,1c0.057,4.321,1.167,21.363,14.98,25.514H8.207c-0.818,0-1.725,0.618-2.021,1.381l-0.404,1.039
		c-0.297,0.763,0.123,1.382,0.943,1.382h41.164c0.818,0,1.24-0.619,0.943-1.382l-0.406-1.039c-0.297-0.763-1.201-1.381-2.021-1.381
		H34.096c4.691-1.47,7.855-4.55,9.984-8.12c8.916-0.252,12.754-6.417,14.25-10.132C58.789,33.409,58.684,32.208,58.039,31.255z
		 M55.547,33.429c-1.359,3.378-4.168,7.325-9.883,8.123c1.293-3.07,1.992-6.242,2.365-8.896h6.805c0.393,0,0.629,0.143,0.719,0.278
		C55.633,33.053,55.631,33.219,55.547,33.429z"/>
	<path d="M26.926,24.984c0.211,0.243,0.508,0.367,0.803,0.367c0.248,0,0.496-0.086,0.695-0.259c0.443-0.384,0.492-1.055,0.107-1.498
		c-0.025-0.032-2.84-3.358-1.031-5.634c2.412-3.036,0.943-5.515-0.172-6.401c-0.457-0.365-1.127-0.29-1.492,0.169
		c-0.361,0.456-0.289,1.119,0.162,1.485c0.258,0.22,1.449,1.398-0.162,3.427C22.932,20.294,26.764,24.794,26.926,24.984z"/>
	<path d="M32.607,6.017c0.451-0.367,0.523-1.029,0.16-1.485c-0.365-0.459-1.033-0.534-1.492-0.169
		c-1.113,0.886-2.582,3.365-0.17,6.401c1.809,2.276-1.006,5.603-1.033,5.634c-0.383,0.443-0.336,1.114,0.107,1.498
		c0.201,0.174,0.449,0.259,0.695,0.259c0.297,0,0.594-0.124,0.803-0.367c0.164-0.19,3.994-4.69,1.092-8.346
		C31.156,7.415,32.348,6.236,32.607,6.017z"/>
</g>
</svg>
