<?xml version="1.0" encoding="utf-8"?>
<!-- Generator: Adobe Illustrator 16.0.0, SVG Export Plug-In . SVG Version: 6.00 Build 0)  -->
<!DOCTYPE svg PUBLIC "-//W3C//DTD SVG 1.1//EN" "http://www.w3.org/Graphics/SVG/1.1/DTD/svg11.dtd">
<svg version="1.1" id="Layer_2" xmlns="http://www.w3.org/2000/svg" xmlns:xlink="http://www.w3.org/1999/xlink" x="0px" y="0px"
	 width="126px" height="126px" viewBox="0 0 126 126" enable-background="new 0 0 126 126" xml:space="preserve">
<path d="M92.304,105.243c-0.004-0.01-0.01-0.018-0.014-0.027V27.768c0-2.36-3.764-9.052-5.631-12.226v-1.669
	c0.707-0.46,1.177-1.254,1.177-2.158c0-1.395-1.114-2.535-2.5-2.576c-0.59-0.043-5.675-0.371-22.631-0.371
	c-16.591,0-20.861,0.317-21.475,0.372c-1.376,0.052-2.479,1.188-2.479,2.576c0,0.545,0.172,1.049,0.462,1.466v2.361
	c-1.867,3.174-5.631,9.866-5.631,12.226v78.08c0,0.039,0.008,0.075,0.011,0.113c0.004,0.064,0.008,0.128,0.02,0.19
	c0.01,0.054,0.026,0.104,0.041,0.157c0.015,0.052,0.028,0.104,0.048,0.153c0.021,0.053,0.047,0.102,0.073,0.152
	c0.024,0.047,0.046,0.093,0.075,0.138c0.029,0.046,0.063,0.088,0.098,0.13c0.033,0.042,0.065,0.085,0.103,0.125
	c0.039,0.041,0.083,0.076,0.125,0.113c0.04,0.033,0.077,0.068,0.12,0.099c0.054,0.038,0.112,0.069,0.171,0.101
	c0.031,0.017,0.059,0.039,0.092,0.054c0.212,0.098,1.403,0.635,3.409,1.333c-0.149,0.251-0.241,0.542-0.241,0.856v2.767
	c0,0.758,0.508,1.423,1.24,1.622c0.756,0.206,12.314,3.282,25.588,3.281c7.8,0,16.194-1.063,23.334-4.393
	c0.592-0.276,0.971-0.87,0.971-1.523v-2.125c0-0.291-0.081-0.561-0.211-0.8c0.893-0.308,1.788-0.628,2.69-0.976
	C92.207,107.082,92.638,106.11,92.304,105.243z M36.945,50.228c0.607-0.065,1.221-0.148,1.849-0.232
	c0.657-0.104,1.311-0.262,1.985-0.397c0.674-0.137,1.354-0.292,2.043-0.455c0.671-0.212,1.351-0.426,2.039-0.642
	c0.687-0.223,1.395-0.43,2.082-0.698c0.674-0.293,1.355-0.589,2.042-0.888c0.681-0.312,1.398-0.585,2.068-0.941
	c0.657-0.375,1.319-0.754,1.985-1.135c0.663-0.387,1.346-0.762,2.004-1.172c0.622-0.453,1.247-0.908,1.875-1.364
	c0.626-0.462,1.255-0.926,1.885-1.391c0.605-0.488,1.166-1.02,1.738-1.546c1.058-0.986,2.121-1.977,3.183-2.967l0.753-0.737
	l0.622-0.522c0.403-0.351,0.808-0.709,1.309-1.057c0.475-0.35,0.938-0.716,1.429-1.027c0.485-0.323,0.958-0.669,1.472-0.936
	c0.503-0.287,0.997-0.59,1.524-0.82c0.51-0.266,1.02-0.535,1.554-0.742c0.523-0.235,1.053-0.453,1.599-0.625l0.806-0.29l0.82-0.247
	c4.376-1.298,9.025-1.519,13.122-1.283c0.067,0.004,0.131,0.01,0.198,0.014v46.288c-1.514-0.401-3.123-0.74-4.848-0.957
	c-2.837-0.348-5.955-0.393-9.166,0.082c-0.805,0.108-1.617,0.234-2.418,0.44c-0.811,0.169-1.613,0.393-2.414,0.646
	c-1.613,0.469-3.199,1.102-4.714,1.863c-0.78,0.352-1.503,0.784-2.243,1.204c-0.756,0.401-1.436,0.892-2.127,1.375
	c-0.69,0.456-1.384,1.009-2.073,1.579l-1.03,0.847l-0.79,0.735c-1.007,0.961-2.014,1.922-3.017,2.879l-1.378,1.329l-1.47,1.204
	c-0.487,0.405-0.972,0.808-1.454,1.209c-0.498,0.379-1.018,0.726-1.521,1.09c-0.507,0.362-1.012,0.723-1.513,1.081
	c-0.515,0.337-1.045,0.642-1.563,0.965c-0.521,0.321-1.038,0.64-1.549,0.955c-0.536,0.279-1.066,0.556-1.591,0.829
	c-0.528,0.279-1.05,0.556-1.566,0.829c-0.539,0.225-1.072,0.452-1.595,0.693c-0.527,0.23-1.04,0.487-1.565,0.692
	c-0.128,0.046-0.251,0.094-0.379,0.139V50.228z M42.341,16.858c0.154-0.259,0.235-0.556,0.235-0.857v-1.709h40.721v1.709
	c0,0.301,0.081,0.598,0.235,0.857c0.842,1.42,1.707,2.958,2.491,4.425c-1.104-0.255-2.252-0.475-3.46-0.629
	c-2.782-0.348-5.839-0.393-8.988,0.082c-0.789,0.108-1.585,0.234-2.371,0.44c-0.796,0.169-1.582,0.393-2.368,0.646
	c-1.582,0.469-3.137,1.102-4.622,1.863c-0.765,0.352-1.475,0.784-2.199,1.204c-0.742,0.401-1.408,0.892-2.086,1.375
	c-0.676,0.456-1.357,1.009-2.033,1.579l-1.01,0.847l-0.774,0.735c-0.988,0.961-1.975,1.922-2.958,2.879l-1.352,1.329l-1.441,1.204
	c-0.477,0.405-0.953,0.808-1.426,1.209c-0.488,0.379-0.998,0.726-1.492,1.09c-0.498,0.362-0.992,0.723-1.483,1.081
	c-0.505,0.337-1.025,0.642-1.532,0.965c-0.511,0.321-1.018,0.64-1.52,0.955c-0.525,0.279-1.045,0.556-1.56,0.829
	c-0.518,0.279-1.03,0.556-1.536,0.829c-0.529,0.225-1.052,0.452-1.564,0.693c-0.438,0.196-0.869,0.405-1.303,0.59V27.775
	C36.998,26.599,39.778,21.181,42.341,16.858z M36.945,104.725v-1.633c0.171-0.015,0.339-0.024,0.513-0.047
	c0.652-0.067,1.313-0.157,1.987-0.245c0.67-0.104,1.336-0.262,2.024-0.397c0.688-0.137,1.381-0.292,2.083-0.455
	c0.685-0.212,1.378-0.426,2.079-0.642c0.701-0.223,1.423-0.43,2.123-0.698c0.688-0.293,1.382-0.589,2.082-0.888
	c0.694-0.312,1.426-0.585,2.109-0.941c0.67-0.375,1.345-0.754,2.024-1.135c0.676-0.387,1.372-0.762,2.044-1.172
	c0.634-0.453,1.272-0.908,1.912-1.364c0.638-0.462,1.279-0.926,1.922-1.391c0.617-0.488,1.189-1.02,1.772-1.546
	c1.079-0.986,2.163-1.977,3.246-2.967l0.768-0.737l0.633-0.522c0.411-0.351,0.824-0.709,1.335-1.057
	c0.484-0.35,0.956-0.716,1.458-1.027c0.495-0.323,0.977-0.669,1.5-0.936c0.513-0.287,1.017-0.59,1.555-0.82
	c0.521-0.266,1.04-0.535,1.585-0.742c0.534-0.235,1.074-0.453,1.63-0.625l0.822-0.29l0.836-0.247
	c3.957-1.151,8.131-1.453,11.94-1.343v23.858C63.508,114.022,41.707,106.598,36.945,104.725z M40.402,68.191
	c0-3.776,1.618-7.465,4.26-10.219c1.889-1.991,4.154-3.392,6.771-4.168c1.995-0.592,3.453-0.539,3.963-0.341l-0.917,2.808
	c-0.593-0.148-1.833-0.103-3.424,0.369c-1.727,0.513-3.399,1.604-4.64,3.05c-1.591,1.875-2.617,4.471-2.617,7.115
	c0,3.048,1.564,4.877,5.152,3.812c1.321-0.393,2.671-1.036,3.641-1.784l0.297,2.475c-0.971,0.72-2.617,1.586-4.748,2.219
	C43.424,74.927,40.402,72.912,40.402,68.191z M59.182,70.275c4.477-1.33,7.606-6.089,7.606-10.538c0-2.913-1.861-4.896-5.395-3.847
	c-4.477,1.329-7.579,6.106-7.579,10.557C53.814,69.576,55.864,71.26,59.182,70.275z M61.016,58.429
	c1.915-0.569,2.508,0.928,2.508,2.277c0,2.615-1.563,6.316-3.91,7.014c-1.591,0.472-2.562-0.508-2.562-2.315
	C57.052,62.951,58.508,59.173,61.016,58.429z M69.951,66.781l-3.156,0.937l3.669-20.238l3.128-0.929L69.951,66.781z M76.266,65.203
	c1.672-0.497,3.398-1.845,4.693-4.657l0.08-0.023c-0.108,1.165-0.215,2.249-0.242,3.039l2.913-0.865
	c-0.054-1.549,0.161-4.067,0.539-6.148l1.349-7.25c-0.997-0.027-2.535,0.159-3.964,0.583c-6.123,1.819-9.251,7.521-9.251,11.999
	C72.382,64.521,73.919,65.899,76.266,65.203z M80.797,52.556c0.566-0.168,0.971-0.233,1.295-0.249l-0.701,3.66
	c-0.62,3.529-2.4,5.892-3.857,6.324c-1.375,0.408-1.888-0.572-1.888-1.947C75.646,57.35,77.885,53.42,80.797,52.556z"/>
</svg>
