<?xml version="1.0" encoding="iso-8859-1"?>
<!-- Generator: Adobe Illustrator 16.0.0, SVG Export Plug-In . SVG Version: 6.00 Build 0)  -->
<!DOCTYPE svg PUBLIC "-//W3C//DTD SVG 1.1//EN" "http://www.w3.org/Graphics/SVG/1.1/DTD/svg11.dtd">
<svg version="1.1" id="Layer_1" xmlns="http://www.w3.org/2000/svg" xmlns:xlink="http://www.w3.org/1999/xlink" x="0px" y="0px"
	 width="25.609px" height="31.521px" viewBox="0 0 25.609 31.521" style="enable-background:new 0 0 25.609 31.521;"
	 xml:space="preserve">
<g>
	<rect x="1.883" y="30.549" width="20.49" height="0.972"/>
	<polygon points="11.837,29.878 12.371,29.878 15.138,29.878 15.527,29.878 18.829,29.878 16.984,27.11 15.333,29.587 13.682,27.11 
		12.104,29.478 10.525,27.11 8.875,29.587 7.224,27.11 5.378,29.878 8.681,29.878 9.069,29.878 	"/>
	<path d="M23.056,15.644c-0.366,0.129-0.834,0.561-1.14,0.872c-0.012-0.773-0.038-1.31-0.044-1.463h0.678v-0.959h-19.7v0.959h0.768
		c-0.007,0.156-0.034,0.718-0.045,1.521c-0.3-0.294-0.698-0.639-1.018-0.752c-0.59-0.208-2.554,0-2.554,0v0.795
		c0,0,1.93-0.067,2.345,0.174c0.417,0.241,0.864,2.283,1.211,2.283c0.013,0,0.034,0,0.048,0c0.094,2.179,0.4,4.54,1.237,5.303H3.803
		v1.266h17.702v-1.266h-0.858c0.858-0.783,1.161-3.256,1.246-5.479c0.061,0,0.116,0,0.159,0c0.345,0,0.795-2.042,1.211-2.283
		c0.414-0.242,2.347-0.175,2.347-0.175v-0.795C25.609,15.644,23.642,15.438,23.056,15.644z M6.015,22.76
		c-0.187-0.369-0.371-0.817-0.51-1.314c-0.085-0.242-0.121-0.521-0.179-0.79c-0.068-0.277-0.074-0.547-0.095-0.808
		c-0.026-0.25-0.028-0.555-0.013-0.823c0.007-0.271,0.016-0.535,0.037-0.789c0.028-0.256,0.017-0.5,0.071-0.734
		c0.045-0.231,0.088-0.45,0.126-0.652c0.165-0.812,0.438-1.297,0.438-1.297s-0.003,0.138,0.021,0.376
		c0.023,0.24,0.022,0.561,0.075,0.961c0.034,0.397,0.058,0.85,0.126,1.341c0.034,0.243,0.054,0.494,0.075,0.748
		c0.009,0.259,0.063,0.481,0.097,0.765c0.068,0.545,0.146,1.002,0.215,1.488c0.066,0.482,0.126,0.936,0.179,1.322
		c0.097,0.785,0.12,1.356,0.12,1.356S6.387,23.503,6.015,22.76z"/>
	<path d="M8.429,7.98c0.115,0.216,0.193,0.276,0.294,0.422l0.26,0.313c0.048,0.104,0.126,0.188,0.161,0.304
		c0.084,0.217,0.177,0.447,0.206,0.7c0.083,0.497,0.077,1.017,0.056,1.47c-0.06,0.908-0.148,1.571-0.148,1.571s0.485-0.47,0.871-1.4
		c0.096-0.231,0.19-0.491,0.251-0.781c0.062-0.288,0.123-0.604,0.109-0.945c0-0.336-0.041-0.708-0.176-1.069
		c-0.053-0.185-0.166-0.355-0.252-0.533c-0.05-0.087-0.117-0.164-0.176-0.246L9.79,7.664l-0.047-0.06L9.732,7.59
		c0.006,0.007,0.015,0.017,0.033,0.037L9.76,7.621L9.743,7.598C9.662,7.487,9.501,7.33,9.484,7.26
		C9.445,7.179,9.39,7.111,9.353,6.986C9.265,6.771,9.197,6.524,9.162,6.274C9.086,5.771,9.096,5.25,9.117,4.794
		c0.06-0.909,0.139-1.573,0.139-1.573s-0.48,0.475-0.866,1.402C8.198,5.085,8.027,5.663,8.019,6.34
		C8.026,6.675,8.032,7.044,8.17,7.406C8.215,7.582,8.319,7.785,8.429,7.98z M9.732,7.59C9.733,7.591,9.715,7.57,9.732,7.59
		L9.732,7.59z"/>
	<path d="M11.287,4.76c0.115,0.216,0.193,0.276,0.294,0.422l0.26,0.313c0.048,0.104,0.126,0.188,0.161,0.304
		c0.084,0.217,0.177,0.447,0.206,0.7c0.083,0.497,0.077,1.017,0.056,1.47c-0.06,0.908-0.148,1.571-0.148,1.571s0.485-0.47,0.871-1.4
		c0.096-0.231,0.19-0.491,0.251-0.781c0.062-0.288,0.123-0.604,0.109-0.945c0-0.336-0.041-0.708-0.176-1.069
		c-0.053-0.185-0.166-0.355-0.252-0.533c-0.05-0.087-0.117-0.164-0.176-0.246l-0.093-0.12l-0.047-0.06L12.59,4.369
		c0.006,0.007,0.015,0.017,0.033,0.037L12.619,4.4l-0.018-0.023c-0.081-0.11-0.242-0.268-0.259-0.338
		c-0.039-0.081-0.094-0.148-0.131-0.273c-0.088-0.216-0.156-0.462-0.191-0.712c-0.075-0.504-0.065-1.024-0.044-1.48
		C12.035,0.664,12.115,0,12.115,0s-0.48,0.475-0.866,1.402c-0.193,0.462-0.364,1.04-0.372,1.717
		c0.008,0.335,0.013,0.704,0.152,1.066C11.074,4.361,11.178,4.564,11.287,4.76z M12.59,4.369C12.592,4.37,12.574,4.35,12.59,4.369
		L12.59,4.369z"/>
	<path d="M14.818,7.68c0.115,0.216,0.193,0.276,0.294,0.422l0.26,0.313c0.048,0.104,0.126,0.188,0.161,0.304
		c0.084,0.217,0.177,0.447,0.206,0.7c0.083,0.497,0.077,1.017,0.056,1.47c-0.06,0.908-0.148,1.571-0.148,1.571s0.485-0.47,0.871-1.4
		c0.096-0.231,0.19-0.491,0.251-0.781c0.062-0.288,0.123-0.604,0.109-0.945c0-0.336-0.041-0.708-0.176-1.069
		c-0.053-0.185-0.166-0.355-0.252-0.533c-0.05-0.087-0.117-0.164-0.176-0.246l-0.093-0.12l-0.047-0.06l-0.011-0.015
		c0.006,0.007,0.015,0.017,0.033,0.037L16.15,7.32l-0.018-0.023c-0.081-0.11-0.242-0.268-0.259-0.338
		c-0.039-0.081-0.094-0.148-0.131-0.273c-0.088-0.216-0.156-0.462-0.191-0.712c-0.075-0.504-0.065-1.024-0.044-1.48
		c0.06-0.909,0.139-1.573,0.139-1.573s-0.48,0.475-0.866,1.402c-0.193,0.462-0.364,1.04-0.372,1.717
		c0.008,0.335,0.013,0.704,0.152,1.066C14.605,7.281,14.709,7.484,14.818,7.68z M16.122,7.289C16.123,7.29,16.105,7.27,16.122,7.289
		L16.122,7.289z"/>
</g>
<g>
</g>
<g>
</g>
<g>
</g>
<g>
</g>
<g>
</g>
<g>
</g>
<g>
</g>
<g>
</g>
<g>
</g>
<g>
</g>
<g>
</g>
<g>
</g>
<g>
</g>
<g>
</g>
<g>
</g>
</svg>
