<?xml version="1.0" encoding="utf-8"?>
<!-- Generator: Adobe Illustrator 16.0.4, SVG Export Plug-In . SVG Version: 6.00 Build 0)  -->
<!DOCTYPE svg PUBLIC "-//W3C//DTD SVG 1.1//EN" "http://www.w3.org/Graphics/SVG/1.1/DTD/svg11.dtd">
<svg version="1.1" id="Capa_1" xmlns="http://www.w3.org/2000/svg" xmlns:xlink="http://www.w3.org/1999/xlink" x="0px" y="0px"
	 width="64px" height="64px" viewBox="0 0 64 64" enable-background="new 0 0 64 64" xml:space="preserve">
<g>
	<path fill="#0E0F0F" d="M26.162,11.609v5.81h0.085h9.306h0.098v-5.977c0.938-0.3,1.742-0.996,2.117-1.991
		c0.653-1.727-0.219-3.658-1.945-4.311c-0.489-0.185-0.992-0.235-1.479-0.192c-0.381-0.916-1.114-1.683-2.118-2.062
		c-1.753-0.662-3.68,0.089-4.566,1.679c-1.543-0.08-3.031,0.817-3.604,2.341C23.341,8.79,24.287,10.888,26.162,11.609z"/>
	<polygon fill="#0E0F0F" points="36.639,55.369 12.105,55.369 12.105,61.354 49.895,61.354 49.895,55.369 	"/>
	<path fill="#0E0F0F" d="M29.305,23.911l2.104,2.301l2.179-2.117C32.523,23.967,31.009,23.848,29.305,23.911z"/>
	<path fill="#0E0F0F" d="M26.594,42.23l-2.447,4.24h-1.891H21.22h-2.885v0.971h-1.053c-0.356,0-0.646,0.291-0.646,0.646
		c0,0.357,0.29,0.646,0.646,0.646h1.053v5.5h15.044v-5.5h1.051c0.357,0,0.648-0.289,0.648-0.646c0-0.355-0.291-0.646-0.648-0.646
		h-1.051v-0.971h-8.407l2.313-4.011c0.108,0.036,0.223,0.074,0.328,0.108c3.833,1.255,5.462-4.77,1.658-6.017
		c-2.532-0.827-6.397-2.001-8.024-4.244c0.027-0.023,0.055-0.047,0.09-0.07c0.348-0.238,0.727-0.435,1.119-0.61v0.519
		c0.386,0.306,0.743,0.563,1.048,0.731c1.631,1.271,4.245,2.122,6.095,2.724l0.391,0.127c2.42,0.793,3.203,3.01,2.91,4.854
		c-0.34,2.127-1.951,3.612-3.919,3.612c-0.449,0-0.913-0.076-1.377-0.229c-0.073-0.023-0.157-0.052-0.229-0.076l-1.022,1.672h7.836
		v0.971h0.271c0.786,0,1.427,0.641,1.427,1.427s-0.641,1.426-1.427,1.426h-0.271v5.075h4.379V32.007
		c0.053,0.043,0.109,0.081,0.162,0.127c2.258,1.964,2.041,5.382,1.699,8.062c-0.508,3.98,5.734,3.934,6.236,0
		c0.577-4.514-0.175-9.168-3.525-12.471c-2.095-2.062-4.902-3.027-7.793-3.358l-2.979,2.896l2.565,2.805l-1.05,0.96l-6.38-6.979
		c-0.795,0.093-1.604,0.227-2.411,0.428c-4.496,0.897-11.324,3.11-10.124,8.881C15.988,38.257,22.177,40.74,26.594,42.23z"/>
	<path fill="#0E0F0F" d="M35.566,18.096h-9.333c0,2.578,2.091,4.667,4.667,4.667C33.479,22.763,35.566,20.674,35.566,18.096z"/>
	<path fill="#0E0F0F" d="M22.645,42.16l-0.013,3.4h1.095l1.452-2.42C24.378,42.854,23.498,42.531,22.645,42.16z"/>
	<path fill="#0E0F0F" d="M17.117,40.797c-0.07,0.323-0.02,0.669,0.085,0.979c0.117,0.308,0.301,0.572,0.501,0.805
		c0.217,0.229,0.426,0.396,0.582,0.57c0.175,0.173,0.311,0.365,0.405,0.552c0.084,0.188,0.114,0.379,0.021,0.591
		c-0.084,0.216-0.273,0.417-0.493,0.598c0.288-0.024,0.574-0.144,0.809-0.38c0.236-0.235,0.332-0.646,0.247-0.981
		c-0.141-0.67-0.675-1.125-0.991-1.469c-0.332-0.355-0.548-0.754-0.562-1.201c-0.011-0.449,0.19-0.95,0.497-1.426
		C17.7,39.666,17.248,40.146,17.117,40.797z"/>
	<path fill="#0E0F0F" d="M20.016,42.643c-0.048,0.217-0.013,0.45,0.057,0.659c0.08,0.208,0.204,0.388,0.339,0.544
		c0.147,0.157,0.288,0.271,0.394,0.387c0.119,0.117,0.21,0.248,0.274,0.375c0.057,0.127,0.076,0.256,0.014,0.397
		c-0.056,0.146-0.184,0.283-0.333,0.405c0.194-0.018,0.388-0.098,0.547-0.258c0.158-0.159,0.224-0.438,0.167-0.664
		c-0.095-0.453-0.457-0.762-0.67-0.994c-0.226-0.24-0.372-0.51-0.38-0.812c-0.008-0.306,0.127-0.646,0.337-0.968
		C20.41,41.875,20.104,42.199,20.016,42.643z"/>
</g>
</svg>
