<svg width="64" xmlns="http://www.w3.org/2000/svg" height="64" viewBox="0 0 64 64" xmlns:xlink="http://www.w3.org/1999/xlink" enable-background="new 0 0 64 64">
<g fill="#0e0f0f">
<path d="m3508.51,381.803c4.686,.691 9.041-2.545 9.73-7.229s-2.547-9.041-7.227-9.729c-4.688-.691-9.043,2.547-9.734,7.23-.689,4.683 2.549,9.042 7.231,9.728z"/>
<path d="m3541.4,453.73c-5.781-16.863-9.816-33.967-10.655-37.621 .146-1.161 .099-2.371-.171-3.602-1.73-7.955-3.518-15.25-5.461-22.299-1.203-4.365-4.725-7.076-9.189-7.076-2.973,0-5.883,1.207-7.865,3.244-7.479,.82-17.184,2.678-21.768,6.881-.984,.902-1.559,2.133-1.615,3.469-.039,.884 .172,1.733 .568,2.499l-3.967,.378 .332,3.477-1.074,.104c-.373-.047-.754-.061-1.143-.021l-1.023,.098c-.172-.641-.486-1.078-.807-1.049-.318,.031-.547,.52-.594,1.182l-.898,.086c-.17-.641-.486-1.078-.805-1.049-.32,.031-.547,.521-.596,1.182l-.98,.094c-.17-.641-.486-1.078-.807-1.049-.318,.031-.547,.521-.594,1.182l-.787,.076c-.172-.641-.486-1.078-.807-1.049s-.547,.521-.594,1.182l-.875,.082c-.17-.639-.486-1.076-.807-1.047s-.547,.52-.594,1.182l-.98,.092c-.17-.639-.486-1.076-.807-1.047-.32,.031-.547,.52-.594,1.18l-.789,.076c-.17-.641-.486-1.078-.807-1.047-.318,.029-.545,.52-.594,1.18l-.896,.086c-.172-.641-.486-1.078-.807-1.047-.32,.029-.547,.52-.594,1.18l-.98,.094c-.172-.639-.488-1.078-.807-1.047-.32,.029-.547,.52-.594,1.18l-.789,.076c-.172-.641-.486-1.078-.807-1.049-.32,.031-.547,.525-.594,1.189-.443,.059-.867,.168-1.266,.328-.445-.781-1.061-1.26-1.41-1.074-.361,.189-.307,1.004 .113,1.836-.295,.236-.563,.506-.799,.799-.781-.42-1.543-.498-1.742-.16-.199,.34 .238,.969 .982,1.451-.109,.268-.199,.549-.262,.838-.912,.109-1.607,.506-1.568,.904 .035,.365 .664,.611 1.467,.604 .002,.031 0,.059 .002,.09 .029,.293 .086,.574 .16,.852-.023,.012-.045,.023-.07,.039-.813,.52-1.289,1.227-1.064,1.578 .213,.332 .975,.225 1.74-.223 .154,.242 .326,.473 .516,.686-.033,.055-.068,.105-.1,.164-.473,.844-.557,1.693-.191,1.895 .354,.197 .992-.285 1.461-1.078 .271,.17 .561,.311 .861,.428-.111,.916 .107,1.689 .506,1.748 .387,.055 .795-.57 .963-1.422 .281,.02 .568,.021 .861-.006l.191-.018c.158,.734 .5,1.254 .848,1.221s.586-.607 .602-1.359l.74-.07c.156,.734 .498,1.256 .848,1.223 .348-.033 .584-.609 .6-1.359l.934-.09c.156,.734 .498,1.256 .848,1.223 .348-.033 .584-.609 .6-1.361l.852-.08c.156,.734 .498,1.256 .846,1.223s.586-.609 .602-1.361l.74-.068c.158,.732 .5,1.254 .848,1.221s.586-.609 .602-1.361l.934-.088c.156,.734 .498,1.256 .846,1.223s.586-.609 .6-1.359l.828-.08c.156,.734 .498,1.256 .846,1.223 .35-.033 .586-.609 .602-1.359l.742-.07c.156,.732 .498,1.254 .846,1.221 .348-.031 .586-.609 .602-1.359l.934-.088c.156,.732 .498,1.256 .846,1.223 .35-.033 .586-.611 .602-1.359l.85-.082c.158,.734 .5,1.254 .848,1.221s.586-.607 .6-1.359l.605-.057c1.078-.102 2.047-.531 2.82-1.178l11.118-1.059c-1.353,1.209-2.015,3.1-1.528,4.973 .57,2.205 2.561,3.744 4.836,3.744 .422,0 .844-.053 1.26-.16 4.436-1.152 8.391-2.832 11.779-4.998 .223,.982 .441,1.967 .656,2.951 .053,.238 .114,.471 .18,.7-6.411,4.267-10.498,8.827-15.078,15.224-1.053,1.473-1.186,2.938-.75,4.199 .01,.479 .084,.984 .25,1.52 1.869,6.08 3.738,12.162 5.609,18.242 1.986,6.482 12.281,4.082 10.277-2.436-1.781-5.793-3.563-11.588-5.344-17.385 3.496-4.572 7.688-8.611 12.551-11.711 .521-.332 .943-.717 1.292-1.129 .287-.006 .573-.021 .859-.051 2.206,8.073 6.769,24.118 10.497,32.912 2.657,6.258 12.405,2.186 9.739-4.102zm-61.394-44.128l-22.824,2.172c-.711,.066-1.344-.457-1.412-1.166-.066-.711 .455-1.344 1.166-1.41l22.824-2.174c.24-.023 .471,.025 .674,.125l.209,2.203c-.182,.134-.397,.226-.637,.25zm3.148-6.668l-.184-1.932 3.416-.324c.908,.796 2.067,1.266 3.285,1.266 1.185,0 2.313-.43 3.214-1.191l.118,1.244-9.849,.937zm11.653,1.619l-.258-2.705-.197-2.08c2.289-1.184 6.498-2.275 11.844-3.047 .635,2.336 1.277,4.801 1.951,7.492-2.922,2.639-6.881,4.619-11.781,5.891-.352,.091-.682,.222-.994,.379l-.565-5.93zm15.927,7.771c-3.451,2.432-7.609,4.289-12.357,5.521-1.598,.422-3.252-.58-3.658-2.148-.416-1.602 .549-3.242 2.148-3.658 5.475-1.42 9.877-3.699 13.084-6.775l.418-.4-.141-.563c-.811-3.262-1.576-6.191-2.336-8.959l-.232-.842-.865,.117c-4.066,.549-10.993,1.76-14.273,3.916l-5.017,.477c-.015-.014-.032-.024-.046-.039-.541-.592-.82-1.357-.785-2.158s.379-1.539 .969-2.08c4.26-3.904 13.771-5.639 20.998-6.408l.383-.039 .258-.287c1.609-1.795 4.092-2.865 6.643-2.865 3.578,0 6.295,2.096 7.262,5.607 1.934,7.014 3.713,14.273 5.436,22.193 .207,.951 .241,1.805 .178,2.586-3.757,.295-12.408,1.051-15.482,1.951-.013-.057-.035-.104-.047-.16-.32-1.465-.652-2.928-.984-4.391l-.332-1.455-1.222,.859z"/>
<path d="m3517.854,395.443c-.561,.127-.391,.051-.561,.127-.225-.076-.461-.127-.711-.127-.203,0-.395,.035-.582,.086-.16-.051-1.439-1.461-.533-.086 .904,1.375-1.115,.279-1.115,.625 0,.176 .131,.332 .338,.445-.129,.211-.213,.449-.27,.699l-.049-.07v.408c-.002,.049-.02,.094-.02,.143 0,.07 .014,.137 .02,.205 0,0-.75,.07 0,1.494 .604,1.148 1.362,1.016 1.637,.92-.039,.44-.063,.927-.063,1.447 0,1.871 .285,3.389 .637,3.389 .35,0 .635-1.518 .635-3.389 0-.699-.04-1.348-.107-1.887 .977-.24 1.703-1.122 1.703-2.18 0-.125-.018-.244-.037-.361 .213-.201 .35-.467 .35-.764-.001-.62-.712-1.253-1.272-1.124z"/>
<path d="m3514.516,390.076c.045,0 .09-.006 .133-.014 .102,.102 .225,.18 .361,.234-.299,.211-.494,.559-.494,.953 0,.648 .525,1.174 1.174,1.174 .625,0 1.131-.49 1.166-1.105 .371-.156 .631-.521 .631-.949 0-.26-.1-.494-.26-.676 .16-.152 .26-.369 .26-.607 0-.119-.025-.234-.07-.336 .023,.002 .045,.006 .07,.006 .445,0 .807-.361 .807-.807s-.361-.807-.807-.807-.807,.361-.807,.807c0,.107 .021,.209 .061,.303-.033-.004-.064-.01-.098-.01-.039,0-.074,.006-.111,.012 0-.004 .002-.008 .002-.012 0-.607-.494-1.1-1.102-1.1-.129,0-.252,.025-.367,.066-.115-.041-.236-.066-.365-.066-.609,0-1.102,.492-1.102,1.1 0,.174 .043,.334 .115,.482-.07,.129-.115,.275-.115,.436-0,.506 .41,.916 .918,.916z"/>
<path d="m3521.617,402.166c.135,.021 .266,.008 .391-.027 .092,.07 .201,.125 .324,.145 .396,.064 .77-.203 .836-.598 .006-.037 .006-.072 .006-.107 .092-.066 .168-.152 .229-.252 .127,.26 .375,.459 .682,.51 .506,.082 .984-.262 1.068-.768 .08-.488-.238-.947-.715-1.053-.074-.309-.326-.561-.66-.615-.203-.033-.4,.016-.563,.117-.098-.145-.254-.25-.439-.281-.094-.016-.188-.01-.273,.012 .006-.018 .012-.035 .016-.055 .057-.348-.178-.676-.527-.732-.348-.057-.678,.178-.734,.525-.057,.35 .18,.678 .527,.734 .084,.014 .166,.01 .244-.008-.006,.025-.016,.049-.02,.074-.006,.029-.004,.059-.006,.088 0,0-.006-.002-.01-.002-.473-.078-.922,.244-1,.719-.016,.102-.012,.199 .006,.295-.047,.084-.082,.178-.1,.277-.079,.475 .244,.924 .718,1.002z"/>
<path d="m48.233,36.91c-.001-.059 .002-.118-.002-.178l-.704-11.25c-.122-1.958-1.804-3.447-3.767-3.323-1.126,.07-2.095,.659-2.692,1.518-4.167,.882-6.034,.907-10.305-.109-1.226-.291-2.458,.465-2.75,1.693-.292,1.227 .465,2.458 1.692,2.75 2.596,.617 4.535,.894 6.394,.894 .386,0 .768-.016 1.151-.039-.955,2.306-1.601,5.78-1.595,10.968 0,5.885 0,5.885 0,5.885l3.777-.083c-.555,3.431-.39,7.038 .254,10.721 .25,1.436 .481,2.447 1.891,2.447 .168,0 .34-.015 .512-.045 1.606-.28 2.682-1.811 2.4-3.417-.988-5.657 .185-10.857 3.483-15.457 .647-.903 .701-2.037 .261-2.975z"/>
<path d="m13.42,40.948h17.107v16.717h-17.107z"/>
<path d="m43.148,21.492c1.84-.163 3.129-1.778 2.881-3.609l-6.662,.59c.248,1.83 1.942,3.181 3.781,3.019z"/>
<path d="m38.438,10.561l.949,6.981 6.358-.563-.961-7.068c.61-.545 .944-1.374 .823-2.267-.201-1.477-1.569-2.568-3.053-2.437-.633,.056-1.183,.325-1.592,.729-.508-.322-1.117-.488-1.748-.432-1.488,.13-2.529,1.435-2.327,2.914 .13,.947 .738,1.733 1.551,2.143z"/>
<path d="m16.392,39.009h11.165v-7.777l1.14-.415v-.921l-1.14,.416v-.776h-11.165v.776l-1.141-.416v.921l1.141,.415v7.777zm1.014-8.458h9.135v7.443h-9.135v-7.443z"/>
<path d="m23.836,23.53c.35,0 .634-.284 .634-.634 0-.35-.285-.634-.634-.634-.35,0-.634,.284-.634,.634 0,.35 .284,.634 .634,.634zm0-.761c.07,0 .126,.058 .126,.127 0,.14-.253,.14-.253,0 .001-.069 .058-.127 .127-.127z"/>
<path d="m26.056,26.068c.595,0 1.079-.483 1.079-1.078 0-.595-.484-1.079-1.079-1.079-.594,0-1.078,.483-1.078,1.079 .001,.594 .484,1.078 1.078,1.078zm0-1.65c.315,0 .571,.256 .571,.571s-.256,.571-.571,.571c-.314,0-.57-.256-.57-.571s.256-.571 .57-.571z"/>
<circle cx="22.862" cy="26.872" r=".888"/>
</g>
</svg>
