<?xml version="1.0" encoding="iso-8859-1"?>
<!-- Generator: Adobe Illustrator 16.0.0, SVG Export Plug-In . SVG Version: 6.00 Build 0)  -->
<!DOCTYPE svg PUBLIC "-//W3C//DTD SVG 1.1//EN" "http://www.w3.org/Graphics/SVG/1.1/DTD/svg11.dtd">
<svg version="1.1" id="Layer_1" xmlns="http://www.w3.org/2000/svg" xmlns:xlink="http://www.w3.org/1999/xlink" x="0px" y="0px"
	 width="32px" height="28.751px" viewBox="0 0 32 28.751" style="enable-background:new 0 0 32 28.751;" xml:space="preserve">
<g>
	<path d="M10.859,14.786c0.021-0.342,0.042-0.685,0.087-1.031c0.083-0.821,0.261-1.645,0.443-2.447
		c0.111-0.4,0.231-0.795,0.357-1.181c0.161-0.377,0.319-0.752,0.476-1.118c0.356-0.715,0.754-1.383,1.229-1.942
		c0.113-0.144,0.225-0.284,0.334-0.424c0.125-0.125,0.25-0.246,0.371-0.367c0.254-0.23,0.475-0.479,0.729-0.662
		c0.506-0.375,0.954-0.731,1.41-0.952c0.439-0.245,0.816-0.458,1.156-0.578c0.666-0.268,1.044-0.403,1.044-0.403
		s-0.322,0.256-0.886,0.671c-0.291,0.19-0.599,0.49-0.967,0.797c-0.382,0.293-0.729,0.713-1.141,1.115
		c-0.206,0.206-0.366,0.464-0.561,0.702c-0.095,0.121-0.192,0.243-0.292,0.367c-0.081,0.137-0.165,0.274-0.25,0.414
		c-0.364,0.539-0.636,1.172-0.919,1.814c-0.116,0.336-0.234,0.677-0.354,1.021c-0.082,0.358-0.173,0.72-0.272,1.08
		c-0.149,0.741-0.295,1.496-0.358,2.273c-0.044,0.282-0.065,0.566-0.091,0.852c6.172,0.001,10.949,0.005,17.634,0.005
		c0.023-0.293,0.035-0.59,0.035-0.888c0-5.63-4.103-10.267-9.381-10.881c0.34-0.319,0.556-0.771,0.556-1.274
		C21.25,0.782,20.467,0,19.502,0c-0.966,0-1.75,0.782-1.75,1.749c0,0.504,0.215,0.955,0.557,1.274
		c-5.279,0.614-9.381,5.251-9.381,10.881c0,0.297,0.011,0.59,0.033,0.882C9.613,14.786,10.242,14.786,10.859,14.786z"/>
	<rect x="7.004" y="15.437" width="24.996" height="2.206"/>
	<path d="M21.739,19.208c-1.271,0.617-5.701,2.215-5.701,2.215l-5.236-0.328c0,0,2.995-0.833,4.156-1.094
		c1.163-0.26,0.657-1.572,0.014-1.572c-0.643,0-6.247,0.232-6.247,0.232l-3.721,1.34l0.985,6.234c0,0,0.766-1.312,1.53-1.312
		c0.767,0,7.411,0.177,8.313,0c0.902-0.179,6.398-3.938,7.056-4.377C23.544,20.109,23.013,18.59,21.739,19.208z"/>
	<polygon points="0,20.671 0,28.751 5.701,27.684 4.275,19.919 	"/>
</g>
<g>
</g>
<g>
</g>
<g>
</g>
<g>
</g>
<g>
</g>
<g>
</g>
<g>
</g>
<g>
</g>
<g>
</g>
<g>
</g>
<g>
</g>
<g>
</g>
<g>
</g>
<g>
</g>
<g>
</g>
</svg>
