<?xml version="1.0" encoding="utf-8"?>
<!-- Generator: Adobe Illustrator 16.0.4, SVG Export Plug-In . SVG Version: 6.00 Build 0)  -->
<!DOCTYPE svg PUBLIC "-//W3C//DTD SVG 1.1//EN" "http://www.w3.org/Graphics/SVG/1.1/DTD/svg11.dtd">
<svg version="1.1" id="Capa_1" xmlns="http://www.w3.org/2000/svg" xmlns:xlink="http://www.w3.org/1999/xlink" x="0px" y="0px"
	 width="100px" height="100px" viewBox="0 0 100 100" enable-background="new 0 0 100 100" xml:space="preserve">
<g id="Layer_8">
	<path d="M94.257,32.808c0,4.466-3.62,8.085-8.085,8.085c-0.495,0-0.979-0.051-1.449-0.136l-6.637,23.695v8.518H21.914v-8.849
		l-6.579-23.373c-0.489,0.092-0.992,0.145-1.507,0.145c-4.465,0-8.085-3.619-8.085-8.085c0-4.466,3.62-8.086,8.085-8.086
		c4.465,0,8.085,3.62,8.085,8.086c0,1.099-0.222,2.146-0.619,3.102c8.078,2.726,20.551,4.947,26.163-4.449
		c-3.219-1.066-5.543-4.095-5.543-7.671c0-4.466,3.62-8.086,8.085-8.086s8.085,3.62,8.085,8.086c0,3.573-2.32,6.6-5.536,7.669
		c3.276,6.052,10.577,12.374,26.494,5.165c-0.608-1.137-0.957-2.435-0.957-3.815c0-4.466,3.62-8.086,8.085-8.086
		S94.257,28.342,94.257,32.808z M21.915,84.297h56.173v-7.658H21.915V84.297z"/>
</g>
</svg>
