<?xml version="1.0" encoding="utf-8"?>
<!-- Generator: Adobe Illustrator 17.0.0, SVG Export Plug-In . SVG Version: 6.00 Build 0)  -->
<!DOCTYPE svg PUBLIC "-//W3C//DTD SVG 1.1//EN" "http://www.w3.org/Graphics/SVG/1.1/DTD/svg11.dtd">
<svg version="1.1" id="Layer_1" xmlns="http://www.w3.org/2000/svg" xmlns:xlink="http://www.w3.org/1999/xlink" x="0px" y="0px"
	 width="100px" height="100px" viewBox="0 0 100 100" enable-background="new 0 0 100 100" xml:space="preserve">
<circle fill="none" cx="54.347" cy="32.667" r="0.833"/>
<circle fill="none" cx="46.21" cy="32.667" r="0.833"/>
<circle fill="none" cx="33.246" cy="32.667" r="0.833"/>
<circle fill="none" cx="66.754" cy="32.667" r="0.833"/>
<path d="M33.246,69.167c0,0.553,0.447,1,1,1h31.666c0.553,0,1-0.447,1-1v-6.542H33.246V69.167z"/>
<path d="M66.912,35.667c0-0.062-0.017-0.12-0.028-0.18c1.502-0.069,2.704-1.302,2.704-2.82c0-1.562-1.271-2.833-2.833-2.833
	s-2.834,1.271-2.834,2.833c0,0.974,0.494,1.833,1.245,2.344c-0.01,0.011-0.023,0.018-0.033,0.029l-6.832,8.487l-3.178-8.149
	c1.184-0.34,2.058-1.42,2.058-2.711c0-1.562-1.271-2.833-2.834-2.833s-2.833,1.271-2.833,2.833c0,1.171,0.714,2.178,1.729,2.609
	c-0.001,0.003-0.003,0.005-0.005,0.007l-3.13,7.539l-2.926-7.505c1.083-0.398,1.861-1.431,1.861-2.65
	c0-1.562-1.271-2.833-2.833-2.833s-2.833,1.271-2.833,2.833c0,1.242,0.808,2.288,1.922,2.669l-3.414,8.224l-6.859-8.521
	c-0.031-0.039-0.072-0.065-0.108-0.097c0.701-0.516,1.161-1.34,1.161-2.276c0-1.562-1.271-2.833-2.833-2.833
	s-2.834,1.271-2.834,2.833s1.271,2.833,2.834,2.833c0.009,0,0.018-0.003,0.027-0.003c-0.01,0.056-0.027,0.111-0.027,0.17v24.208
	h33.666V35.667z M33.246,33.5c-0.46,0-0.834-0.374-0.834-0.833s0.374-0.833,0.834-0.833c0.459,0,0.833,0.374,0.833,0.833
	S33.705,33.5,33.246,33.5z M46.21,33.5c-0.459,0-0.833-0.374-0.833-0.833s0.374-0.833,0.833-0.833s0.833,0.374,0.833,0.833
	S46.669,33.5,46.21,33.5z M54.347,33.5c-0.459,0-0.833-0.374-0.833-0.833s0.374-0.833,0.833-0.833c0.46,0,0.834,0.374,0.834,0.833
	S54.807,33.5,54.347,33.5z M65.921,32.667c0-0.459,0.374-0.833,0.834-0.833c0.459,0,0.833,0.374,0.833,0.833
	S67.214,33.5,66.755,33.5C66.295,33.5,65.921,33.125,65.921,32.667z"/>
</svg>
