<?xml version="1.0" encoding="utf-8"?>
<!-- Generator: Adobe Illustrator 16.0.0, SVG Export Plug-In . SVG Version: 6.00 Build 0)  -->
<!DOCTYPE svg PUBLIC "-//W3C//DTD SVG 1.1//EN" "http://www.w3.org/Graphics/SVG/1.1/DTD/svg11.dtd">
<svg version="1.1" id="Layer_1" xmlns="http://www.w3.org/2000/svg" xmlns:xlink="http://www.w3.org/1999/xlink" x="0px" y="0px"
	 width="100px" height="100px" viewBox="0 0 100 100" enable-background="new 0 0 100 100" xml:space="preserve">
<g>
	<path d="M32.1,71.887c0,1.197,0.97,2.168,2.168,2.168h32.63c1.197,0,2.168-0.971,2.168-2.168v-4.865H32.1V71.887z"/>
	<path d="M70.653,50.45c0.364-0.786,0.679-1.474,0.934-2.095c0.39,0.093,0.791,0.153,1.208,0.153c2.898,0,5.256-2.358,5.256-5.258
		s-2.358-5.258-5.256-5.258c-2.899,0-5.258,2.358-5.258,5.258c0,0.257,0.041,0.503,0.076,0.75c-1.204,0.594-2.633,1.502-3.955,2.412
		l-1.83-6.556c2.333-0.651,4.06-2.773,4.06-5.312c0-3.053-2.484-5.537-5.538-5.537c-3.053,0-5.537,2.484-5.537,5.537
		c0,1.261,0.439,2.411,1.152,3.343l-5.667,5.555L45.2,38.447c0.712-0.931,1.152-2.081,1.152-3.342c0-3.054-2.484-5.538-5.536-5.538
		c-3.055,0-5.539,2.484-5.539,5.538c0,2.538,1.728,4.659,4.06,5.312l-1.829,6.555c-1.323-0.91-2.752-1.818-3.955-2.412
		c0.037-0.247,0.076-0.492,0.076-0.75c0-2.898-2.357-5.258-5.257-5.258c-2.899,0-5.256,2.359-5.256,5.258
		c0,2.899,2.357,5.259,5.256,5.259c0.417,0,0.817-0.062,1.206-0.153c0.257,0.62,0.572,1.308,0.935,2.094
		c0.546,1.18,1.561,3.378,1.588,4.031v7.456h36.966v-8.008C69.094,53.827,70.108,51.63,70.653,50.45z"/>
</g>
</svg>
