<?xml version="1.0" encoding="utf-8"?>
<!-- Generator: Adobe Illustrator 16.0.0, SVG Export Plug-In . SVG Version: 6.00 Build 0)  -->
<!DOCTYPE svg PUBLIC "-//W3C//DTD SVG 1.1//EN" "http://www.w3.org/Graphics/SVG/1.1/DTD/svg11.dtd">
<svg version="1.1" id="Layer_1" xmlns="http://www.w3.org/2000/svg" xmlns:xlink="http://www.w3.org/1999/xlink" x="0px" y="0px"
	 width="100px" height="100px" viewBox="0 0 100 100" enable-background="new 0 0 100 100" xml:space="preserve">
<path d="M73.162,35.671c-2.852,0-5.173,2.32-5.173,5.173c0,0.253,0.04,0.495,0.075,0.738c-1.184,0.584-2.59,1.478-3.891,2.373
	l-1.8-6.449c2.296-0.643,3.995-2.729,3.995-5.227c0-3.004-2.444-5.448-5.449-5.448c-3.004,0-5.448,2.444-5.448,5.448
	c0,1.24,0.433,2.372,1.133,3.289l-5.577,5.465l-5.016-4.915c0.702-0.917,1.134-2.049,1.134-3.289c0-3.004-2.444-5.448-5.449-5.448
	c-3.004,0-5.448,2.444-5.448,5.448c0,2.497,1.699,4.585,3.994,5.227l-1.8,6.449c-1.302-0.896-2.708-1.788-3.892-2.373
	c0.035-0.243,0.075-0.485,0.075-0.737c0-2.854-2.32-5.174-5.172-5.174s-5.173,2.32-5.173,5.174c0,2.853,2.321,5.173,5.173,5.173
	c0.41,0,0.804-0.06,1.187-0.149c0.252,0.609,0.562,1.285,0.919,2.06c0.537,1.161,1.535,3.323,1.562,3.966v7.46v9.116
	c0,1.178,0.955,2.133,2.133,2.133h32.105c1.178,0,2.133-0.955,2.133-2.133v-9.116l0-8.003c0.027-0.649,1.026-2.813,1.562-3.974
	c0.357-0.773,0.667-1.449,0.919-2.061c0.382,0.092,0.777,0.151,1.188,0.151c2.852,0,5.172-2.32,5.172-5.174
	C78.334,37.992,76.014,35.671,73.162,35.671z M60.918,31.098c0.651,0,1.182,0.53,1.182,1.182s-0.531,1.182-1.182,1.182
	s-1.182-0.53-1.182-1.182S60.267,31.098,60.918,31.098z M41.696,31.648c0.651,0,1.182,0.53,1.182,1.182s-0.531,1.182-1.182,1.182
	s-1.182-0.53-1.182-1.182S41.045,31.648,41.696,31.648z M38.396,49.729c0.563,0.422,1.298,0.539,1.966,0.313
	c0.667-0.227,1.178-0.768,1.368-1.445l2.345-8.401l5.739,5.625c0.613,0.6,1.526,0.776,2.319,0.442
	c0.673-0.283,1.146-0.885,1.273-1.587l5.133-5.03l2.345,8.4c0.189,0.678,0.701,1.22,1.368,1.446c0.666,0.228,1.403,0.11,1.966-0.313
	c0.74-0.555,1.552-1.136,2.343-1.68c-0.824,1.852-1.334,3.243-1.334,4.395l-0.001,5.876H37.388v-5.326
	c0-1.149-0.511-2.541-1.335-4.393C36.845,48.594,37.656,49.174,38.396,49.729z M28.547,41.395c0-0.5,0.406-0.907,0.906-0.907
	c0.5,0,0.906,0.407,0.906,0.907s-0.406,0.906-0.906,0.906C28.953,42.301,28.547,41.895,28.547,41.395z M65.226,66.887H37.388v-4.851
	h27.838V66.887z M73.162,41.751c-0.5,0-0.906-0.407-0.906-0.907s0.406-0.906,0.906-0.906c0.499,0,0.905,0.406,0.905,0.906
	S73.661,41.751,73.162,41.751z"/>
</svg>
