<?xml version="1.0" encoding="iso-8859-1"?>
<!-- Generator: Adobe Illustrator 16.0.0, SVG Export Plug-In . SVG Version: 6.00 Build 0)  -->
<!DOCTYPE svg PUBLIC "-//W3C//DTD SVG 1.1//EN" "http://www.w3.org/Graphics/SVG/1.1/DTD/svg11.dtd">
<svg version="1.1" xmlns="http://www.w3.org/2000/svg" xmlns:xlink="http://www.w3.org/1999/xlink" x="0px" y="0px" width="33.1px"
	 height="28.547px" viewBox="0 0 33.1 28.547" style="enable-background:new 0 0 33.1 28.547;" xml:space="preserve">
<g id="c67_crown">
	<path style="fill:#000000;" d="M8.824,7.621c0.893,0,1.613-0.648,1.613-1.449S9.717,4.723,8.824,4.723
		c-0.887,0-1.609,0.648-1.609,1.449S7.938,7.621,8.824,7.621z"/>
	<path style="fill:#000000;" d="M16.184,4.971c1.527,0,2.764-1.111,2.764-2.484S17.711,0,16.184,0c-1.523,0-2.762,1.113-2.762,2.486
		S14.66,4.971,16.184,4.971z"/>
	<ellipse style="fill:#000000;" cx="24.156" cy="6.255" rx="1.611" ry="1.45"/>
	<rect x="6.209" y="23.576" style="fill:#000000;" width="19.951" height="4.971"/>
	<ellipse style="fill:#000000;" cx="30.338" cy="5.717" rx="2.762" ry="2.485"/>
	<path style="fill:#000000;" d="M5.523,5.808c0-1.374-1.234-2.485-2.764-2.485C1.238,3.322,0,4.434,0,5.808
		C0,7.18,1.238,8.293,2.76,8.293C4.289,8.293,5.523,7.18,5.523,5.808z"/>
	<path style="fill:#000000;" d="M27.229,8.664l-3.783,3.404L23.764,8.6c0,0-0.52-0.783-1.199-0.15l-2.293,2.93l-2.984-4.701
		c0,0-0.822-0.84-2.211,0l-2.912,4.584l-1.973-2.812c0,0-0.504-0.797-1.139,0.051l0.207,3.783L5.531,8.664
		c0,0-1.152-0.465-1.703,0.655l2.41,13.263h19.887L29.439,9.66C29.439,9.66,29.068,7.951,27.229,8.664z"/>
</g>
<g id="Capa_1">
</g>
</svg>
