<?xml version="1.0" encoding="iso-8859-1"?>
<!-- Generator: Adobe Illustrator 16.0.4, SVG Export Plug-In . SVG Version: 6.00 Build 0)  -->
<!DOCTYPE svg PUBLIC "-//W3C//DTD SVG 1.1//EN" "http://www.w3.org/Graphics/SVG/1.1/DTD/svg11.dtd">
<svg version="1.1" id="Capa_1" xmlns="http://www.w3.org/2000/svg" xmlns:xlink="http://www.w3.org/1999/xlink" x="0px" y="0px"
	 width="300px" height="300px" viewBox="0 0 300 300" style="enable-background:new 0 0 300 300;" xml:space="preserve">
<path id="_233954448" d="M234.943,11.023c12.618,1.155,24.078,6.32,33.096,14.206l-33.096,33.096V11.023z M228.576,58.337
	l-35.095-35.094c9.692-7.608,21.863-12.231,35.095-12.449V58.337z M272.603,29.671c8.223,8.933,13.688,20.431,15.062,33.156h-48.218
	L272.603,29.671z M288,69.196v0.012c0,13.617-4.659,26.161-12.461,36.093l-36.104-36.105H288L288,69.196z M271.326,110.093
	c-9.439,9.631-22.176,16.012-36.383,17.3V73.71L271.326,110.093z M224.062,69.208h-52.913v-0.012h52.925L224.062,69.208
	L224.062,69.208z M171.498,62.828c1.492-13.81,7.789-26.162,17.191-35.371l35.372,35.371H171.498z"/>
<path d="M127.891,270.488v-74.911l96.095-121.358L12.001,74.223l95.826,121.354v74.929c-10.702,2.391-20.84,8.623-28.634,18.696
	h77.576C148.881,279.085,138.66,272.854,127.891,270.488z M112.245,190.389l-52.73-68.624l116.122-0.002l-52.736,68.635
	L112.245,190.389z"/>
<polygon points="12.001,74.223 12.001,74.223 12.001,74.222 "/>
</svg>
