<?xml version="1.0" encoding="utf-8"?>
<!-- Generator: Adobe Illustrator 16.0.4, SVG Export Plug-In . SVG Version: 6.00 Build 0)  -->
<!DOCTYPE svg PUBLIC "-//W3C//DTD SVG 1.1//EN" "http://www.w3.org/Graphics/SVG/1.1/DTD/svg11.dtd">
<svg version="1.1" id="Layer_1" xmlns="http://www.w3.org/2000/svg" xmlns:xlink="http://www.w3.org/1999/xlink" x="0px" y="0px"
	 width="50px" height="50px" viewBox="0 0 50 50" enable-background="new 0 0 50 50" xml:space="preserve">
<g>
	<path d="M9.891,32.691c2.165,0.325,3.42-1.242,4.869-3.065c0.322-0.406,0.632-0.841,0.946-1.281c0.2-0.281,0.399-0.556,0.6-0.827
		c0.01-0.012,0.021-0.02,0.03-0.032c0.005-0.006,0.005-0.013,0.01-0.02c1.153-1.547,2.399-2.833,4.531-2.833
		c0.005,0,0.011,0,0.017,0c1.03,0.003,1.962,0.413,2.625,1.154c0.461,0.517,0.751,1.173,0.889,1.883
		c-0.188-0.151-0.406-0.275-0.659-0.362c-0.934-0.317-1.956,0.18-2.276,1.114c-0.269,0.792,0.154,1.653,0.939,1.919
		c0.139,0.048,0.28,0.071,0.419,0.071c0.535,0,1.036-0.336,1.222-0.871c0.096-0.281,0.078-0.583-0.054-0.852
		c-0.13-0.267-0.357-0.466-0.638-0.562c-0.21-0.071-0.437,0.041-0.508,0.249v0.001c-0.111,0.13-0.134,0.318-0.038,0.468
		c0.095,0.15,0.272,0.21,0.435,0.168c0.008,0.012,0.024,0.014,0.03,0.027c0.037,0.075,0.042,0.16,0.016,0.237
		c-0.088,0.257-0.369,0.393-0.625,0.305c-0.37-0.125-0.568-0.532-0.441-0.904c0.177-0.517,0.744-0.794,1.259-0.616
		c0.861,0.296,0.929,1.069,0.825,1.692c-0.203,0.592-0.562,1.119-1.062,1.521c-0.696,0.561-1.57,0.812-2.459,0.719
		c-1.423-0.155-2.455-1.439-2.301-2.862c0.121-1.094,1.116-1.886,2.203-1.771c0.223,0.033,0.417-0.135,0.44-0.354
		c0.024-0.22-0.135-0.417-0.354-0.44c-1.539-0.17-2.917,0.947-3.084,2.479c-0.203,1.862,1.147,3.541,3.009,3.744
		c0.153,0.017,0.307,0.024,0.459,0.024c0.939,0,1.845-0.316,2.588-0.915c0.343-0.275,0.619-0.607,0.854-0.966v1.64
		c0,0.221,0.179,0.399,0.4,0.399c0.221,0,0.4-0.179,0.4-0.399v-1.612c0.232,0.347,0.501,0.67,0.836,0.938
		c0.742,0.598,1.647,0.915,2.588,0.915c0.151,0,0.305-0.008,0.459-0.024c0.901-0.099,1.711-0.542,2.28-1.249
		c0.567-0.707,0.826-1.593,0.728-2.495c-0.167-1.531-1.544-2.643-3.083-2.479c-0.22,0.023-0.378,0.222-0.354,0.44
		c0.024,0.219,0.224,0.389,0.44,0.354c1.107-0.114,2.083,0.678,2.203,1.771c0.075,0.688-0.123,1.367-0.557,1.907
		c-0.436,0.541-1.054,0.88-1.743,0.955c-0.893,0.093-1.764-0.158-2.459-0.719c-0.565-0.454-0.948-1.068-1.128-1.757
		c-0.044-0.569,0.102-1.195,0.854-1.456c0.52-0.175,1.083,0.102,1.26,0.614c0.062,0.182,0.05,0.376-0.033,0.547
		s-0.229,0.298-0.41,0.36c-0.125,0.042-0.256,0.035-0.373-0.022c-0.118-0.058-0.206-0.158-0.249-0.283
		c-0.027-0.077-0.022-0.162,0.015-0.236c0.006-0.014,0.023-0.017,0.031-0.027c0.163,0.042,0.339-0.019,0.435-0.168
		c0.097-0.148,0.073-0.338-0.038-0.468v-0.001c-0.071-0.208-0.299-0.32-0.508-0.249c-0.281,0.096-0.508,0.296-0.638,0.562
		c-0.13,0.268-0.149,0.569-0.052,0.85c0.111,0.327,0.345,0.59,0.654,0.742c0.179,0.087,0.37,0.13,0.562,0.13
		c0.141,0,0.283-0.023,0.42-0.071c0.383-0.13,0.692-0.401,0.87-0.765c0.177-0.362,0.203-0.772,0.072-1.158
		c-0.322-0.933-1.343-1.429-2.276-1.112c-0.235,0.081-0.438,0.196-0.616,0.333c0.142-0.699,0.428-1.345,0.883-1.854
		c0.663-0.741,1.596-1.15,2.625-1.154c0.005,0,0.012,0,0.018,0c2.132,0,3.378,1.287,4.53,2.833c0.005,0.006,0.006,0.014,0.011,0.02
		c0.009,0.013,0.02,0.021,0.029,0.032c0.201,0.271,0.4,0.546,0.601,0.827c0.312,0.44,0.624,0.875,0.946,1.281
		c1.448,1.824,2.698,3.396,4.867,3.065c0.872-0.133,1.639-0.607,2.159-1.337c0.532-0.745,0.744-1.688,0.582-2.59
		c-0.131-0.73-0.54-1.37-1.149-1.794c-0.611-0.424-1.351-0.586-2.083-0.455c-0.218,0.039-0.362,0.247-0.323,0.464
		s0.246,0.36,0.464,0.323c0.521-0.093,1.049,0.021,1.484,0.324c0.436,0.303,0.727,0.757,0.819,1.278
		c0.125,0.69-0.038,1.413-0.444,1.983c-0.395,0.552-0.974,0.911-1.63,1.011c-1.633,0.247-2.581-0.834-4.119-2.771
		c-0.191-0.241-0.376-0.504-0.562-0.762c0.273-0.011,0.548-0.083,0.818-0.234c0.737-0.417,1.002-1.358,0.587-2.102
		c-0.355-0.629-1.159-0.854-1.79-0.5c-0.263,0.148-0.453,0.391-0.534,0.683c-0.082,0.292-0.044,0.597,0.104,0.858
		c0.168,0.3,0.471,0.478,0.79,0.499c-0.399,0.022-0.726-0.258-0.953-0.543c-1.221-1.634-2.699-3.196-5.203-3.196
		c-0.006,0-0.014,0-0.02,0c-1.26,0.004-2.402,0.508-3.219,1.42c-0.183,0.204-0.332,0.435-0.474,0.67v-1.364l0.05-0.002
		c0.841-0.005,2.25-0.014,2.538-2.005c0.024-0.177,0.021-0.354,0.015-0.546c-0.018-0.509-0.038-1.086,0.821-2.199
		c0.085-0.111,0.104-0.259,0.054-0.39s-0.168-0.226-0.307-0.249c0,0-0.984-0.196-2.097,0.396c-0.066-0.251-0.157-0.47-0.242-0.672
		c-0.196-0.472-0.326-0.784-0.12-1.319c0.053-0.138,0.024-0.293-0.071-0.405c-0.098-0.112-0.247-0.158-0.392-0.128
		c-0.028,0.007-0.697,0.164-1.292,0.652c-0.454,0.372-0.934,0.99-0.946,1.946c-1.058-0.428-1.974-0.211-2.028-0.198
		c-0.137,0.033-0.247,0.136-0.288,0.27c-0.042,0.135-0.01,0.281,0.084,0.386c0.939,1.045,0.963,1.623,0.984,2.132
		c0.008,0.191,0.018,0.369,0.057,0.543c0.273,1.233,0.979,1.832,2.157,1.832c0.077,0,0.148-0.007,0.224-0.01v1.357
		c-0.146-0.244-0.303-0.483-0.493-0.695c-0.815-0.912-1.958-1.417-3.218-1.42c-0.007,0-0.013,0-0.02,0
		c-2.505,0-3.985,1.563-5.205,3.198c-0.228,0.285-0.547,0.565-0.953,0.541c0.32-0.021,0.623-0.198,0.791-0.497
		c0.149-0.264,0.186-0.569,0.104-0.86c-0.081-0.292-0.271-0.533-0.534-0.682c-0.631-0.355-1.435-0.13-1.79,0.501
		c-0.415,0.74-0.152,1.683,0.588,2.1c0.269,0.151,0.544,0.224,0.816,0.234c-0.186,0.257-0.37,0.52-0.562,0.761
		c-1.539,1.938-2.49,3.022-4.121,2.771c-0.656-0.1-1.234-0.459-1.628-1.011c-0.407-0.57-0.57-1.293-0.445-1.983
		c0.094-0.521,0.385-0.977,0.82-1.278c0.435-0.303,0.962-0.417,1.484-0.324c0.218,0.038,0.425-0.106,0.464-0.323
		s-0.105-0.425-0.323-0.464c-0.732-0.129-1.471,0.03-2.083,0.455c-0.611,0.425-1.02,1.062-1.15,1.794
		c-0.163,0.901,0.049,1.845,0.582,2.59C8.252,32.084,9.02,32.559,9.891,32.691z M35.181,26.681c-0.043-0.077-0.054-0.167-0.03-0.252
		c0.024-0.085,0.079-0.156,0.155-0.199c0.247-0.138,0.562-0.052,0.701,0.194c0.122,0.219,0.122,0.474,0.022,0.684
		c0.001-0.068-0.016-0.139-0.052-0.204c-0.073-0.131-0.209-0.203-0.35-0.203c-0.066,0-0.133,0.016-0.195,0.051
		C35.346,26.802,35.231,26.771,35.181,26.681z M23.006,22.596c-0.029-0.129-0.032-0.261-0.038-0.403
		c-0.02-0.478-0.046-1.101-0.688-2.01c0.394,0.031,0.899,0.151,1.386,0.497c0.135,0.097,0.316,0.098,0.454,0.006
		c0.138-0.092,0.205-0.26,0.167-0.422c-0.288-1.256,0.375-1.895,0.926-2.2c-0.003,0.443,0.147,0.803,0.284,1.134
		c0.137,0.329,0.266,0.639,0.286,1.056c0.006,0.151,0.097,0.285,0.233,0.347c0.14,0.063,0.298,0.043,0.416-0.053
		c0.45-0.361,0.932-0.512,1.31-0.572c-0.572,0.956-0.551,1.579-0.534,2.057c0.005,0.142,0.012,0.273-0.007,0.404
		c-0.189,1.31-0.912,1.314-1.75,1.319l-0.596,0.023C24.207,23.825,23.329,24.045,23.006,22.596z M14.56,26.751
		c-0.194-0.108-0.437-0.038-0.545,0.152c-0.036,0.064-0.052,0.136-0.051,0.204c-0.099-0.211-0.099-0.465,0.023-0.683
		c0.094-0.167,0.269-0.261,0.448-0.261c0.085,0,0.172,0.021,0.251,0.065c0.077,0.043,0.132,0.114,0.156,0.199
		c0.024,0.085,0.013,0.175-0.031,0.253C14.763,26.771,14.648,26.802,14.56,26.751z"/>
</g>
</svg>
