<?xml version="1.0" encoding="utf-8"?>
<!-- Generator: Adobe Illustrator 16.0.4, SVG Export Plug-In . SVG Version: 6.00 Build 0)  -->
<!DOCTYPE svg PUBLIC "-//W3C//DTD SVG 1.1//EN" "http://www.w3.org/Graphics/SVG/1.1/DTD/svg11.dtd">
<svg version="1.1" id="Layer_1" xmlns="http://www.w3.org/2000/svg" xmlns:xlink="http://www.w3.org/1999/xlink" x="0px" y="0px"
	 width="50px" height="50px" viewBox="0 0 50 50" enable-background="new 0 0 50 50" xml:space="preserve">
<g>
	<path d="M45,36.124H26.12c1.043-0.287,1.942-0.924,2.536-1.799c0.037,0.012,0.074,0.023,0.113,0.023h16.138
		c0.221,0,0.399-0.182,0.399-0.4c0-0.221-0.179-0.4-0.399-0.4h-7.909c0.718-0.271,1.398-0.65,2.012-1.148
		c1.508-1.226,2.449-2.963,2.649-4.896c0.007-0.069-0.011-0.137-0.036-0.196c0.535,0.103,1.177,0.139,1.541-0.854
		c0.159-0.436-0.025-0.952,1.042-1.863c0,0-0.813-0.313-1.681,0.125c0.135-0.818-0.365-1.25,0.104-1.974
		c0,0-1.706,0.028-1.674,1.726c-0.674-0.729-1.568-0.703-1.568-0.703c0.704,1.215,0.357,1.641,0.362,2.104
		c0.012,1.092,0.673,1.247,1.224,1.327c-0.057,0.062-0.1,0.138-0.108,0.228c-0.179,1.722-1.017,3.269-2.358,4.357
		s-3.031,1.592-4.748,1.414c-1.453-0.151-2.691-0.909-3.516-1.988c0.49,0.296,1.04,0.494,1.631,0.556
		c0.171,0.02,0.342,0.026,0.512,0.026c1.081,0,2.119-0.354,2.969-1.026c0.746-0.59,1.277-1.367,1.549-2.244
		c0.57-0.146,1.514-0.619,0.568-2.109c-0.185-0.292-0.617-0.913-0.647-1.708c0,0-2.454,2.69-0.724,3.677
		c-0.231,0.685-0.652,1.293-1.242,1.757c-0.817,0.646-1.853,0.939-2.902,0.834c-0.838-0.088-1.587-0.488-2.11-1.134
		c-0.354-0.437-0.565-0.948-0.634-1.485c-0.011-0.248-0.023-0.496,0.002-0.75c0-0.002-0.001-0.004,0-0.006
		c0.081-0.578,0.374-1.1,0.842-1.47c0.494-0.392,1.114-0.569,1.754-0.503c0.488,0.051,0.928,0.283,1.237,0.652
		c0.308,0.369,0.449,0.828,0.399,1.297c-0.075,0.729-0.764,1.258-1.514,1.187c-0.223-0.032-0.418,0.138-0.439,0.356
		c-0.022,0.219,0.137,0.416,0.357,0.438c1.193,0.133,2.271-0.729,2.393-1.897c0.07-0.687-0.137-1.355-0.583-1.892
		c-0.444-0.531-1.072-0.863-1.769-0.936c-0.352-0.038-0.697-0.007-1.029,0.067c0.086-0.248,0.143-0.51,0.143-0.785
		c0-1.1-0.895-1.992-1.992-1.992c-0.923,0-1.674,0.752-1.674,1.676c0,0.221,0.18,0.4,0.4,0.4s0.4-0.18,0.4-0.4
		c0-0.482,0.393-0.875,0.875-0.875c0.656,0,1.191,0.535,1.191,1.191c0,0.877-0.713,1.59-1.59,1.59c-1.152,0-2.09-0.936-2.09-2.088
		c0-1.25,0.586-2.709,2.234-2.709c0.221,0,0.4-0.18,0.4-0.4c0-0.22-0.18-0.4-0.4-0.4h-2.078c0.164-0.117,0.32-0.252,0.463-0.405
		c0.561-0.601,0.865-1.392,0.857-2.229l-0.009-0.982c-0.001-0.133-0.07-0.258-0.183-0.329c-0.111-0.073-0.252-0.084-0.377-0.032
		c-0.023,0.012-2.477,1.057-3.958,0.057c-0.184-0.123-0.432-0.074-0.555,0.107s-0.075,0.432,0.108,0.556
		c1.371,0.925,3.249,0.515,4.17,0.218l0.004,0.416c0.005,0.633-0.223,1.229-0.643,1.678c-0.414,0.441-0.966,0.688-1.554,0.693
		c-0.584,0.02-1.144-0.23-1.565-0.668c-0.427-0.441-0.665-1.033-0.67-1.666l-0.022-2.566c-0.002-0.232,0.211-0.479,0.585-0.678
		c0.461-0.246,1.095-0.386,1.784-0.391c0.012-0.001,0.024-0.001,0.036-0.001c1.109,0,1.818,0.447,1.822,0.748
		c-0.023,0.084-0.199,0.224-0.469,0.354c0.133-0.148,0.137-0.377,0.001-0.53c-0.313-0.357-0.963-0.412-1.656-0.438
		c-0.899-0.044-1.371,0.219-1.601,0.441c-0.188,0.184-0.291,0.412-0.289,0.646c0.009,0.989,1.967,1,2.2,1.002
		c1.069-0.012,2.618-0.586,2.61-1.471c-0.008-0.896-1.117-1.579-2.662-1.553c-0.815,0.007-1.579,0.179-2.152,0.48
		c-0.656,0.351-1.015,0.842-1.01,1.393l0.022,2.566c0.007,0.84,0.325,1.625,0.895,2.215c0.135,0.142,0.281,0.263,0.434,0.371H21.12
		c-0.221,0-0.4,0.181-0.4,0.399c0,0.22,0.179,0.399,0.4,0.399c1.649,0,2.234,1.461,2.234,2.711c0,1.15-0.938,2.087-2.089,2.087
		c-0.876,0-1.59-0.712-1.59-1.589c0-0.657,0.535-1.192,1.191-1.192c0.482,0,0.875,0.394,0.875,0.875c0,0.222,0.179,0.399,0.4,0.399
		c0.221,0,0.4-0.18,0.4-0.399c0-0.924-0.751-1.676-1.674-1.676c-1.098,0-1.991,0.896-1.991,1.993c0,0.267,0.054,0.52,0.135,0.759
		c-0.294-0.052-0.594-0.076-0.9-0.042c-0.697,0.072-1.325,0.404-1.769,0.935c-0.447,0.535-0.654,1.207-0.583,1.893
		c0.122,1.172,1.2,2.031,2.393,1.898c0.22-0.021,0.379-0.22,0.357-0.438c-0.022-0.221-0.218-0.393-0.439-0.355
		c-0.76,0.069-1.439-0.455-1.515-1.188c-0.049-0.469,0.094-0.93,0.4-1.297c0.31-0.369,0.75-0.604,1.238-0.652
		c0.636-0.064,1.26,0.112,1.754,0.503c0.469,0.37,0.761,0.892,0.842,1.47c0,0.002-0.001,0.004,0,0.008
		c0.026,0.254,0.013,0.502,0.002,0.75c-0.069,0.537-0.281,1.049-0.634,1.483c-0.523,0.646-1.272,1.046-2.11,1.134
		c-1.054,0.105-2.084-0.188-2.903-0.832c-0.588-0.466-1.009-1.074-1.242-1.759c1.731-0.985-0.723-3.677-0.723-3.677
		c-0.03,0.795-0.463,1.416-0.648,1.708c-0.945,1.49,0,1.963,0.569,2.107c0.271,0.879,0.802,1.656,1.548,2.246
		c0.85,0.67,1.888,1.026,2.969,1.026c0.17,0,0.34-0.009,0.512-0.026c0.591-0.062,1.14-0.26,1.631-0.556
		c-0.824,1.079-2.062,1.837-3.516,1.988c-1.716,0.178-3.405-0.325-4.748-1.414c-1.342-1.091-2.18-2.638-2.358-4.357
		c-0.009-0.09-0.053-0.165-0.109-0.228c0.551-0.079,1.212-0.234,1.224-1.327c0.005-0.463-0.341-0.889,0.362-2.104
		c0,0-0.895-0.025-1.568,0.705c0.031-1.697-1.674-1.727-1.674-1.727C7.842,23.47,7.342,23.9,7.477,24.72
		c-0.867-0.439-1.681-0.125-1.681-0.125c1.068,0.91,0.884,1.427,1.042,1.862c0.363,0.99,1.006,0.954,1.541,0.853
		c-0.026,0.062-0.043,0.127-0.036,0.197c0.201,1.934,1.141,3.672,2.649,4.896c0.613,0.498,1.294,0.876,2.012,1.146H5.095
		c-0.221,0-0.4,0.182-0.4,0.4s0.179,0.398,0.4,0.398h16.137c0.003,0,0.006-0.002,0.01-0.002c0.592,0.863,1.484,1.493,2.518,1.777H5
		c-0.221,0-0.4,0.18-0.4,0.4c0,0.22,0.179,0.398,0.4,0.398h40c0.221,0,0.4-0.18,0.4-0.398C45.4,36.304,45.221,36.124,45,36.124z
		 M29.427,31.812c0-0.143-0.028-0.273-0.042-0.412c0.631,0.938,1.524,1.692,2.588,2.146h-2.896
		C29.302,33.015,29.427,32.429,29.427,31.812z M25.154,15.292c-0.699,0.046-1.316-0.161-1.393-0.206
		c0.006-0.068,0.244-0.288,0.921-0.288c0.044,0,0.09,0.001,0.137,0.003c0.779,0.031,1.022,0.11,1.089,0.172
		c0.072,0.082,0.173,0.127,0.275,0.133C25.885,15.21,25.527,15.289,25.154,15.292z M18.026,33.548
		c0.99-0.422,1.828-1.107,2.448-1.955c-0.004,0.073-0.022,0.146-0.022,0.221c0,0.615,0.125,1.201,0.35,1.734H18.026L18.026,33.548z
		 M23.268,35.082c-1.191-0.612-2.017-1.84-2.017-3.271s0.826-2.656,2.017-3.271c-0.466,0.812-0.756,1.964-0.756,3.271
		S22.802,34.269,23.268,35.082z M24.54,35.354c-0.639-0.41-1.228-1.742-1.228-3.543c0-1.799,0.589-3.131,1.228-3.543V35.354z
		 M24.54,27.363c-1.191,0.106-2.241,0.673-2.981,1.528c0.025-0.188,0.04-0.375,0.047-0.565c0-0.001,0-0.001,0-0.002
		c0.005-0.147,0.004-0.297-0.002-0.447c-0.002-0.097,0.009-0.19-0.001-0.288c-0.04-0.389-0.158-0.756-0.333-1.093
		c1.591-0.003,2.885-1.296,2.885-2.889c0-1.148-0.365-2.092-0.994-2.709h0.168c0.011,0.025,0.011,0.058,0.028,0.082l0.975,1.438
		c0.058,0.085,0.133,0.143,0.209,0.197L24.54,27.363L24.54,27.363z M26.609,35.082c0.467-0.812,0.757-1.964,0.757-3.271
		s-0.291-2.457-0.757-3.271c1.192,0.611,2.019,1.84,2.019,3.271S27.802,34.472,26.609,35.082z M25.339,22.616
		c0.076-0.056,0.152-0.112,0.21-0.197l0.975-1.438c0.017-0.023,0.017-0.056,0.027-0.082h0.168c-0.628,0.617-0.994,1.562-0.994,2.709
		c0,1.595,1.297,2.89,2.89,2.89c0.042,0,0.081-0.011,0.122-0.014c-0.178,0.342-0.297,0.714-0.338,1.104
		c-0.01,0.097,0,0.191-0.002,0.288c-0.006,0.15-0.006,0.301-0.002,0.447c0,0.001,0,0.001,0,0.002
		c0.01,0.253,0.035,0.502,0.074,0.746c-0.744-0.956-1.857-1.594-3.129-1.709L25.339,22.616L25.339,22.616z M25.339,35.354v-7.086
		c0.64,0.412,1.228,1.744,1.228,3.543C26.566,33.611,25.979,34.944,25.339,35.354z"/>
</g>
</svg>
