<?xml version="1.0" encoding="iso-8859-1"?>
<!-- Generator: Adobe Illustrator 17.0.2, SVG Export Plug-In . SVG Version: 6.00 Build 0)  -->
<!DOCTYPE svg PUBLIC "-//W3C//DTD SVG 1.1//EN" "http://www.w3.org/Graphics/SVG/1.1/DTD/svg11.dtd">
<svg version="1.1" id="Layer_1" xmlns="http://www.w3.org/2000/svg" xmlns:xlink="http://www.w3.org/1999/xlink" x="0px" y="0px"
	 width="64px" height="64px" viewBox="0 0 64 64" style="enable-background:new 0 0 64 64;" xml:space="preserve">
<g>
	<path d="M52.935,31.883c-0.131-10.864-8.619-19.735-19.318-20.517l0.02-0.978c1.492-0.612,2.548-2.077,2.548-3.787
		c0-2.259-1.837-4.096-4.096-4.096s-4.096,1.837-4.096,4.096c0,1.746,1.102,3.228,2.643,3.817l-0.019,0.946
		c-10.809,0.76-19.377,9.775-19.377,20.774c0,0.828,0.671,1.5,1.5,1.5h38.696c0.007,0,0.013,0,0.02,0c0.829,0,1.5-0.672,1.5-1.5
		C52.957,32.051,52.949,31.966,52.935,31.883z M32.088,5.505c0.604,0,1.096,0.491,1.096,1.096s-0.492,1.096-1.096,1.096
		s-1.096-0.491-1.096-1.096S31.484,5.505,32.088,5.505z M14.303,30.638c0.764-9.143,8.449-16.349,17.786-16.349
		s17.021,7.206,17.786,16.349H14.303z"/>
	<path d="M34.488,16.25c-0.829,0-1.5,0.672-1.5,1.5s0.671,1.5,1.5,1.5c4.349,0,8.781,4.432,8.781,8.78c0,0.828,0.671,1.5,1.5,1.5
		s1.5-0.672,1.5-1.5C46.269,21.975,40.544,16.25,34.488,16.25z"/>
	<path d="M52.937,36.299c0-0.828-0.671-1.5-1.5-1.5H12.74c-0.829,0-1.5,0.672-1.5,1.5s0.671,1.5,1.5,1.5h4.361
		c-0.232,0.455-0.364,0.956-0.364,1.483v2.241c0,0.516,0.06,1.291,0.139,1.805l0.386,2.487c0.128,0.822,0.702,1.751,1.394,2.257
		l5.527,4.052c0.583,0.429,1.495,0.77,2.241,0.842l10.372,1.638l1.178,4.442c0.285,1.074,1.368,1.884,2.519,1.884h9.407
		c1.266,0,2.329-0.956,2.42-2.177c0.006-0.074,0.006-0.149,0-0.224l-0.46-6.182l0.126-1.684c0.052-0.69-0.114-1.616-0.402-2.252
		l-1.96-4.317c-0.109-0.239-0.219-0.481-0.348-0.703c-0.045-0.192-0.106-0.394-0.171-0.606l-0.45-1.49
		c-0.251-0.834-0.967-1.61-1.263-1.905c-0.397-0.396-0.729-0.998-1.049-1.579c-0.002-0.004-0.004-0.008-0.007-0.012h5.1
		C52.265,37.799,52.937,37.127,52.937,36.299z M46.715,44.965c0.05,0.099,0.112,0.229,0.177,0.37l1.96,4.317
		c0.079,0.175,0.156,0.602,0.143,0.787l-0.135,1.796c-0.006,0.074-0.006,0.149,0,0.224l0.407,5.471h-8.485l-1.152-4.345
		c-0.27-1.019-1.242-1.823-2.327-1.939l-10.46-1.65c-0.04-0.007-0.08-0.011-0.12-0.015c-0.209-0.016-0.626-0.175-0.764-0.275
		l-5.524-4.05c-0.071-0.058-0.188-0.238-0.208-0.302l-0.385-2.484c-0.056-0.357-0.104-0.987-0.104-1.346v-2.241
		c0-0.288,0.538-0.725,1.348-0.725s1.347,0.437,1.347,0.725v2.241c0,0.833,0.424,1.835,1.033,2.438l2.916,2.89
		c0.604,0.599,1.635,1.017,2.507,1.017h12.625c0.699,0,1.337-0.296,1.752-0.812c0.399-0.498,0.548-1.148,0.408-1.786l-0.194-0.885
		c-0.173-0.787-0.724-1.619-0.954-1.941c-0.707-0.992-0.801-2.505-0.775-3.082c0-0.691,0.518-1.184,1.264-1.219
		c0.189,0.184,0.494,0.737,0.702,1.115c0.402,0.73,0.859,1.558,1.559,2.256c0.266,0.265,0.473,0.562,0.509,0.647l0.45,1.491
		c0.04,0.133,0.075,0.254,0.101,0.352C46.34,44.371,46.484,44.707,46.715,44.965z M40.082,44.186
		c0.179,0.252,0.323,0.511,0.403,0.683H28.893c-0.102-0.005-0.333-0.095-0.4-0.147l-2.911-2.884
		c-0.057-0.065-0.141-0.253-0.15-0.313v-2.241c0-0.528-0.132-1.028-0.364-1.483h13.977c-0.184,0.461-0.294,0.956-0.293,1.479
		C38.735,39.566,38.634,42.155,40.082,44.186z"/>
</g>
</svg>
