<?xml version="1.0" encoding="iso-8859-1"?>
<!-- Generator: Adobe Illustrator 17.0.0, SVG Export Plug-In . SVG Version: 6.00 Build 0)  -->
<!DOCTYPE svg PUBLIC "-//W3C//DTD SVG 1.1//EN" "http://www.w3.org/Graphics/SVG/1.1/DTD/svg11.dtd">
<svg version="1.1" id="Capa_1" xmlns="http://www.w3.org/2000/svg" xmlns:xlink="http://www.w3.org/1999/xlink" x="0px" y="0px"
	 width="64px" height="64px" viewBox="0 0 64 64" style="enable-background:new 0 0 64 64;" xml:space="preserve">
<g>
	<path d="M46.849,36.352v23.01c0,1.248,1.016,2.263,2.264,2.263s2.263-1.015,2.263-2.263V36.979l-2.21,1.058L46.849,36.352z
		 M50.393,58.906c0,0.708-0.574,1.281-1.281,1.281c-0.708,0-1.281-0.574-1.281-1.281c0-0.708,0.574-1.281,1.281-1.281
		C49.82,57.625,50.393,58.199,50.393,58.906z"/>
	<path d="M37.231,29.589c1.088-1.172,1.685-3.041,1.685-5.568c0-9.609,0-14.841-2.515-16.714l-0.167,11.401
		c0,0.224-0.106,1.293-0.237,1.293H35.78c-0.131,0-0.237-0.96-0.237-1.184L34.932,6.304c-0.581-0.263-2.015-1.169-2.182-1.169
		L32.12,18.707c0,0.224-0.106,1.293-0.237,1.293h-0.216c-0.131,0-0.237-1.069-0.237-1.293L31.267,4.073
		c-1.672-1.118-1.316-1.337-1.668-0.107c-0.977,3.418-1.21,12.565-1.21,19.865c0,2.391,0.537,4.242,1.516,5.471
		c0.314,0.394,0.67,0.729,1.073,0.992c0.305,0.198,0.635,0.357,0.988,0.477l-0.772,28.982c0,0.601,1.311,1.246,1.927,1.246h1.014
		c0.616,0,1.927-0.702,1.927-1.303L35.294,30.8c0.353-0.109,0.683-0.255,0.989-0.438C36.632,30.153,36.948,29.894,37.231,29.589z
		 M33.714,59.333c-0.729,0-1.32-0.591-1.32-1.32c0-0.729,0.591-1.319,1.32-1.319c0.729,0,1.32,0.591,1.32,1.319
		C35.033,58.743,34.442,59.333,33.714,59.333z"/>
	<path d="M51.875,35.631l0.457-0.219l-0.051-0.771l-1.587-23.83c-0.189-0.572-1.853-5.415-4.473-7.401l-0.348,30.996l0.117,0.085
		l0.425,0.309l0.46,0.334l2.396,1.742l2.104-1.006L51.875,35.631z"/>
	<path d="M23.333,15.688C23.333,11.137,20.892,4,16.761,4s-6.572,7.137-6.572,11.688c0,3.776,1.686,6.952,4.619,7.925l-0.856,36.144
		c0,0.759,1.467,1.243,2.156,1.243h1.135c0.689,0,2.156-0.484,2.156-1.243l-0.855-36.093C21.582,22.759,23.333,19.536,23.333,15.688
		z M16.761,58.557c-0.772,0-1.397-0.689-1.397-1.539c0-0.85,0.626-1.539,1.397-1.539s1.397,0.689,1.397,1.539
		C18.159,57.868,17.533,58.557,16.761,58.557z"/>
</g>
</svg>
