<?xml version="1.0" encoding="utf-8"?>
<!-- Generator: Adobe Illustrator 16.0.0, SVG Export Plug-In . SVG Version: 6.00 Build 0)  -->
<!DOCTYPE svg PUBLIC "-//W3C//DTD SVG 1.1//EN" "http://www.w3.org/Graphics/SVG/1.1/DTD/svg11.dtd">
<svg version="1.1" id="Capa_1" xmlns="http://www.w3.org/2000/svg" xmlns:xlink="http://www.w3.org/1999/xlink" x="0px" y="0px"
	 width="64px" height="64px" viewBox="0 0 64 64" enable-background="new 0 0 64 64" xml:space="preserve">
<g>
	<path d="M60.745,50.997h-3.32c0-13.639-10.73-24.772-24.21-25.418v-2.032c1.27-0.498,2.171-1.725,2.171-3.173
		c0-1.883-1.527-3.413-3.413-3.413c-1.886,0-3.415,1.529-3.415,3.413c0,1.448,0.903,2.677,2.172,3.173v2.032
		C17.252,26.226,6.523,37.355,6.523,50.997H3.2c-1.372,0-2.484,1.11-2.484,2.483v2.482c0,1.374,1.113,2.484,2.484,2.484h57.545
		c1.372,0,2.484-1.11,2.484-2.484V53.48C63.229,52.107,62.12,50.997,60.745,50.997z"/>
	<path d="M10.177,7.761c0.528-0.43,0.611-1.205,0.188-1.737c-0.426-0.54-1.21-0.625-1.745-0.198C7.317,6.863,5.602,9.76,8.421,13.31
		c2.113,2.66-1.176,6.55-1.208,6.585c-0.449,0.519-0.392,1.301,0.126,1.752c0.235,0.202,0.524,0.303,0.813,0.303
		c0.347,0,0.693-0.143,0.939-0.426c0.191-0.226,4.669-5.484,1.276-9.76C8.483,9.395,9.873,8.016,10.177,7.761z"/>
	<path d="M21.041,7.761c0.526-0.43,0.611-1.205,0.188-1.737c-0.426-0.539-1.208-0.625-1.745-0.198
		c-1.302,1.037-3.02,3.935-0.2,7.484c2.115,2.66-1.176,6.55-1.208,6.585c-0.449,0.519-0.392,1.301,0.126,1.752
		c0.233,0.202,0.523,0.303,0.812,0.303c0.347,0,0.693-0.143,0.94-0.426c0.191-0.226,4.669-5.484,1.274-9.76
		C19.345,9.395,20.737,8.016,21.041,7.761z"/>
	<path d="M42.268,21.648c0.232,0.202,0.522,0.303,0.811,0.303c0.347,0,0.694-0.143,0.94-0.426c0.191-0.226,4.669-5.484,1.274-9.76
		c-1.881-2.372-0.494-3.748-0.188-4.005c0.529-0.43,0.616-1.205,0.188-1.738c-0.427-0.539-1.206-0.625-1.744-0.198
		c-1.303,1.037-3.019,3.935-0.197,7.485c2.112,2.66-1.176,6.55-1.209,6.585C41.692,20.416,41.749,21.199,42.268,21.648z"/>
	<path d="M55.968,7.761c0.527-0.43,0.613-1.205,0.188-1.737c-0.428-0.539-1.209-0.625-1.744-0.198
		c-1.303,1.037-3.019,3.935-0.198,7.484c2.111,2.66-1.178,6.55-1.207,6.585c-0.451,0.519-0.394,1.301,0.124,1.752
		c0.236,0.202,0.525,0.303,0.813,0.303c0.346,0,0.693-0.143,0.941-0.426c0.19-0.226,4.667-5.484,1.274-9.76
		C54.273,9.395,55.666,8.016,55.968,7.761z"/>
</g>
</svg>
