<?xml version="1.0" encoding="utf-8"?>
<!-- Generator: Adobe Illustrator 16.0.4, SVG Export Plug-In . SVG Version: 6.00 Build 0)  -->
<!DOCTYPE svg PUBLIC "-//W3C//DTD SVG 1.1//EN" "http://www.w3.org/Graphics/SVG/1.1/DTD/svg11.dtd">
<svg version="1.1" id="Capa_1" xmlns="http://www.w3.org/2000/svg" xmlns:xlink="http://www.w3.org/1999/xlink" x="0px" y="0px"
	 width="64px" height="64px" viewBox="0 0 64 64" enable-background="new 0 0 64 64" xml:space="preserve">
<g>
	<path d="M40.79,35.891l-1.804-0.685l-0.868,25.604c0,0.576,3.012,1.189,4.427,1.189h0.631c1.416,0,4.428-0.613,4.428-1.189
		l-0.927-27.324L40.79,35.891z M42.952,58.128c-0.786,0-1.423-0.638-1.423-1.423c0-0.786,0.637-1.423,1.423-1.423
		s1.423,0.637,1.423,1.423C44.375,57.49,43.738,58.128,42.952,58.128z M42.952,42.361c-0.786,0-1.423-0.637-1.423-1.424
		c0-0.785,0.637-1.422,1.423-1.422s1.423,0.637,1.423,1.422C44.375,41.725,43.738,42.361,42.952,42.361z"/>
	<path d="M31.517,14.812c0-8.022-0.476-10.391-2.334-11.087l-0.219,10.362c0,0.498-0.367,0.912-0.818,0.912h-0.289
		c-0.451,0-0.818-0.414-0.818-0.923l-0.844-10.64c-0.227,0-0.46,0.001-0.706,0.001c-0.426,0-0.819,0.003-1.187,0.012l-0.843,10.666
		c0.001,0.469-0.365,0.883-0.816,0.883h-0.289c-0.451,0-0.818-0.414-0.818-0.923L21.321,3.974c-1.857,0.998-1.86,3.835-1.86,11.854
		c0,2.184,0.392,3.915,1.318,5.11c0.296,0.65,0.648,1.419,1.021,2.224c0.575,1.244,1.195,2.565,1.737,3.681l-0.852,32.735
		c0,0.771,1.642,1.422,2.414,1.422h1.271c0.772,0,2.414-0.718,2.414-1.49l-0.864-33.106l1.977-5.163l0.335-0.876
		C31.133,18.923,31.517,16.969,31.517,14.812z"/>
	<path d="M40.776,34.816l6.841-2.795l-2.81-29.709c-3.698,3.21-5.405,6.936-5.647,7.492L37.653,33.63L40.776,34.816z"/>
</g>
</svg>
