<?xml version="1.0" encoding="utf-8"?>
<!-- Generator: Adobe Illustrator 16.0.0, SVG Export Plug-In . SVG Version: 6.00 Build 0)  -->
<!DOCTYPE svg PUBLIC "-//W3C//DTD SVG 1.1//EN" "http://www.w3.org/Graphics/SVG/1.1/DTD/svg11.dtd">
<svg version="1.1" id="Layer_1" xmlns="http://www.w3.org/2000/svg" xmlns:xlink="http://www.w3.org/1999/xlink" x="0px" y="0px"
	 width="512px" height="512px" viewBox="0 0 512 512" enable-background="new 0 0 512 512" xml:space="preserve">
<path fill="#010101" d="M354.688-0.844L347.594-0.5c-84.922,4.344-187.547,112.75-186.109,196.594
	c0.609,35.5,13.594,68.813,35.781,96L83.047,406.313L26.484,349.75c-6.266-6.25-16.375-6.25-22.641,0
	c-6.25,6.25-6.25,16.375,0,22.625l74.063,74.063l5.141,5.156l0,0l56.563,56.563c6.266,6.25,16.375,6.25,22.625,0
	c6.266-6.25,6.266-16.375,0-22.625l-56.563-56.563L219.891,314.75c27.219,22.156,60.484,35.156,96.047,35.781
	c83.875,1.438,192.25-101.188,196.531-186.125l0.375-7.094L354.688-0.844z M316.469,318.531
	c-65.125-1.125-121.891-57.781-122.984-122.969c-1.109-64.844,81.844-154.469,148.891-163.469l137.5,137.5
	C470.906,236.656,381.313,319.656,316.469,318.531z M348.75,175.938c54,34.688,113.906-0.938,113.906-0.938
	c-13.469,58.906-91.625,128.469-145.938,127.531c-53.844-0.906-106.313-53.375-107.234-107.219
	c-0.047-3.281,0.906-6.844,1.344-10.25c17.766-1.656,33.609-5.469,41.922-10.219C272.75,163.438,294.75,141.25,348.75,175.938z"/>
</svg>
