<?xml version="1.0" encoding="utf-8"?>
<!-- Generator: Adobe Illustrator 17.1.0, SVG Export Plug-In . SVG Version: 6.00 Build 0)  -->
<!DOCTYPE svg PUBLIC "-//W3C//DTD SVG 1.1//EN" "http://www.w3.org/Graphics/SVG/1.1/DTD/svg11.dtd">
<svg version="1.1" xmlns="http://www.w3.org/2000/svg" xmlns:xlink="http://www.w3.org/1999/xlink" x="0px" y="0px"
	 viewBox="0 0 64 64" enable-background="new 0 0 64 64" xml:space="preserve">
<g id="Imagenes">
</g>
<g id="Layer_2">
	<path d="M62.667,37.447c0-2.564-5.311-4.824-13.38-6.152l-2.043,1.538c5.099,0.838,8.347,2.103,8.347,3.517
		c0,0.582-0.555,1.138-1.557,1.65c-3.344,1.709-11.721,2.921-21.533,2.921S14.311,39.709,10.967,38
		c-1.002-0.512-1.557-1.068-1.557-1.65c0-1.172,2.233-2.241,5.899-3.05l-1.612-1.641c-6.923,1.357-11.363,3.445-11.363,5.788
		c0,0.186,0.037,0.37,0.093,0.553H2.333l0.144,0.165c0.223,0.569,0.714,1.119,1.432,1.643L12.791,50h-0.416
		C11.063,50,10,51.063,10,52.375v0.25C10,53.937,11.063,55,12.375,55h41.25C54.937,55,56,53.937,56,52.625v-0.25
		C56,51.063,54.937,50,53.625,50H52.21l8.881-10.192c0.718-0.524,1.208-1.074,1.431-1.643L62.667,38h-0.093
		C62.629,37.817,62.667,37.633,62.667,37.447z"/>
	<path d="M40.419,32.055l0.267,3.211l3.757-2.829l2.057-1.549l14.995-11.29L38.398,7.794l0.394,4.727l9.855,2.246
		c0.343,0.078,0.62,0.332,0.729,0.666c0.108,0.335,0.033,0.703-0.198,0.967L39.99,26.904l0.282,3.388L40.419,32.055z M53.5,17
		c0.828,0,1.5,0.672,1.5,1.5S54.328,20,53.5,20S52,19.328,52,18.5S52.672,17,53.5,17z M51,22c1.105,0,2,0.895,2,2
		c0,1.105-0.895,2-2,2s-2-0.895-2-2C49,22.895,49.895,22,51,22z"/>
	<path d="M26.793,31.92l1.815,4.958l4.457-5.096l1.505-1.72l3.356-3.837l0.916-1.047l0.916-1.047l6.81-7.786l-7.603-1.733
		l-1.023-0.233l-1.023-0.233l-8.318-1.896l-3.934,13.87l1.497,4.087L26.793,31.92z M36.88,16.074
		c0.059-0.055,0.126-0.096,0.19-0.142c0.294-0.213,0.628-0.337,0.972-0.371c0.345-0.034,0.696,0.016,1.017,0.16
		c0.238,0.107,0.459,0.263,0.648,0.467c0.749,0.812,0.698,2.077-0.114,2.826c-0.077,0.071-0.16,0.127-0.244,0.184
		c-0.298,0.201-0.633,0.31-0.976,0.333c-0.349,0.024-0.7-0.04-1.02-0.198c-0.214-0.106-0.415-0.247-0.587-0.433
		C36.017,18.088,36.068,16.823,36.88,16.074z M31.482,18.333c0.609-0.562,1.558-0.523,2.12,0.085
		c0.562,0.609,0.523,1.558-0.085,2.12c-0.609,0.562-1.558,0.523-2.12-0.086C30.834,19.844,30.873,18.895,31.482,18.333z"/>
	<path d="M25.763,11.603l-5.787,1.701l-0.961,0.283l-0.962,0.283L3.284,18.211l12.801,13.025l1.584,1.612l2.339,2.38l0.799-2.818
		l0.522-1.84l1.239-4.37l0.465-1.639l0.465-1.638l3.153-11.117l0.143-0.505L25.763,11.603z M11.364,19.948
		c-0.744,0-1.346-0.603-1.346-1.346s0.603-1.346,1.346-1.346c0.744,0,1.346,0.603,1.346,1.346S12.107,19.948,11.364,19.948z
		 M15.403,24.436c-0.991,0-1.795-0.804-1.795-1.795s0.804-1.795,1.795-1.795s1.795,0.804,1.795,1.795S16.394,24.436,15.403,24.436z"
		/>
</g>
</svg>
