<?xml version="1.0" encoding="iso-8859-1"?>
<!-- Generator: Adobe Illustrator 17.0.0, SVG Export Plug-In . SVG Version: 6.00 Build 0)  -->
<!DOCTYPE svg PUBLIC "-//W3C//DTD SVG 1.1//EN" "http://www.w3.org/Graphics/SVG/1.1/DTD/svg11.dtd">
<svg version="1.1" id="Capa_1" xmlns="http://www.w3.org/2000/svg" xmlns:xlink="http://www.w3.org/1999/xlink" x="0px" y="0px"
	 width="64px" height="64px" viewBox="0 0 64 64" style="enable-background:new 0 0 64 64;" xml:space="preserve">
<g>
	<path d="M5.108,14.765l0.76,0.76C3.797,20.97,4.943,27.358,9.329,31.744l23.93,23.93c2.979,2.979,6.884,4.469,10.789,4.469
		c1.844,0,3.684-0.344,5.43-1.008l0.761,0.761c2.181,2.181,6.149,1.749,8.863-0.965c2.714-2.714,3.146-6.682,0.965-8.863
		l-1.282-1.282c1.339-5.078,0.032-10.709-3.949-14.69l-23.93-23.93c-2.979-2.979-6.884-4.469-10.789-4.469
		c-1.313,0-2.623,0.183-3.901,0.52l-1.281-1.281c-2.181-2.181-6.149-1.749-8.863,0.965C3.36,8.616,2.927,12.584,5.108,14.765z
		 M44.048,57.143c-3.274,0-6.352-1.275-8.668-3.59l-23.93-23.93c-2.315-2.315-3.59-5.393-3.59-8.668c0-1.042,0.143-2.06,0.394-3.044
		l38.838,38.838C46.108,57,45.09,57.143,44.048,57.143z M20.118,8.697c3.274,0,6.352,1.275,8.668,3.59l23.93,23.93
		c2.315,2.315,3.59,5.393,3.59,8.668c0,0.452-0.03,0.9-0.078,1.343L18.775,8.775C19.218,8.727,19.666,8.697,20.118,8.697z M8,9.833
		c0.636-0.081,1.255-0.131,1.858-0.145C11.385,9.651,12.8,9.839,14.07,10.3c2.247,0.816,4.043,2.489,5.21,5.301
		c0.942,2.269,0.596,6.004,4.077,6.702c1.246,0.25,2.823,0.463,3.9,1.234c2.132,1.527,3.763,3.209,4.304,5.88
		c0.937,4.619,2.855,7.535,7.695,8.486c2.058,0.404,4.613,0.842,6.11,2.5c1.796,1.99,2.749,4.37,3.427,6.943
		c0.87,3.299,2.072,4.355,5.172,4.722c0.326,0.039,0.665,0.072,1.035,0.097c0.955,0.065,1.437,0.841,1.443,1.588
		c0.005,0.67-0.374,1.314-1.14,1.403c-0.096,0.011-0.196,0.017-0.304,0.01c-1.322-0.09-2.502-0.247-3.548-0.527
		c-2.653-0.709-4.427-2.229-5.318-5.61c-1.047-3.971-2.264-7.17-6.685-8.038c-2.327-0.457-4.848-0.962-6.697-2.576
		c-2.297-2.006-3.266-4.171-3.864-7.12c-1.08-5.327-4.902-5.255-8.986-7.034c-2.97-1.294-2.075-4.392-3.036-6.709
		c-1.346-3.244-3.147-4.587-5.812-4.827C10.142,12.643,9.13,12.689,8,12.833c-0.29,0.037-0.529-0.007-0.73-0.097
		C6.14,12.227,6.394,10.039,8,9.833z"/>
</g>
</svg>
