<?xml version="1.0" encoding="iso-8859-1"?>
<!-- Generator: Adobe Illustrator 16.0.0, SVG Export Plug-In . SVG Version: 6.00 Build 0)  -->
<!DOCTYPE svg PUBLIC "-//W3C//DTD SVG 1.1//EN" "http://www.w3.org/Graphics/SVG/1.1/DTD/svg11.dtd">
<svg version="1.1" id="Layer_1" xmlns="http://www.w3.org/2000/svg" xmlns:xlink="http://www.w3.org/1999/xlink" x="0px" y="0px"
	 width="31.463px" height="32px" viewBox="0 0 31.463 32" style="enable-background:new 0 0 31.463 32;" xml:space="preserve">
<g>
	<path d="M31.179,9.98c-0.203-0.234-0.799-0.544-1.034-0.342c-0.002,0.003-0.005,0.005-0.007,0.008h-0.001l-6.681,5.73
		c0,0-0.604,0.866-1.762,1.977c-2.168-0.286-4.727-0.449-7.424-0.469v-0.004c-0.084,0-0.167,0.002-0.253,0.002
		c-0.084,0-0.167-0.002-0.252-0.002v0.004c-3.444,0.024-6.672,0.281-9.135,0.733C1.385,18.213,0,18.993,0,20.225
		c0,0.082,0.007,0.162,0.02,0.24C-0.185,24.523,3.329,32,8.823,32c1.976,0,3.587,0,4.943,0c0.164,0,0.333,0,0.505,0
		c1.355,0,2.968,0,4.943,0c5.493,0,9.007-7.477,8.803-11.535c0.012-0.078,0.019-0.158,0.019-0.24c0-1.231-1.385-2.012-4.631-2.606
		c-0.052-0.01-0.109-0.019-0.161-0.026c0.852-0.558,1.418-0.792,1.418-0.792l6.689-5.737h0c0.002-0.004,0.005-0.005,0.009-0.007
		C31.595,10.853,31.379,10.216,31.179,9.98z M1.85,20.225c1.096-0.63,5.219-1.576,12.168-1.602c2.248,0.009,4.194,0.114,5.843,0.273
		c-0.487,0.358-1.017,0.715-1.598,1.053c0.004,0.005,0.007,0.009,0.012,0.014c-1.544-1.148-3.873-1.016-5.561,0.434
		c-0.472,0.405-0.848,0.877-1.128,1.381C6.103,21.573,2.811,20.777,1.85,20.225z M26.187,20.225
		c-0.768,0.441-3.024,1.036-6.691,1.362c-0.046-0.117-0.083-0.237-0.141-0.351c0.668-0.869,1.351-1.585,1.997-2.173
		C23.932,19.4,25.559,19.864,26.187,20.225z"/>
	<path d="M7.604,9.56c0.138,0.258,0.232,0.331,0.353,0.505l0.311,0.376c0.059,0.125,0.152,0.224,0.192,0.362
		c0.102,0.261,0.213,0.537,0.247,0.84c0.1,0.596,0.092,1.217,0.066,1.761c-0.072,1.087-0.177,1.882-0.177,1.882
		s0.582-0.563,1.043-1.678c0.115-0.277,0.229-0.588,0.301-0.936c0.074-0.345,0.146-0.723,0.13-1.133
		c-0.001-0.403-0.049-0.848-0.211-1.281c-0.063-0.221-0.198-0.425-0.303-0.639c-0.06-0.104-0.139-0.197-0.21-0.295L9.235,9.18
		l-0.056-0.07L9.165,9.092c0.007,0.009,0.019,0.02,0.04,0.044L9.199,9.129L9.179,9.102C9.082,8.97,8.889,8.779,8.868,8.695
		C8.822,8.599,8.756,8.519,8.712,8.369C8.606,8.11,8.524,7.815,8.481,7.515C8.392,6.913,8.403,6.288,8.429,5.743
		c0.072-1.09,0.167-1.887,0.167-1.887S8.02,4.426,7.559,5.537C7.327,6.091,7.123,6.782,7.113,7.595
		c0.01,0.401,0.016,0.843,0.183,1.277C7.349,9.082,7.473,9.324,7.604,9.56z"/>
	<path d="M11.028,5.701c0.139,0.26,0.232,0.332,0.353,0.506l0.311,0.374c0.059,0.125,0.152,0.227,0.192,0.364
		c0.102,0.26,0.213,0.535,0.247,0.838c0.1,0.596,0.092,1.219,0.067,1.762c-0.072,1.088-0.177,1.882-0.177,1.882
		s0.581-0.563,1.043-1.677c0.115-0.279,0.228-0.59,0.301-0.938c0.074-0.345,0.147-0.722,0.131-1.132c0-0.402-0.048-0.85-0.211-1.281
		c-0.063-0.221-0.198-0.426-0.302-0.64c-0.06-0.104-0.14-0.195-0.211-0.294l-0.11-0.145l-0.057-0.07L12.59,5.232
		c0.005,0.008,0.018,0.021,0.033,0.037l-0.021-0.027c-0.096-0.133-0.289-0.32-0.31-0.404c-0.045-0.097-0.112-0.177-0.157-0.328
		c-0.105-0.258-0.188-0.553-0.229-0.853c-0.09-0.604-0.079-1.227-0.053-1.773C11.925,0.794,12.02,0,12.02,0
		s-0.576,0.567-1.038,1.678c-0.23,0.554-0.436,1.247-0.446,2.058c0.01,0.401,0.016,0.844,0.183,1.278
		C10.773,5.224,10.897,5.467,11.028,5.701z"/>
	<polygon points="12.629,5.277 12.623,5.27 12.624,5.271 	"/>
	<path d="M15.26,9.199c0.137,0.259,0.231,0.332,0.351,0.506l0.312,0.374c0.057,0.124,0.151,0.226,0.192,0.364
		c0.101,0.26,0.212,0.536,0.246,0.838c0.101,0.596,0.092,1.22,0.066,1.761c-0.071,1.089-0.176,1.883-0.176,1.883
		s0.581-0.563,1.043-1.678c0.116-0.276,0.228-0.589,0.301-0.937c0.074-0.345,0.146-0.722,0.13-1.132c0-0.402-0.048-0.848-0.21-1.281
		c-0.063-0.222-0.199-0.427-0.303-0.638c-0.06-0.105-0.14-0.196-0.21-0.295L16.89,8.82l-0.056-0.071L16.82,8.73
		c0.007,0.009,0.018,0.021,0.039,0.046l-0.004-0.008L16.833,8.74c-0.097-0.132-0.29-0.32-0.31-0.404
		c-0.046-0.097-0.112-0.178-0.157-0.328c-0.104-0.258-0.187-0.554-0.229-0.853c-0.09-0.604-0.079-1.228-0.054-1.773
		c0.071-1.09,0.167-1.885,0.167-1.885s-0.576,0.569-1.037,1.681c-0.231,0.554-0.437,1.246-0.446,2.056
		c0.008,0.402,0.015,0.844,0.181,1.277C15.004,8.722,15.128,8.966,15.26,9.199z"/>
</g>
<g>
</g>
<g>
</g>
<g>
</g>
<g>
</g>
<g>
</g>
<g>
</g>
<g>
</g>
<g>
</g>
<g>
</g>
<g>
</g>
<g>
</g>
<g>
</g>
<g>
</g>
<g>
</g>
<g>
</g>
</svg>
