<?xml version="1.0" encoding="utf-8"?>
<!-- Generator: Adobe Illustrator 16.0.0, SVG Export Plug-In . SVG Version: 6.00 Build 0)  -->
<!DOCTYPE svg PUBLIC "-//W3C//DTD SVG 1.1//EN" "http://www.w3.org/Graphics/SVG/1.1/DTD/svg11.dtd">
<svg version="1.1" id="Layer_11" xmlns="http://www.w3.org/2000/svg" xmlns:xlink="http://www.w3.org/1999/xlink" x="0px" y="0px"
	 width="100px" height="100px" viewBox="0 0 100 100" enable-background="new 0 0 100 100" xml:space="preserve">
<path d="M70.013,35.442c0.74-1.715,1.153-3.601,1.153-5.584c0-4.404-2.019-8.334-5.18-10.923c0.004-0.139,0.021-0.275,0.021-0.417
	c0-7.794-6.318-14.111-14.111-14.111c-7.17,0-13.077,5.353-13.979,12.278c-5.308,2.026-9.085,7.152-9.085,13.173
	c0,1.983,0.414,3.869,1.153,5.584H70.013z M51.452,6.157c6.034-0.618,11.503,4.346,12.191,11.065c0.056,0.55-0.344,1.04-0.894,1.097
	s-1.04-0.344-1.097-0.893c-0.575-5.623-5.06-9.785-9.997-9.28c-0.55,0.057-1.04-0.344-1.097-0.893
	C50.503,6.704,50.902,6.214,51.452,6.157z M39.678,18.021c0.519-0.19,1.093,0.075,1.284,0.593c0.19,0.519-0.075,1.094-0.594,1.284
	c-5.304,1.952-8.225,7.329-6.512,11.986c0.191,0.519-0.074,1.094-0.593,1.284c-0.114,0.042-0.23,0.062-0.346,0.062
	c-0.407,0-0.789-0.25-0.938-0.654C29.886,26.884,33.339,20.354,39.678,18.021z M25.669,37.671L49.85,95.233L50,95.593l24.331-57.922
	H25.669z M47.449,53.56l4.772,4.891l-5.949,5.807l-4.773-4.892L47.449,53.56z M40.74,58.587l-5.028-5.152l5.949-5.806l5.028,5.153
	L40.74,58.587z M52.981,59.229l4.94,5.063l-5.949,5.807l-4.941-5.064L52.981,59.229z M52.827,57.86l-4.773-4.892l6.15-6.001
	l4.772,4.891L52.827,57.86z M54.809,46.377l6.354-6.198l4.772,4.89l-6.353,6.2L54.809,46.377z M49.302,40.173H59.61l-5.562,5.426
	l-5.027-5.151L49.302,40.173z M53.444,46.189l-6.149,6.002l-5.028-5.152l6.149-6.003L53.444,46.189z M37.265,40.173h10.309
	l0.083,0.086l-6.149,6.002l-5.111-5.239L37.265,40.173z M35.707,40.173l-0.071,0.07l-0.068-0.07H35.707z M29.433,40.173h4.953
	l0.645,0.661l-3.773,3.683L29.433,40.173z M34.467,52.158l-2.757-6.563l4.08-3.982l5.112,5.238l-5.949,5.806L34.467,52.158z
	 M35.359,54.282l4.776,4.895l-1.93,1.882L35.359,54.282z M38.659,62.137l2.235-2.182l4.773,4.892l-4.164,4.063L38.659,62.137z
	 M44.585,76.244l-2.628-6.257l4.47-4.362l4.941,5.063l-6.251,6.1L44.585,76.244z M45.477,78.368l4.907,5.028l-1.981,1.934
	L45.477,78.368z M50,89.134l-1.146-2.726l2.289-2.233l0.657,0.673L50,89.134z M52.155,84.001l-0.407-0.417l0.988-0.964
	L52.155,84.001z M53.818,80.045l-2.83,2.761l-5.112-5.24l6.251-6.1l3.701,3.793L53.818,80.045z M56.184,74.414l-3.451-3.538
	l5.949-5.807l0.997,1.023L56.184,74.414z M60.034,65.247l-0.747-0.767l1.813-1.77L60.034,65.247z M62.181,60.137l-3.653,3.565
	l-4.941-5.063l6.15-6.003l3.911,4.01L62.181,60.137z M64.003,55.8l-3.662-3.753l6.354-6.2l1.041,1.067L64.003,55.8z M68.091,46.068
	l-0.792-0.812l1.92-1.873L68.091,46.068z M66.54,44.479l-4.202-4.306h8.229l-0.267,0.637L66.54,44.479z"/>
</svg>
