<?xml version="1.0" encoding="iso-8859-1"?>
<!-- Generator: Adobe Illustrator 16.0.4, SVG Export Plug-In . SVG Version: 6.00 Build 0)  -->
<!DOCTYPE svg PUBLIC "-//W3C//DTD SVG 1.1//EN" "http://www.w3.org/Graphics/SVG/1.1/DTD/svg11.dtd">
<svg version="1.1" id="Capa_1" xmlns="http://www.w3.org/2000/svg" xmlns:xlink="http://www.w3.org/1999/xlink" x="0px" y="0px"
	 width="34.131px" height="47.873px" viewBox="0 0 34.131 47.873" style="enable-background:new 0 0 34.131 47.873;"
	 xml:space="preserve">
<g id="Ice_Cream">
	<g>
		<g>
			<path d="M16.83,47.873c-0.002,0-0.005,0-0.008,0c-0.417-0.003-0.789-0.265-0.932-0.657L7.357,23.844
				c-0.189-0.519,0.078-1.093,0.597-1.282c0.517-0.188,1.093,0.078,1.282,0.597l7.616,20.861l8.011-20.907
				c0.198-0.516,0.776-0.775,1.292-0.576c0.516,0.197,0.773,0.776,0.576,1.292l-8.967,23.403
				C17.616,47.618,17.244,47.873,16.83,47.873z"/>
		</g>
		<path d="M14.305,40.953c-0.12,0-0.241-0.022-0.359-0.067c-0.516-0.199-0.772-0.777-0.574-1.292l6.242-16.201
			c0.198-0.516,0.779-0.771,1.292-0.574c0.516,0.199,0.772,0.777,0.574,1.292l-6.242,16.201
			C15.085,40.709,14.706,40.953,14.305,40.953z"/>
		<path d="M11.795,34.091c-0.12,0-0.241-0.021-0.358-0.067c-0.516-0.198-0.773-0.776-0.575-1.292l3.658-9.527
			c0.198-0.517,0.78-0.774,1.292-0.575c0.516,0.198,0.773,0.776,0.575,1.292l-3.658,9.527
			C12.576,33.847,12.197,34.091,11.795,34.091z"/>
	</g>
	<g>
		<path d="M30.859,16.408c-0.552,0-1-0.448-1-1C29.859,7.89,24.245,2,17.078,2C9.91,2,4.295,7.89,4.295,15.408c0,0.552-0.448,1-1,1
			s-1-0.448-1-1C2.295,6.768,8.789,0,17.078,0c8.289,0,14.781,6.768,14.781,15.408C31.859,15.96,31.412,16.408,30.859,16.408z"/>
		<g>
			<path style="fill:none;stroke:#000000;stroke-width:2;stroke-linecap:round;stroke-linejoin:round;stroke-miterlimit:10;" d="
				M3.284,15.356"/>
			<path style="fill:none;stroke:#000000;stroke-width:2;stroke-linecap:round;stroke-linejoin:round;stroke-miterlimit:10;" d="
				M3.268,19.93"/>
			<path d="M3.268,20.93c-0.001,0-0.002,0-0.003,0C1.458,20.924-0.005,19.447,0,17.639c0.003-0.875,0.346-1.698,0.966-2.314
				c0.621-0.618,1.438-0.967,2.322-0.953c0.552,0.002,0.999,0.451,0.997,1.003c-0.002,0.551-0.449,0.997-1,0.997
				c-0.002,0-0.005,0-0.008,0c-0.34,0-0.659,0.131-0.899,0.371C2.135,16.983,2.001,17.304,2,17.645
				c-0.002,0.706,0.568,1.283,1.271,1.285c0.552,0.002,0.999,0.451,0.997,1.003C4.266,20.485,3.818,20.93,3.268,20.93z"/>
		</g>
		<g>
			<path style="fill:none;stroke:#000000;stroke-width:2;stroke-linecap:round;stroke-linejoin:round;stroke-miterlimit:10;" d="
				M30.846,15.398"/>
			<path style="fill:none;stroke:#000000;stroke-width:2;stroke-linecap:round;stroke-linejoin:round;stroke-miterlimit:10;" d="
				M30.861,19.972"/>
			<path d="M30.861,20.972c-0.551,0-0.998-0.445-1-0.997c-0.002-0.552,0.444-1.001,0.997-1.003c0.704-0.002,1.275-0.579,1.273-1.285
				c-0.001-0.341-0.135-0.662-0.376-0.902c-0.241-0.239-0.561-0.371-0.9-0.371c-0.003,0-0.006,0-0.008,0
				c-0.551,0-0.998-0.445-1-0.997c-0.002-0.552,0.444-1.001,0.997-1.003c0.004,0,0.008,0,0.012,0c0.872,0,1.692,0.338,2.31,0.953
				c0.621,0.617,0.964,1.439,0.967,2.315c0.005,1.808-1.459,3.285-3.266,3.291C30.864,20.972,30.862,20.972,30.861,20.972z"/>
		</g>
		<g>
			<path style="fill:none;stroke:#000000;stroke-width:2;stroke-linecap:round;stroke-linejoin:round;stroke-miterlimit:10;" d="
				M3.311,19.96"/>
			<path style="fill:none;stroke:#000000;stroke-width:2;stroke-linecap:round;stroke-linejoin:round;stroke-miterlimit:10;" d="
				M10.23,19.96"/>
			<path d="M6.78,24.404c-2.452,0-4.446-1.994-4.446-4.444c0-0.552,0.448-1,1-1s1,0.448,1,1c0,1.348,1.097,2.444,2.446,2.444
				c1.351,0,2.45-1.097,2.45-2.444c0-0.552,0.448-1,1-1s1,0.448,1,1C11.23,22.411,9.234,24.404,6.78,24.404z"/>
		</g>
		<g>
			<path style="fill:none;stroke:#000000;stroke-width:2;stroke-linecap:round;stroke-linejoin:round;stroke-miterlimit:10;" d="
				M10.186,19.96"/>
			<path style="fill:none;stroke:#000000;stroke-width:2;stroke-linecap:round;stroke-linejoin:round;stroke-miterlimit:10;" d="
				M17.105,19.96"/>
			<path d="M13.655,24.404c-2.452,0-4.446-1.994-4.446-4.444c0-0.552,0.448-1,1-1s1,0.448,1,1c0,1.348,1.097,2.444,2.446,2.444
				c1.351,0,2.45-1.097,2.45-2.444c0-0.552,0.448-1,1-1s1,0.448,1,1C18.105,22.411,16.109,24.404,13.655,24.404z"/>
		</g>
		<g>
			<path style="fill:none;stroke:#000000;stroke-width:2;stroke-linecap:round;stroke-linejoin:round;stroke-miterlimit:10;" d="
				M17.061,19.96"/>
			<path style="fill:none;stroke:#000000;stroke-width:2;stroke-linecap:round;stroke-linejoin:round;stroke-miterlimit:10;" d="
				M23.98,19.96"/>
			<path d="M20.529,24.404c-2.451,0-4.445-1.994-4.445-4.444c0-0.552,0.448-1,1-1s1,0.448,1,1c0,1.348,1.097,2.444,2.445,2.444
				c1.352,0,2.451-1.097,2.451-2.444c0-0.552,0.448-1,1-1s1,0.448,1,1C24.98,22.411,22.984,24.404,20.529,24.404z"/>
		</g>
		<g>
			<path style="fill:none;stroke:#000000;stroke-width:2;stroke-linecap:round;stroke-linejoin:round;stroke-miterlimit:10;" d="
				M23.936,19.96"/>
			<path style="fill:none;stroke:#000000;stroke-width:2;stroke-linecap:round;stroke-linejoin:round;stroke-miterlimit:10;" d="
				M30.855,19.96"/>
			<path d="M27.404,24.404c-2.451,0-4.445-1.994-4.445-4.444c0-0.552,0.448-1,1-1s1,0.448,1,1c0,1.348,1.097,2.444,2.445,2.444
				c1.352,0,2.451-1.097,2.451-2.444c0-0.552,0.448-1,1-1s1,0.448,1,1C31.855,22.411,29.859,24.404,27.404,24.404z"/>
		</g>
	</g>
	<path d="M29.891,35.735c-1.699,0-3.029-1.33-3.029-3.027c0-1.287,1.151-3.446,2.276-5.389l0.068-0.118
		c0.134-0.232,0.399-0.348,0.649-0.375c0.266,0,0.512,0.141,0.646,0.37c0.568,0.965,2.42,4.215,2.42,5.512
		C32.922,34.406,31.59,35.735,29.891,35.735z M29.854,29.099c-0.992,1.802-1.493,3.014-1.493,3.609c0,0.871,0.657,1.527,1.529,1.527
		c0.873,0,1.531-0.657,1.531-1.527C31.422,32.221,30.69,30.638,29.854,29.099z"/>
</g>
<g>
</g>
<g>
</g>
<g>
</g>
<g>
</g>
<g>
</g>
<g>
</g>
<g>
</g>
<g>
</g>
<g>
</g>
<g>
</g>
<g>
</g>
<g>
</g>
<g>
</g>
<g>
</g>
<g>
</g>
</svg>
