<?xml version="1.0" encoding="utf-8"?>
<!-- Generator: Adobe Illustrator 17.1.0, SVG Export Plug-In . SVG Version: 6.00 Build 0)  -->
<!DOCTYPE svg PUBLIC "-//W3C//DTD SVG 1.1//EN" "http://www.w3.org/Graphics/SVG/1.1/DTD/svg11.dtd">
<svg version="1.1" id="Capa_1" xmlns="http://www.w3.org/2000/svg" xmlns:xlink="http://www.w3.org/1999/xlink" x="0px" y="0px"
	 width="500px" height="500px" viewBox="0 0 500 500" enable-background="new 0 0 500 500" xml:space="preserve">
<path d="M241.6,258.9c-0.6-0.8-1-1.8-1.1-2.8c-12.9-0.9-25.4-3.8-37.4-8.5c-8.3,9.2-18.8,16.1-30.4,20.1L250,489l77.3-221.2
	c-8.3-2.9-16.1-7.3-22.9-13v23.3c0,10.4-16.2,10.4-16.2,0v-12.3c-3.6,2.9-7.6,4.9-11.8,5.9v71c0,10.4-16.2,10.4-16.2,0v-71.1
	C253.1,269.8,246.5,265.5,241.6,258.9z"/>
<path d="M85.3,198.1c0,34.8,28.2,63,63,63c7.3,0,14.3-1.2,20.8-3.5c12.5-4.4,23.1-12.5,30.6-23.1c15.2,7.1,32.2,11.1,50.2,11.1
	c17.9,0,35-4,50.2-11.1c7.5,10.6,18.2,18.8,30.6,23.1c6.5,2.3,13.5,3.5,20.8,3.5c34.8,0,63-28.2,63-63c0-29.2-19.8-53.7-46.8-60.9
	c0.3-3.3,0.4-6.6,0.4-9.9C368.4,62,315.4,9,250,9S131.6,62,131.6,127.4c0,3.3,0.1,6.6,0.4,9.9C105.1,144.4,85.3,169,85.3,198.1z"/>
</svg>
