<?xml version="1.0" encoding="utf-8"?>
<!-- Generator: Adobe Illustrator 17.0.0, SVG Export Plug-In . SVG Version: 6.00 Build 0)  -->
<!DOCTYPE svg PUBLIC "-//W3C//DTD SVG 1.1//EN" "http://www.w3.org/Graphics/SVG/1.1/DTD/svg11.dtd">
<svg version="1.1" id="Capa_1" xmlns="http://www.w3.org/2000/svg" xmlns:xlink="http://www.w3.org/1999/xlink" x="0px" y="0px"
	 width="20.949px" height="18.067px" viewBox="0 0 20.949 18.067" enable-background="new 0 0 20.949 18.067" xml:space="preserve">
<path d="M5.585,2.988c0.564,0,1.021,0.411,1.021,0.918S6.149,4.824,5.585,4.824S4.564,4.413,4.564,3.906S5.021,2.988,5.585,2.988z
	 M10.243,3.145c0.966,0,1.749-0.702,1.749-1.571S11.208,0,10.243,0C9.28,0,8.495,0.705,8.495,1.574S9.28,3.145,10.243,3.145z
	 M15.289,3.041c0.563,0,1.02,0.411,1.02,0.918s-0.457,0.918-1.02,0.918s-1.02-0.411-1.02-0.918S14.726,3.041,15.289,3.041z
	 M3.93,14.92h12.626v3.147H3.93L3.93,14.92z M19.201,2.045c0.964,0,1.746,0.704,1.746,1.573s-0.782,1.573-1.746,1.573
	s-1.746-0.704-1.746-1.573S18.237,2.045,19.201,2.045z M3.497,3.677c0-0.872-0.783-1.574-1.75-1.574C0.784,2.103,0,2.805,0,3.677
	C0,4.543,0.784,5.25,1.746,5.25C2.714,5.25,3.497,4.543,3.497,3.677z M17.757,5.375c-0.149,0-0.322,0.032-0.524,0.11l-2.395,2.153
	l0.201-2.196c0,0-0.165-0.251-0.417-0.251c-0.102,0-0.219,0.042-0.342,0.158l-1.449,1.853L10.94,4.227c0,0-0.231-0.237-0.646-0.237
	c-0.207,0-0.46,0.06-0.753,0.237L7.7,7.128L6.451,5.349c0,0-0.136-0.216-0.343-0.216c-0.109,0-0.238,0.061-0.378,0.248l0.131,2.394
	l-2.359-2.29c0,0-0.151-0.061-0.349-0.061c-0.236,0-0.539,0.088-0.729,0.474l1.524,8.395h12.587l2.098-8.178
	C18.632,6.114,18.472,5.375,17.757,5.375z M15.152,12.51H5.436L4.841,9.235c0.302,0.211,0.66,0.321,1.02,0.321
	c0.251,0,0.503-0.053,0.74-0.161c0.271-0.124,0.501-0.31,0.675-0.537C7.413,8.893,7.555,8.91,7.7,8.91c0.014,0,0.028,0,0.041,0
	c0.597-0.014,1.145-0.324,1.464-0.827l1.037-1.634l1.086,1.708c0.309,0.489,0.838,0.797,1.416,0.824
	c0.029,0.002,0.059,0.003,0.088,0.003c0.24,0,0.477-0.049,0.694-0.141C13.669,9,13.841,9.132,14.04,9.23
	c0.253,0.127,0.526,0.189,0.799,0.189c0.431,0,0.858-0.156,1.192-0.456l0.042-0.038C16.073,8.925,15.152,12.51,15.152,12.51z"/>
</svg>
