<?xml version="1.0" encoding="utf-8"?>
<!-- Generator: Adobe Illustrator 16.0.0, SVG Export Plug-In . SVG Version: 6.00 Build 0)  -->
<!DOCTYPE svg PUBLIC "-//W3C//DTD SVG 1.1//EN" "http://www.w3.org/Graphics/SVG/1.1/DTD/svg11.dtd">
<svg version="1.1" id="Layer_1" xmlns="http://www.w3.org/2000/svg" xmlns:xlink="http://www.w3.org/1999/xlink" x="0px" y="0px"
	 width="50px" height="50px" viewBox="0 0 50 50" enable-background="new 0 0 50 50" xml:space="preserve">
<g>
	<path d="M37.542,24.925C35.244,17.836,25,23.037,25,23.037s-10.244-5.201-12.542,1.888C10.318,31.53,25,42.646,25,42.646
		S39.682,31.53,37.542,24.925z"/>
	<path d="M23.636,20.806c0.083-0.683,0.658-1.214,1.363-1.214s1.28,0.531,1.364,1.214l6.092-0.751l4.601-9.021l-5.521,0.921
		l-0.094,5.521l-1.841-4.602l-3.68,5.521l2.761-8.281L25,7.354l-3.681,2.761l2.761,8.281l-3.68-5.521l-1.841,4.602l-0.095-5.521
		l-5.521-0.921l4.601,9.021L23.636,20.806z M33.376,12.899c0.496,0,0.898,0.401,0.898,0.897c0,0.495-0.402,0.897-0.898,0.897
		c-0.497,0-0.898-0.402-0.898-0.897C32.478,13.301,32.879,12.899,33.376,12.899z M29.601,15.646c0.401,0,0.726,0.324,0.726,0.726
		c0,0.4-0.325,0.727-0.726,0.727c-0.4,0-0.726-0.326-0.726-0.727C28.875,15.971,29.2,15.646,29.601,15.646z M23.505,10.899
		c0-0.826,0.669-1.495,1.495-1.495s1.495,0.669,1.495,1.495S25.826,12.395,25,12.395S23.505,11.726,23.505,10.899z M20.398,15.646
		c0.401,0,0.726,0.324,0.726,0.726c0,0.4-0.325,0.727-0.726,0.727c-0.4,0-0.726-0.326-0.726-0.727
		C19.673,15.971,19.998,15.646,20.398,15.646z M16.624,14.694c-0.496,0-0.898-0.402-0.898-0.897c0-0.496,0.402-0.897,0.898-0.897
		c0.497,0,0.898,0.401,0.898,0.897C17.522,14.292,17.12,14.694,16.624,14.694z"/>
</g>
</svg>
