<?xml version="1.0" encoding="utf-8"?>
<!-- Generator: Adobe Illustrator 16.0.4, SVG Export Plug-In . SVG Version: 6.00 Build 0)  -->
<!DOCTYPE svg PUBLIC "-//W3C//DTD SVG 1.1//EN" "http://www.w3.org/Graphics/SVG/1.1/DTD/svg11.dtd">
<svg version="1.1" id="Layer_1" xmlns="http://www.w3.org/2000/svg" xmlns:xlink="http://www.w3.org/1999/xlink" x="0px" y="0px"
	 width="50px" height="50px" viewBox="0 0 50 50" enable-background="new 0 0 50 50" xml:space="preserve">
<g>
	<path d="M18.474,11.272v9.396c0,0.876-0.713,1.589-1.59,1.589h-2.119c-0.877,0-1.59-0.713-1.59-1.589v-9.396l-1.06,2.119v7.275
		c0,1.46,1.188,2.648,2.649,2.648h0.529v4.668h-0.518c0,1.48-0.497,4.041-0.497,5.722c0,3.2,0.691,5.022,1.545,5.022
		s1.545-1.822,1.545-5.022c0-1.681-0.497-4.241-0.497-5.722h-0.516v-4.668h0.529c1.461,0,2.649-1.188,2.649-2.648v-7.275
		L18.474,11.272z"/>
	<path d="M37.387,27.983h-0.529V11.272c-1.547,0.962-3.092,5.326-3.092,10.554c0,2.745,2.043,0.359,2.055,3.509v2.648h-0.529
		c0,1.481-0.496,4.043-0.496,5.723c0,3.2,0.689,5.021,1.545,5.021c0.854,0,1.545-1.821,1.545-5.021
		C37.883,32.026,37.387,29.466,37.387,27.983z"/>
	<path d="M29.756,12.071c-0.449-0.515-1.092-0.798-1.811-0.798h-4.239c-0.72,0-1.363,0.284-1.812,0.798
		c-0.448,0.516-0.644,1.19-0.546,1.902l0.488,3.605c0.191,1.411,1.506,2.559,2.93,2.559h0.529v7.846h-0.518
		c0,1.481-0.497,4.043-0.497,5.723c0,3.2,0.691,5.021,1.545,5.021c0.854,0,1.545-1.821,1.545-5.021c0-1.682-0.498-4.241-0.498-5.723
		h-0.52v-7.846h0.529c1.424,0,2.738-1.146,2.93-2.559l0.488-3.604C30.4,13.262,30.205,12.586,29.756,12.071z M24.075,17.782
		c-0.209,0.015-0.395-0.114-0.412-0.289l-0.486-4.646c-0.018-0.175,0.137-0.329,0.346-0.345c0.209-0.016,0.395,0.114,0.412,0.289
		l0.485,4.645C24.437,17.611,24.283,17.767,24.075,17.782z M26.205,17.474c0,0.175-0.17,0.317-0.381,0.317
		c-0.209,0-0.379-0.143-0.379-0.317v-4.663c0-0.175,0.17-0.316,0.379-0.316c0.211,0,0.381,0.142,0.381,0.316V17.474z M27.986,17.493
		c-0.018,0.175-0.203,0.304-0.412,0.289c-0.207-0.016-0.361-0.171-0.346-0.345l0.486-4.645c0.018-0.175,0.203-0.305,0.412-0.289
		s0.363,0.17,0.346,0.345L27.986,17.493z"/>
</g>
</svg>
