<?xml version="1.0" encoding="utf-8"?>
<!-- Generator: Adobe Illustrator 17.0.0, SVG Export Plug-In . SVG Version: 6.00 Build 0)  -->
<!DOCTYPE svg PUBLIC "-//W3C//DTD SVG 1.1//EN" "http://www.w3.org/Graphics/SVG/1.1/DTD/svg11.dtd">
<svg version="1.1" id="Layer_3" xmlns="http://www.w3.org/2000/svg" xmlns:xlink="http://www.w3.org/1999/xlink" x="0px" y="0px"
	 width="126px" height="126px" viewBox="0 0 126 126" enable-background="new 0 0 126 126" xml:space="preserve">
<path d="M57.02,109.538c0.374,3.227-1.939,6.147-5.168,6.522c-0.231,0.027-0.458,0.04-0.685,0.04c-2.946,0-5.491-2.209-5.839-5.208
	l-3.369-29.068c0,0-16.414,0.063-16.731,0.063c-5.661,0.001-11.769-3.806-11.769-9.957l-0.002-28.31
	c0-5.275,4.595-8.789,8.909-9.847l0.037-0.005c0,0,1.533-0.319,2.907-0.351c1.436-0.031,2.787,0.373,2.787,0.373
	c2.832,0.694,5.799,2.474,7.491,5.116c0.019,0.026,0.043,0.045,0.063,0.071c2.326,3.179,3.953,3.686,4.288,3.695
	c0.459-0.247,1.916-2.981,0.473-7.84c-0.622-2.094,0.2-4.269,1.886-5.469l-2.461-1.692l0.513-0.746l2.822,1.94
	c0.029-0.014,0.058-0.029,0.088-0.042l-2.694-3.513l0.718-0.552l2.9,3.781c2.504-0.52,5.033,0.96,5.774,3.456
	c2.563,8.63,0.245,16.693-5.639,19.61c-0.789,0.392-2.364,1.007-4.433,1.007c-0.881,0-1.854-0.118-2.893-0.406v17.852l10.2-0.009
	c0.002,0,0.003,0,0.005,0c2.988,0,5.501,2.239,5.846,5.208L57.02,109.538z M28.098,32.994c7.083,0,12.825-5.742,12.825-12.825
	S35.181,7.344,28.098,7.344s-12.825,5.742-12.825,12.825S21.015,32.994,28.098,32.994z M40.403,88.5c0-2.75-2.229-4.979-4.979-4.979
	H10.83V44.027c0-2.749-2.229-4.979-4.979-4.979s-4.979,2.229-4.979,4.979V88.5c0,1.419,0.597,2.697,1.551,3.604
	c-0.383,1.157-0.597,2.39-0.597,3.673v18.71c0,2.302,1.867,4.169,4.169,4.169s4.169-1.867,4.169-4.169v-18.71
	c0-0.889,0.35-1.691,0.907-2.299h18.928c0.559,0.607,0.907,1.41,0.907,2.299v18.71c0,2.302,1.867,4.169,4.17,4.169
	c2.302,0,4.169-1.867,4.169-4.169v-18.71c0-1.231-0.192-2.418-0.546-3.534C39.742,91.331,40.403,89.994,40.403,88.5z
	 M125.128,63.162H95.404H76.623H46.899v5.962h11.103c-0.907,1.644-1.425,3.53-1.425,5.535v27.681
	c0,6.339,5.157,11.497,11.498,11.497v-5.963c-3.054,0-5.537-2.482-5.537-5.534V74.659c0-3.051,2.483-5.535,5.537-5.535h9.507h16.863
	h9.507c3.054,0,5.536,2.484,5.536,5.535v27.681c0,3.052-2.482,5.534-5.536,5.534v5.963c6.341,0,11.498-5.158,11.498-11.497V74.659
	c0-2.005-0.518-3.892-1.425-5.535h11.103V63.162z M61.668,59.512v-0.001h9.504l-0.066-0.198l-0.049,0.146l-3.28-1.111l0.5,0.41
	l-0.574,0.7l-0.735-0.603l-0.016,0.356l-3.605-0.162l0.04-0.903l2.874,0.13l-0.595-0.487l0.575-0.7l1.337,1.096l0.262-0.771
	l1.313,0.444l2.54-3.258l0.715,0.558l-1.375,1.764l1.215,0.411v-0.609h4.64v0.406l1.083-0.36l0.286,0.859l-5.65,1.883h8.072
	c0,1.03-4.256,1.865-9.506,1.865C65.924,61.377,61.668,60.542,61.668,59.512z M73.124,57.629l1.119,0.379l-0.002,0.005l1.151-0.384
	C75.392,57.629,73.124,57.629,73.124,57.629z M71.349,58.603l-0.143,0.422l1.62-0.541l-2.382-0.806l-0.382,0.489L71.349,58.603z
	 M69.449,56.433l-2.811-0.315l-0.101,0.9l2.811,0.315L69.449,56.433z M83.324,60.896L82.45,47.198h9.276l-0.58,13.698H83.324z
	 M90.6,52.406c-0.343,0.26-0.872,0.565-1.485,0.565c-0.028,0-0.058-0.001-0.087-0.003c-0.613-0.029-1.151-0.352-1.602-0.96
	c-1.036-1.395-3.446,0.097-3.469,0.113c-0.088,0.056-0.185,0.07-0.281,0.061l0.497,7.809c0,0,6.106,0,6.106,0L90.6,52.406z
	 M83.415,48.104l0.201,3.167c0.629-0.359,3.17-1.644,4.535,0.199c0.286,0.385,0.586,0.579,0.918,0.596
	c0.685,0.014,1.263-0.623,1.269-0.629c0.083-0.091,0.195-0.14,0.309-0.147l0.136-3.186H83.415z"/>
</svg>
