<?xml version="1.0" encoding="utf-8"?>
<!-- Generator: Adobe Illustrator 16.0.4, SVG Export Plug-In . SVG Version: 6.00 Build 0)  -->
<!DOCTYPE svg PUBLIC "-//W3C//DTD SVG 1.1//EN" "http://www.w3.org/Graphics/SVG/1.1/DTD/svg11.dtd">
<svg version="1.1" id="Capa_1" xmlns="http://www.w3.org/2000/svg" xmlns:xlink="http://www.w3.org/1999/xlink" x="0px" y="0px"
	 width="19.48px" height="23.926px" viewBox="0 0 19.48 23.926" enable-background="new 0 0 19.48 23.926" xml:space="preserve">
<path d="M3.604,18.312c-0.001,0.01-0.004,0.018-0.007,0.026c0.005-0.003,0.01-0.007,0.013-0.009
	c-0.003,0.003-0.007,0.006-0.013,0.011c-0.025,0.017-0.049,0.029-0.072,0.043C3.549,18.363,3.577,18.341,3.604,18.312z
	 M17.229,18.857c-0.311-0.028-0.553-0.08-0.747-0.137c-0.054-0.017-0.104-0.033-0.148-0.049c-0.001,0-0.001,0-0.003,0
	c-0.138-0.05-0.237-0.102-0.312-0.146c0.001,0.002,0.002,0.004,0.006,0.007c0.075,0.057,0.224,0.146,0.468,0.228
	c0.032,0.012,0.064,0.023,0.103,0.034c0.019,0.197,0.021,0.386,0.032,0.491c0.112,0.919-1.327,0.943-1.327,0.943
	c-0.725,0.248-0.532,0.664-0.532,0.664c0.379,0.83-0.717,1-0.717,1c-0.915,0.215-0.8,0.776-0.721,0.985l-0.106-0.076
	c0.001,0.001,0.001,0.005,0.003,0.005l-0.182-0.127l0.553,0.389c1.27,1.154,2.883,0.809,2.883,0.809
	c1.732-0.115,2.71-2.25,2.71-2.25C19.884,19.377,18.074,18.939,17.229,18.857z M12.479,22.286l-2.001-1.408
	c0,0-0.115-0.035-0.29-0.067l0.001,0.01c-0.049-0.014-0.099-0.025-0.15-0.035c-0.111-0.016-0.236-0.026-0.367-0.028
	c-0.132,0.003-0.257,0.013-0.368,0.028c-0.049,0.01-0.102,0.02-0.15,0.035l0.001-0.01c-0.175,0.031-0.291,0.067-0.291,0.067
	l-1.994,1.403c0.076-0.223,0.154-0.756-0.729-0.963c0,0-1.098-0.168-0.714-1c0,0,0.217-0.525-0.535-0.662
	c-0.401-0.073-1.57-0.049-1.328-0.945c0,0,0.084-0.236,0.143-0.462c-0.001,0-0.001,0-0.001,0c0.76-0.748,1.585-3.66,1.585-3.66
	c0.575-1.671-0.736-2.403-0.736-2.403L3,11.599c0.002,0,0.003-0.001,0.006-0.002l0.099,0.039c0.179-0.062,0.312-0.126,0.312-0.126
	c0.891-0.149,0.296-1.562,0.296-1.562C3.637,9.205,4.084,9.205,4.084,9.205c0.891,0,0.594-1.042,0.594-1.042
	C4.521,7.385,4.91,7.187,5.159,7.138L5.046,7.103c0.11-0.022,0.195-0.015,0.195-0.015L5.24,7.073l1.001,0.303
	C5.573,6.595,5.169,5.579,5.169,4.469C5.169,2,7.17,0,9.638,0s4.471,2,4.47,4.466c0,1.159-0.439,2.213-1.162,3.007l1.295-0.389
	c0.17,0.001,0.824,0.067,0.63,1.04c0,0-0.299,1.042,0.596,1.042c0,0,0.445,0,0.372,0.743c0,0-0.596,1.414,0.297,1.562
	c0,0,0.153,0.074,0.35,0.14l0.897-0.337c0-0.001,0-0.001,0-0.002l0.133-0.051c-0.08-0.364-0.504-0.247-0.504-0.247
	c-0.892-0.149-0.296-1.561-0.296-1.561c0.074-0.744-0.373-0.744-0.373-0.744c-0.891,0-0.594-1.041-0.594-1.041
	c0.108-0.541-0.047-0.802-0.234-0.927l1.201-0.361c2.25-0.232,2.653,1.846,2.653,1.846c0.349,0.927-0.16,2.401-0.9,2.68
	l-3.498,1.319l-0.377,0.142c-0.341,0.284-0.971,1.01-0.538,2.262c0,0,0.83,2.925,1.592,3.665c0.058,0.225,0.139,0.457,0.139,0.457
	c0.242,0.896-0.928,0.872-1.327,0.945c-0.752,0.137-0.535,0.662-0.535,0.662c0.382,0.832-0.714,1-0.714,1
	C12.319,21.529,12.404,22.062,12.479,22.286z M7.816,3.008c0,0.208,0.098,0.391,0.246,0.512C8.177,3.613,8.32,3.671,8.479,3.671
	c0.367,0,0.665-0.298,0.665-0.663c0-0.254-0.143-0.471-0.354-0.583C8.698,2.376,8.592,2.344,8.478,2.344
	C8.113,2.344,7.816,2.641,7.816,3.008z M11.787,5.632c0-0.141-0.035-0.277-0.1-0.404c-0.014,0.028-0.035,0.053-0.051,0.079
	c-0.015-0.05-0.032-0.1-0.056-0.148c-0.261,0.519-1.008,0.894-1.893,0.894c-0.525,0-1.001-0.137-1.354-0.353
	c-0.19-0.116-0.343-0.256-0.45-0.41C7.854,5.246,7.823,5.204,7.8,5.159C7.736,5.285,7.701,5.421,7.701,5.562
	c0,0.372,0.238,0.705,0.624,0.941C8.69,6.764,9.214,6.929,9.799,6.929C10.896,6.929,11.787,6.349,11.787,5.632z M11.971,3.008
	c0-0.254-0.144-0.471-0.352-0.583c-0.115-0.093-0.261-0.152-0.419-0.152c-0.367,0-0.663,0.297-0.663,0.664
	c0,0.253,0.144,0.47,0.353,0.583c0.114,0.093,0.258,0.151,0.417,0.151C11.672,3.671,11.971,3.373,11.971,3.008z M6.132,22.796
	l-0.104,0.071c0.08-0.213,0.188-0.768-0.722-0.982c0,0-1.097-0.167-0.716-0.998c0,0,0.191-0.416-0.534-0.664
	c0,0-1.438-0.024-1.327-0.943c0.015-0.105,0.017-0.295,0.033-0.493c0.035-0.011,0.065-0.021,0.098-0.032
	c0.224-0.074,0.364-0.154,0.444-0.212c0.004-0.003,0.011-0.007,0.015-0.01c-0.1,0.058-0.244,0.128-0.457,0.19
	c-0.191,0.057-0.438,0.106-0.746,0.137c-0.846,0.082-2.654,0.519-1.963,2.769c0,0,0.979,2.136,2.713,2.25
	c0,0,1.614,0.347,2.883-0.81l0.381-0.266C6.13,22.801,6.13,22.798,6.132,22.796z M3.32,18.531c0.093-0.055,0.146-0.1,0.166-0.12
	c-0.027,0.021-0.057,0.039-0.086,0.05C3.4,18.461,3.377,18.489,3.32,18.531z M15.95,18.468c-0.027-0.013-0.057-0.03-0.083-0.05
	c0.022,0.021,0.07,0.061,0.149,0.107C15.972,18.492,15.95,18.468,15.95,18.468z M15.754,18.324c0.001,0.009,0.003,0.015,0.005,0.021
	c0.021,0.016,0.04,0.025,0.061,0.036C15.799,18.364,15.776,18.346,15.754,18.324z M2.065,11.246c0.098-0.331,0.5-0.218,0.5-0.218
	c0.894-0.148,0.298-1.562,0.298-1.562c-0.075-0.743,0.37-0.743,0.37-0.743c0.894,0,0.596-1.04,0.596-1.04
	C3.712,7.102,3.897,6.845,4.103,6.731l-1.295-0.39C0.557,6.109,0.154,8.187,0.154,8.187c-0.35,0.927,0.159,2.4,0.899,2.68
	l1.011,0.38C2.064,11.247,2.065,11.246,2.065,11.246l-0.001,0.002L3,11.6v-0.001v-0.001L2.065,11.246z M15.759,18.348v-0.002
	l-0.009-0.005L15.759,18.348z M15.868,18.418c-0.005-0.004-0.012-0.009-0.015-0.014c-0.001,0-0.003,0-0.003,0
	c-0.003-0.004-0.005-0.008-0.005-0.008c-0.006-0.003-0.013-0.007-0.02-0.011c0.013,0.01,0.025,0.021,0.04,0.031
	C15.866,18.418,15.868,18.418,15.868,18.418z M15.826,18.386c-0.002-0.001-0.005-0.003-0.007-0.004
	C15.822,18.383,15.822,18.384,15.826,18.386L15.826,18.386z M3.515,18.39c0.003-0.002,0.007-0.004,0.01-0.006
	c-0.003,0.001-0.004,0.001-0.005,0.002C3.519,18.387,3.517,18.389,3.515,18.39z M3.495,18.404c-0.001,0-0.001,0.002-0.001,0.002
	c-0.003,0.001-0.006,0.004-0.008,0.006c0-0.001,0-0.001,0.002-0.001c0.008-0.008,0.018-0.015,0.027-0.021
	c-0.005,0.003-0.01,0.007-0.014,0.009C3.501,18.398,3.498,18.4,3.495,18.404z"/>
</svg>
