<?xml version="1.0" encoding="iso-8859-1"?>
<!-- Generator: Adobe Illustrator 17.0.2, SVG Export Plug-In . SVG Version: 6.00 Build 0)  -->
<!DOCTYPE svg PUBLIC "-//W3C//DTD SVG 1.1//EN" "http://www.w3.org/Graphics/SVG/1.1/DTD/svg11.dtd">
<svg version="1.1" id="Layer_1" xmlns="http://www.w3.org/2000/svg" xmlns:xlink="http://www.w3.org/1999/xlink" x="0px" y="0px"
	 width="64px" height="64px" viewBox="0 0 64 64" style="enable-background:new 0 0 64 64;" xml:space="preserve">
<g>
	<path d="M7.366,19.848c-0.659-0.502-1.601-0.37-2.102,0.289c-0.5,0.661-0.37,1.602,0.29,2.102l5.71,4.326l0.02,0.015l14.299,10.833
		v14.921h-8.583c-0.829,0-1.5,0.672-1.5,1.5s0.671,1.5,1.5,1.5h10.083h10.083c0.829,0,1.5-0.672,1.5-1.5s-0.671-1.5-1.5-1.5h-8.583
		V37.412l20.029-15.174c0.66-0.5,0.79-1.44,0.29-2.102c-0.501-0.659-1.441-0.788-2.102-0.289l-5.261,3.985H12.627L7.366,19.848z
		 M37.581,26.833l-10.497,7.952l-10.497-7.952H37.581z"/>
	<path d="M48.469,9.541c-5.623,0-10.198,4.575-10.198,10.198c0,0.892,0.115,1.776,0.343,2.631c0.213,0.801,1.036,1.281,1.836,1.063
		c0.8-0.213,1.276-1.035,1.063-1.835c-0.161-0.604-0.242-1.229-0.242-1.859c0-3.969,3.229-7.198,7.198-7.198
		s7.198,3.229,7.198,7.198s-3.229,7.197-7.198,7.197c-0.899,0-1.775-0.163-2.602-0.484c-0.77-0.299-1.641,0.084-1.941,0.855
		c-0.3,0.772,0.083,1.642,0.855,1.941c1.175,0.456,2.416,0.688,3.688,0.688c5.623,0,10.198-4.574,10.198-10.197
		S54.092,9.541,48.469,9.541z"/>
</g>
</svg>
