<?xml version="1.0" encoding="iso-8859-1"?>
<!-- Generator: Adobe Illustrator 16.0.0, SVG Export Plug-In . SVG Version: 6.00 Build 0)  -->
<!DOCTYPE svg PUBLIC "-//W3C//DTD SVG 1.1//EN" "http://www.w3.org/Graphics/SVG/1.1/DTD/svg11.dtd">
<svg version="1.1" id="Capa_1" xmlns="http://www.w3.org/2000/svg" xmlns:xlink="http://www.w3.org/1999/xlink" x="0px" y="0px"
	 width="500px" height="500px" viewBox="0 0 500 500" style="enable-background:new 0 0 500 500;" xml:space="preserve">
<g>
	<path d="M319.552,63.052V3.243L123.16,56.798v439.959h253.68V63.052H319.552z M145.239,470.023V89.789h209.523v380.234H145.239z"/>
	<path d="M331.826,243.072H168.168c-4.521,0-8.188,3.668-8.188,8.187c0,4.513,3.679,8.188,8.188,8.188h163.658
		c4.52,0,8.194-3.676,8.194-8.188C340.021,246.74,336.344,243.072,331.826,243.072z"/>
	<path d="M164.279,221.902h8.396c0.675,0,1.223-0.548,1.223-1.224v-21.127l10.452,11.605c0.463,0.511,1.358,0.511,1.822,0
		l10.459-11.613l0.022,21.135c0,0.676,0.544,1.224,1.228,1.224h8.383c0.683,0,1.224-0.548,1.224-1.224v-41.957
		c0-0.679-0.541-1.228-1.224-1.228h-2.789c-0.346,0-0.684,0.157-0.929,0.418l-17.284,19.651l-17.265-19.65
		c-0.233-0.261-0.572-0.418-0.929-0.418h-2.789c-0.676,0-1.224,0.548-1.224,1.228v41.956
		C163.056,221.354,163.604,221.902,164.279,221.902z"/>
	<path d="M214.521,221.902h30.77c0.684,0,1.228-0.548,1.228-1.224v-7.833c0-0.676-0.544-1.224-1.228-1.224h-21.151v-7.083h15.58
		c0.683,0,1.227-0.549,1.227-1.224v-7.811c0-0.676-0.544-1.224-1.227-1.224h-15.58v-6.5h21.209c0.675,0,1.224-0.552,1.224-1.228
		v-7.78c0-0.334-0.127-0.637-0.354-0.867c-0.227-0.234-0.541-0.36-0.862-0.36l-30.828-0.027c-0.675,0-1.224,0.552-1.224,1.228
		v41.925C213.297,221.354,213.837,221.902,214.521,221.902z"/>
	<path d="M253.792,221.902h8.397c0.676,0,1.22-0.548,1.22-1.224v-23.053l23.917,23.917c0.238,0.238,0.554,0.36,0.876,0.36h3.068
		c0.683,0,1.235-0.548,1.235-1.224v-41.957c0-0.679-0.555-1.228-1.235-1.228h-8.379c-0.69,0-1.229,0.548-1.229,1.228v23.327
		l-24.201-24.194c-0.222-0.234-0.534-0.36-0.864-0.36H253.8c-0.677,0-1.227,0.548-1.227,1.228v41.956
		C252.566,221.354,253.108,221.902,253.792,221.902z"/>
	<path d="M303.706,217.126c3.655,3.176,8.313,4.776,13.822,4.776c5.494,0,10.145-1.6,13.813-4.768
		c3.704-3.212,5.603-7.198,5.603-11.841v-26.564c0-0.679-0.563-1.228-1.244-1.228h-8.396c-0.675,0-1.229,0.549-1.229,1.228v24.332
		c0,2.796-0.769,4.769-2.333,6.035c-1.647,1.319-3.683,1.964-6.215,1.964c-2.548,0-4.588-0.645-6.246-1.964
		c-1.563-1.274-2.333-3.247-2.333-6.042v-24.332c0-0.679-0.552-1.228-1.228-1.228h-8.396c-0.676,0-1.229,0.548-1.229,1.228v26.564
		C298.098,209.929,299.985,213.914,303.706,217.126z"/>
</g>
</svg>
