<?xml version="1.0" encoding="utf-8"?>
<!-- Generator: Adobe Illustrator 17.0.2, SVG Export Plug-In . SVG Version: 6.00 Build 0)  -->
<!DOCTYPE svg PUBLIC "-//W3C//DTD SVG 1.1//EN" "http://www.w3.org/Graphics/SVG/1.1/DTD/svg11.dtd">
<svg version="1.1" id="Capa_1" xmlns="http://www.w3.org/2000/svg" xmlns:xlink="http://www.w3.org/1999/xlink" x="0px" y="0px"
	 width="100px" height="100px" viewBox="0 0 100 100" enable-background="new 0 0 100 100" xml:space="preserve">
<g>
	<path fill="#1D1D1B" d="M93.837,72.917c-0.274-0.12-0.573-0.189-0.887-0.189h-2.44c-0.238,0-0.464,0.049-0.68,0.119
		c-0.244-0.081-0.51-0.133-0.821-0.119c-5.751,0.256-11.503,0.515-17.256,0.753c1.811-0.99,3.541-2.13,5.158-3.452
		c1.136-0.929,2.125-1.96,2.99-3.068c17.449,3.3,19.202-24.59,4.038-25.906c-0.421-2.127-0.959-4.179-1.579-6.087
		c-0.36-1.108-1.281-1.57-2.194-1.556c-0.22-0.064-0.457-0.106-0.728-0.098c-23.14,0.735-46.29,0.927-69.441,0.751
		c-0.754-0.006-1.308,0.296-1.67,0.743c-0.511,0.359-0.892,0.92-0.957,1.697c-0.978,11.718-0.87,24.646,8.005,33.501
		c1.768,1.764,3.854,3.172,6.129,4.319c-2.722-0.058-5.444-0.145-8.166-0.251c-0.11-0.015-0.217-0.033-0.337-0.033H7.932
		c-0.347,0-0.65,0.068-0.914,0.181c-1.196,0.214-2.187,1.215-1.633,2.67c2.344,6.161,9.11,8.631,14.991,10.221
		c9.805,2.649,20.344,2.993,30.439,2.921c9.522-0.068,19.184-0.772,28.524-2.694c6.887-1.418,14.431-4.197,15.741-11.67
		c0.073-0.219,0.122-0.449,0.122-0.69C95.339,73.818,94.685,73.137,93.837,72.917z M84.648,45.804
		c7.55,2.225,7.206,16.974-2.18,16.898C84.765,57.621,85.231,51.605,84.648,45.804z M18.559,66.822
		c-7.714-6.73-7.572-18.659-6.85-28.245c22.275,0.152,44.55-0.04,66.815-0.733c2.972,10.308,3.22,23.099-6.103,30.02
		c-5.384,3.997-12.276,5.658-19.062,6.265c-3.619,0.101-7.239,0.182-10.858,0.236C34.133,74.016,24.813,72.279,18.559,66.822z
		 M74.69,83.647c-7.86,1.356-15.911,1.774-23.876,1.883c-8.432,0.116-16.947-0.313-25.247-1.861
		c-3.922-0.731-10.34-1.916-13.83-5.123h0.511c10.235,0.424,20.468,0.471,30.7,0.315c1.496,0.056,2.957,0.08,4.353,0.081
		c2.197,0.001,4.422-0.106,6.645-0.325c11.69-0.332,23.378-0.862,35.062-1.383c0.265-0.012,0.495-0.073,0.71-0.154
		c0.075,0.029,0.152,0.052,0.231,0.073C87.406,81.618,79.143,82.879,74.69,83.647z"/>
	<path fill="#1D1D1B" d="M66.954,66.438c6.64-5.694,9.11-13.547,7.711-22.085c-0.469-2.861-4.809-1.643-4.343,1.197
		c1.145,6.991-1.206,13.118-6.553,17.703C61.56,65.147,64.762,68.318,66.954,66.438z"/>
	<path fill="#1D1D1B" d="M28.382,18.426c0.856,1.488,1.665,2.893,1.985,4.419c0.3,1.431-0.455,2.858-2.309,4.365
		c-0.697,0.566-0.958,1.464-0.665,2.288c0.312,0.877,1.184,1.49,2.121,1.49h0c0.506,0,0.986-0.172,1.387-0.498
		c2.297-1.867,3.541-3.831,3.802-6.002c0.285-2.368-0.561-4.454-1.426-6.181c-0.351-0.701-0.758-1.408-1.151-2.092
		c-1.89-3.285-2.921-5.442-1.298-7.69c0.472-0.654,0.542-1.458,0.187-2.152c-0.373-0.729-1.158-1.199-2-1.199
		c-0.712,0-1.361,0.334-1.781,0.916c-3.29,4.559-0.591,9.291,0.86,11.833L28.382,18.426z"/>
	<path fill="#1D1D1B" d="M39.643,18.426c0.856,1.488,1.665,2.893,1.985,4.419c0.3,1.431-0.455,2.858-2.309,4.365
		c-0.697,0.566-0.958,1.464-0.665,2.288c0.312,0.877,1.184,1.49,2.121,1.49c0.507,0,0.986-0.172,1.387-0.498
		c2.297-1.867,3.541-3.831,3.802-6.002c0.285-2.368-0.561-4.454-1.426-6.181c-0.351-0.701-0.758-1.408-1.151-2.092
		c-1.89-3.285-2.921-5.442-1.298-7.69c0.472-0.654,0.542-1.458,0.187-2.152c-0.373-0.729-1.158-1.199-2.001-1.199
		c-0.712,0-1.361,0.334-1.781,0.916c-3.29,4.559-0.591,9.291,0.86,11.833L39.643,18.426z"/>
	<path fill="#1D1D1B" d="M50.903,18.425c0.856,1.488,1.665,2.894,1.985,4.42c0.3,1.431-0.455,2.858-2.309,4.365
		c-0.697,0.566-0.958,1.464-0.665,2.288c0.312,0.877,1.184,1.49,2.122,1.49c0.507,0,0.986-0.172,1.387-0.498
		c2.297-1.867,3.541-3.831,3.802-6.002c0.285-2.368-0.561-4.453-1.426-6.181c-0.351-0.701-0.758-1.408-1.151-2.092
		c-1.89-3.286-2.921-5.442-1.298-7.691c0.472-0.654,0.541-1.458,0.186-2.152c-0.373-0.729-1.158-1.199-2-1.199
		c-0.712,0-1.361,0.334-1.781,0.916c-3.29,4.559-0.591,9.291,0.86,11.833L50.903,18.425z"/>
</g>
</svg>
