<?xml version="1.0" encoding="utf-8"?>
<!-- Generator: Adobe Illustrator 16.0.4, SVG Export Plug-In . SVG Version: 6.00 Build 0)  -->
<!DOCTYPE svg PUBLIC "-//W3C//DTD SVG 1.1//EN" "http://www.w3.org/Graphics/SVG/1.1/DTD/svg11.dtd">
<svg version="1.1" id="Layer_1" xmlns="http://www.w3.org/2000/svg" xmlns:xlink="http://www.w3.org/1999/xlink" x="0px" y="0px"
	 width="50px" height="50px" viewBox="0 0 50 50" enable-background="new 0 0 50 50" xml:space="preserve">
<path d="M40.694,19.519c-0.247-0.247-0.635-0.291-0.932-0.102l-8.312,5.276l-5.556-8.356c0.793-0.347,1.349-1.137,1.349-2.055
	c0-1.238-1.007-2.245-2.245-2.245s-2.245,1.007-2.245,2.245c0,0.918,0.556,1.708,1.349,2.055l-5.609,8.438l-8.252-5.354
	c-0.294-0.19-0.684-0.152-0.936,0.096c-0.25,0.247-0.295,0.636-0.107,0.934l6.14,9.743c0.138,0.219,0.377,0.35,0.636,0.35h18.055
	c0.258,0,0.496-0.131,0.635-0.35l6.141-9.743C40.987,20.152,40.944,19.766,40.694,19.519z M24.999,13.536
	c0.411,0,0.745,0.334,0.745,0.745c0,0.411-0.334,0.745-0.745,0.745s-0.745-0.334-0.745-0.745
	C24.254,13.87,24.588,13.536,24.999,13.536z M12.284,22.535l5.378,3.489l-1.632,2.455L12.284,22.535z M17.456,29.043l1.465-2.203
	l3.396,2.203H17.456z M19.752,25.59l5.247-7.895l5.186,7.8l-5.347,3.394L19.752,25.59z M31.015,26.746l1.527,2.297h-5.146
	L31.015,26.746z M33.968,28.479l-1.686-2.537l5.474-3.474L33.968,28.479z M34.089,33.713c0.553,0,1-0.447,1-1c0-0.551-0.447-1-1-1
	h-18.18c-0.553,0-1,0.449-1,1c0,0.553,0.447,1,1,1h0.34v2.25h-0.34c-0.553,0-1,0.449-1,1c0,0.553,0.447,1,1,1h18.18
	c0.553,0,1-0.447,1-1c0-0.551-0.447-1-1-1h-0.34v-2.25H34.089z M27.249,33.713v2.25h-4.5v-2.25H27.249z M17.249,33.713h4.5v2.25
	h-4.5V33.713z M32.749,35.963h-4.5v-2.25h4.5V35.963z"/>
</svg>
