<svg width="21.451" xmlns="http://www.w3.org/2000/svg" height="23.329" viewBox="0 0 21.451 23.329" xmlns:xlink="http://www.w3.org/1999/xlink" enable-background="new 0 0 21.451 23.329">
<path d="m10.637,5.802l-7.374-1.927-.111,.114c-.721,.74-1.247,1.684-1.521,2.733-.693,2.654 .409,5.297 2.489,6.242l-1.712,6.552c-1.319-.288-2.344-.344-2.405-.107-.073,.277 1.195,.848 2.83,1.275 1.637,.428 3.021,.55 3.094,.272 .062-.236-.857-.689-2.149-1.083l1.715-6.56c2.26,.165 4.488-1.594 5.176-4.23 .274-1.049 .278-2.131 .01-3.128l-.042-.153zm-3.773,5.679c0,0 2.448-1.051 2.308-2.053l.678,.177c0,0-.273,1.781-2.986,1.876zm3.453-3.7c-.047,.013-2.862,.783-4.813-1.259-1.294-1.353-2.212-1.359-2.691-1.204 .183-.298 .391-.578 .622-.831l6.752,1.764c.117,.495 .158,1.01 .13,1.53z"/>
<path d="m19.041,21.825l-1.523-6.607c2.08-.903 3.237-3.494 2.625-6.148-.244-1.057-.742-2.017-1.442-2.775l-.108-.117-7.427,1.712-.045,.152c-.297,.99-.325,2.071-.081,3.127 .616,2.673 2.818,4.503 5.1,4.376l1.522,6.599c-1.303,.355-2.236,.781-2.18,1.02 .063,.279 1.452,.197 3.099-.182 1.649-.38 2.931-.915 2.867-1.194-.054-.239-1.078-.213-2.407,.037zm-1.156-8.867c0,0 1.681-2.066 1.092-2.889l.683-.157c0-.001 .583,1.703-1.775,3.046zm-3.505-3.763c-1.774-.599-2.59-.178-2.942,.181 .023-.349 .078-.692 .166-1.024l6.8-1.568c.333,.384 .609,.821 .825,1.296-.036,.031-2.174,2.019-4.849,1.115z"/>
<circle cx="15.078" cy="6.075" r=".747"/>
<circle cx="16.812" cy="2.783" r=".649"/>
<circle cx="15.456" cy=".378" r=".378"/>
<circle cx="13.875" cy=".249" r=".249"/>
<circle cx="9.276" cy=".714" r=".714"/>
<path d="m3.279,1.607c.113,.058 .212,.108 .323,.16 .111,.051 .225,.128 .315,.235 .091,.105 .171,.231 .24,.367 .072,.135 .133,.283 .182,.436 .109,.305 .172,.635 .215,.969l.079,.006c.084-.339 .107-.688 .096-1.047-.021-.357-.092-.728-.283-1.08-.095-.174-.21-.354-.365-.507-.157-.153-.363-.26-.575-.296-.425-.074-.832,.044-1.123,.322l.015,.078c.369,.151 .658,.237 .881,.357z"/>
<path d="m5.16,1.318c.042,.038 .08,.088 .104,.147 .025,.06 .042,.126 .051,.195 .012,.069 .017,.143 .017,.216 .002,.149-.018,.302-.047,.454l.033,.014c.086-.136 .146-.284 .193-.443 .044-.158 .065-.331 .032-.511-.016-.09-.039-.184-.085-.274-.046-.089-.121-.166-.208-.212-.175-.093-.369-.101-.537-.021l-.003,.035c.139,.119 .252,.198 .333,.283 .04,.042 .076,.078 .117,.117z"/>
</svg>
