<?xml version="1.0" encoding="utf-8"?>
<!-- Generator: Adobe Illustrator 17.0.0, SVG Export Plug-In . SVG Version: 6.00 Build 0)  -->
<!DOCTYPE svg PUBLIC "-//W3C//DTD SVG 1.1//EN" "http://www.w3.org/Graphics/SVG/1.1/DTD/svg11.dtd">
<svg version="1.1" id="Capa_1" xmlns="http://www.w3.org/2000/svg" xmlns:xlink="http://www.w3.org/1999/xlink" x="0px" y="0px"
	 width="29.72px" height="24.811px" viewBox="0 0 29.72 24.811" enable-background="new 0 0 29.72 24.811" xml:space="preserve">
<path d="M12.64,21.537c-5.035,0-9.132-4.095-9.132-9.131s4.096-9.133,9.132-9.133c2.517,0,4.801,1.024,6.454,2.678l1.474-1.473
	c-2.032-2.031-4.835-3.29-7.928-3.29c-6.186,0-11.218,5.032-11.218,11.218c0,6.185,5.031,11.217,11.218,11.217
	c5.674,0,10.377-4.237,11.114-9.714l-2.067-0.279C21.087,18.087,17.259,21.537,12.64,21.537z M14.539,10.339
	c-0.416,0-0.753-0.336-0.753-0.752c0-0.417,0.337-0.754,0.753-0.754c0.417,0,0.755,0.337,0.755,0.754
	c0,0.068-0.014,0.131-0.03,0.193l2.538-2.537c-1.321-1.322-3.146-2.139-5.163-2.139c-4.034,0-7.302,3.269-7.302,7.303
	c0,4.032,3.268,7.301,7.302,7.301c3.7,0,6.749-2.755,7.229-6.324l-7.229-0.978l2.092-2.092
	C14.67,10.328,14.608,10.339,14.539,10.339z M9.718,13.572c-0.749,0-1.356-0.608-1.356-1.356c0-0.75,0.607-1.356,1.356-1.356
	s1.356,0.606,1.356,1.356C11.075,12.965,10.467,13.572,9.718,13.572z M10.593,9.586c-0.483,0-0.874-0.392-0.874-0.875
	s0.392-0.874,0.874-0.874s0.875,0.392,0.875,0.874S11.076,9.586,10.593,9.586z M13.995,14.72c0.46,0,0.835,0.374,0.835,0.835
	c0,0.459-0.374,0.834-0.835,0.834c-0.461,0-0.836-0.374-0.836-0.834C13.159,15.094,13.533,14.72,13.995,14.72z M22.433,4.714
	L19.46,7.462c0.24,0.187,0.398,0.477,0.398,0.808c0,0.567-0.459,1.028-1.028,1.028c-0.358,0-0.673-0.185-0.857-0.462l-2.797,2.582
	l1.998,0.307c-0.095-0.146-0.156-0.32-0.156-0.508c0-0.5,0.406-0.905,0.906-0.905s0.906,0.405,0.906,0.905
	c0,0.289-0.137,0.543-0.35,0.709l2.723,0.419c-0.007-0.041-0.014-0.083-0.014-0.128c0-0.402,0.326-0.732,0.732-0.732
	c0.402,0,0.731,0.328,0.731,0.732c0,0.124-0.033,0.238-0.086,0.339l2.55,0.393C25.116,12.949,25.882,7.732,22.433,4.714z
	 M15.264,9.779l-0.532,0.534C14.992,10.243,15.195,10.039,15.264,9.779z M24.694,2.789l-1.374,1.39
	c2.289,1.941,3.489,5.036,2.863,8.184c-0.034,0.175-0.074,0.345-0.119,0.515l1.926,0.341c0.04-0.158,0.074-0.316,0.105-0.475
	C28.855,8.93,27.431,5.18,24.694,2.789z"/>
</svg>
