<?xml version="1.0" encoding="iso-8859-1"?>
<!-- Generator: Adobe Illustrator 17.0.2, SVG Export Plug-In . SVG Version: 6.00 Build 0)  -->
<!DOCTYPE svg PUBLIC "-//W3C//DTD SVG 1.1//EN" "http://www.w3.org/Graphics/SVG/1.1/DTD/svg11.dtd">
<svg version="1.1" id="Capa_1" xmlns="http://www.w3.org/2000/svg" xmlns:xlink="http://www.w3.org/1999/xlink" x="0px" y="0px"
	 width="64px" height="64px" viewBox="0 0 64 64" style="enable-background:new 0 0 64 64;" xml:space="preserve">
<g>
	<path d="M33.804,48.495c7.451,0,13.513-6.06,13.513-13.512c0-7.451-6.062-13.514-13.513-13.514
		c-7.451,0-13.513,6.062-13.513,13.514C20.291,42.435,26.352,48.495,33.804,48.495z"/>
	<path d="M33.804,52.122c9.466,0,17.139-7.674,17.139-17.139c0-9.467-7.673-17.139-17.139-17.139
		c-9.466,0-17.139,7.672-17.139,17.139C16.665,44.448,24.338,52.122,33.804,52.122z M33.804,20.47
		c8.002,0,14.513,6.512,14.513,14.514s-6.511,14.512-14.513,14.512s-14.513-6.51-14.513-14.512S25.802,20.47,33.804,20.47z"/>
	<path d="M60.467,53.717l-1-38.468c0-0.828-0.672-1.5-1.5-1.5c-0.222,0-0.43,0.051-0.619,0.138v-0.014c0,0-0.039,0.025-0.094,0.063
		c-0.143,0.079-0.273,0.177-0.384,0.296c-1.097,0.901-4.598,4.573-4.89,9.537c-0.445,7.572,3.233,10.638,4.486,13.447l-1,16.5
		c0,0.828,1.672,1.5,2.5,1.5C58.795,55.217,60.467,54.545,60.467,53.717z"/>
	<path d="M4.918,30.282l2.589,1.293c0.295,0.148,0.62,0.256,0.96,0.336l-1,22.502c0,0.695,1.672,1.258,2.5,1.258
		c0.828,0,2.5-0.562,2.5-1.258l-1-22.617c0.352-0.111,0.691-0.246,0.988-0.428l1.918-1.168c1.384-0.844,2.427-2.701,2.427-4.322
		V15.796c0-0.828-0.672-1.5-1.5-1.5c-0.828,0-1.5,0.672-1.5,1.5v9.082h-0.833v-9.082c0-0.828-0.672-1.5-1.5-1.5
		c-0.828,0-1.5,0.672-1.5,1.5v9.082H9.131v-9.082c0-0.828-0.672-1.5-1.5-1.5c-0.828,0-1.5,0.672-1.5,1.5v9.082H5.3V16.12
		c0-0.828-0.672-1.5-1.5-1.5c-0.828,0-1.5,0.672-1.5,1.5v9.926C2.3,27.714,3.426,29.536,4.918,30.282z"/>
</g>
</svg>
