<?xml version="1.0" encoding="utf-8"?>
<!-- Generator: Adobe Illustrator 16.0.4, SVG Export Plug-In . SVG Version: 6.00 Build 0)  -->
<!DOCTYPE svg PUBLIC "-//W3C//DTD SVG 1.1//EN" "http://www.w3.org/Graphics/SVG/1.1/DTD/svg11.dtd">
<svg version="1.1" id="Layer_1" xmlns="http://www.w3.org/2000/svg" xmlns:xlink="http://www.w3.org/1999/xlink" x="0px" y="0px"
	 width="50px" height="50px" viewBox="0 0 50 50" enable-background="new 0 0 50 50" xml:space="preserve">
<path d="M40.493,20.211c-0.166-0.144-0.407-0.162-0.595-0.043l-5.25,3.331l-1.359-2.943c-0.057-0.123-0.159-0.217-0.286-0.262
	c-0.127-0.046-0.267-0.038-0.387,0.021l-3.579,1.736l-1.762-2.648c0.824-0.676,1.303-1.67,1.303-2.748
	c0-1.975-1.605-3.579-3.578-3.579s-3.578,1.604-3.578,3.579c0,1.078,0.479,2.072,1.303,2.748l-1.691,2.545L17.37,20.31
	c-0.25-0.115-0.542-0.004-0.658,0.246l-1.387,3.002l-5.22-3.388c-0.185-0.12-0.428-0.104-0.597,0.039s-0.223,0.381-0.133,0.583
	l6.14,13.877c0.012,0.025,0.035,0.037,0.049,0.059c0.643,1.723,6.117,2.195,9.438,2.195c3.318,0,8.793-0.473,9.436-2.195
	c0.014-0.021,0.037-0.033,0.049-0.059l6.14-13.877C40.713,20.591,40.66,20.355,40.493,20.211z M16.182,24.087l1.23-2.664
	l3.061,1.368l-1.906,2.869l-2.398-1.557C16.171,24.097,16.18,24.095,16.182,24.087z M15.543,27.307
	c-0.232-0.148-0.301-0.457-0.15-0.689c0.147-0.234,0.457-0.301,0.689-0.152l3.055,1.953l4.635-6.936
	c0.154-0.229,0.465-0.289,0.694-0.137c0.229,0.153,0.291,0.463,0.138,0.693l-4.908,7.342c-0.096,0.145-0.254,0.223-0.416,0.223
	c-0.092,0-0.186-0.025-0.27-0.08L15.543,27.307z M25.001,35.924c-5.353,0-8.38-1.004-8.501-1.533
	c0.113-0.523,3.219-1.543,8.501-1.543c5.281,0,8.386,1.02,8.499,1.533C33.379,34.92,30.352,35.924,25.001,35.924z M31.379,25.574
	l-1.781-2.682l2.998-1.455l1.201,2.604L31.379,25.574z"/>
</svg>
