<?xml version="1.0" encoding="utf-8"?>
<!-- Generator: Adobe Illustrator 16.0.4, SVG Export Plug-In . SVG Version: 6.00 Build 0)  -->
<!DOCTYPE svg PUBLIC "-//W3C//DTD SVG 1.1//EN" "http://www.w3.org/Graphics/SVG/1.1/DTD/svg11.dtd">
<svg version="1.1" id="Capa_1" xmlns="http://www.w3.org/2000/svg" xmlns:xlink="http://www.w3.org/1999/xlink" x="0px" y="0px"
	 width="64px" height="64px" viewBox="0 0 64 64" enable-background="new 0 0 64 64" xml:space="preserve">
<g>
	<circle fill="#0E0F0F" cx="38.066" cy="9.042" r="5.147"/>
	<path fill="#0E0F0F" d="M40.564,37.124c0.062-0.509,0.018-0.955-0.103-1.342c0-0.007,0.002-0.013,0.003-0.019
		c0.314-2.646,0.686-5.283,1.081-7.915c0.326,0.952,0.595,1.93,0.793,2.938c0.675,3.396,5.851,1.955,5.183-1.429
		c-0.813-4.103-2.633-7.782-5.252-11.004c-0.496-1.409-1.545-2.552-3.262-3.073c-0.507,0.588-1.054,1.173-1.611,1.744
		c0.082-0.183,0.131-0.425,0.131-0.693c0-0.567-0.219-1.027-0.488-1.027h-0.16c-0.182,0-0.339,0.211-0.422,0.521
		c-0.02-0.007-0.037-0.012-0.059-0.012H36.32c-0.084-0.303-0.238-0.509-0.416-0.509H35.52c-0.269,0-0.487,0.46-0.487,1.027
		s0.22,1.027,0.487,1.027h0.385c0.119,0,0.228-0.095,0.313-0.245c0.021,0.011,0.044,0.017,0.066,0.017h0.114
		c0.051,0,0.097-0.025,0.139-0.068c0.088,0.183,0.208,0.297,0.343,0.297h0.16c0.013,0,0.024-0.006,0.036-0.008
		c-2.442,2.459-4.975,4.592-5.101,5.357c-0.072,0.44-0.144,0.864-0.215,1.287c-0.434,0.442-0.956,0.771-1.61,0.85
		c-1.819,0.218-3.557-0.86-5.017-1.793c-2.929-1.872-5.62,2.778-2.712,4.639c2.741,1.752,5.677,2.579,8.339,2.245
		c-0.286,1.769-0.553,3.564-0.79,5.554c-0.051,0.422-0.024,0.835,0.053,1.235c-2.667,6.654-4.643,13.532-5.789,20.658
		c-0.683,4.235,5.788,6.053,6.475,1.785c0.778-4.834,1.93-9.568,3.432-14.195c0.971,4.957,3.424,9.518,7.072,13.327
		c3,3.134,7.744-1.622,4.748-4.747C41.575,48.973,39.816,43.396,40.564,37.124z"/>
	<rect x="15.359" y="20.746" fill="#0E0F0F" width="14.581" height="0.932"/>
	<path fill="#0E0F0F" d="M22.89,13.478c-0.029-0.603-0.223-1.07-0.46-1.07c-0.24,0-0.436,0.481-0.46,1.096
		c-3.438,0.332-6.124,3.228-6.124,6.752h13.568C29.414,16.596,26.516,13.615,22.89,13.478z"/>
</g>
</svg>
