<?xml version="1.0" encoding="iso-8859-1"?>
<!-- Generator: Adobe Illustrator 17.1.0, SVG Export Plug-In . SVG Version: 6.00 Build 0)  -->
<!DOCTYPE svg PUBLIC "-//W3C//DTD SVG 1.1//EN" "http://www.w3.org/Graphics/SVG/1.1/DTD/svg11.dtd">
<svg version="1.1" id="Capa_1" xmlns="http://www.w3.org/2000/svg" xmlns:xlink="http://www.w3.org/1999/xlink" x="0px" y="0px"
	 viewBox="0 0 100 100" style="enable-background:new 0 0 100 100;" xml:space="preserve">
<g>
	<path style="fill:#1D1D1B;" d="M31.057,36.582v50.676c0,1.321,0.482,2.464,1.448,3.429c0.949,0.949,2.072,1.427,3.366,1.442
		c1.293-0.015,2.417-0.493,3.367-1.442c0.965-0.965,1.447-2.108,1.447-3.429V36.582c1.448-0.507,6.876-5.345,6.876-6.896V9.304
		c0-0.659-0.242-1.231-0.724-1.714c-0.483-0.482-1.055-0.724-1.714-0.724c-0.661,0-1.232,0.242-1.714,0.724
		c-0.483,0.484-0.724,1.055-0.724,1.714v15.848c0,0.661-0.242,1.232-0.724,1.714c-0.483,0.483-1.054,0.723-1.714,0.723
		c-0.661,0-1.232-0.24-1.714-0.723c-0.482-0.482-0.724-1.054-0.724-1.714V9.304c0-0.659-0.242-1.231-0.724-1.714
		c-0.482-0.482-1.054-0.724-1.714-0.724c-0.661,0-1.232,0.242-1.714,0.724c-0.483,0.484-0.724,1.055-0.724,1.714v15.848
		c0,0.661-0.242,1.232-0.724,1.714c-0.483,0.483-1.054,0.723-1.714,0.723c-0.661,0-1.232-0.24-1.714-0.723
		c-0.483-0.482-0.724-1.054-0.724-1.714V9.304c0-0.659-0.241-1.231-0.724-1.714c-0.482-0.482-1.054-0.724-1.714-0.724
		c-0.661,0-1.232,0.242-1.714,0.724c-0.482,0.484-0.724,1.055-0.724,1.714v20.381C23.181,31.236,29.609,36.074,31.057,36.582z"/>
	<path style="fill:#1D1D1B;" d="M35.933,92.134c-0.021,0-0.041-0.006-0.062-0.006c-0.021,0-0.04,0.006-0.062,0.006H35.933z"/>
	<path style="fill:#1D1D1B;" d="M67.067,93.134c-0.021,0-0.041-0.006-0.062-0.006c-0.021,0-0.041,0.006-0.062,0.006H67.067z"/>
	<path style="fill:#1D1D1B;" d="M56.657,48.753h5.534v39.505c0,1.321,0.482,2.464,1.447,3.429c0.95,0.949,2.073,1.427,3.367,1.442
		c1.293-0.015,2.417-0.493,3.367-1.442c0.965-0.965,1.448-2.108,1.448-3.429V7.304c0-0.659-0.242-1.231-0.724-1.714
		c-0.483-0.482-1.054-0.724-1.714-0.724h-1.752c-3.353,0-6.223,1.194-8.61,3.581c-2.387,2.388-3.581,5.258-3.581,8.61v30.477
		c0,0.33,0.121,0.616,0.362,0.857C56.041,48.632,56.327,48.753,56.657,48.753z"/>
</g>
</svg>
