<?xml version="1.0" encoding="utf-8"?>
<!-- Generator: Adobe Illustrator 16.0.4, SVG Export Plug-In . SVG Version: 6.00 Build 0)  -->
<!DOCTYPE svg PUBLIC "-//W3C//DTD SVG 1.1//EN" "http://www.w3.org/Graphics/SVG/1.1/DTD/svg11.dtd">
<svg version="1.1" id="Layer_1" xmlns="http://www.w3.org/2000/svg" xmlns:xlink="http://www.w3.org/1999/xlink" x="0px" y="0px"
	 width="50px" height="50px" viewBox="0 0 50 50" enable-background="new 0 0 50 50" xml:space="preserve">
<path d="M40.568,20.578c-0.35-0.22-0.812-0.115-1.035,0.234l-5.261,8.351l-8.124-8.123c1.106-0.454,1.89-1.54,1.89-2.808
	c0-1.676-1.362-3.038-3.038-3.038c-1.675,0-3.038,1.362-3.038,3.038c0,1.268,0.783,2.354,1.889,2.808l-8.123,8.122l-5.261-8.35
	c-0.221-0.35-0.684-0.454-1.035-0.234c-0.351,0.221-0.456,0.684-0.235,1.034l6.14,9.744c0.138,0.219,0.377,0.351,0.635,0.351h18.056
	c0.259,0,0.497-0.132,0.636-0.351l6.139-9.744C41.023,21.262,40.918,20.799,40.568,20.578z M24.251,30.206h-7.444l7.444-7.442
	V30.206z M25.752,22.764l7.443,7.442h-7.443V22.764z M25.001,16.694c0.847,0,1.538,0.689,1.538,1.538
	c0,0.847-0.689,1.536-1.538,1.536s-1.538-0.689-1.538-1.536C23.464,17.384,24.154,16.694,25.001,16.694z M34.842,34.057
	c0,0.413-0.336,0.75-0.75,0.75h-18.18c-0.414,0-0.75-0.337-0.75-0.75c0-0.414,0.336-0.75,0.75-0.75h18.18
	C34.506,33.307,34.842,33.643,34.842,34.057z"/>
</svg>
