<?xml version="1.0" encoding="utf-8"?>
<!-- Generator: Adobe Illustrator 16.0.4, SVG Export Plug-In . SVG Version: 6.00 Build 0)  -->
<!DOCTYPE svg PUBLIC "-//W3C//DTD SVG 1.1//EN" "http://www.w3.org/Graphics/SVG/1.1/DTD/svg11.dtd">
<svg version="1.1" id="Layer_1" xmlns="http://www.w3.org/2000/svg" xmlns:xlink="http://www.w3.org/1999/xlink" x="0px" y="0px"
	 width="50px" height="50px" viewBox="0 0 50 50" enable-background="new 0 0 50 50" xml:space="preserve">
<path d="M35.209,19.638c-1.404-0.977-3.195-1.037-4.661-0.197c-1.528-0.846-3.368-0.725-4.798,0.127v-2.231h1.1
	c0.414,0,0.75-0.336,0.75-0.75s-0.336-0.75-0.75-0.75h-1.1V15.09c0-0.414-0.336-0.75-0.75-0.75s-0.75,0.336-0.75,0.75v0.746h-1.099
	c-0.414,0-0.75,0.336-0.75,0.75s0.336,0.75,0.75,0.75h1.099v2.231c-1.435-0.852-3.276-0.973-4.797-0.127
	c-1.449-0.832-3.25-0.784-4.661,0.197c-1.568,1.084-2.542,3.125-2.542,5.324c0,0.627,0.08,1.25,0.225,1.789
	c0.245,1.387,1.079,3.449,2.548,6.309c0.002,0.004,0.006,0.006,0.008,0.01c0.804,2.027,6.497,2.591,9.969,2.591
	c3.469,0,9.154-0.562,9.966-2.586c0.003-0.007,0.009-0.009,0.013-0.015c1.447-2.817,2.306-4.94,2.537-6.25
	c0.155-0.598,0.234-1.219,0.234-1.848C37.75,22.763,36.775,20.724,35.209,19.638z M24.421,21.655l0.581,0.711l0.581-0.711
	c1.062-1.301,2.968-1.781,4.452-0.795c1.183,0.791,1.917,2.313,1.917,3.977c0,0.482-0.063,0.961-0.203,1.482
	c-0.154,0.832-0.619,2.055-1.353,3.592c-1.817-0.311-3.832-0.428-5.397-0.428c-1.564,0-3.578,0.117-5.396,0.428
	c-0.736-1.549-1.205-2.787-1.365-3.652c-0.127-0.467-0.191-0.947-0.191-1.424c0-1.664,0.735-3.186,1.919-3.975
	C21.438,19.88,23.362,20.36,24.421,21.655z M13.75,24.962c0-1.715,0.727-3.283,1.896-4.092c0.771-0.537,1.677-0.662,2.504-0.391
	c-1.005,1.119-1.602,2.688-1.602,4.354c0,0.608,0.082,1.222,0.229,1.756c0.164,0.896,0.611,2.119,1.318,3.642
	c-0.945,0.248-1.755,0.567-2.322,0.977c-1.024-2.098-1.641-3.693-1.835-4.777C13.813,25.954,13.75,25.46,13.75,24.962z
	 M16.427,32.624c0-0.006-0.003-0.01-0.003-0.014c0.131-0.287,0.939-0.682,2.338-1.01c0.344,0.68,0.725,1.399,1.155,2.178
	C17.816,33.433,16.601,32.929,16.427,32.624z M21.77,34.015c-0.553-0.973-1.042-1.873-1.472-2.705
	c1.282-0.192,2.855-0.326,4.702-0.326c1.848,0,3.422,0.134,4.705,0.322c-0.43,0.832-0.92,1.734-1.475,2.707
	c-0.961,0.09-2.037,0.146-3.229,0.146C23.807,34.159,22.731,34.103,21.77,34.015z M30.085,33.774
	c0.431-0.781,0.813-1.504,1.158-2.185c1.401,0.318,2.209,0.693,2.335,0.938C33.422,32.886,32.203,33.415,30.085,33.774z
	 M36.051,26.489c-0.185,1.035-0.8,2.623-1.824,4.721c-0.565-0.408-1.375-0.73-2.319-0.977c0.702-1.512,1.146-2.717,1.304-3.58
	c0.161-0.592,0.242-1.203,0.242-1.816c0-1.666-0.596-3.234-1.6-4.355c0.836-0.274,1.729-0.149,2.502,0.39
	c1.168,0.812,1.896,2.379,1.896,4.092C36.25,25.462,36.188,25.958,36.051,26.489z"/>
</svg>
