<?xml version="1.0" encoding="utf-8"?>
<!-- Generator: Adobe Illustrator 16.0.4, SVG Export Plug-In . SVG Version: 6.00 Build 0)  -->
<!DOCTYPE svg PUBLIC "-//W3C//DTD SVG 1.1//EN" "http://www.w3.org/Graphics/SVG/1.1/DTD/svg11.dtd">
<svg version="1.1" id="Layer_1" xmlns="http://www.w3.org/2000/svg" xmlns:xlink="http://www.w3.org/1999/xlink" x="0px" y="0px"
	 width="50px" height="50px" viewBox="0 0 50 50" enable-background="new 0 0 50 50" xml:space="preserve">
<path d="M41.5,18.07c-1.377,0-2.496,1.12-2.496,2.496c0,0.539,0.176,1.036,0.469,1.444l-4.717,2.994l-1.24-2.686
	c-0.174-0.378-0.621-0.538-0.994-0.366l-3.123,1.436c-0.111,0.052-0.197,0.131-0.27,0.222l-3.223-4.851
	c0.928-0.364,1.588-1.263,1.588-2.318c0-1.376-1.119-2.495-2.495-2.495c-1.376,0-2.495,1.119-2.495,2.495
	c0,1.057,0.661,1.954,1.589,2.318L20.87,23.61c-0.071-0.091-0.157-0.17-0.27-0.222l-3.122-1.436c-0.374-0.17-0.82-0.011-0.994,0.366
	l-1.267,2.739l-4.693-3.046c0.294-0.409,0.471-0.906,0.471-1.447c0-1.376-1.119-2.496-2.495-2.496s-2.495,1.12-2.495,2.496
	s1.119,2.495,2.495,2.495c0.262,0,0.509-0.052,0.746-0.127l6.092,9.668c0.139,0.218,0.377,0.352,0.635,0.352h18.055
	c0.258,0,0.498-0.134,0.635-0.352l6.092-9.668c0.238,0.075,0.484,0.127,0.746,0.127c1.377,0,2.496-1.119,2.496-2.495
	S42.875,18.07,41.5,18.07z M30.025,24.753l2.441-1.123l1.01,2.187l-2.025,1.286l-1.545-2.321
	C29.947,24.77,29.986,24.771,30.025,24.753z M25,15.445c0.549,0,0.995,0.447,0.995,0.996c0,0.55-0.445,0.995-0.995,0.995
	c-0.549,0-0.995-0.445-0.995-0.995C24.004,15.893,24.451,15.445,25,15.445z M17.532,23.63l2.441,1.123
	c0.038,0.018,0.078,0.018,0.118,0.027l-1.599,2.404l-2.004-1.301L17.532,23.63z M7.504,20.566c0-0.549,0.446-0.996,0.995-0.996
	s0.995,0.447,0.995,0.996c0,0.55-0.446,0.995-0.995,0.995S7.504,21.116,7.504,20.566z M33.613,31.454H16.385l-4.102-6.51
	l6.015,3.902c0.347,0.224,0.807,0.128,1.033-0.215l5.667-8.525l5.609,8.438c0.225,0.34,0.682,0.438,1.025,0.218l6.121-3.885
	L33.613,31.454z M41.5,21.562c-0.549,0-0.996-0.445-0.996-0.995c0-0.549,0.447-0.996,0.996-0.996s0.994,0.447,0.994,0.996
	C42.494,21.116,42.049,21.562,41.5,21.562z M34.84,35.304c0,0.414-0.336,0.75-0.75,0.75H15.91c-0.414,0-0.75-0.336-0.75-0.75
	s0.336-0.75,0.75-0.75h18.18C34.504,34.554,34.84,34.89,34.84,35.304z"/>
</svg>
