<?xml version="1.0" encoding="utf-8"?>
<!-- Generator: Adobe Illustrator 16.0.4, SVG Export Plug-In . SVG Version: 6.00 Build 0)  -->
<!DOCTYPE svg PUBLIC "-//W3C//DTD SVG 1.1//EN" "http://www.w3.org/Graphics/SVG/1.1/DTD/svg11.dtd">
<svg version="1.1" id="Layer_1" xmlns="http://www.w3.org/2000/svg" xmlns:xlink="http://www.w3.org/1999/xlink" x="0px" y="0px"
	 width="50px" height="50px" viewBox="0 0 50 50" enable-background="new 0 0 50 50" xml:space="preserve">
<g>
	<path d="M40.072,19.714c-1.191,0-2.162,0.968-2.162,2.157c0,0.578,0.23,1.101,0.604,1.488l-2.299,3.646L25.75,19.295v-1.994h0.822
		c0.414,0,0.75-0.336,0.75-0.75s-0.336-0.75-0.75-0.75H25.75v-0.879c0-0.414-0.336-0.75-0.75-0.75s-0.75,0.336-0.75,0.75v0.879
		h-0.822c-0.414,0-0.75,0.336-0.75,0.75s0.336,0.75,0.75,0.75h0.822v1.953L13.76,26.967l-2.272-3.606
		c0.371-0.388,0.602-0.911,0.602-1.487c0-1.19-0.968-2.158-2.158-2.158S7.77,20.683,7.77,21.873c0,1.189,0.971,2.158,2.161,2.158
		c0.066,0,0.128-0.014,0.193-0.02l5.738,9.104c0.021,0.034,0.06,0.051,0.086,0.082c0.422,2.547,8.146,2.631,9.052,2.631
		c0.906,0,8.628-0.084,9.052-2.631c0.025-0.031,0.064-0.048,0.086-0.082l5.738-9.104c0.064,0.006,0.129,0.021,0.195,0.021
		c1.189,0,2.158-0.97,2.158-2.16C42.23,20.682,41.262,19.714,40.072,19.714z M9.93,22.531c-0.363,0-0.661-0.296-0.661-0.658
		c0-0.363,0.298-0.658,0.661-0.658s0.658,0.295,0.658,0.658C10.588,22.235,10.293,22.531,9.93,22.531z M31.615,33.466
		C30.4,33.899,28.127,34.328,25,34.328c-3.128,0-5.4-0.43-6.616-0.862c-0.473-0.168-0.801-0.337-0.936-0.481
		c0.292-0.312,1.41-0.73,3.19-1.019c1.177-0.189,2.635-0.322,4.36-0.322c1.726,0,3.185,0.133,4.361,0.322
		c1.779,0.286,2.898,0.707,3.189,1.019C32.416,33.129,32.088,33.298,31.615,33.466z M33.279,31.664
		c-2.084-1.467-7.529-1.521-8.28-1.521c-0.75,0-6.194,0.056-8.279,1.521l-2.157-3.424l10.409-7.654l10.442,7.693L33.279,31.664z
		 M40.072,22.531c-0.365,0-0.662-0.296-0.662-0.658c0-0.363,0.297-0.658,0.662-0.658c0.361,0,0.658,0.295,0.658,0.658
		C40.73,22.235,40.436,22.531,40.072,22.531z"/>
	<path d="M22.465,26.884c0,1.396,1.138,2.532,2.535,2.532c1.396,0,2.533-1.137,2.533-2.532c0-1.397-1.137-2.534-2.533-2.534
		C23.603,24.35,22.465,25.486,22.465,26.884z M25,25.85c0.57,0,1.033,0.464,1.033,1.034c0,0.569-0.463,1.032-1.033,1.032
		c-0.57,0-1.035-0.463-1.035-1.032C23.965,26.313,24.43,25.85,25,25.85z"/>
</g>
</svg>
