<?xml version="1.0" encoding="utf-8"?>
<!-- Generator: Adobe Illustrator 16.0.4, SVG Export Plug-In . SVG Version: 6.00 Build 0)  -->
<!DOCTYPE svg PUBLIC "-//W3C//DTD SVG 1.1//EN" "http://www.w3.org/Graphics/SVG/1.1/DTD/svg11.dtd">
<svg version="1.1" id="Layer_1" xmlns="http://www.w3.org/2000/svg" xmlns:xlink="http://www.w3.org/1999/xlink" x="0px" y="0px"
	 width="50px" height="50px" viewBox="0 0 50 50" enable-background="new 0 0 50 50" xml:space="preserve">
<path d="M37.523,17.829c-1.701,0-3.084,1.383-3.084,3.082c0,0.91,0.404,1.723,1.035,2.288l-3.889,1.397l-5.535-6.584
	c1.193-0.426,2.055-1.556,2.055-2.894c0-1.7-1.383-3.084-3.083-3.084c-1.699,0-3.083,1.384-3.083,3.084
	c0,1.325,0.847,2.448,2.021,2.883l-5.544,6.594l-3.888-1.397c0.631-0.564,1.034-1.377,1.034-2.287c0-1.699-1.383-3.082-3.083-3.082
	c-1.699,0-3.084,1.383-3.084,3.082c0,1.447,1.008,2.656,2.354,2.986v8.357c0,0.057,0.021,0.107,0.033,0.164
	c-0.021,0.084-0.033,0.172-0.033,0.264c0,3,11.894,3.088,13.25,3.088c1.355,0,13.25-0.088,13.25-3.088
	c0-0.092-0.012-0.18-0.033-0.264c0.014-0.057,0.033-0.107,0.033-0.164v-8.357c1.348-0.33,2.354-1.539,2.354-2.986
	C40.605,19.211,39.223,17.829,37.523,17.829z M23.439,15.12c0-0.873,0.711-1.584,1.584-1.584c0.872,0,1.583,0.711,1.583,1.584
	s-0.711,1.583-1.583,1.583C24.15,16.703,23.439,15.993,23.439,15.12z M18.401,26.186c0.294,0.104,0.625,0.018,0.827-0.225L25,19.096
	l5.773,6.865c0.201,0.24,0.531,0.328,0.826,0.225l5.15-1.852v6.756c-3.242-1.443-10.693-1.496-11.75-1.496
	c-1.057,0-8.509,0.053-11.75,1.496v-6.756L18.401,26.186z M25.001,34.27c-5.778,0-9.458-0.688-10.99-1.266
	c-0.301-0.113-0.526-0.225-0.661-0.322c0.479-0.354,2.032-0.836,4.624-1.178c1.828-0.24,4.167-0.41,7.027-0.41
	c2.86,0,5.2,0.17,7.028,0.41c2.592,0.342,4.146,0.824,4.623,1.178c-0.135,0.1-0.359,0.209-0.66,0.322
	C34.461,33.582,30.781,34.27,25.001,34.27z M10.898,20.911c0-0.872,0.711-1.582,1.584-1.582s1.583,0.71,1.583,1.582
	c0,0.873-0.71,1.584-1.583,1.584S10.898,21.784,10.898,20.911z M37.523,22.495c-0.873,0-1.584-0.711-1.584-1.584
	c0-0.872,0.711-1.582,1.584-1.582c0.871,0,1.584,0.71,1.584,1.582C39.105,21.784,38.395,22.495,37.523,22.495z M38.096,35.49
	c0.184,0.371,0.027,0.82-0.344,1.004c-1.5,0.73-6.025,1.471-12.75,1.471c-6.627,0-11.308-0.889-12.701-1.449
	c-0.384-0.154-0.57-0.592-0.416-0.977c0.155-0.385,0.596-0.566,0.978-0.416c1.088,0.438,5.485,1.342,12.141,1.342
	c6.888,0,11.005-0.789,12.091-1.318C37.469,34.963,37.914,35.117,38.096,35.49z"/>
</svg>
