<?xml version="1.0" encoding="iso-8859-1"?>
<!-- Generator: Adobe Illustrator 16.0.0, SVG Export Plug-In . SVG Version: 6.00 Build 0)  -->
<!DOCTYPE svg PUBLIC "-//W3C//DTD SVG 1.1//EN" "http://www.w3.org/Graphics/SVG/1.1/DTD/svg11.dtd">
<svg version="1.1" id="Layer_1" xmlns="http://www.w3.org/2000/svg" xmlns:xlink="http://www.w3.org/1999/xlink" x="0px" y="0px"
	 width="30.909px" height="32px" viewBox="0 0 30.909 32" style="enable-background:new 0 0 30.909 32;" xml:space="preserve">
<g>
	<path d="M0,19.415h1.031c-0.933,6.208,5.37,9.952,7.823,11.159V32h7.961v-1.426c2.453-1.208,8.755-4.951,7.821-11.159h1.032v-2.561
		H0V19.415z M3.222,20.454c0.005-0.229,0.072-0.411,0.097-0.569c0.07-0.314,0.121-0.493,0.121-0.493s0.049,0.179,0.115,0.493
		c0.038,0.154,0.057,0.354,0.122,0.561c0.07,0.203,0.149,0.425,0.217,0.662c0.082,0.235,0.224,0.487,0.324,0.755
		c0.109,0.267,0.294,0.523,0.426,0.806c0.155,0.275,0.361,0.535,0.526,0.821c0.206,0.265,0.391,0.548,0.616,0.807
		c0.217,0.264,0.419,0.539,0.655,0.783c0.229,0.25,0.443,0.51,0.674,0.74c0.445,0.478,0.885,0.908,1.258,1.29
		c0.768,0.767,1.28,1.276,1.28,1.276s-0.726-0.185-1.691-0.728c-0.482-0.272-1.026-0.624-1.561-1.069
		c-0.55-0.429-1.063-0.976-1.547-1.552c-0.234-0.292-0.435-0.618-0.647-0.922c-0.187-0.325-0.354-0.654-0.5-0.979
		c-0.125-0.339-0.258-0.657-0.326-0.979c-0.065-0.326-0.136-0.623-0.154-0.915C3.213,20.949,3.218,20.683,3.222,20.454z"/>
	<path d="M27.888,3.01c-0.82-0.825-2.059-2.078-2.994-3.01c-1.962,0.666-3.552,2.754-3.59,4.749
		c-0.039,2.054-4.188,4.403-4.188,4.403l0.008,0.007c-0.024,0.017-0.049,0.034-0.069,0.055c-0.489,0.484,0.156,1.929,1.441,3.227
		c1.285,1.297,2.724,1.956,3.214,1.472c0.032-0.032,0.058-0.067,0.079-0.106l0.002,0.002c0,0,2.333-4.132,4.385-4.208
		c1.601-0.062,4.077-1.644,4.734-3.609C29.974,5.058,28.716,3.826,27.888,3.01z M18.251,10.721c-0.228-0.227-0.314-0.508-0.193-0.63
		c0.12-0.121,0.403-0.036,0.631,0.19c0.226,0.226,0.312,0.508,0.191,0.629C18.759,11.031,18.478,10.945,18.251,10.721z
		 M19.374,12.392c-0.12,0.121-0.401,0.035-0.629-0.191c-0.228-0.226-0.313-0.507-0.192-0.628c0.12-0.122,0.402-0.035,0.628,0.189
		C19.409,11.99,19.495,12.271,19.374,12.392z M20.636,12.657c-0.121,0.121-0.403,0.035-0.631-0.191
		c-0.228-0.226-0.313-0.507-0.192-0.628c0.119-0.122,0.402-0.035,0.63,0.19C20.668,12.254,20.756,12.536,20.636,12.657z
		 M29.53,6.458c-0.068,0.111-0.153,0.246-0.25,0.399c-0.098,0.156-0.244,0.303-0.396,0.474c-0.078,0.081-0.15,0.177-0.245,0.259
		c-0.097,0.075-0.199,0.153-0.303,0.233c-0.201,0.178-0.457,0.299-0.719,0.433c-0.27,0.107-0.557,0.224-0.859,0.268
		c-0.297,0.064-0.601,0.078-0.863,0.125c-0.211,0.053-0.472,0.177-0.712,0.306c-0.241,0.14-0.484,0.267-0.707,0.419
		c-0.229,0.14-0.444,0.287-0.647,0.427c-0.209,0.136-0.389,0.285-0.566,0.412c-0.18,0.125-0.32,0.254-0.462,0.362
		c-0.141,0.107-0.258,0.21-0.345,0.307c-0.185,0.181-0.295,0.279-0.295,0.279s0.069-0.131,0.205-0.351
		c0.065-0.112,0.154-0.237,0.272-0.38c0.114-0.142,0.238-0.317,0.4-0.467c0.158-0.159,0.32-0.344,0.52-0.504
		c0.193-0.169,0.396-0.351,0.626-0.511c0.224-0.17,0.466-0.335,0.723-0.486c0.266-0.146,0.526-0.295,0.887-0.389
		c0.313-0.048,0.599-0.052,0.866-0.106c0.27-0.038,0.522-0.109,0.766-0.188c0.232-0.107,0.475-0.182,0.671-0.321
		c0.206-0.119,0.405-0.234,0.564-0.378c0.16-0.139,0.332-0.243,0.457-0.367c0.125-0.125,0.234-0.235,0.323-0.324
		c0.182-0.181,0.297-0.281,0.297-0.281S29.666,6.238,29.53,6.458z"/>
	<ellipse cx="15.917" cy="12.455" rx="0.725" ry="0.646"/>
	<ellipse cx="18.311" cy="14.345" rx="0.725" ry="0.646"/>
	<ellipse cx="15.318" cy="15.479" rx="0.726" ry="0.646"/>
</g>
<g>
</g>
<g>
</g>
<g>
</g>
<g>
</g>
<g>
</g>
<g>
</g>
<g>
</g>
<g>
</g>
<g>
</g>
<g>
</g>
<g>
</g>
<g>
</g>
<g>
</g>
<g>
</g>
<g>
</g>
</svg>
