<?xml version="1.0" encoding="utf-8"?>
<!-- Generator: Adobe Illustrator 16.0.4, SVG Export Plug-In . SVG Version: 6.00 Build 0)  -->
<!DOCTYPE svg PUBLIC "-//W3C//DTD SVG 1.1//EN" "http://www.w3.org/Graphics/SVG/1.1/DTD/svg11.dtd">
<svg version="1.1" id="Layer_1" xmlns="http://www.w3.org/2000/svg" xmlns:xlink="http://www.w3.org/1999/xlink" x="0px" y="0px"
	 width="32px" height="32px" viewBox="0 0 32 32" enable-background="new 0 0 32 32" xml:space="preserve">
<g>
	<path d="M25.766,19.249L14.457,26.93c-0.46,0.332-1.003,0.508-1.567,0.508c-0.67,0-1.363-0.256-1.862-0.688l-10.88-9.548
		c-0.188,0.317-0.156,0.688-0.116,1.319c0.024,0.397,0.176,0.715,0.431,0.939l11.197,9.823c0.483,0.428,1.778,0.389,2.283,0.024
		l11.393-7.74c0.654,0.199,1.805,0.459,2.812,0.314c1.271-0.181,2.922-0.939,3.402-2.486c0.069-0.226,0.248-0.75,0.25-1.453
		c-0.992,0.843-2.242,1.311-3.302,1.461C27.561,19.542,26.525,19.414,25.766,19.249z"/>
	<path d="M0.568,15.265l10.941,9.52c0.457,0.458,1.976,1.072,3.109-0.059l10.821-7.352c0.656,0.198,1.804,0.458,2.812,0.312
		c1.271-0.18,2.921-0.938,3.403-2.486c0.169-0.543,1.004-2.854-1.693-5.208C29.014,9.18,20.8,2.277,16.096,2.277
		c-1.022,0-3.322,0.373-3.58,3.661L0.618,12.614c-0.602,0.442-0.536,0.812-0.48,1.715C0.161,14.725,0.314,15.042,0.568,15.265z
		 M4.624,13.677c0.03-0.296,0.203-0.558,0.462-0.702l9.117-5.105c0.309-0.172,0.499-0.495,0.499-0.849
		c0-2.049,0.886-2.049,1.414-2.049c3.108,0,9.454,4.84,11.637,6.704c0.776,0.712,1.151,1.396,1.011,1.85
		c-0.138,0.443-0.82,0.858-1.588,0.968c-0.93,0.131-2.128-0.343-2.139-0.346c-0.115-0.047-0.236-0.068-0.355-0.068
		c-0.193,0-0.385,0.056-0.548,0.166l-10.046,6.827c-0.54,0.366-1.258,0.321-1.748-0.108L4.93,14.46
		C4.707,14.263,4.592,13.972,4.624,13.677z"/>
	<ellipse cx="9.254" cy="13.462" rx="1.041" ry="0.758"/>
	<ellipse cx="15.032" cy="16.928" rx="1.041" ry="0.758"/>
	<ellipse cx="17.343" cy="8.839" rx="1.041" ry="0.759"/>
	<ellipse cx="21.966" cy="11.151" rx="0.94" ry="0.685"/>
	<ellipse cx="16.187" cy="12.306" rx="0.942" ry="0.687"/>
</g>
</svg>
