<?xml version="1.0" encoding="iso-8859-1"?>
<!-- Generator: Adobe Illustrator 17.0.0, SVG Export Plug-In . SVG Version: 6.00 Build 0)  -->
<!DOCTYPE svg PUBLIC "-//W3C//DTD SVG 1.1//EN" "http://www.w3.org/Graphics/SVG/1.1/DTD/svg11.dtd">
<svg version="1.1" id="Capa_1" xmlns="http://www.w3.org/2000/svg" xmlns:xlink="http://www.w3.org/1999/xlink" x="0px" y="0px"
	 width="64px" height="64px" viewBox="0 0 64 64" style="enable-background:new 0 0 64 64;" xml:space="preserve">
<g>
	<path d="M7.505,58.647h15.43c-1.92-1.424-3.46-3.608-4.381-6.237c-2.481-0.537-4.366-3.049-4.366-6.064
		c0-3.153,2.061-5.757,4.711-6.125c1.79-4.236,5.256-7.116,9.232-7.12l1.208-15.056h1.695v-3.44H17.553
		c-0.041-5.199,3.585-9.467,8.941-9.495c1.419-0.007,1.42-2.209,0-2.202c-6.528,0.034-11.205,5.297-11.142,11.696H2.826v3.44h1.692
		L7.505,58.647z"/>
	<path d="M26.125,58.105c0.647,0.215,1.319,0.342,2.013,0.342h21.141c3.178,0,5.95-2.394,7.418-5.928h-0.691h-2.873l-26.56,0h-2.289
		h-2.873H20.72C21.867,55.281,23.812,57.336,26.125,58.105z"/>
	<path d="M27.564,40.171h24.087h3.566h1.091c-1.54-3.059-4.115-5.071-7.029-5.071H28.138c-0.057,0-0.112,0.01-0.168,0.012
		c-2.844,0.076-5.351,2.06-6.86,5.059H22.2h3.566H27.564z"/>
	<path d="M20.3,42.171h-0.758c-0.098,0-0.191,0.026-0.287,0.036c-0.404,0.043-0.786,0.166-1.136,0.372
		c-1.138,0.668-1.93,2.097-1.93,3.766c0,1.563,0.699,2.91,1.721,3.625c0.339,0.237,0.71,0.405,1.109,0.484
		c0.172,0.034,0.345,0.066,0.524,0.066h0.523h0.122h2.263h4.283l28.233,0h2.263h0.122h0.524c0.179,0,0.352-0.032,0.523-0.066
		c0.399-0.078,0.77-0.246,1.109-0.483c1.023-0.715,1.722-2.062,1.722-3.626c0-1.67-0.793-3.1-1.932-3.767
		c-0.35-0.205-0.733-0.328-1.136-0.371c-0.096-0.01-0.188-0.036-0.286-0.036h-0.759h-0.33h-2.433H27.403h-4.34H20.63H20.3z
		 M21.682,44.731c1.245-0.512,2.641-0.534,4.234,0.125c0.397,0.164,0.801,0.427,1.217,0.689c1.014,0.637,2.103,1.264,3.361,0.426
		c0.636-0.423,1.395-1.002,2.181-1.132c1.554-0.257,2.961-0.235,4.325,0.669c2.36,1.564,4.413,1.988,6.872,0.336
		c1.046-0.702,2.317-1.602,3.657-1.533c1.608,0.083,3.024,0.689,4.404,1.493c1.697,0.989,2.648,0.973,4.021-0.053
		c0.21-0.157,0.428-0.333,0.661-0.537c0.36-0.314,0.783-0.272,1.102-0.071c0.065,0.041,0.131,0.08,0.185,0.133
		c0.28,0.276,0.372,0.692,0.11,1.05c-0.04,0.054-0.065,0.111-0.123,0.162c-0.03,0.026-0.057,0.046-0.087,0.072
		c-0.644,0.556-1.254,0.999-1.862,1.319c-1.354,0.713-2.702,0.772-4.424-0.231c-2.131-1.242-4.006-2.083-6.253-0.575
		c-1.182,0.794-2.467,1.651-3.938,1.75c-1.827,0.123-3.158-0.384-4.665-1.383c-2.721-1.803-4.314-0.15-6.803,0.829
		c-1.223,0.481-2.047-0.137-2.883-0.766c-0.401-0.302-0.805-0.607-1.256-0.794c-1.85-0.765-3.145-0.614-4.327,0.283
		c-0.489,0.371-0.962,0.857-1.443,1.479c-0.068,0.088-0.145,0.14-0.221,0.19c-0.044,0.029-0.087,0.054-0.132,0.071
		c-0.332,0.125-0.682-0.043-0.903-0.341c-0.223-0.3-0.297-0.716-0.066-1.096c0.02-0.033,0.025-0.067,0.049-0.099
		c0.235-0.304,0.478-0.589,0.727-0.851c0.074-0.077,0.152-0.138,0.227-0.212C20.265,45.513,20.946,45.033,21.682,44.731z"/>
</g>
</svg>
