<?xml version="1.0" encoding="utf-8"?>
<!-- Generator: Adobe Illustrator 16.0.4, SVG Export Plug-In . SVG Version: 6.00 Build 0)  -->
<!DOCTYPE svg PUBLIC "-//W3C//DTD SVG 1.1//EN" "http://www.w3.org/Graphics/SVG/1.1/DTD/svg11.dtd">
<svg version="1.1" id="Layer_1" xmlns="http://www.w3.org/2000/svg" xmlns:xlink="http://www.w3.org/1999/xlink" x="0px" y="0px"
	 width="50px" height="50px" viewBox="0 0 50 50" enable-background="new 0 0 50 50" xml:space="preserve">
<path d="M41.595,21.413c-0.785-0.878-1.887-1.364-3.101-1.368c-0.007,0-0.013,0-0.019,0c-2.449,0-3.854,1.488-5.084,3.144
	c-0.291,0.36-0.854,0.843-1.58,0.433c-0.426-0.24-0.578-0.784-0.34-1.211c0.178-0.317,0.582-0.432,0.901-0.252
	c0.11,0.062,0.19,0.165,0.228,0.288c0.035,0.124,0.02,0.253-0.045,0.364c-0.043,0.076-0.113,0.125-0.189,0.149
	c-0.032-0.171-0.191-0.29-0.364-0.264c-0.179,0.026-0.301,0.192-0.274,0.371c0.002,0.018,0.021,0.027,0.025,0.043
	c-0.021,0.103,0.008,0.21,0.104,0.264c0.402,0.224,0.91,0.082,1.137-0.318c0.129-0.228,0.16-0.493,0.09-0.745
	c-0.068-0.252-0.232-0.461-0.463-0.589c-0.561-0.314-1.27-0.116-1.582,0.443c-0.375,0.667-0.139,1.516,0.529,1.892
	c0.263,0.147,0.531,0.22,0.799,0.22c0.088,0,0.174-0.02,0.26-0.035c-0.251,0.352-0.501,0.704-0.761,1.031
	c-0.575,0.726-1.07,1.333-1.552,1.798c-0.057,0.004-0.111,0.018-0.154,0.059c-1.003,0.938-2.047,1.065-2.936,0.358
	c-0.691-0.553-0.809-1.565-0.258-2.258c0.424-0.532,1.204-0.622,1.737-0.197c0.194,0.156,0.319,0.379,0.347,0.628
	c0.028,0.249-0.042,0.494-0.199,0.69c-0.104,0.136-0.26,0.217-0.429,0.248c0.021-0.059,0.037-0.121,0.037-0.187
	c0-0.294-0.237-0.533-0.533-0.533c-0.294,0-0.532,0.239-0.532,0.533c0,0.095,0.031,0.18,0.076,0.257
	c0.002,0.07,0.027,0.139,0.088,0.186c0.25,0.199,0.562,0.291,0.883,0.252c0.318-0.036,0.604-0.193,0.804-0.444
	c0.237-0.301,0.348-0.676,0.305-1.058c-0.043-0.382-0.231-0.725-0.53-0.963c-0.748-0.595-1.844-0.473-2.439,0.277
	c-0.715,0.899-0.571,2.208,0.312,2.937c-0.391-0.188-0.733-0.463-0.996-0.83c-0.432-0.602-0.604-1.364-0.473-2.092
	c0.102-0.56,0.413-1.047,0.881-1.372c0.467-0.324,1.031-0.449,1.594-0.348c0.133,0.02,0.266-0.066,0.289-0.202
	c0.023-0.136-0.065-0.266-0.201-0.291c-0.688-0.125-1.389,0.028-1.967,0.429c-0.322,0.225-0.578,0.519-0.771,0.851v-0.912
	c1.021-0.113,1.818-0.971,1.818-2.021c0-0.546-0.213-1.059-0.598-1.445c-0.386-0.386-0.898-0.598-1.445-0.598
	c-1.127,0-2.043,0.917-2.043,2.043c0,1.032,0.771,1.878,1.768,2.016v0.908c-0.543-0.928-1.618-1.474-2.729-1.27
	c-0.137,0.024-0.228,0.154-0.203,0.291c0.024,0.135,0.154,0.222,0.291,0.202c1.152-0.208,2.265,0.563,2.474,1.719
	c0.131,0.729-0.041,1.492-0.472,2.094c-0.264,0.367-0.607,0.642-0.998,0.83c0.886-0.729,1.029-2.039,0.312-2.938
	c-0.597-0.749-1.689-0.873-2.438-0.277c-0.301,0.239-0.489,0.582-0.533,0.963c-0.043,0.381,0.064,0.756,0.305,1.058
	c0.411,0.517,1.169,0.604,1.688,0.192c0.061-0.047,0.084-0.115,0.089-0.187c0.043-0.077,0.073-0.161,0.073-0.256
	c0-0.294-0.237-0.533-0.532-0.533c-0.293,0-0.531,0.239-0.531,0.533c0,0.065,0.017,0.128,0.037,0.187
	c-0.163-0.028-0.319-0.108-0.433-0.248c-0.154-0.196-0.227-0.441-0.196-0.69s0.151-0.472,0.349-0.628
	c0.533-0.425,1.312-0.334,1.735,0.197c0.551,0.693,0.437,1.706-0.259,2.258c-0.889,0.707-1.93,0.582-2.934-0.358
	c-0.043-0.04-0.099-0.053-0.152-0.058c-0.48-0.467-0.978-1.073-1.553-1.799c-0.261-0.327-0.511-0.679-0.762-1.031
	c0.086,0.016,0.172,0.035,0.26,0.035c0.266,0,0.535-0.072,0.797-0.22c0.668-0.375,0.906-1.224,0.531-1.893
	c-0.314-0.557-1.025-0.756-1.582-0.442c-0.229,0.128-0.393,0.337-0.463,0.589s-0.039,0.517,0.09,0.744
	c0.108,0.194,0.286,0.334,0.502,0.394c0.213,0.061,0.438,0.033,0.633-0.076c0.097-0.054,0.123-0.16,0.104-0.262
	c0.005-0.018,0.022-0.026,0.026-0.045c0.023-0.179-0.099-0.344-0.276-0.371c-0.173-0.026-0.331,0.094-0.362,0.265
	c-0.08-0.026-0.148-0.076-0.191-0.149c-0.062-0.112-0.077-0.241-0.043-0.365c0.033-0.123,0.113-0.226,0.227-0.288
	c0.316-0.177,0.725-0.065,0.9,0.251c0.24,0.428,0.089,0.972-0.34,1.212c-0.721,0.405-1.278-0.065-1.57-0.423
	c-1.23-1.66-2.641-3.153-5.094-3.153c-0.006,0-0.012,0-0.019,0c-1.214,0.004-2.315,0.49-3.101,1.368
	c-0.866,0.97-1.275,2.333-1.122,3.741c0.114,1.059,0.636,2.009,1.467,2.677c0.715,0.575,1.585,0.879,2.487,0.879
	c0.031,0,0.062-0.004,0.097-0.005c0.005,0,0.009,0.006,0.015,0.006c0.012,0,0.021,0,0.032-0.002
	c0.015-0.002,0.024-0.006,0.038-0.008c0.086-0.004,0.173-0.004,0.26-0.014c1.775-0.193,3.062-1.795,2.87-3.572
	c-0.157-1.447-1.456-2.498-2.913-2.34c-0.137,0.015-0.236,0.138-0.221,0.275c0.016,0.137,0.123,0.238,0.275,0.222
	c1.168-0.131,2.231,0.723,2.359,1.897c0.098,0.89-0.252,1.72-0.855,2.288c0.248-0.52,0.326-1.15,0.188-1.797
	c-0.115-0.55-0.439-1.022-0.91-1.329c-0.473-0.306-1.035-0.411-1.586-0.294c-0.455,0.097-0.845,0.364-1.097,0.754
	c-0.252,0.389-0.338,0.852-0.241,1.302c0.078,0.375,0.299,0.697,0.619,0.906c0.322,0.21,0.705,0.284,1.085,0.202
	c0.315-0.067,0.585-0.252,0.761-0.522c0.139-0.214,0.182-0.463,0.168-0.713c0-0.009,0.006-0.017,0.006-0.026
	c0-0.013-0.006-0.022-0.008-0.035c-0.004-0.043,0.008-0.084-0.002-0.127c-0.004-0.018-0.021-0.024-0.029-0.041
	c-0.076-0.194-0.265-0.333-0.484-0.336c-0.295-0.004-0.536,0.231-0.54,0.525c-0.004,0.261,0.187,0.472,0.435,0.521
	c-0.103,0.134-0.24,0.23-0.406,0.267c-0.246,0.054-0.498,0.005-0.707-0.132s-0.354-0.346-0.403-0.59
	c-0.067-0.321-0.009-0.65,0.171-0.927s0.457-0.468,0.781-0.537c0.42-0.09,0.849-0.01,1.209,0.224
	c0.359,0.234,0.605,0.594,0.695,1.013c0.137,0.65,0.031,1.281-0.287,1.731c-0.266,0.374-0.682,0.609-1.194,0.697
	c-0.853,0.043-1.679-0.211-2.351-0.75c-0.728-0.584-1.184-1.414-1.283-2.34c-0.137-1.267,0.227-2.489,0.998-3.353
	c0.689-0.771,1.66-1.198,2.729-1.201c0.006,0,0.012,0,0.018,0c2.188,0,3.5,1.361,4.646,2.896c0.002,0.002,0,0.005,0.002,0.008
	c0.008,0.009,0.018,0.016,0.021,0.025c0.207,0.277,0.41,0.557,0.609,0.838c0.053,0.074,0.106,0.142,0.158,0.215
	c-0.396-0.076-0.798,0.007-1.171,0.255c-0.638,0.425-0.812,1.286-0.39,1.923c0.223,0.335,0.592,0.516,0.968,0.516
	c0.221,0,0.444-0.062,0.642-0.193c0.219-0.146,0.367-0.366,0.42-0.623c0.051-0.256,0-0.518-0.146-0.734
	c-0.255-0.38-0.774-0.483-1.154-0.231c-0.077,0.052-0.101,0.138-0.095,0.224c-0.008,0.024-0.031,0.039-0.033,0.065
	c-0.016,0.18,0.116,0.336,0.297,0.353c0.168,0.015,0.309-0.106,0.34-0.271c0.09,0.014,0.176,0.057,0.229,0.138
	c0.069,0.104,0.096,0.231,0.069,0.356c-0.024,0.125-0.099,0.234-0.205,0.305c-0.301,0.203-0.715,0.121-0.916-0.183
	c-0.271-0.405-0.157-0.958,0.25-1.229c0.727-0.48,1.345,0.015,1.647,0.354c0.001,0,0.003,0,0.003,0.001
	c0.008,0.01,0.016,0.021,0.021,0.03c1.415,1.782,2.625,3.321,4.719,3.004c0.828-0.127,1.56-0.579,2.056-1.272
	c0.09-0.127,0.158-0.267,0.229-0.404v2.048c-0.038,0.03-0.079,0.054-0.108,0.097l-0.621,0.92c-0.054,0.077-0.06,0.176-0.016,0.258
	c0.043,0.082,0.128,0.133,0.221,0.133h0.211c0,0.013-0.009,0.023-0.009,0.037c0,0.315,0.257,0.572,0.572,0.572
	s0.571-0.257,0.571-0.572c0-0.014-0.008-0.024-0.008-0.037h0.264c0.007,0,0.011,0,0.014,0c0.139,0,0.25-0.112,0.25-0.25
	c0-0.078-0.036-0.147-0.092-0.193l-0.588-0.867c-0.045-0.064-0.102-0.111-0.161-0.146v-2.015c0.071,0.144,0.146,0.287,0.239,0.42
	c0.496,0.692,1.227,1.145,2.055,1.271c2.081,0.32,3.303-1.221,4.718-3.004c0.009-0.01,0.017-0.021,0.021-0.03
	c0,0,0.002,0,0.002-0.001c0.306-0.338,0.924-0.836,1.648-0.354c0.408,0.271,0.521,0.824,0.25,1.229
	c-0.201,0.304-0.611,0.384-0.917,0.183c-0.106-0.07-0.179-0.178-0.204-0.305c-0.025-0.125,0-0.252,0.07-0.356
	c0.049-0.074,0.124-0.124,0.211-0.142c0.008-0.002,0.012,0.004,0.02,0.004c0.029,0.162,0.172,0.283,0.34,0.271
	c0.181-0.015,0.312-0.173,0.298-0.353c-0.002-0.026-0.026-0.043-0.034-0.066c0.006-0.086-0.018-0.171-0.095-0.223
	c-0.187-0.124-0.407-0.167-0.625-0.124c-0.22,0.044-0.405,0.17-0.528,0.354c-0.146,0.217-0.195,0.478-0.146,0.733
	c0.053,0.256,0.199,0.478,0.418,0.623c0.197,0.131,0.422,0.193,0.645,0.193c0.376,0,0.745-0.181,0.967-0.516
	c0.424-0.637,0.249-1.499-0.39-1.924c-0.374-0.248-0.774-0.331-1.169-0.255c0.053-0.074,0.104-0.141,0.156-0.215
	c0.201-0.283,0.406-0.564,0.613-0.843c0.006-0.007,0.012-0.012,0.02-0.019c0.001-0.002,0-0.004,0.002-0.006
	c1.146-1.536,2.458-2.898,4.646-2.898c0.006,0,0.012,0,0.016,0c1.072,0.003,2.041,0.43,2.729,1.202
	c0.773,0.864,1.138,2.086,0.998,3.353c-0.1,0.925-0.556,1.757-1.28,2.341c-0.672,0.539-1.5,0.793-2.352,0.75
	c-0.516-0.088-0.93-0.324-1.195-0.698c-0.318-0.45-0.424-1.081-0.285-1.731c0.088-0.419,0.336-0.779,0.694-1.013
	c0.359-0.234,0.789-0.314,1.209-0.224c0.323,0.068,0.601,0.258,0.779,0.535c0.18,0.276,0.241,0.606,0.172,0.928
	c-0.051,0.244-0.194,0.455-0.403,0.591c-0.211,0.137-0.463,0.184-0.707,0.131c-0.166-0.035-0.306-0.133-0.406-0.267
	c0.248-0.049,0.438-0.258,0.436-0.521c-0.004-0.294-0.246-0.529-0.54-0.525c-0.224,0.003-0.409,0.141-0.485,0.334
	c-0.009,0.017-0.025,0.024-0.029,0.043c-0.01,0.041,0.003,0.082-0.002,0.125c-0.002,0.013-0.008,0.022-0.008,0.035
	c0,0.01,0.006,0.018,0.006,0.026c-0.014,0.25,0.031,0.5,0.17,0.714c0.176,0.27,0.445,0.454,0.76,0.521
	c0.377,0.08,0.762,0.008,1.083-0.202c0.321-0.209,0.542-0.531,0.62-0.905c0.097-0.453,0.011-0.917-0.242-1.306
	c-0.252-0.388-0.641-0.655-1.096-0.751c-0.551-0.117-1.113-0.012-1.584,0.294c-0.473,0.307-0.795,0.778-0.911,1.329
	c-0.138,0.647-0.062,1.281,0.19,1.802c-0.096-0.089-0.189-0.177-0.272-0.28c-0.458-0.57-0.667-1.285-0.589-2.013
	c0.13-1.174,1.191-2.03,2.361-1.897c0.147,0.016,0.262-0.084,0.274-0.222c0.017-0.137-0.084-0.26-0.222-0.275
	c-1.454-0.164-2.756,0.892-2.911,2.34c-0.095,0.86,0.151,1.706,0.692,2.38c0.543,0.674,1.314,1.098,2.176,1.19
	c0.086,0.01,0.175,0.01,0.261,0.014c0.014,0.003,0.022,0.007,0.038,0.009c0.011,0.001,0.021,0.002,0.031,0.002
	c0.006,0,0.011-0.005,0.016-0.006c0.031,0.001,0.062,0.005,0.096,0.005c0.904,0,1.774-0.305,2.489-0.879
	c0.831-0.667,1.353-1.618,1.466-2.676C42.871,23.746,42.462,22.383,41.595,21.413z M25.245,22.482v-2.837
	c0.213,0.216,0.416,0.716,0.416,1.421C25.661,21.759,25.457,22.261,25.245,22.482z M24.745,19.725v2.684
	c-0.191-0.243-0.363-0.699-0.363-1.342S24.554,19.968,24.745,19.725z M26.565,21.067c0,0.507-0.25,0.954-0.629,1.236
	c0.141-0.339,0.225-0.761,0.225-1.236s-0.085-0.897-0.225-1.237C26.315,20.111,26.565,20.559,26.565,21.067z M23.478,21.067
	c0-0.507,0.25-0.953,0.627-1.234c-0.14,0.339-0.224,0.761-0.224,1.234c0,0.474,0.084,0.896,0.226,1.235
	C23.728,22.021,23.478,21.574,23.478,21.067z"/>
</svg>
