<?xml version="1.0" encoding="utf-8"?>
<!-- Generator: Adobe Illustrator 17.1.0, SVG Export Plug-In . SVG Version: 6.00 Build 0)  -->
<!DOCTYPE svg PUBLIC "-//W3C//DTD SVG 1.1//EN" "http://www.w3.org/Graphics/SVG/1.1/DTD/svg11.dtd">
<svg version="1.1" id="Layer_1" xmlns="http://www.w3.org/2000/svg" xmlns:xlink="http://www.w3.org/1999/xlink" x="0px" y="0px"
	 viewBox="0 0 128 128" enable-background="new 0 0 128 128" xml:space="preserve">
<g>
	<path d="M89.2,84.3c3.2,0,5.4-3.1,5.4-7.6V62.6h2.2V47.3l4.3-4.3h-4.3V27.8h-3.3c-0.5-6.9-3.3-8.9-3.7-9.1l-1.2,1.6
		c0,0,2.3,0.8,2.7,7.5h-3.2V30v13h-4.3l4.3,4.3v15.2h2.2v14.1c0,1.8-0.6,3.3-1.1,3.3h-25V62.6h2.2V47.3l4.3-4.3h-4.3V27.8H63
		c-0.5-6.9-3.3-8.9-3.7-9.1l-1.2,1.6c0,0,2.3,0.8,2.7,7.5h-3.2V30v13h-4.3l4.3,4.3v15.2h2.2v17.4H37c-1.2,0-3.3-2.1-3.3-3.3V62.6
		h2.2V47.3l4.3-4.3h-4.3V27.8h-3.3c-0.5-6.9-3.3-8.9-3.7-9.1l-1.2,1.6c0,0,2.3,0.8,2.7,7.5h-3.2V30v13h-4.3l4.3,4.3v15.2h2.2v14.1
		c0,3.6,4,7.6,7.6,7.6h22.8v26.1h-8.7c-1.2,0-2.2,1-2.2,2.2c0,1.2,1,2.2,2.2,2.2h-4.3c-1.2,0-2.2,1-2.2,2.2c0,1.2,1,2.2,2.2,2.2
		h30.4c1.2,0,2.2-1,2.2-2.2c0-1.2-1-2.2-2.2-2.2h-4.3c1.2,0,2.2-1,2.2-2.2c0-1.2-1-2.2-2.2-2.2h-8.7V84.3H89.2z M90.3,30h1.1h2.2
		h1.1v13h-4.3V30z M29.4,43V30h1.1h2.2h1.1v13H29.4z M59.8,43V30h1.1h2.2h1.1v13H59.8z"/>
</g>
</svg>
