<?xml version="1.0" encoding="utf-8"?>
<!-- Generator: Adobe Illustrator 15.0.0, SVG Export Plug-In . SVG Version: 6.00 Build 0)  -->
<!DOCTYPE svg PUBLIC "-//W3C//DTD SVG 1.1//EN" "http://www.w3.org/Graphics/SVG/1.1/DTD/svg11.dtd">
<svg version="1.1" id="Layer_1" xmlns="http://www.w3.org/2000/svg" xmlns:xlink="http://www.w3.org/1999/xlink" x="0px" y="0px"
	 width="26px" height="26px" viewBox="0 0 26 26" enable-background="new 0 0 26 26" xml:space="preserve">
<g>
	<path d="M17.285,7.78l-0.324,0.136c-0.497,0.208-0.791,0.479-1.044,0.753c0.232,0.108,0.455,0.246,0.667,0.411
		c0.473,0.385,0.792,0.801,1.042,1.353l0.376,0.825l-0.9-0.111c-0.645-0.078-1.077,0.066-1.496,0.205
		c-0.171,0.058-0.346,0.116-0.529,0.156c0.012,0.076,0.021,0.153,0.027,0.229c0.04,0.456-0.021,0.919-0.179,1.376
		c-0.211,0.573-0.499,1.009-0.94,1.425l-0.297,0.279l-0.337-0.228c-0.501-0.341-0.856-0.726-1.151-1.249
		c-0.197-0.368-0.324-0.744-0.378-1.13c-0.206,0.036-0.41,0.043-0.61,0.051c-0.44,0.017-0.896,0.034-1.471,0.336L8.938,13.02
		l0.059-0.905c0.039-0.604,0.19-1.105,0.492-1.625c0.183-0.302,0.398-0.564,0.646-0.784c-0.057-0.05-0.113-0.102-0.168-0.153
		c-0.324-0.299-0.659-0.609-1.28-0.802L7.82,8.481l0.531-0.467c-2.998,0.903-3.955,3.54-3.955,6.5c0,4.146,3.852,7.507,8.604,7.507
		c4.751,0,8.604-3.361,8.604-7.507C21.604,11.458,20.501,8.555,17.285,7.78z"/>
	<path d="M10.729,9.868c-0.315,0.219-0.585,0.505-0.802,0.864c-0.213,0.366-0.385,0.79-0.424,1.402
		c1.273-0.669,2.066-0.154,2.809-0.664c-0.016,0.16-0.02,0.318-0.006,0.477c0.027,0.383,0.137,0.76,0.336,1.13
		c0.208,0.369,0.485,0.732,0.994,1.077c0.446-0.421,0.662-0.824,0.809-1.222c0.138-0.396,0.187-0.785,0.152-1.168
		c-0.021-0.249-0.078-0.495-0.167-0.738c0.805,0.116,1.377-0.563,2.733-0.396c-0.254-0.559-0.565-0.895-0.893-1.162
		c-0.33-0.259-0.683-0.43-1.056-0.523c-0.077-0.02-0.153-0.034-0.232-0.046c0.47-0.394,0.772-1.041,1.783-1.463
		c-0.499-0.359-0.936-0.497-1.353-0.565c-0.416-0.061-0.807-0.035-1.177,0.07c-0.37,0.102-0.72,0.281-1.046,0.546
		c-0.125,0.106-0.246,0.228-0.363,0.362c-0.449-1.451-0.979-2.609-1.027-2.712l-0.347,0.161c0.011,0.025,0.565,1.231,1.023,2.724
		C12.451,8,12.425,7.979,12.399,7.961c-0.349-0.233-0.714-0.378-1.093-0.444c-0.377-0.068-0.771-0.057-1.178,0.043
		c-0.409,0.109-0.83,0.287-1.292,0.692c1.225,0.381,1.515,1.157,2.19,1.437C10.924,9.744,10.824,9.802,10.729,9.868z M13.275,9.129
		c0.005,0,0.01,0.003,0.014,0.004c-0.018,0.008-0.037,0.018-0.055,0.027C13.247,9.15,13.261,9.14,13.275,9.129z"/>
</g>
</svg>
