<?xml version="1.0" encoding="utf-8"?>
<!-- Generator: Adobe Illustrator 16.0.4, SVG Export Plug-In . SVG Version: 6.00 Build 0)  -->
<!DOCTYPE svg PUBLIC "-//W3C//DTD SVG 1.1//EN" "http://www.w3.org/Graphics/SVG/1.1/DTD/svg11.dtd">
<svg version="1.1" id="Layer_1" xmlns="http://www.w3.org/2000/svg" xmlns:xlink="http://www.w3.org/1999/xlink" x="0px" y="0px"
	 width="26px" height="26px" viewBox="0 0 26 26" enable-background="new 0 0 26 26" xml:space="preserve">
<g>
	<circle fill="#333333" cx="5" cy="7" r="4"/>
	<circle fill="#333333" cx="20" cy="6" r="1"/>
	<path fill="#333333" d="M14.357,17.471l-3.396-5C10.476,11.984,8.139,12,7.776,12L4.983,23L2.19,12C1.951,12,0.859,11.996,0,12.13
		v13.836h10.57v-8.351l2.654,3.257c0.314,0.313,0.723,0.469,1.135,0.469c0.41,0,0.82-0.155,1.133-0.469l3.451-4.739
		C19.57,15.506,23,15.062,23,14h-6L14.357,17.471z"/>
	<path fill="#333333" d="M25.5,11h-0.601C24.436,8.718,22.419,7,20,7s-4.436,1.718-4.899,4H14.5c-0.275,0-0.5,0.224-0.5,0.5
		s0,0.724,0,1s0.225,0.5,0.5,0.5h11c0.275,0,0.5-0.224,0.5-0.5s0-0.724,0-1S25.775,11,25.5,11z"/>
</g>
</svg>
