<?xml version="1.0" encoding="iso-8859-1"?>
<!-- Generator: Adobe Illustrator 16.0.4, SVG Export Plug-In . SVG Version: 6.00 Build 0)  -->
<!DOCTYPE svg PUBLIC "-//W3C//DTD SVG 1.1//EN" "http://www.w3.org/Graphics/SVG/1.1/DTD/svg11.dtd">
<svg version="1.1" id="Capa_1" xmlns="http://www.w3.org/2000/svg" xmlns:xlink="http://www.w3.org/1999/xlink" x="0px" y="0px"
	 width="47.624px" height="47.707px" viewBox="0 0 47.624 47.707" style="enable-background:new 0 0 47.624 47.707;"
	 xml:space="preserve">
<g id="Watermelon">
	<path d="M23.793,47.707c-0.004,0-0.009,0-0.014,0c-6.346,0-12.316-2.484-16.811-6.994C2.454,36.183-0.021,30.166,0,23.77
		c0.002-0.551,0.449-0.997,1-0.997h4.998c0.552,0,1,0.448,1,1s-0.448,1-1,1H2.019c0.226,5.487,2.464,10.613,6.366,14.528
		c4.117,4.13,9.584,6.405,15.395,6.405c0.004,0,0.009,0,0.013,0c11.683,0,21.262-9.31,21.807-20.959h-3.412c-0.552,0-1-0.448-1-1
		s0.448-1,1-1h4.437c0.266,0,0.52,0.105,0.708,0.293c0.188,0.188,0.292,0.443,0.292,0.708
		C47.598,36.963,36.908,47.707,23.793,47.707z"/>
	<path d="M24.222,43.038c-0.001,0-0.002,0-0.003,0c-5.148-0.001-9.988-2.005-13.626-5.644c-3.638-3.639-5.642-8.477-5.641-13.623
		c0-0.552,0.448-1,1-1h21.803c0.552,0,1,0.448,1,1s-0.448,1-1,1H6.98c0.239,4.236,2.002,8.185,5.026,11.208
		c3.261,3.261,7.598,5.057,12.212,5.058c0.001,0,0.002,0,0.003,0c4.61,0,8.945-1.796,12.206-5.057
		c3.025-3.025,4.79-6.974,5.029-11.209h-6.604c-0.552,0-1-0.448-1-1s0.448-1,1-1h7.632c0.552,0,1,0.448,1,1
		c0.001,5.146-2.003,9.983-5.643,13.624C34.204,41.033,29.366,43.038,24.222,43.038z"/>
	<g>
		<g>
			<path d="M25.01,37.269c0,0.633-0.489,1.092-1.093,1.092s-1.093-0.464-1.093-1.092s0.818-2.016,1.075-2.46
				C23.899,34.808,25.01,36.696,25.01,37.269z"/>
			<path d="M23.917,38.61c-0.753,0-1.343-0.589-1.343-1.342c0-0.595,0.576-1.666,1.078-2.532c0.044-0.077,0.142-0.151,0.231-0.152
				c0.001,0,0.001,0,0.002,0c0.088,0,0.186,0.021,0.23,0.096c0.191,0.325,1.145,1.978,1.145,2.587
				C25.26,38.021,24.67,38.61,23.917,38.61z M23.899,35.312c-0.322,0.571-0.825,1.521-0.825,1.957c0,0.48,0.362,0.842,0.843,0.842
				s0.843-0.362,0.843-0.842C24.76,36.974,24.309,36.049,23.899,35.312z"/>
		</g>
		<g>
			<path d="M20.317,36.845c-0.218,0.595-0.835,0.858-1.402,0.652c-0.565-0.207-0.868-0.81-0.652-1.401
				c0.214-0.589,1.458-1.614,1.853-1.943C20.115,34.154,20.512,36.308,20.317,36.845z"/>
			<path d="M19.304,37.817c-0.161,0-0.32-0.028-0.474-0.084c-0.708-0.259-1.06-1.015-0.802-1.722
				c0.205-0.563,1.118-1.375,1.891-2.019c0.069-0.057,0.18-0.09,0.263-0.058c0.083,0.03,0.163,0.087,0.179,0.174
				c0.068,0.371,0.398,2.25,0.191,2.822C20.355,37.469,19.865,37.817,19.304,37.817z M19.942,34.627
				c-0.859,0.739-1.335,1.254-1.445,1.555c-0.165,0.451,0.052,0.916,0.503,1.081c0.441,0.16,0.919-0.061,1.082-0.503
				C20.183,36.483,20.075,35.46,19.942,34.627z"/>
		</g>
		<g>
			<path d="M16.05,34.843c-0.405,0.484-1.075,0.52-1.539,0.132c-0.461-0.387-0.538-1.058-0.135-1.539s1.923-1.018,2.405-1.191
				C16.781,32.245,16.419,34.404,16.05,34.843z"/>
			<path d="M15.222,35.489c-0.313,0-0.623-0.114-0.872-0.322c-0.577-0.484-0.649-1.315-0.166-1.892
				c0.385-0.46,1.521-0.91,2.468-1.25c0.083-0.03,0.198-0.022,0.267,0.035c0.068,0.057,0.123,0.138,0.108,0.226
				c-0.062,0.372-0.394,2.25-0.787,2.718C15.983,35.312,15.612,35.489,15.222,35.489z M16.458,32.63
				c-1.06,0.4-1.684,0.721-1.89,0.966c-0.308,0.368-0.264,0.878,0.104,1.187c0.354,0.296,0.887,0.254,1.187-0.102
				C16.048,34.456,16.297,33.458,16.458,32.63z"/>
		</g>
		<g>
			<path d="M12.728,31.501c-0.548,0.316-1.19,0.121-1.493-0.401c-0.3-0.522-0.144-1.179,0.4-1.493
				c0.543-0.313,2.155-0.299,2.669-0.297C14.304,29.31,13.222,31.214,12.728,31.501z"/>
			<path d="M12.172,31.904c-0.477,0-0.908-0.254-1.154-0.679c-0.375-0.654-0.159-1.459,0.492-1.835
				c0.386-0.223,1.226-0.331,2.565-0.331l0.192,0c0.089,0,0.189,0.048,0.234,0.125c0.044,0.077,0.063,0.172,0.02,0.249
				c-0.186,0.328-1.142,1.979-1.668,2.284C12.642,31.839,12.406,31.904,12.172,31.904z M13.868,29.56
				c-1.455,0.013-1.944,0.169-2.108,0.263c-0.416,0.24-0.548,0.735-0.309,1.152c0.233,0.402,0.739,0.546,1.151,0.31
				C12.869,31.13,13.449,30.258,13.868,29.56z"/>
		</g>
		<g>
			<path d="M27.146,36.845c0.218,0.595,0.835,0.858,1.402,0.652c0.566-0.207,0.868-0.81,0.652-1.401
				c-0.213-0.589-1.458-1.614-1.853-1.943C27.349,34.154,26.952,36.308,27.146,36.845z"/>
			<path d="M28.16,37.817c-0.562,0-1.051-0.348-1.249-0.886c-0.207-0.573,0.123-2.452,0.191-2.823
				c0.016-0.087,0.078-0.16,0.161-0.19c0.083-0.03,0.177-0.013,0.245,0.043c0.811,0.676,1.724,1.487,1.928,2.05
				c0.258,0.706-0.094,1.462-0.802,1.721C28.48,37.789,28.321,37.817,28.16,37.817z M27.521,34.627
				c-0.128,0.804-0.245,1.844-0.14,2.133c0.162,0.441,0.638,0.663,1.083,0.502c0.451-0.165,0.667-0.629,0.502-1.08
				C28.856,35.878,28.371,35.356,27.521,34.627z"/>
		</g>
		<g>
			<path d="M31.414,34.843c0.405,0.484,1.075,0.52,1.539,0.132c0.462-0.387,0.538-1.058,0.135-1.539
				c-0.404-0.481-1.922-1.018-2.405-1.191C30.683,32.245,31.045,34.404,31.414,34.843z"/>
			<path d="M32.242,35.489c-0.39,0-0.761-0.177-1.02-0.485c-0.393-0.467-0.724-2.346-0.786-2.717
				c-0.015-0.088,0.018-0.176,0.086-0.233c0.067-0.057,0.161-0.074,0.245-0.043c0.986,0.354,2.124,0.804,2.512,1.266
				c0.237,0.282,0.349,0.633,0.314,0.989c-0.033,0.35-0.204,0.67-0.48,0.902C32.865,35.375,32.555,35.489,32.242,35.489z
				 M31.006,32.629c0.154,0.799,0.4,1.816,0.599,2.052c0.299,0.356,0.831,0.399,1.188,0.102c0.174-0.146,0.282-0.348,0.303-0.566
				c0.021-0.221-0.05-0.441-0.2-0.62C32.688,33.348,32.052,33.023,31.006,32.629z"/>
		</g>
		<g>
			<path d="M34.736,31.501c0.548,0.316,1.19,0.121,1.493-0.401c0.3-0.522,0.144-1.179-0.4-1.493
				c-0.543-0.313-2.154-0.299-2.668-0.297C33.161,29.31,34.242,31.214,34.736,31.501z"/>
			<path d="M35.292,31.904C35.292,31.904,35.292,31.904,35.292,31.904c-0.234,0-0.47-0.064-0.681-0.187
				c-0.526-0.305-1.481-1.957-1.667-2.284c-0.044-0.077-0.043-0.172,0.001-0.249c0.044-0.077,0.126-0.124,0.215-0.125l0.229,0
				c1.339,0,2.178,0.108,2.564,0.332c0.651,0.375,0.867,1.181,0.492,1.833C36.2,31.65,35.768,31.904,35.292,31.904z M33.597,29.56
				c0.418,0.698,0.998,1.57,1.265,1.725c0.136,0.079,0.281,0.119,0.43,0.119c0,0,0,0,0,0c0.296,0,0.565-0.161,0.721-0.43
				c0.239-0.416,0.106-0.911-0.309-1.15C35.541,29.729,35.051,29.573,33.597,29.56z"/>
		</g>
	</g>
	<path d="M31.323,27.431c-1.943,0-3.772-1.356-4.449-3.297c-0.179-0.514,0.092-1.076,0.606-1.254
		c0.514-0.18,1.075,0.092,1.254,0.606c0.405,1.163,1.469,1.976,2.588,1.976c1.247,0,2.251-1.009,2.598-2.006
		c0.179-0.514,0.739-0.789,1.254-0.606c0.514,0.179,0.785,0.74,0.606,1.254C35.099,26.062,33.266,27.431,31.323,27.431z"/>
	<path d="M27.882,8.799c-0.265,0-0.51-0.139-0.645-0.367c-0.563-0.949-2.403-4.145-2.41-5.424c-0.004-0.825,0.307-1.588,0.874-2.149
		c0.557-0.55,1.306-0.855,2.11-0.858c1.686,0,3,1.309,3.008,2.979c0.006,1.272-1.121,3.409-2.224,5.332l-0.063,0.11
		c-0.132,0.231-0.378,0.375-0.645,0.377C27.886,8.799,27.884,8.799,27.882,8.799z M27.826,1.5c-0.417,0.002-0.795,0.153-1.07,0.425
		C26.478,2.2,26.325,2.582,26.327,3c0.002,0.477,0.723,2.02,1.549,3.525c0.961-1.768,1.446-2.957,1.443-3.539
		C29.315,2.139,28.673,1.5,27.826,1.5z"/>
	<path d="M20.768,16.042c-0.053,0-0.107-0.006-0.161-0.018c-1.078-0.236-4.668-1.074-5.608-1.944
		c-0.605-0.56-0.951-1.308-0.973-2.105c-0.022-0.782,0.268-1.538,0.815-2.128c1.091-1.179,3.043-1.263,4.23-0.162
		c0.935,0.866,1.754,3.241,2.366,5.231c0.064,0.111,0.101,0.239,0.101,0.376c0,0.417-0.329,0.793-0.759,0.75
		C20.775,16.042,20.771,16.042,20.768,16.042z M17.038,10.374c-0.414,0-0.803,0.175-1.097,0.493
		c-0.279,0.301-0.427,0.68-0.416,1.067c0.011,0.391,0.186,0.763,0.493,1.046c0.35,0.324,1.97,0.852,3.634,1.276
		c-0.634-1.908-1.171-3.073-1.601-3.471C17.761,10.516,17.411,10.374,17.038,10.374z"/>
	<path d="M38.17,15.972c-0.19,0-0.376-0.073-0.518-0.208c-0.193-0.185-0.273-0.457-0.211-0.717c0.256-1.073,1.161-4.647,2.046-5.571
		c1.134-1.18,3.065-1.208,4.236-0.082c0.578,0.556,0.91,1.293,0.933,2.078c0.023,0.797-0.277,1.563-0.847,2.155
		c-0.892,0.928-3.318,1.709-5.332,2.287l-0.1,0.028C38.309,15.962,38.239,15.972,38.17,15.972z M41.639,10.042
		c-0.396,0-0.776,0.168-1.07,0.474c-0.33,0.344-0.887,1.954-1.342,3.609c2.359-0.738,3.213-1.236,3.501-1.537
		c0.288-0.299,0.44-0.68,0.428-1.072c-0.011-0.389-0.179-0.758-0.473-1.04C42.392,10.196,42.021,10.042,41.639,10.042z"/>
</g>
<g>
</g>
<g>
</g>
<g>
</g>
<g>
</g>
<g>
</g>
<g>
</g>
<g>
</g>
<g>
</g>
<g>
</g>
<g>
</g>
<g>
</g>
<g>
</g>
<g>
</g>
<g>
</g>
<g>
</g>
</svg>
