<?xml version="1.0" encoding="iso-8859-1"?>
<!-- Generator: Adobe Illustrator 16.0.0, SVG Export Plug-In . SVG Version: 6.00 Build 0)  -->
<!DOCTYPE svg PUBLIC "-//W3C//DTD SVG 1.1//EN" "http://www.w3.org/Graphics/SVG/1.1/DTD/svg11.dtd">
<svg version="1.1" xmlns="http://www.w3.org/2000/svg" xmlns:xlink="http://www.w3.org/1999/xlink" x="0px" y="0px"
	 width="32.126px" height="44.262px" viewBox="0 0 32.126 44.262" style="enable-background:new 0 0 32.126 44.262;"
	 xml:space="preserve">
<g id="b200_wine">
	<path d="M14.321,21.76H2.413c-0.524,0.926,0.148,7.537,6.329,7.537C14.191,29.297,14.848,22.686,14.321,21.76z"/>
	<path d="M9.59,42.498V31.059c3.998-0.713,7.072-4.734,7.072-9.588c0-1.916-0.475-3.77-1.384-5.365l-0.213-0.377H1.595l-0.217,0.377
		C0.476,17.697,0,19.555,0,21.471c0,4.887,3.113,8.928,7.146,9.602v11.426c-2.327,0.092-4.063,0.445-4.063,0.867
		c0,0.494,2.368,0.896,5.287,0.896s5.284-0.402,5.284-0.896C13.654,42.943,11.921,42.59,9.59,42.498z M1.484,21.471
		c0-1.51,0.34-2.973,0.986-4.252h11.717c0.644,1.281,0.989,2.742,0.989,4.252c0,4.535-3.073,8.223-6.846,8.223
		C4.555,29.693,1.484,26.006,1.484,21.471z"/>
	<path d="M28.086,10.949V6.389h-5.64v4.559c-2.382,1.076-4.044,3.465-4.044,6.25v4.467v14.232v8.365h13.724v-8.365V21.664v-4.467
		C32.126,14.416,30.468,12.025,28.086,10.949z M31.726,22.064v13.432H18.804V22.064H31.726z"/>
	<rect x="22.446" width="5.64" height="4.889"/>
</g>
<g id="Capa_1">
</g>
</svg>
