<?xml version="1.0" standalone="no"?>
<!DOCTYPE svg PUBLIC "-//W3C//DTD SVG 1.1//EN" "http://www.w3.org/Graphics/SVG/1.1/DTD/svg11.dtd" >
<svg xmlns="http://www.w3.org/2000/svg">
<metadata></metadata>
<defs>
<font id="dubielitalic" horiz-adv-x="350" >
<font-face units-per-em="1000" ascent="800" descent="-200" />
<missing-glyph horiz-adv-x="242" />
<glyph horiz-adv-x="1000" />
<glyph horiz-adv-x="1000" />
<glyph unicode="&#xd;" horiz-adv-x="242" />
<glyph unicode=" "  horiz-adv-x="242" />
<glyph unicode="&#x09;" horiz-adv-x="242" />
<glyph unicode="&#xa0;" horiz-adv-x="242" />
<glyph unicode="!" horiz-adv-x="279" d="M263 629q3 -14 3 -27q0 -39 -10.5 -63t-59 -117t-96.5 -240h-8q18 55 27.5 112t23.5 153t23 134t22 53.5t33 15.5q16 0 28 -4.5t14 -16.5zM63 87q20 0 33.5 -13.5t13.5 -33.5t-13.5 -33.5t-33.5 -13.5t-33 13t-13 34q0 19 13 33t33 14z" />
<glyph unicode="&#x22;" horiz-adv-x="333" d="M165 725q4 -15 4 -32q0 -46 -30.5 -80t-85.5 -71q-4 3 -9 -1t-8 1q4 6 48.5 42t44.5 61q0 10 -6 22q-23 7 -38.5 16.5t-15.5 27.5q0 43 20.5 49t24.5 6q18 0 32.5 -11.5t18.5 -29.5zM311 725q4 -15 4 -31q0 -46 -31.5 -81t-84.5 -71q-3 3 -9 -1t-8 1q6 8 49.5 43t43.5 61 q0 10 -6 21q-23 6 -38.5 16t-15.5 28q0 20 7.5 34t20 17.5t16.5 3.5q18 0 33 -12t19 -29z" />
<glyph unicode="$" horiz-adv-x="246" d="M189 637q0 -20 -2 -37.5t-8 -34.5q27 -15 39 -24t14 -20t2 -18q0 -15 -6.5 -26t-20.5 -15q-13 -2 -21.5 7t-8.5 23q0 4 3 12t15 12t12 14q-18 26 -50 26q-17 0 -36.5 -11t-29 -18.5t-9.5 -22.5q0 -35 59.5 -68.5t59.5 -68.5q0 -13 -6 -34t-38 -49t-66 -24q-6 -22 -14 -44 t-20 -22q0 13 7.5 33.5t7.5 30.5q-26 4 -50.5 22t-24.5 43q0 21 6 33t17.5 15.5t14.5 3.5q26 0 29 -24q2 -12 -17 -26.5t-19 -22.5q0 -5 6 -14t18 -13.5t27 -4.5q9 0 21.5 2t27 6t27.5 21t13 37q0 13 -10 27.5t-46 27.5t-45 23.5t-13 17t-4 17.5v13q0 26 14.5 47t31.5 32.5 t31.5 15.5t34.5 7q1 3 11 34t16 39z" />
<glyph unicode="&#x26;" horiz-adv-x="719" d="M525 648q16 -11 22.5 -25t6.5 -34v-12q0 -62 -68.5 -99.5t-131.5 -69.5q0 -55 7 -130t16 -121q13 12 87.5 140.5t150.5 128.5q19 0 38.5 -5t27 -18.5t7.5 -33.5q0 -15 -4 -30t-13.5 -25.5t-18.5 -13t-17 -2.5q-25 0 -35 14t-10 25q0 13 10.5 37t10.5 29q0 8 -10 8 q-6 0 -33 -7.5t-80 -102t-101 -180.5q19 -46 29.5 -64t30.5 -22.5t31 -4.5q59 0 101.5 55t69.5 91q-14 -55 -54.5 -102.5t-80.5 -60.5t-58 -13q-32 0 -60 18t-52 49q-39 -35 -76 -55t-78 -20q-26 0 -62.5 14.5t-66 51.5t-29.5 83q0 85 62 152.5t135 93.5l48 17q0 8 -0.5 18 t-0.5 21q0 27 3.5 53t20.5 66.5t46 72t61.5 36.5t38.5 5q21 0 40.5 -7.5t38.5 -20.5zM140 277q-20 -47 -20 -94q0 -28 6 -52.5t18 -53.5q13 -23 35.5 -36.5t49.5 -13.5h10q25 3 48 20t40 40q-36 63 -43.5 149t-11.5 144q-20 -5 -63 -23t-69 -80zM429 658q-37 -8 -56.5 -44.5 t-19.5 -128.5v-48q67 20 106 56.5t44.5 51t5.5 31.5q0 27 -14.5 55.5t-50.5 28.5q-5 0 -15 -2z" />
<glyph unicode="'" horiz-adv-x="207" d="M285 725q4 -15 4 -32q0 -46 -30.5 -80t-85.5 -71q-4 3 -9 -1t-8 1q4 6 48.5 42t44.5 61q0 10 -6 22q-23 7 -38.5 16.5t-15.5 27.5q0 43 20.5 49t24.5 6q18 0 32.5 -11.5t18.5 -29.5z" />
<glyph unicode="(" horiz-adv-x="304" d="M387 788q-160 -187 -240 -400.5t-80 -465.5q4 -29 19 -65t29 -69h-12q-49 63 -73 144.5t-24 172.5q0 151 57 276.5t138 231.5t186 175z" />
<glyph unicode=")" horiz-adv-x="304" d="M248 292q-43 -164 -127.5 -277.5t-222.5 -207.5q152 170 236 354.5t84 397.5q0 51 -4.5 96.5t-15 75.5t-29.5 72q54 -64 80.5 -143.5t26.5 -169.5q0 -47 -7 -95.5t-21 -102.5z" />
<glyph unicode="*" horiz-adv-x="203" d="M122 645l-12 -52q0 -9 4 -16q11 0 31.5 20.5t29.5 20.5q10 0 18 -14q-2 -19 -33.5 -27.5t-37.5 -13.5q4 -12 37.5 -20t33.5 -18q0 -8 -13 -22q-14 0 -29.5 14t-33.5 31q-8 -5 -8 -18q0 -8 5.5 -28t5.5 -22q0 -14 -18 -14q-7 0 -12 1q-4 8 -4 18q0 8 4.5 23.5t4.5 21.5 q0 7 -3 15q-12 0 -33 -21t-31 -21q-9 0 -19 14q4 17 33.5 24t38.5 17q-4 16 -35.5 21t-31.5 19q0 7 4 16q6 3 10 3q12 0 32.5 -19t31.5 -21q3 8 3 15q0 8 -4 25.5t-4 21.5q0 13 13 20q9 3 15.5 -1t6.5 -13z" />
<glyph unicode="+" horiz-adv-x="315" d="M186 372h111q-13 -10 -15.5 -32t-4.5 -33h-91v-104q-14 9 -31.5 13.5t-33.5 7.5v83h-99q9 13 13.5 31t7.5 34h78v105q11 -13 32.5 -15.5t32.5 -4.5v-85z" />
<glyph unicode="," horiz-adv-x="198" d="M161 33q3 -12 3 -24q0 -44 -31.5 -77.5t-59 -52.5t-55.5 -19q-10 0 -21 3q39 13 68.5 32.5t47.5 52.5q-25 5 -41.5 27.5t-16.5 47.5q0 24 17 35t39 11q19 0 32.5 -8.5t17.5 -27.5z" />
<glyph unicode="-" d="M294 307h-254q9 14 13.5 31.5t7.5 33.5h253q-13 -11 -15.5 -32.5t-4.5 -32.5z" />
<glyph unicode="." horiz-adv-x="152" d="M77 78q21 0 36 -15t15 -36t-14.5 -36.5t-36.5 -15.5t-37 15t-15 37q0 21 15 36t37 15z" />
<glyph unicode="/" horiz-adv-x="329" d="M338 745q-19 -52 -98 -274.5t-111.5 -311.5t-82.5 -221q-5 -3 -10.5 -4t-12.5 -1q-15 1 -23 1l294 807q7 4 24 4h20z" />
<glyph unicode="0" horiz-adv-x="494" d="M427 607q25 -48 36.5 -94.5t11.5 -95.5q0 -54 -14.5 -105.5t-48.5 -115.5t-93.5 -123.5t-102.5 -67t-50 -7.5q-49 0 -84 40q-30 38 -45.5 84t-15.5 96q0 54 28.5 138t95.5 172t129 106.5t79 18.5q49 0 74 -46zM291 620q-38 -34 -66 -83.5t-54 -119t-44.5 -120.5 t-30 -86.5t-11.5 -73.5q0 -32 10.5 -58.5t29.5 -46t41 -19.5q23 0 46 11t46 44t46 72.5t47.5 101.5t35.5 150.5t11 196.5q0 24 -16.5 36t-41.5 12q-30 0 -49 -17z" />
<glyph unicode="1" horiz-adv-x="381" d="M226 48q-5 -15 10.5 -23t63.5 -8h28q8 0 6 -5t-6 -12h-302q-8 12 -1 15q3 1 11 1q6 0 23 -1t18 -1q24 0 39 7t22 28l129 423q1 6 -2.5 12t-11.5 13q-4 1 -12 1q-16 0 -58 -9t-58 -9v10q74 0 138.5 44t109.5 116h30z" />
<glyph unicode="2" horiz-adv-x="543" d="M499 557q20 -39 20 -79q0 -51 -39 -109.5t-119 -106.5q-72 -37 -148 -78t-119 -100q4 -8 10 -8l273 8q33 20 49 61t27 68q-7 -48 -28 -122t-25 -92l-375 1q25 88 124.5 162.5t190.5 142.5q92 84 92 184q0 33 -7 63.5t-27 51t-36 23.5t-29 4t-24 1q-32 0 -60 -9.5 t-51 -30.5q-13 -16 -23 -31t-10 -40q0 -9 3.5 -23.5t44 -17.5t43.5 -15t3 -20q0 -37 -21 -45t-30 -8q-11 0 -20.5 4t-24.5 14t-24.5 32t-9.5 48q0 14 6.5 48t44 66t80 39.5t53 8t16.5 0.5q56 0 100.5 -23t69.5 -72z" />
<glyph unicode="3" horiz-adv-x="449" d="M450 570q9 -15 13 -31.5t4 -37.5q0 -25 -10.5 -59.5t-42.5 -51.5t-109 -44q48 -23 79 -62.5t31 -92.5q0 -57 -34 -99t-79 -62.5t-76.5 -29t-63.5 -8.5q-31 0 -58.5 9.5t-53 33t-37.5 40t-12 42.5q0 42 24 68.5t55 26.5q14 0 29.5 -8.5t15.5 -31.5q0 -13 -5 -27t-43 -23.5 t-38 -33.5q0 -8 1 -13q17 -25 40.5 -40.5t46.5 -19t30 -3.5q43 0 76 25.5t58.5 66t37 71.5t11.5 62q0 23 -7 41.5t-22 33t-36.5 20t-47.5 5.5q-23 0 -61 -5.5t-52 -7.5l-12 19q19 6 38.5 8t41.5 2q12 0 27.5 -0.5t34.5 -0.5q20 0 28.5 1t39.5 14t54.5 55.5t23.5 99.5 q-1 12 -1 18v12q0 25 -15 44t-41 32t-53 13q-20 0 -38 -5.5t-35 -17.5q-14 -8 -22 -18t-8 -23q0 -8 5.5 -16.5t28.5 -22t23 -29.5q0 -40 -21 -44t-26 -4q-20 0 -38 10.5t-23.5 26t-5.5 28.5q0 16 6.5 31t25 40t52 40.5t75.5 15.5q33 0 86.5 -14.5t84.5 -68.5z" />
<glyph unicode="4" horiz-adv-x="485" d="M481 632l-76.5 -255t-48.5 -175q15 -7 42 -8.5t73 -1.5l-4 -23l-123 1l-34 -115q-2 -8 -2 -11q0 -22 25.5 -27t46.5 -5h18t15 1q5 0 4 -4t-4 -9h-319q-1 12 2 12q10 0 19.5 -0.5t18.5 -0.5q37 0 63.5 8.5t32.5 33.5l27 109l-5 9q-40 0 -123.5 1t-123.5 1q-4 5 0 10 q41 46 119.5 130t176 186.5t122.5 127.5t37 25q26 0 21 -20zM363 520l-299 -315q10 -1 37 -2t67 -1h102q46 159 93 318z" />
<glyph unicode="5" horiz-adv-x="442" d="M463 637q-18 -42 -55.5 -67t-89.5 -30q-64 0 -124 33q-8 -20 -31.5 -100.5t-25.5 -86.5q15 6 56 26.5t74 20.5q10 0 44 -4t67.5 -31.5t41.5 -62.5t8.5 -41.5t0.5 -14.5q0 -51 -24 -103t-63.5 -93t-83.5 -64t-92 -23q-24 0 -57 8.5t-57.5 25.5t-35.5 47.5t-11 51.5 q0 26 15.5 57t54.5 31q13 0 29.5 -10t16.5 -36q0 -7 -4 -18t-42.5 -24.5t-38.5 -35.5q0 -10 4 -21q34 -37 42.5 -44t28 -13.5t40.5 -6.5q30 0 56 13t61.5 54t60 113.5t24.5 151.5q0 22 -13 39.5t-34 29.5t-42 12q-29 0 -52.5 -10.5t-46.5 -25.5t-43.5 -41.5t-36.5 -50.5 q2 5 4 11t2 10q-2 0 -6.5 -3.5t-12.5 -16.5q15 26 31 56.5t32 83.5t32 107t27 109q37 -18 81 -30t85 -12q31 0 55.5 6.5t47.5 22.5z" />
<glyph unicode="6" horiz-adv-x="438" d="M462 576q9 -23 9 -45q0 -26 -19.5 -47.5t-50.5 -21.5q-10 0 -29 7t-19 41q0 12 5.5 25t32.5 25.5t27 25.5q0 6 -6 17q-29 40 -72 40q-21 0 -62.5 -25.5t-77.5 -94t-80 -191.5q48 42 80 62.5t70 17.5q40 -4 72 -21.5t48 -61.5t16 -86q0 -33 -10.5 -64t-40.5 -73.5 t-77.5 -74.5t-101.5 -32q-17 0 -31 2t-46 14t-59.5 49t-31.5 77.5t-4 69.5q0 120 53.5 218t119.5 148t93 62t56 12q26 0 57.5 -12.5t50 -25t28.5 -37.5zM252 397q-51 -13 -85.5 -44t-56 -75t-32 -78t-10.5 -63q0 -58 29 -93t60 -35q20 0 97.5 55.5t77.5 208.5 q0 39 -6.5 69.5t-22.5 43.5t-36 13q-5 0 -15 -2z" />
<glyph unicode="7" horiz-adv-x="355" d="M449 650q-32 -83 -131 -209.5t-147.5 -211t-48.5 -203.5q0 -13 -13.5 -19.5t-31.5 -6.5q-5 0 -11 1t-16 3t-17.5 17t-7.5 37q0 11 2 23.5t15 58.5t88 130q70 70 145.5 147t106.5 150q-21 -3 -52 -3q-35 0 -118.5 5t-91.5 5q-19 0 -32 -10.5t-36 -51.5t-30 -49q9 40 31 91 t44 98q49 0 140.5 -4.5t103.5 -4.5q59 0 108 7z" />
<glyph unicode="8" horiz-adv-x="502" d="M490 569q19 -43 19 -71q0 -25 -14.5 -56t-60.5 -58q-56 -27 -82 -42q35 -31 58.5 -71t23.5 -82q0 -14 -1 -21.5t-15 -50t-75 -80t-136 -37.5q-58 0 -98 12t-71 54.5t-31 92.5q0 21 6 45q16 51 55 75.5t109 52.5q-35 38 -50 62t-15 61q0 70 43.5 119t97.5 63t89 14 q51 0 89 -19t59 -63zM217 587q-30 -37 -30 -83q0 -17 5.5 -48t34.5 -51t96 -52q50 16 86 52t36 86q0 58 -9 80.5t-37 43t-76 20.5q-67 0 -106 -48zM216 314q-4 1 -12 1q-29 0 -55 -21.5t-51.5 -60.5t-25.5 -84q0 -15 6 -41t22.5 -48t45.5 -36.5t58 -14.5q18 0 35.5 4t58 20 t54 56.5t13.5 55.5q0 27 -13 48t-31.5 44.5t-48.5 42.5t-56 34z" />
<glyph unicode="9" horiz-adv-x="491" d="M420 603q25 -33 37.5 -79t12.5 -100q0 -51 -12 -102.5t-46.5 -115t-93.5 -123t-109 -72.5t-73 -13q-26 0 -45.5 7.5t-39.5 27t-30 34.5t-10 35q0 12 5 31t15.5 31.5t27.5 12.5q5 1 17 1q21 0 35 -6t17.5 -18t3.5 -16q0 -18 -15.5 -33.5t-31.5 -21t-16 -16.5 q-3 -13 7.5 -25t28 -23.5t38.5 -11.5q17 0 32 5.5t54 27.5t72 97.5t60 181.5q-39 -37 -76.5 -60.5t-76.5 -23.5q-23 0 -55.5 13.5t-58 45.5t-25.5 75q0 158 91 221t153 63q34 0 60.5 -11.5t46.5 -38.5zM237 589q-44 -64 -66 -114t-22 -111q0 -30 6 -61t25 -44t43 -13 q12 0 43.5 16t60.5 45t49 75.5t30 78.5t10 61q0 27 -8.5 47.5t-32 39.5t-60.5 19q-52 0 -78 -39z" />
<glyph unicode=":" horiz-adv-x="250" d="M177 387q21 0 36 -15t15 -37q0 -20 -15 -36t-36 -16q-22 0 -37 15t-15 37q0 21 15.5 36.5t36.5 15.5zM77 78q21 0 36 -15t15 -36t-14.5 -36.5t-36.5 -15.5t-37 15t-15 37q0 21 15 36t37 15z" />
<glyph unicode=";" horiz-adv-x="267" d="M161 33q3 -12 3 -24q0 -44 -31.5 -77.5t-59 -52.5t-55.5 -19q-10 0 -21 3q39 13 68.5 32.5t47.5 52.5q-25 5 -41.5 27.5t-16.5 47.5q0 24 17 35t39 11q19 0 32.5 -8.5t17.5 -27.5zM200 380q21 0 36.5 -15.5t15.5 -36.5t-15 -36t-37 -15q-20 0 -36 15t-16 36q0 22 15 37 t37 15z" />
<glyph unicode="=" horiz-adv-x="338" d="M40 207zM294 307h-254q9 14 13.5 31.5t7.5 33.5h253q-13 -11 -15.5 -32.5t-4.5 -32.5zM294 207h-254q9 14 13.5 31.5t7.5 33.5h253q-13 -11 -15.5 -32.5t-4.5 -32.5z" />
<glyph unicode="?" horiz-adv-x="401" d="M369 552q15 -26 15 -57q0 -27 -10.5 -53.5t-31 -61.5t-112 -87t-106 -75.5t-14.5 -34.5q0 -24 14 -29.5t21 -5.5q20 0 33 18.5t22 30.5q-2 -15 -12.5 -30t-22.5 -23.5t-24 -8.5q-15 0 -28.5 10t-17.5 24t-4 29q0 48 54 102t107 105q57 64 57 126q0 6 -0.5 14.5t-5 28.5 t-22 35t-39 21t-33 8t-26.5 2q-56 0 -95.5 -41t-39.5 -91q0 -18 8 -36q8 6 15.5 11t21.5 5q12 0 26 -7q24 -15 24 -42q0 -8 -4.5 -19t-18 -18t-29.5 -7q-13 0 -19.5 2t-20 6.5t-23.5 27t-10 52.5v14q0 46 28.5 81.5t72.5 53.5q39 18 80 18q52 0 98.5 -26t71.5 -72zM92 93 q20 0 33.5 -13.5t13.5 -33.5t-14 -34t-33 -14q-20 0 -34 14t-14 34q0 19 14 33t34 14z" />
<glyph unicode="A" horiz-adv-x="635" d="M533 650l-2 -619q0 -10 24 -13q32 -2 65 -4q3 -1 2 -5t-2 -7l-286 -1q-2 11 3 11q14 -1 25 -1q35 0 56.5 5.5t21.5 22.5v176l-173 3l-94 -166q-4 -7 -4 -13q0 -16 24 -21.5t58 -5.5h16l-1 -13l-256 1q0 11 2 11q8 -2 20 -2q33 0 63.5 9.5t59 57t92 152.5t153.5 255.5 t98 166.5q1 4 12 4q6 0 12 -1t11 -3zM442 513l-165 -271h163q0 33 3.5 124t3.5 137z" />
<glyph unicode="B" horiz-adv-x="605" d="M630 568q11 -27 11 -59q0 -49 -29 -78q-28 -36 -84 -57.5t-71 -28.5q55 -24 79.5 -39.5t35.5 -47.5t11 -63q0 -72 -51.5 -119t-131 -65t-183.5 -18q-52 0 -132 2.5t-87 2.5q6 5 4.5 10t2.5 5q41 0 74.5 8t42.5 39l155 557q1 7 -14 11.5t-57 4.5q-14 0 -24.5 -0.5 t-17.5 -0.5t-6 4.5t4 9.5q48 0 120 1.5t79 1.5h40t40 1q71 0 116 -15.5t73 -66.5zM365 620q-5 -3 -27 -88l-44 -170q28 -7 62 -7q46 0 90 13.5t66.5 42.5t29.5 58t10 48t3 32q0 23 -6.5 39t-25 26.5t-42.5 17.5t-49 7q-36 0 -67 -19zM422 331q-39 9 -88 9t-53 -15 q-14 -40 -33.5 -113.5t-50.5 -189.5q16 0 33.5 -0.5t36.5 -0.5q49 0 72 4.5t51.5 18t54.5 48t40 76.5q6 26 6 51q0 29 -7.5 51.5t-20 36t-21 17.5t-20.5 7z" />
<glyph unicode="C" horiz-adv-x="471" d="M487 585q21 3 40.5 31t33.5 33q-28 -121 -38.5 -163t-35.5 -111q-3 -1 -7 2.5t-4 7.5q0 105 -13 168t-50 75.5t-54 12.5q-23 0 -75 -31t-77.5 -87t-62.5 -168.5t-43.5 -141.5t-6.5 -60q0 -32 10.5 -58.5t41.5 -54t78 -27.5q34 0 76 26t76.5 73.5t72.5 119.5h11 q-15 -44 -29.5 -72.5t-45.5 -72.5t-71.5 -68.5t-89.5 -24.5q-27 0 -68.5 13t-78 60t-43 88.5t-7 54.5t-0.5 20q0 116 62.5 224t121.5 144t92 45.5t61 9.5q22 0 42 -6t44.5 -30.5t36.5 -31.5z" />
<glyph unicode="D" horiz-adv-x="638" d="M565 605q43 -34 60.5 -82t17.5 -107q0 -17 -1.5 -35t-11 -86.5t-86 -159.5t-146 -112t-105.5 -25.5t-73 -4.5q-34 0 -113 5t-113 5q3 3 1 8.5t2 5.5q17 -2 29 -2q30 0 54 12t32 44l144 525q6 23 -13.5 30.5t-50.5 7.5h-20q-5 1 -4 7.5t7 6.5q8 0 57 2t86 2q85 0 148 -9.5 t99 -37.5zM474 627q-7 3 -22 5.5t-27 2.5q-30 0 -53 -11.5t-30 -40.5l-141 -519q-6 -18 -11 -35q0 -8 18 -11.5t54 -3.5q39 0 87 13.5t83 53t48.5 72.5t41.5 114t37.5 124t9.5 84q0 34 -7 63.5t-18 48t-28.5 26t-41.5 14.5z" />
<glyph unicode="E" horiz-adv-x="612" d="M676 650q6 -2 6 -21q0 -47 -29 -145.5t-41 -96.5q2 9 4.5 31.5t2.5 56.5q0 41 -7 73t-26 51t-45 26t-61 7q-23 0 -44.5 -1t-42.5 -2q-13 -1 -21 -10.5t-11 -22.5l-67 -242q-1 -5 2 -8t18 -3q28 0 67 15t54 35t35 48.5t28 61.5h8q-46 -178 -96 -339h-8q5 26 8 46t3 37 q0 26 -10 43t-34.5 29t-49.5 12q-35 0 -42 -29l-60 -241q-1 -3 -1 -6.5v-4.5q0 -21 24 -29.5t61 -8.5q18 0 39 1.5t62 5t97 80.5q45 81 91 162q4 0 4 -16q0 -47 -28 -146t-46 -99h-140.5h-187h-180.5q-1 2 -1 4.5t1 6.5q3 -1 14 -1q31 0 62.5 12t38.5 37l150 550 q5 20 -39 25q-28 1 -56 3q-1 3 -1 6t2 9h96h146h164.5t86.5 -2z" />
<glyph unicode="F" horiz-adv-x="633" d="M709 649q-22 -84 -36.5 -143.5t-31.5 -109.5h-9q0 15 2 48t2 51q0 49 -12.5 81.5t-56.5 47t-99 14.5q-32 0 -52.5 -6t-24.5 -20l-68 -229q-5 -20 26 -20q19 0 41 5.5t47.5 15t50.5 54.5q25 54 35 74l9 -3q-33 -112 -55.5 -189.5t-41.5 -145.5h-6q0 20 4.5 59.5t4.5 42.5 q0 23 -5.5 35.5t-21.5 16.5q-24 8 -42 13t-31 5q-15 0 -25 -7.5t-15 -26.5l-70 -256q-2 -10 -2 -13q0 -18 17 -24t43 -6h16.5h10.5q3 -1 2 -5t-3 -8q-7 -1 -110 -1h-131h-28.5h-12.5q-1 6 -1 11.5t6 5.5h11q37 0 63.5 7.5t33.5 33.5l154 557q3 13 -13.5 18t-46.5 5 q-3 0 -22 -1t-23 0q2 6 4 13h513z" />
<glyph unicode="G" horiz-adv-x="521" d="M492 582q6 -6 12 -6q10 0 26 19.5t36 43.5q-8 -56 -34.5 -141.5t-28.5 -94.5h-7q0 112 -26.5 162.5t-61.5 61t-59 10.5q-62 0 -115 -77t-87 -174.5t-46 -175t-12 -83.5q0 -42 34.5 -76.5t76.5 -34.5q16 0 61.5 16.5t80.5 87t55 171.5q2 12 -28 20l-20 10q3 2 29 2t45 1 h114q-10 -16 -35.5 -25.5t-43 -73.5t-37.5 -138.5t-24 -74.5q-6 0 -15 38.5t-19 34.5q-50 -40 -87 -62.5t-70 -22.5h-9q-43 4 -72 22.5t-54 54.5t-36.5 76t-11.5 85q0 56 17.5 111.5t71.5 135.5t116.5 122.5t124.5 42.5q18 0 41 -4t47.5 -21t50.5 -43z" />
<glyph unicode="H" horiz-adv-x="683" d="M807 650v-11t-3 -5q-15 1 -27 1q-32 0 -54.5 -7.5t-29.5 -30.5l-157 -547q-7 -23 31 -28q44 -2 52 -3q4 -1 3 -6t-4 -11h-268q1 1 0.5 7.5t0.5 11.5q6 -2 17 -3.5t21 -1.5q23 0 40 8t23 30l80 288h-235l-84 -290q-6 -22 10 -26.5t31 -4.5h14t14 1q2 -2 5 -3 q-7 -13 -6 -16l-268 2q0 6 0.5 11t3.5 5q15 -1 27 -1q38 0 56 8.5t22 23.5l148 540q2 10 2 12q0 21 -28.5 24t-52.5 5q-3 1 0 8t1 10l272 -1q1 -6 1 -12t-3 -6q-16 1 -27 1q-36 0 -52.5 -12.5t-21.5 -34.5l-59 -224h234l75 244q5 16 -12 21.5t-45 5.5q-11 0 -19 -0.5 t-13 -0.5q-1 6 -1 10.5t1 8.5z" />
<glyph unicode="I" horiz-adv-x="324" d="M484 650q2 -4 2.5 -8t-2.5 -5h-12t-13 1q-32 0 -55 -8t-30 -32l-154 -546q-1 -4 -1 -10q0 -18 19 -24.5t45 -6.5h14q-1 -6 -2 -11l-275 -1q-1 6 -1 9.5t1 3.5q3 -1 19 -1q33 0 60 9t33 32l164 550q5 20 -11.5 27t-45.5 7h-32q-2 0 -4.5 2t4.5 11z" />
<glyph unicode="J" horiz-adv-x="471" d="M597 650v-12q-27 -2 -54 -3q-43 -10 -56 -51l-148 -477q-17 -54 -63 -80.5t-104 -26.5q-45 0 -80.5 16.5t-50.5 45t-15 47.5q0 21 11 39.5t26 29t31 10.5q9 0 27 -7.5t22 -30.5q4 -18 -5 -29t-32 -27q-24 -10 -47 -19q-4 -17 7 -29.5t34 -23t50 -10.5q32 0 55 14.5 t33 25.5t31.5 87.5t48.5 168.5t49 166.5t30 101.5t8 30q0 18 -20 24.5t-44 6.5q-18 -1 -20 -1q-1 4 -1 7t1 7h162.5h113.5z" />
<glyph unicode="K" horiz-adv-x="679" d="M472 638q-12 1 -21 1q-28 0 -47.5 -7.5t-26.5 -32.5l-81 -277l312 257q28 22 28 36q0 17 -35.5 19t-63.5 3q-5 1 -4 4t4 8l264 -1q-5 -2 0 -9q-1 -2 -1 -3q-27 0 -48.5 -3.5t-41.5 -19.5l-275 -229l124 -348q5 -15 25 -20.5t44 -5.5q20 1 24 1q0 -4 0.5 -6t-0.5 -5 l-269 -2q0 3 -0.5 8t2.5 5h21q29 0 47.5 5t13.5 21l-93 302q-42 -32 -67 -50.5t-28 -29.5l-65 -212q-8 -25 20.5 -30.5t70.5 -5.5v-12h-267q-3 5 -4 7q1 3 3 6q34 0 62 6t35 31l159 556q6 22 -17 26.5t-40 4.5h-19q1 6 2 13h253q1 -2 2.5 -6t-2.5 -5z" />
<glyph unicode="L" horiz-adv-x="551" d="M469 638h-12t-13 1q-28 0 -48.5 -7.5t-27.5 -29.5l-162 -559q-5 -16 6.5 -22.5t34.5 -6.5q21 0 45.5 4t66 12t97.5 78t88 144q1 2 9 0q-12 -57 -32 -124.5t-39 -127.5h-455q-2 4 -1.5 6t1.5 5q14 -1 24 -1q27 0 44 6.5t23 28.5l163 562q5 18 -17.5 25t-54.5 7 q-23 -1 -27 -1v12h288q-1 -6 -1 -12z" />
<glyph unicode="M" horiz-adv-x="787" d="M399 636q0 -36 4.5 -147.5t8 -190.5t6.5 -129l283 476q1 2 22 3t52 1q35 0 67 -0.5t57 -1.5q3 -5 4 -7q-2 -4 -3 -7h-20q-35 0 -63.5 -9t-35.5 -35l-154 -552q-5 -15 11 -19t48 -4h19.5t17.5 -2q5 -1 4 -4t-4 -8l-282 -1q0 6 1 13h15q35 0 59.5 7t30.5 31l152 539 l-352 -586h-10l-21 587l-139 -506q-4 -15 -4 -28q0 -21 13 -33t45 -12q17 1 22 1q0 -3 0.5 -5.5t-1.5 -7.5l-210 1q-3 4 -4 8t7 4q31 0 58 13.5t43 66.5l141 497q2 10 2 13q0 21 -22.5 28t-52.5 7h-18q0 3 0.5 5.5t4.5 7.5q24 0 95 -1t91 -1q12 0 12 -12z" />
<glyph unicode="N" horiz-adv-x="663" d="M379 583l162 -411l104 363q6 20 6 34q0 38 -30 52.5t-65 14.5q-14 -1 -17 -1q0 6 1 13h259q-1 -6 -1 -11h-25q-30 0 -54 -11.5t-35 -48.5l-165 -577h-6l-200 531l-118 -446q-3 -14 -3 -24q0 -30 24.5 -40t56.5 -10h18q0 -6 1 -12h-264l1 12h15q37 0 69.5 17t48.5 73 l125 447q5 22 5 33q0 26 -17.5 40t-65.5 14h-32q-3 1 -2 5l2 8h39t37 1q55 0 82.5 -12t43.5 -54z" />
<glyph unicode="O" horiz-adv-x="521" d="M483 577q44 -77 44 -168q0 -128 -69.5 -225.5t-128 -140.5t-132.5 -43q-45 0 -81 29.5t-55.5 85t-19.5 126.5q0 99 44.5 192t105.5 141.5t91.5 62.5t66.5 14q17 0 45 -6.5t51 -23t38 -44.5zM337 633q-71 -40 -100 -87t-81 -186.5t-52 -196.5q0 -37 10.5 -69t31 -56 t50.5 -24q12 0 22 2.5t40.5 18t64.5 66t52.5 97t46 124.5t35 111.5t7.5 60.5q0 31 -8.5 59t-29 58t-58.5 30q-18 0 -31 -8z" />
<glyph unicode="P" horiz-adv-x="632" d="M654 562q19 -31 19 -67q0 -54 -37 -106t-99 -70.5t-140 -18.5q-19 0 -35.5 1t-64.5 4q-18 -59 -39.5 -128t-42.5 -132q-6 -20 16 -28t57 -8q20 0 34 2v-12h-292q-1 6 -1 9.5t1 3.5q14 -1 24 -1q29 0 51.5 7.5t28.5 30.5l156 567q3 12 -12.5 15.5t-43.5 3.5h-15.5t-14.5 1 h-11q-3 1 -2 5l2 8q33 0 124.5 1t96.5 1q31 0 57 -0.5t79.5 -7t103.5 -81.5zM556 610q-44 23 -92 23q-18 0 -37 -3t-45 -18q-38 -143 -76 -285q43 -10 77 -10q31 0 54 6.5t61 30t65.5 66.5t27.5 95q0 31 -7 51.5t-12.5 29t-15.5 14.5z" />
<glyph unicode="Q" horiz-adv-x="502" d="M417 -69q-18 -19 -38.5 -31t-41.5 -12q-13 0 -32 8t-28.5 39t-16.5 59q-33 -7 -63 -7q-37 0 -66 10t-55 41.5t-41.5 85t-15.5 108.5q0 39 6 73.5t32.5 107t100 151t176.5 78.5q54 0 94 -29t59.5 -88t19.5 -129q0 -98 -43.5 -187.5t-91.5 -130t-65 -52.5q-9 -10 -6 -26 q13 -19 33 -33t41 -14q26 0 41.5 14t52.5 74q3 -17 -12 -51t-40 -59zM247 588q-62 -77 -96 -161.5t-46.5 -160t-15 -97.5t-2.5 -39q0 -34 8.5 -59t29.5 -39q-4 13 -4 28q0 24 17.5 45t50.5 21q6 0 23.5 -3t42.5 -30.5t33 -31.5q54 72 90 159t51.5 138.5t15.5 98.5 q0 33 -7 63t-20 56t-36.5 36.5t-50.5 10.5q-56 0 -84 -35zM147 81q-6 -11 -6 -24q0 -24 17.5 -37t40.5 -13q19 0 32 8t18.5 17.5t1.5 20.5q-7 21 -26 36t-40 15q-25 0 -38 -23z" />
<glyph unicode="R" horiz-adv-x="615" d="M16 0l1 9q6 -1 12 -1q31 0 49 14t24 39l148 541q5 22 -18.5 28.5t-60.5 6.5h-17q0 2 1.5 6t-0.5 6q10 -2 25 -2h32q18 0 67 1t77 1q40 0 70 -1t73.5 -6.5t90.5 -42.5t47 -93q0 -46 -26 -78.5t-60.5 -52.5t-73.5 -28t-49 -11q18 -11 48 -28t34 -36.5t5 -32t1 -23.5 q0 -38 -17 -90t-17 -70q0 -13 4 -24t19 -11q13 0 36.5 11t44.5 50t46 104q3 -3 5 -1q-24 -70 -53 -118.5t-60.5 -59t-45.5 -10.5q-35 0 -50.5 21t-21 38.5t-5.5 37.5q0 33 21 88t21 76q0 23 -16.5 41t-41 26t-55.5 8q-20 0 -36 -2t-26 -3l-68 -263q-3 -9 -3 -17 q0 -23 21 -32t47 -9q18 0 26 2v-9h-275zM353 637l-76 -282q16 0 33 -0.5t34 -0.5q70 0 102.5 11.5t55.5 36.5t36 53.5t13 59.5q0 23 -13.5 57.5t-57.5 50.5t-94 16q-12 0 -19.5 -0.5t-13.5 -1.5z" />
<glyph unicode="S" horiz-adv-x="488" d="M491 591q6 -6 12 -6q10 0 32 29t28 32l6 -1q-8 -41 -32.5 -126t-29.5 -109h-9q0 74 -15.5 126.5t-62.5 77.5t-88 25q-39 0 -71.5 -20t-46.5 -38.5t-14 -44.5q0 -76 77 -126q71 -38 143 -75q78 -48 78 -119q0 -15 -3 -32t-13.5 -52t-50.5 -75.5t-69.5 -47t-41.5 -7.5 t-23 -1q-53 0 -100 23t-67.5 46.5t-28.5 23.5q-14 0 -37.5 -42.5t-36.5 -50.5q-4 -1 -7 -1q21 72 48 167.5t40 149.5q3 -3 5.5 -4t4.5 4q-3 -32 -3 -67q0 -47 6.5 -82t25.5 -66q21 -38 54 -59t57.5 -23.5t38.5 -2.5q95 0 127 52t32 86q0 26 -21 57.5t-115.5 84t-132 81.5 t-37.5 86q0 38 21.5 84t56.5 74t82 28q57 0 100 -13t81 -46z" />
<glyph unicode="T" horiz-adv-x="489" d="M589 650q-15 -61 -33 -129.5t-37 -126.5h-6q0 15 5 51t5 56q0 24 -5.5 43t-23.5 39t-40.5 32t-49.5 12h-12q-26 -82 -62.5 -203.5t-63.5 -213t-42 -142.5q-2 -10 -2 -14q0 -27 31.5 -35t72.5 -8h14v-12l-328 1q2 11 4 11q10 -1 18 -1q34 0 67 12.5t43 45.5l158 551 q-15 7 -33 7q-27 0 -56.5 -17t-62 -47t-59 -79.5t-50.5 -96.5h-10l79 263z" />
<glyph unicode="U" horiz-adv-x="500" d="M656 650q2 -4 2 -6.5v-5.5q-33 0 -75.5 -7.5t-57.5 -73.5l-83 -361q-13 -60 -20.5 -79t-35.5 -52t-73.5 -51t-95.5 -18q-38 0 -74 12t-69.5 41t-40.5 47t-7 36q0 13 5 31l122 443q6 21 -33 27q-27 2 -53 4v12l259 1v-12h-29q-23 0 -38 -6.5t-21 -29.5l-132 -470 q-5 -20 -5 -36q0 -17 4.5 -28.5t32.5 -33t83 -21.5q52 0 100.5 27.5t66 56.5t32.5 100l87 405q6 27 -30 33q-41 2 -45 3t-3.5 5t0.5 7h227z" />
<glyph unicode="V" horiz-adv-x="462" d="M633 650v-11q-8 1 -14 1q-30 0 -62.5 -18t-70.5 -80.5t-101 -166.5t-142 -232.5t-86 -138.5q-2 -3 -10 -2t-8 8l-12 588q0 23 -19.5 30.5t-47.5 7.5q-17 0 -22 1v12h281q1 -6 1 -9.5t-1 -3.5q-13 1 -23 1q-43 0 -61 -11t-18 -31l5 -433l236 389q18 29 18 49 q0 23 -21.5 31t-49.5 8q-20 -1 -23 -1q-2 0 -2.5 3t-0.5 8z" />
<glyph unicode="W" horiz-adv-x="753" d="M577 637q-40 0 -70 -7t-30 -38q1 -60 3 -214t2 -220l252 412q10 17 10 30q0 23 -30 30.5t-66 7.5h-11v12h280q1 -4 1.5 -8.5t-2.5 -4.5q-22 -2 -43 -4q-71 -15 -116.5 -87.5t-110 -174.5t-143 -225.5t-93.5 -144.5q-2 -4 -10 0t-8 10v113.5t0.5 142.5t1.5 154 q-36 -53 -75 -121t-98 -175t-66.5 -117.5t-12.5 -10.5q-6 0 -6 4q-4 29 -6.5 236.5t-2.5 324.5v15.5v6.5q0 29 -15.5 39t-39.5 10q-1 0 -16 -1t-19 0q-5 1 -4 7.5t2 10.5h242q3 -7 2.5 -11.5t-2.5 -4.5q-6 2 -16 2q-22 0 -38.5 -10t-16.5 -37l14 -416l178 314l2 106 q0 36 -31.5 39t-48.5 5q-1 4 -1 6.5t1 6.5l257 -1v-12z" />
<glyph unicode="X" horiz-adv-x="613" d="M422 635h-30q-33 0 -50.5 -4.5t-17.5 -20.5q0 -2 2 -10l71 -196l155 200q7 10 7 16q0 10 -15.5 13.5t-36.5 3.5h-17q-5 0 -4 4t4 9h246q5 -5 5.5 -7.5t-4.5 -2.5q-36 -4 -72 -7q-65 -13 -94 -51l-164 -209l119 -320q9 -27 38 -33t45 -6q18 1 22 1q0 -4 0.5 -6.5 t-0.5 -8.5h-285q0 6 1 12q45 0 79 5.5t26 29.5l-96 263l-175 -223q-20 -26 -20 -42q0 -15 18 -24t60 -9q26 1 30 1q-1 -7 -2 -13h-254q-6 3 -6 9q0 4 8 4q11 -1 18 -1q26 0 52.5 13.5t61.5 60.5l198 252l-98 270q-6 16 -21 21.5t-35 5.5h-31q-4 1 -2.5 6t2.5 9h262 q1 -3 2.5 -8.5t-2.5 -6.5z" />
<glyph unicode="Y" horiz-adv-x="481" d="M657 636h-24q-25 0 -49.5 -11.5t-51.5 -47.5l-228 -306l-56 -232q-3 -16 15.5 -22t47.5 -6h19.5t15.5 1q0 -4 0.5 -6.5t-0.5 -6.5h-294q-1 6 -1 9.5t1 3.5q55 0 84 12.5t37 46.5l58 221l-109 314q-6 18 -23 24.5t-37 6.5q-17 -1 -21 -1q-1 3 -1.5 5.5t2.5 7.5l267 1 q5 -5 5 -10t-4 -6h-19.5h-24.5q-27 0 -42 -3.5t-11 -15.5l100 -289l172 233q19 26 19 44q0 19 -19.5 25t-50.5 6h-37q-3 1 -2 5l2 8l259 1q2 -4 3 -7.5t-2 -4.5z" />
<glyph unicode="Z" horiz-adv-x="536" d="M612 626q-7 -11 -181 -228t-236 -294t-63 -77q34 -10 81 -10q25 0 40 2t70.5 8t125.5 74.5t110 170.5q-10 -58 -32.5 -133t-44.5 -140h-453q-5 0 -3 8t3 10q9 16 117.5 152t208.5 261t161 201q-30 3 -59 3q-64 0 -118.5 -18t-89 -48t-49.5 -56t-55 -115q-2 4 -5 5.5 t-6 -4.5q12 44 32 122t31 131q76 0 173 -0.5t246 -1.5q0 -6 -0.5 -12t-3.5 -11z" />
<glyph unicode="\" horiz-adv-x="329" d="M44 741q147 -404 294 -807q-17 -1 -25 -1q-13 0 -21 5q-34 90 -98 266.5t-105 291t-89 249.5h23q13 0 21 -4z" />
<glyph unicode="^" horiz-adv-x="486" d="M107 491l140 146l127 -146h-82l-74 92l-87 -92h-24z" />
<glyph unicode="`" horiz-adv-x="413" d="M133 552q-3 6 -4 18t-1 15q0 20 1.5 31.5t3.5 17.5q-6 -11 52 -53t118 -83z" />
<glyph unicode="a" horiz-adv-x="471" d="M326 370q5 13 9 23.5t12 25.5l65 1q-11 -52 -39.5 -144.5t-44 -150.5t-15.5 -100q0 -10 13 -10q15 0 37.5 21t47 63.5t45.5 80.5q-20 -58 -49.5 -107t-54 -62t-34.5 -13q-14 0 -28 9.5t-22 21t-10 22.5t-2 24q0 20 0.5 24.5t2.5 8.5q-39 -48 -70.5 -83t-77.5 -35 q-10 0 -30 6.5t-34 30.5t-19 49.5t-5 41.5q0 65 34.5 129.5t78.5 106.5t62 53t50 15q27 0 46 -13.5t32 -38.5zM206 386q-57 -67 -86 -155t-29 -179q0 -23 9.5 -35.5t24.5 -12.5q3 0 20.5 8t44.5 36.5t56.5 75t49.5 96t20 92.5q0 42 -17.5 68.5t-44.5 26.5q-30 0 -48 -21z " />
<glyph unicode="b" horiz-adv-x="381" d="M217 600q-6 -32 -20.5 -97.5t-30.5 -139.5q21 27 45 43t57 16q24 0 44.5 -14.5t37 -46.5t16.5 -77q0 -40 -14 -78.5t-45.5 -88.5t-76 -84.5t-98.5 -34.5q-15 0 -39 4.5t-41 25.5t-21.5 47t-4.5 42q0 33 10 65l106 386q2 10 -6 14t-22 4t-32 -1.5t-21 -0.5v10l151 16 q2 0 3 -3t2 -7zM235 399q-59 -32 -95.5 -127.5t-55.5 -219.5q-1 -14 8 -22t23.5 -13.5t24.5 -5.5q33 0 71 55.5t64 119t26 135.5v34q-3 15 -4 25t-12 17.5t-27 7.5q-12 0 -23 -6z" />
<glyph unicode="c" horiz-adv-x="333" d="M297 400q27 -24 27 -56q0 -13 -11.5 -41t-47.5 -28q-6 0 -15 3.5t-13.5 12.5t-4.5 22q0 16 4.5 23t25 21.5t20.5 23.5q0 2 -2 10q-15 19 -40 19q-23 0 -60 -38t-65 -131.5t-28 -194.5q0 -17 17.5 -26.5t39.5 -9.5q11 0 38 9.5t62 53.5t62 100h5q-18 -62 -57.5 -112 t-75.5 -57.5t-48 -7.5q-48 0 -70 29t-30 59.5t-8 65.5q0 30 5 57t26.5 78t66 92.5t108.5 41.5q23 0 39 -3.5t30 -15.5z" />
<glyph unicode="d" horiz-adv-x="456" d="M70 12q-31 19 -46.5 49.5t-15.5 69.5q0 27 24.5 105t68.5 123t81 54t42 9q21 0 38 -11.5t25.5 -25t11.5 -24t6 -18.5l57 229q-10 8 -22.5 9.5t-23.5 1.5h-18q-16 0 -27 4q30 9 73 11.5t85 4.5l10 -5q-28 -107 -60 -222.5t-55 -197t-37 -132.5q-4 -11 4 -20t16 -5 q49 25 76.5 74.5t45.5 81.5q-21 -62 -44.5 -102t-50 -55t-34.5 -15q-13 0 -24.5 9.5t-20.5 24.5t-10.5 32.5t-2.5 33.5q-42 -59 -65.5 -83t-64.5 -24q-14 2 -23 4.5t-19 9.5zM112 16q12 -4 25 0t17 9q60 58 95.5 130.5t35.5 146.5q0 32 -8 69q-6 19 -11.5 24.5t-14 7 t-16.5 1.5q-23 0 -41.5 -15.5t-46.5 -64.5t-51 -125t-23 -152q0 -13 14 -21.5t25 -9.5z" />
<glyph unicode="e" horiz-adv-x="342" d="M298 400q35 -27 35 -67q0 -14 -15.5 -49.5t-72.5 -60.5t-146 -43q-6 -25 -11 -52.5t-5 -46.5q0 -29 8 -46.5t19 -23t28 -5.5q12 0 24 3q48 16 88 60.5t63 97.5h5q-12 -54 -49.5 -97.5t-74.5 -60t-55 -16.5q-22 0 -40 8.5t-51.5 43.5t-33.5 101q0 25 31 120.5t109.5 126 t91.5 30.5q26 0 52 -23zM232 402q-43 -15 -72 -71t-53 -134q87 8 123 54t44 62.5t8 36.5q0 18 -7 31t-13.5 18.5t-17.5 5.5q-6 0 -12 -3z" />
<glyph unicode="f" horiz-adv-x="269" d="M370 604q12 -13 17 -23.5t5 -24.5q0 -8 -4.5 -21t-14.5 -23t-26 -10t-28.5 10t-15.5 26q-2 16 11.5 32t28.5 34q0 8 -16.5 12.5t-21.5 4.5q-24 0 -41.5 -13t-22.5 -36l-39 -151h84l-4 -19h-87l-147 -504l-61 5l141 502h-83l2 16l89 1q27 98 67 146t69.5 55.5t41.5 7.5 q32 0 56 -27z" />
<glyph unicode="g" horiz-adv-x="389" d="M303 360l19 47l56 4q-45 -216 -94 -355.5t-98 -166t-102 -26.5q-27 0 -46 5.5t-38.5 19.5t-19.5 38q0 13 12 31t36 18q8 0 16 -4.5t12.5 -14t4.5 -20.5l-2 -17q-1 -5 -11 -13t-8 -16q6 -8 17 -12t24 -4t21.5 1.5t36.5 6t45 37t47 173.5q-23 -37 -60 -65.5t-71 -28.5 q-13 0 -49.5 14.5t-36.5 76.5q0 109 60.5 207t103 111t51.5 13q22 0 42.5 -18t31.5 -42zM221 403q-22 -5 -34.5 -17.5t-42.5 -69.5t-52.5 -124.5t-22.5 -147.5q0 -12 11 -21t27 -9q7 0 21.5 4t34.5 21.5t49 61t49 97t20 112.5q0 27 -4 48q-2 20 -15 33t-31 13q-6 0 -10 -1z " />
<glyph unicode="h" horiz-adv-x="436" d="M233 607q-9 -57 -46.5 -190.5t-37.5 -135.5q32 41 68 84.5t51 46.5t23 3q20 0 35.5 -11.5t24 -34t8.5 -52.5q0 -47 -38 -144t-38 -146q0 -5 5.5 -10.5t19.5 -5.5q11 0 30.5 14t43 58t44.5 83q-15 -56 -42 -103.5t-51.5 -58t-36.5 -10.5q-20 0 -38 14t-19.5 28t-2 21.5 t-0.5 17.5q0 52 38 162.5t38 136.5q0 12 -2 21.5t-19 9.5q-12 0 -25.5 -6.5t-66 -72.5t-68.5 -112.5t-33.5 -121.5t-22.5 -93h-65l142 563q-11 16 -39.5 18t-35.5 7q28 6 65.5 10t90.5 10z" />
<glyph unicode="i" horiz-adv-x="293" d="M198 383q12 -28 12 -61q0 -37 -40 -128t-40 -133q0 -16 3 -34q4 -13 25 -13q11 0 31.5 15.5t45 65.5t46.5 96q-8 -57 -35 -107.5t-54 -67.5t-38 -17q-17 0 -32.5 12.5t-23.5 30t-11.5 32.5t-3.5 33q0 46 37.5 135.5t37.5 133.5q0 14 -1 21q0 12 -18 12q-14 0 -36 -20 t-43 -54.5t-33 -75.5h-11q26 74 51.5 109t46.5 47t31 12q16 0 31 -13t22 -31zM192 603q20 0 35 -14t15 -35t-14 -35t-36 -14q-21 0 -35 14t-14 35t14 35t35 14z" />
<glyph unicode="j" horiz-adv-x="281" d="M232 374q3 -17 3 -35q0 -35 -7.5 -69t-31.5 -114.5t-54 -182.5q-45 -100 -144 -114q-27 -3 -49 10.5t-27 32t-5 28.5q0 25 17 43.5t40 18.5q9 0 22 -7.5t13 -33.5q0 -8 -3 -17t-25 -19t-22 -18q0 -5 6 -14q15 -9 35 -9q12 0 23.5 5t18.5 12.5t15.5 39t29.5 105t51 179.5 t43 160q2 9 -3.5 19.5t-13.5 8.5q-32 -6 -52.5 -31.5t-81.5 -136.5h-13q36 82 63.5 124.5t56 51.5t38.5 9q21 0 36.5 -11.5t20.5 -34.5zM215 583q19 0 33 -14t14 -34t-13 -34t-34 -14q-20 0 -34 14t-14 34t14 34t34 14z" />
<glyph unicode="k" horiz-adv-x="453" d="M152 252q14 -7 30 -7q11 0 19.5 3t39 19t58 87.5t61.5 71.5q14 0 40 -10.5t26 -50.5q0 -16 -5 -29.5t-16.5 -22t-23.5 -8.5q-8 0 -16.5 4t-11 12.5t-2.5 17.5q0 10 3 18.5t18 23t9 23.5q-7 11 -26 11q-10 0 -19 -11.5t-30.5 -67.5t-83.5 -94q31 -15 47.5 -27t20.5 -28 t4 -21q0 -13 -11 -50t-11 -53q0 -20 7.5 -30t16.5 -10q5 0 12.5 3t29.5 17.5t37.5 42t48.5 100.5l10 -3q-27 -73 -58 -118.5t-67 -55t-40 -9.5q-19 0 -35 14t-21 31t-5 34t8.5 55.5t8.5 48.5q0 31 -18.5 39t-30.5 8q-38 0 -46 -43l-52 -189h-73q27 100 54.5 200.5t51 186.5 t51.5 192q4 14 -14 14q-6 0 -22 -2t-24 -2q-10 0 -18 3v7q41 0 90 5.5t75 7.5z" />
<glyph unicode="l" horiz-adv-x="244" d="M227 606l-142 -521q-2 -7 -3 -17.5t-1 -18.5q0 -37 14 -37q47 0 74 56t52 107q-23 -83 -40 -119t-47.5 -49t-40.5 -13q-17 0 -32.5 11t-29 31.5t-13.5 47.5q0 14 4 31.5t7 30.5l112 439q-6 4 -16.5 5t-24.5 1q-18 1 -26 1h-12q17 9 58.5 11.5t91.5 2.5h15z" />
<glyph unicode="m" horiz-adv-x="669" d="M583 382q11 -15 11 -41q0 -35 -41.5 -138t-41.5 -152q0 -14 3 -27t20 -13q3 0 24.5 10.5t42 46t43.5 98.5h8q-23 -68 -46 -107.5t-50.5 -50t-34.5 -10.5q-16 0 -29 10.5t-20 24.5t-10 29t-3 26q0 32 14.5 69.5t28 71t30.5 74.5q15 41 15 89q0 8 -8.5 13t-19.5 5 q-14 0 -49 -39.5t-78.5 -140t-80.5 -231.5h-28.5t-34.5 -1q11 47 34 124t40 140.5t25 114.5q2 7 -3 14t-12 10.5t-13 3.5q-24 0 -47.5 -41t-43 -75.5t-50 -115.5t-64.5 -176h-69l120 362q4 14 -2 30.5t-18 12.5q-41 -10 -75.5 -72.5t-55.5 -102.5h-7q23 60 51 108t53 65 t37 17q19 0 28.5 -15.5t14.5 -32.5t6 -30.5t1 -33.5q0 -10 -0.5 -20t-0.5 -19q33 60 60.5 107t64.5 47q16 0 34.5 -11t26.5 -34.5t8 -54.5q0 -10 -1 -27.5t-1 -23.5q34 61 65.5 108.5t67.5 47.5q16 0 30 -9.5t31 -33.5z" />
<glyph unicode="n" horiz-adv-x="475" d="M390 373q7 -27 7 -56q0 -48 -36 -149t-36 -141q0 -15 23 -15q8 0 28.5 11.5t43 55.5t42.5 85q-37 -96 -53.5 -121t-40 -35t-34.5 -10q-40 0 -48.5 24t-11.5 43t-3 34q0 51 37 141t37 134q0 14 -1 21t-7.5 10.5t-17.5 3.5q-25 0 -48 -34.5t-51 -95.5t-49.5 -122 t-53.5 -157h-68q12 45 43 139t44 146t13 102q0 4 -5 8.5t-16 4.5q-9 0 -35.5 -24.5t-42 -52t-38.5 -100.5q14 75 32 115t48.5 57.5t38.5 17.5q19 0 37 -15t18 -36q0 -31 1.5 -50t7.5 -39q28 62 52.5 105t70.5 43q25 0 45.5 -12.5t26.5 -35.5z" />
<glyph unicode="o" horiz-adv-x="391" d="M349 360q26 -51 26 -104q0 -37 -13 -74t-45 -82t-74 -75.5t-99 -30.5q-72 6 -99.5 60t-27.5 109q0 32 7 60t35.5 76t74.5 86t105 38q20 0 53.5 -8t56.5 -55zM243 409q-67 -21 -106 -115q-25 -69 -36.5 -99.5t-18 -55.5t-6.5 -48q0 -26 8.5 -44t25.5 -28.5t34 -10.5 q18 0 36 8t49 56.5t58.5 111t27.5 122.5q0 32 -7 56.5t-22 36.5t-31 12q-4 0 -12 -2z" />
<glyph unicode="p" horiz-adv-x="468" d="M410 394q18 -22 26.5 -49t8.5 -60q0 -28 -5.5 -55.5t-25 -77t-60.5 -95.5t-76.5 -53.5t-41.5 -7.5q-21 0 -36.5 11.5t-30.5 31t-19 34.5l-49 -176q-3 -13 9 -18t32 -5q8 0 23 1t19 1v-14l-236 -1l1 9q21 2 41 3q25 5 32 29l137 482q5 21 -11 21t-26 -10 q-35 -29 -58 -64.5t-52 -97.5q13 57 47.5 110.5t60 64.5t35.5 11q27 0 35.5 -21.5t13 -43.5t6.5 -33q39 62 56.5 83t56.5 21q31 0 52 -6.5t35 -24.5zM354 407q-13 7 -26 7q-42 0 -78.5 -61t-51 -111t-19.5 -76.5t-5 -48.5q0 -30 7.5 -53t21 -39t29.5 -16q14 0 29 8.5 t42 59.5t51.5 119t24.5 138q0 23 -2 39.5t-8.5 23t-14.5 10.5z" />
<glyph unicode="q" horiz-adv-x="405" d="M381 377q-5 -13 -36 -126t-61 -224.5t-31 -111.5q-6 -21 16.5 -25.5t40.5 -4.5h15t10 1l-1 -21l-251 1v16h17.5t19.5 -1q27 0 44 6t26.5 39t24 81.5t12.5 53.5q-33 -33 -59.5 -52.5t-56.5 -19.5q-16 0 -41 10.5t-42.5 50.5t-17.5 91q0 89 61.5 168.5t135.5 105.5 q16 4 23 4.5t11 0.5q24 0 41.5 -7.5t31.5 -27.5t28 -26q8 8 23 36t32 35zM229 403q-68 -53 -99.5 -120t-40.5 -120t-11 -71.5t-2 -32.5q0 -21 2.5 -32t12.5 -17t25 -6q27 0 73 45t76 138t30 181q0 17 -15 29t-33 12q-10 0 -18 -6z" />
<glyph unicode="r" horiz-adv-x="373" d="M367 379q4 -12 4 -27q0 -31 -16 -44.5t-25 -18t-19 -4.5t-19.5 6t-9.5 23q0 7 2.5 15.5t6 19t20.5 25.5t14 23q-5 9 -19 9q-9 0 -32.5 -34t-50 -94t-51 -137t-45.5 -146l-77 -2l105 339q3 9 3.5 18t1.5 14q0 32 -21 28q-37 -5 -75.5 -79.5t-48.5 -86.5q17 57 46 110.5 t50 64t33 10.5q20 0 37 -9.5t22.5 -34.5t5.5 -48l-2 -36q21 43 44.5 91t60.5 48q19 0 34 -11.5t21 -31.5z" />
<glyph unicode="s" horiz-adv-x="394" d="M363 357q6 -12 6 -26q0 -38 -20 -43t-24 -5q-33 0 -43 29q-7 19 24 35t27 31q-24 32 -75 32h-12q-8 -2 -27 -4t-42 -14.5t-27 -31t-4 -27.5q0 -42 78 -77.5t90.5 -66.5t12.5 -52q0 -25 -11 -47.5t-35 -46t-57 -36t-71 -12.5q-28 0 -71 11t-52.5 42.5t-9.5 43.5 q0 25 12.5 42.5t34.5 17.5t34 -4t15 -17t3 -18q0 -16 -10 -27t-23 -9.5t-18.5 -1.5t-14.5 -9q0 -21 12.5 -32.5t33.5 -19.5q27 -8 53 -8q41 0 67 13.5t39 30.5t16 30.5t3 21.5q0 21 -13 38t-45.5 34t-74.5 39q-47 31 -47 74q0 47 30.5 82t67 44t60.5 9q37 0 65.5 -16 t42.5 -49z" />
<glyph unicode="t" horiz-adv-x="274" d="M229 582l-48 -166h83v-14h-87l-107 -358q-4 -15 7.5 -26.5t24.5 -8.5q48 15 69 49.5t56 115.5q-7 -53 -35.5 -102t-57.5 -63.5t-42 -14.5q-25 0 -40.5 17t-22.5 36t-7 40q0 16 3 30t16.5 55.5t31 102t35.5 127.5h-74v14h79l49 161q12 -2 34.5 2t32.5 3z" />
<glyph unicode="u" horiz-adv-x="488" d="M444 425q-54 -190 -108 -379q-1 -11 9 -19t23 -8q6 0 24.5 11t42.5 59q18 41 37 83h14q-45 -106 -62.5 -136.5t-64.5 -30.5q-31 0 -41.5 11.5t-15.5 31.5t-6 40.5t-1 35.5v16v8q-7 -7 -52 -78.5t-83 -71.5q-5 0 -26 5t-37 33.5t-16 66.5q0 12 2.5 39t39 126.5t39.5 117.5 q3 8 -3.5 13.5t-9.5 7.5q-50 -15 -83 -78t-43 -75h-9q34 72 67 119.5t71 47.5q9 0 26 -6.5t25 -27t8 -53.5q0 -29 -38.5 -124.5t-38.5 -146.5q0 -16 2 -31.5t22 -15.5q26 0 44.5 25t39.5 60t45 85t43 106t37 127q5 2 17 2q8 0 17 -1l18 -2q14 0 25 7z" />
<glyph unicode="v" horiz-adv-x="429" d="M400 382q2 -13 3 -31.5t1 -33.5q0 -96 -41 -176t-94.5 -110.5t-72.5 -30.5q-27 0 -55.5 17t-41.5 42.5t-13 56.5q0 37 35.5 131t35.5 145q0 4 -14 4q-9 0 -16 -2t-26.5 -11t-88.5 -138l-9 1q26 53 53 106q37 60 85 60q11 0 29.5 -4t29 -23.5t10.5 -47.5v-14l-66 -256 q0 -16 1.5 -27t15.5 -19t31 -8q21 0 68 25.5t88 103t41 165.5q0 33 -6 65q-17 -26 -29 -39t-23 -13q-3 0 -9 2q-20 11 -20 42q0 14 4.5 25.5t13 20t20 10.5t16.5 2q17 0 29 -10t15 -30z" />
<glyph unicode="w" horiz-adv-x="613" d="M592 378q3 -26 3 -49q0 -181 -88.5 -257t-127.5 -76q-24 0 -45 13t-34.5 34t-13.5 50v33.5t1 24.5q-34 -72 -63 -113t-75 -41q-14 0 -36 8t-31.5 36t-9.5 68q0 51 47.5 148t47.5 134q0 13 -12 13q-8 0 -17 -4.5t-29.5 -18.5t-46.5 -52.5t-56 -84.5q34 73 57 109t50.5 50 t39.5 14q19 0 34.5 -10.5t18 -22.5t3.5 -25t1 -24q0 -54 -44.5 -160t-44.5 -151q0 -7 9 -11t20 -4q17 0 43.5 19.5t59.5 83.5t61 147t53 158q11 0 21.5 -0.5t20.5 -0.5h18q9 3 13 4q-12 -47 -58 -169t-46 -216q0 -11 15 -19t34 -8q20 0 67.5 32.5t89.5 117.5t42 184 q0 11 -8 16q-12 -14 -23 -28q-15 -15 -29 -15q-6 0 -14.5 4t-12.5 14.5t-4 24.5t2 20.5t6.5 25.5t38.5 19q19 0 34.5 -12.5t17.5 -32.5z" />
<glyph unicode="x" horiz-adv-x="509" d="M492 379q11 -22 11 -40q0 -19 -10.5 -34.5t-20.5 -24t-23 -8.5q-4 0 -12.5 2.5t-14 9t-9.5 15t-4 14.5q0 15 25 37t25 33q0 14 -13 24.5t-20 10.5q-15 0 -32 -17.5t-45 -69.5t-48.5 -113.5t-20.5 -132.5q0 -10 1 -21.5t1 -18.5q0 -12 11 -22t22 -8q61 12 101 65 q40 68 60 98q-17 -65 -58.5 -115t-102.5 -60q-24 -4 -40.5 9.5t-27.5 40.5l-13 45l-64 -62q-42 -36 -80 -36q-11 0 -25 3q-45 13 -49.5 38t-4.5 33q0 23 11.5 41t24.5 27t22 9q20 0 29 -16.5t9 -27.5q0 -18 -15 -39.5t-31 -44.5q0 -8 10 -12t22 -4q40 0 72 64t51.5 105.5 t34.5 83t15 80.5q0 19 -4 36t-15 23t-25 6q-9 0 -35.5 -10.5t-61 -54t-64.5 -81.5q40 74 71.5 112.5t89.5 44.5q45 0 56 -20t15.5 -36t13.5 -21q22 25 45 51q27 25 46 29.5t27 4.5q22 0 39.5 -11.5t27.5 -33.5z" />
<glyph unicode="y" horiz-adv-x="448" d="M447 419l-140 -466q-18 -58 -81.5 -88.5t-151.5 -30.5q-34 0 -56.5 10.5t-26.5 37.5q-3 21 6.5 37.5t26.5 27t30 10.5q25 0 38 -34q4 -11 -11 -35.5t-15 -30.5q0 -12 13.5 -13t25.5 -1q42 0 76.5 20t47.5 63.5t32.5 106.5t27.5 98q-43 -59 -77 -100t-73 -41 q-13 0 -31 6.5t-30 30t-12 55.5v15q0 53 48 148t48 136v12q0 14 -21 14q-19 0 -38.5 -18t-46.5 -60.5t-51 -81.5q10 54 45 106t60.5 59.5t34.5 7.5q18 0 33 -11t20.5 -25.5t9 -29t3.5 -34.5q0 -51 -45 -137t-45 -133q0 -21 4.5 -36t17.5 -15q15 0 48 30.5t70.5 94.5t62 132 t53.5 165h15q14 0 28.5 -0.5t26.5 -1.5z" />
<glyph unicode="z" horiz-adv-x="372" d="M342 366q1 4 1 12q0 7 -2.5 21.5t-2.5 17.5q8 4 14 4t10 -4q3 -14 3 -26q0 -55 -43 -97t-69 -61t-105.5 -55.5t-106.5 -79.5h14q27 0 88 -16t90 -16q34 0 58.5 16t40.5 56l13 29q0 -49 -36.5 -97.5t-70 -59.5t-41.5 -11q-31 0 -74.5 41.5t-60.5 41.5q-16 0 -30 -17 q-6 -7 3.5 -23.5t5.5 -23.5q-5 -7 -16 -7q-8 0 -10 9.5t-2 21.5q0 43 28.5 83t67.5 66t115.5 64t113.5 85q-13 -4 -30 -4q-22 0 -75 12t-68 12q-27 0 -48 -11.5t-37 -42.5q-6 -16 -10 -26t-13 -15q19 57 51 102.5t85 57.5q23 5 77.5 -35.5t56.5 -40.5q11 0 15 17z" />
<glyph unicode="~" horiz-adv-x="408" d="M29 472q0 56 29.5 90.5t77.5 34.5q22 0 70 -38t76 -34q36 4 57.5 17t44.5 45q-16 -59 -35.5 -89.5t-46.5 -36.5t-31 -6q-24 0 -67.5 42t-72.5 42q-37 0 -55 -11.5t-47 -55.5z" />
<glyph unicode="&#xa1;" horiz-adv-x="268" d="M19 14q-3 14 -3 27q0 39 10.5 63t59 117t96.5 240h8q-18 -55 -27.5 -112t-23.5 -153t-23 -134t-22 -53.5t-33 -15.5q-16 0 -28 4.5t-14 16.5zM219 556q-20 0 -33.5 13.5t-13.5 33.5t13.5 33.5t33.5 13.5t33 -13t13 -34q0 -19 -13 -33t-33 -14z" />
<glyph unicode="&#xa2;" horiz-adv-x="267" d="M191 575q24 -13 36 -22.5t15.5 -26t3.5 -20.5q0 -33 -15.5 -37t-19 -4h-4.5q-21 0 -26 19q-3 14 5.5 29.5t19.5 32.5q0 7 -11.5 10.5t-18.5 3.5q-34 0 -55.5 -49t-32.5 -75t-18 -47.5t-7 -43.5q0 -28 12.5 -47.5t29.5 -19.5q11 0 23.5 5.5t26.5 13.5q22 15 40.5 41 t34.5 49q-8 -42 -45 -75.5t-83 -49.5q-6 -20 -9.5 -34t-22.5 -24q5 15 7.5 27.5t5.5 34.5q-31 15 -46.5 43t-15.5 65q0 14 5 46.5t47 83.5t99 69l23 72h10z" />
<glyph unicode="&#xa5;" horiz-adv-x="420" d="M657 636h-24q-25 0 -49.5 -11.5t-51.5 -47.5l-228 -306l-56 -232q-3 -16 15.5 -22t47.5 -6h19.5t15.5 1q0 -4 0.5 -6.5t-0.5 -6.5h-294q-1 6 -1 9.5t1 3.5q55 0 84 12.5t37 46.5l58 221l-109 314q-6 18 -23 24.5t-37 6.5q-17 -1 -21 -1q-1 3 -1.5 5.5t2.5 7.5l267 1 q5 -5 5 -10t-4 -6h-19.5h-24.5q-27 0 -42 -3.5t-11 -15.5l100 -289l172 233q19 26 19 44q0 19 -19.5 25t-50.5 6h-37q-3 1 -2 5l2 8l259 1q2 -4 3 -7.5t-2 -4.5zM376 232h-249q10 6 14.5 15.5t6.5 14.5h248q-13 -5 -15.5 -14.5t-4.5 -15.5zM359 168h-249q10 6 14.5 15.5 t6.5 14.5h247q-10 -4 -13 -12.5t-6 -17.5z" />
<glyph unicode="&#xa8;" horiz-adv-x="345" d="M102 601q20 0 35 -14t15 -35q0 -20 -15 -35t-35 -15q-21 0 -35.5 14.5t-14.5 35.5t14 35t36 14zM252 601q21 0 35.5 -14.5t14.5 -34.5q0 -21 -14.5 -35.5t-35.5 -14.5t-35 14t-14 36q0 21 14 35t35 14z" />
<glyph unicode="&#xa9;" horiz-adv-x="666" d="M439 627q106 0 172 -64t66 -165q0 -37 -23 -123t-138 -176.5t-243 -90.5q-106 0 -172 64t-66 164q0 37 23 123.5t137.5 177t243.5 90.5zM65 317q-10 -37 -10 -75q0 -94 62 -154t161 -60q119 0 227.5 84.5t129.5 163t21 116.5q0 94 -62 155t-160 61q-121 0 -229 -85 t-140 -206zM488 496q14 2 27 20.5t22 21.5q-8 -34 -18.5 -80.5t-30.5 -100.5q-2 -1 -4 1.5t-3 4.5q0 70 -8.5 112t-33 50t-37.5 8q-14 0 -47.5 -20.5t-51 -58.5t-41.5 -110.5t-28.5 -92.5t-4.5 -41q0 -22 6.5 -38.5t27 -35t52.5 -18.5q22 0 49.5 16.5t49.5 47t49 80.5h8 q-10 -25 -18.5 -44.5t-41 -65.5t-95.5 -46q-18 0 -46 8.5t-52 38.5t-29 58t-5 51q0 77 41 147.5t91.5 101t92.5 30.5q15 0 27.5 -4t28 -20t23.5 -21z" />
<glyph unicode="&#xaa;" horiz-adv-x="413" d="M152 406h239v-9h-240zM316 627l11 27h35q-6 -29 -29.5 -105t-23.5 -109q0 -5 8 -5q6 0 18.5 11t25.5 34t25 44q-11 -32 -26.5 -58t-30 -33.5t-18.5 -7.5q-10 0 -16 5.5t-11.5 13.5t-5.5 24v10t1 7q-37 -44 -49.5 -54t-29.5 -10q-4 0 -15.5 3.5t-20 17.5t-10.5 25.5 t-2 23.5q0 36 18 70t41.5 57t34 29.5t27.5 8.5q15 0 26 -8t17 -21zM251 636q-30 -35 -46.5 -84t-16.5 -96q0 -14 8 -22t16 -4q16 8 30 22.5t29.5 39.5t27 52.5t11.5 51.5q0 23 -9.5 37.5t-23.5 14.5q-16 0 -26 -12z" />
<glyph unicode="&#xad;" d="M294 307h-254q9 14 13.5 31.5t7.5 33.5h253q-13 -11 -15.5 -32.5t-4.5 -32.5z" />
<glyph unicode="&#xae;" horiz-adv-x="648" d="M427 627q106 0 172 -64t66 -165q0 -37 -23 -123t-137.5 -176.5t-242.5 -90.5q-106 0 -172.5 64.5t-66.5 165.5q0 37 22.5 122t138 176t243.5 91zM53 317q-10 -37 -10 -75q0 -94 62 -154t162 -60q120 0 227.5 84.5t128.5 163t21 116.5q0 94 -61 155t-161 61 q-120 0 -228.5 -85t-140.5 -206zM167 144l1 5q11 -2 27 3.5t23 27.5l87 318q4 15 -15 17.5t-30 2.5h-11q1 6 0 8q7 -1 16.5 -1h20.5h57h52t52 -3.5t58 -25t27 -54.5q0 -29 -14.5 -47t-36.5 -31t-39 -16t-33 -6q3 -2 24.5 -15t24.5 -28.5t3 -29.5q0 -23 -10.5 -53.5 t-10.5 -39.5q0 -7 2.5 -13t11.5 -6q7 0 21.5 6t26 28t27.5 62l3 -1q-15 -42 -31.5 -69.5t-36 -34t-26.5 -6.5q-20 0 -32.5 17.5t-12.5 39.5q0 19 12 51t12 45q0 14 -9.5 24.5t-23 15t-33.5 4.5h-18q-12 -2 -17 -2l-40 -155q-1 -4 -1 -10q0 -14 11 -19t28 -5q13 1 15 1v-5 h-162zM366 518l-45 -166q9 0 18 -0.5t18 -0.5q31 0 54.5 5.5t39 22t23 34t7.5 36.5q0 13 -6.5 29t-28.5 28.5t-60 12.5h-11.5t-8.5 -1z" />
<glyph unicode="&#xb0;" horiz-adv-x="228" d="M147 646q30 0 48.5 -18.5t18.5 -48.5q0 -10 -7 -34t-38.5 -48.5t-68.5 -24.5q-29 0 -48 18t-19 45q0 11 6 35.5t38.5 50t69.5 25.5zM57 558q-3 -9 -3 -18q0 -20 13.5 -32.5t35.5 -12.5q27 0 50.5 18t31.5 45q2 12 2 16q0 21 -13.5 34.5t-36.5 13.5q-27 0 -50 -18t-30 -46 z" />
<glyph unicode="&#xb4;" horiz-adv-x="413" d="M146 498q59 40 117.5 82.5t52.5 53.5q2 -10 3.5 -25t1.5 -25q0 -22 -5 -32z" />
<glyph unicode="&#xb6;" horiz-adv-x="537" d="M418 12h49l-3 -13l-352 1l2 11l102 1l81 307q-25 0 -67 -1.5t-43 -1.5q-49 0 -82.5 8t-60 41t-26.5 80q0 30 25 94t126.5 93t273.5 29q33 0 106 -1t112 -1l-4 -12h-67zM147 587q-27 -47 -42 -93.5t-15 -83.5q0 -25 8.5 -45t36.5 -29.5t66 -9.5q20 0 48 2.5t53 5.5l84 314 h-26.5t-23.5 1q-64 0 -115.5 -12.5t-73.5 -49.5zM507 647h-38l-173 -632l41 -3z" />
<glyph unicode="&#xba;" horiz-adv-x="360" d="M134 406h239v-9h-240zM337 622q14 -27 14 -58q0 -40 -25.5 -75.5t-47 -52t-52.5 -13.5q-37 0 -53 29.5t-16 61.5q0 35 19 67.5t44.5 53.5t57.5 21q11 0 28.5 -4.5t30.5 -29.5zM280 649q-31 -10 -43 -33.5t-28 -65.5t-18.5 -51.5t-2.5 -22.5q0 -28 14 -37t24 -9 q23 0 34 15q29 47 44 81t15 66q0 16 -4 31.5t-14.5 22t-20.5 3.5z" />
<glyph unicode="&#xbf;" horiz-adv-x="403" d="M33 96q-15 26 -15 57q0 27 10.5 53.5t31 61.5t112 87t106 75.5t14.5 34.5q0 24 -14 29.5t-21 5.5q-20 0 -33.5 -18.5t-21.5 -30.5q2 15 12.5 30t22.5 23.5t24 8.5q15 0 28.5 -10t17.5 -24t4 -29q0 -48 -54.5 -102t-106.5 -105q-57 -64 -57 -126v-15.5t5 -27t22.5 -35.5 t39.5 -21t33 -8t26 -2q56 0 95.5 41t39.5 91q0 18 -8 36q-8 -6 -15.5 -11t-21.5 -5q-12 0 -26 7q-24 15 -24 42q0 8 4.5 19t18 18t29.5 7q13 0 19.5 -2t20 -6.5t23.5 -27.5t10 -56v-10q0 -46 -28.5 -81.5t-72.5 -53.5q-39 -18 -80 -18q-52 0 -98.5 26t-71.5 72zM310 555 q-20 0 -33.5 13.5t-13.5 33.5t14 34t33 14q20 0 34 -14t14 -34q0 -19 -14 -33t-34 -14z" />
<glyph unicode="&#xc0;" horiz-adv-x="636" d="M10 0zM533 650l-2 -619q0 -10 24 -13q32 -2 65 -4q3 -1 2 -5t-2 -7l-286 -1q-2 11 3 11q14 -1 25 -1q35 0 56.5 5.5t21.5 22.5v176l-173 3l-94 -166q-4 -7 -4 -13q0 -16 24 -21.5t58 -5.5h16l-1 -13l-256 1q0 11 2 11q8 -2 20 -2q33 0 63.5 9.5t59 57t92 152.5 t153.5 255.5t98 166.5q1 4 12 4q6 0 12 -1t11 -3zM442 513l-165 -271h163q0 33 3.5 124t3.5 137zM407 726q-3 6 -4 18t-1 15q0 20 1.5 31.5t3.5 17.5q-6 -11 52 -53t118 -83z" />
<glyph unicode="&#xc1;" horiz-adv-x="630" d="M10 0zM533 650l-2 -619q0 -10 24 -13q32 -2 65 -4q3 -1 2 -5t-2 -7l-286 -1q-2 11 3 11q14 -1 25 -1q35 0 56.5 5.5t21.5 22.5v176l-173 3l-94 -166q-4 -7 -4 -13q0 -16 24 -21.5t58 -5.5h16l-1 -13l-256 1q0 11 2 11q8 -2 20 -2q33 0 63.5 9.5t59 57t92 152.5 t153.5 255.5t98 166.5q1 4 12 4q6 0 12 -1t11 -3zM442 513l-165 -271h163q0 33 3.5 124t3.5 137zM408 667q59 40 117.5 82.5t52.5 53.5q2 -10 3.5 -25t1.5 -25q0 -22 -5 -32z" />
<glyph unicode="&#xc2;" horiz-adv-x="630" d="M10 0zM533 650l-2 -619q0 -10 24 -13q32 -2 65 -4q3 -1 2 -5t-2 -7l-286 -1q-2 11 3 11q14 -1 25 -1q35 0 56.5 5.5t21.5 22.5v176l-173 3l-94 -166q-4 -7 -4 -13q0 -16 24 -21.5t58 -5.5h16l-1 -13l-256 1q0 11 2 11q8 -2 20 -2q33 0 63.5 9.5t59 57t92 152.5 t153.5 255.5t98 166.5q1 4 12 4q6 0 12 -1t11 -3zM442 513l-165 -271h163q0 33 3.5 124t3.5 137zM381 665l140 146l127 -146h-82l-74 92l-87 -92h-24z" />
<glyph unicode="&#xc3;" horiz-adv-x="642" d="M10 0zM533 650l-2 -619q0 -10 24 -13q32 -2 65 -4q3 -1 2 -5t-2 -7l-286 -1q-2 11 3 11q14 -1 25 -1q35 0 56.5 5.5t21.5 22.5v176l-173 3l-94 -166q-4 -7 -4 -13q0 -16 24 -21.5t58 -5.5h16l-1 -13l-256 1q0 11 2 11q8 -2 20 -2q33 0 63.5 9.5t59 57t92 152.5 t153.5 255.5t98 166.5q1 4 12 4q6 0 12 -1t11 -3zM442 513l-165 -271h163q0 33 3.5 124t3.5 137zM332 681q0 56 29.5 90.5t77.5 34.5q22 0 70 -38t76 -34q36 4 57.5 17t44.5 45q-16 -59 -35.5 -89.5t-46.5 -36.5t-31 -6q-24 0 -67.5 42t-72.5 42q-37 0 -55 -11.5t-47 -55.5z " />
<glyph unicode="&#xc4;" horiz-adv-x="636" d="M10 0zM533 650l-2 -619q0 -10 24 -13q32 -2 65 -4q3 -1 2 -5t-2 -7l-286 -1q-2 11 3 11q14 -1 25 -1q35 0 56.5 5.5t21.5 22.5v176l-173 3l-94 -166q-4 -7 -4 -13q0 -16 24 -21.5t58 -5.5h16l-1 -13l-256 1q0 11 2 11q8 -2 20 -2q33 0 63.5 9.5t59 57t92 152.5 t153.5 255.5t98 166.5q1 4 12 4q6 0 12 -1t11 -3zM442 513l-165 -271h163q0 33 3.5 124t3.5 137zM451 781q20 0 35 -14t15 -35q0 -20 -15 -35t-35 -15q-21 0 -35.5 14.5t-14.5 35.5t14 35t36 14zM601 781q21 0 35.5 -14.5t14.5 -34.5q0 -21 -14.5 -35.5t-35.5 -14.5t-35 14 t-14 36q0 21 14 35t35 14z" />
<glyph unicode="&#xc5;" horiz-adv-x="636" d="M10 0zM533 650l-2 -619q0 -10 24 -13q32 -2 65 -4q3 -1 2 -5t-2 -7l-286 -1q-2 11 3 11q14 -1 25 -1q35 0 56.5 5.5t21.5 22.5v176l-173 3l-94 -166q-4 -7 -4 -13q0 -16 24 -21.5t58 -5.5h16l-1 -13l-256 1q0 11 2 11q8 -2 20 -2q33 0 63.5 9.5t59 57t92 152.5 t153.5 255.5t98 166.5q1 4 12 4q6 0 12 -1t11 -3zM442 513l-165 -271h163q0 33 3.5 124t3.5 137zM549 815q30 0 48.5 -18.5t18.5 -48.5q0 -10 -7 -34t-38.5 -48.5t-68.5 -24.5q-29 0 -48 18t-19 45q0 11 6 35.5t38.5 50t69.5 25.5zM459 727q-3 -9 -3 -18q0 -20 13.5 -32.5 t35.5 -12.5q27 0 50.5 18t31.5 45q2 12 2 16q0 21 -13.5 34.5t-36.5 13.5q-27 0 -50 -18t-30 -46z" />
<glyph unicode="&#xc6;" horiz-adv-x="858" d="M442 513l-165 -271h163q0 37 20 118.5t41 165.5t21 117zM956 650q6 -2 6 -21q0 -47 -29 -145.5t-41 -96.5q2 9 4.5 31.5t2.5 56.5q0 41 -7 73t-26 51t-45 26t-61 7q-23 0 -44.5 -1t-42.5 -2q-12 0 -20.5 -10.5t-11.5 -22.5l-67 -242q-1 -5 2 -8t18 -3q28 0 67 15t54 35 t35 48.5t28 61.5h8q-46 -178 -96 -339h-8q5 26 8 46t3 37q0 26 -10 43t-34.5 29t-49.5 12q-35 0 -42 -29l-25 -103l-1 -168q0 -9 26.5 -12.5t61.5 -3.5q29 1 32 1q72 6 128 83q45 81 91 162q4 0 4 -16q0 -47 -28 -146t-46 -99h-508v11q3 -1 14 -1q31 0 62.5 12t38.5 37 l33 120v36l-173 3l-94 -166q-4 -7 -4 -13q0 -16 24 -21.5t58 -5.5h16l-1 -13l-256 1l2 11q8 -2 20 -2q33 0 63.5 9.5t57.5 53.5t85.5 141t138 229.5t114.5 194.5h-29q-1 3 -1 6t2 9h152h212.5t128.5 -2z" />
<glyph unicode="&#xc7;" horiz-adv-x="490" d="M239 -5q-4 -31 -26 -47.5t-42 -19.5t-39 -6q31 15 44.5 35t13.5 41q-4 0 -11.5 2.5t-10.5 2.5q-54 17 -90.5 64t-43 88.5t-7 54.5t-0.5 20q0 116 62.5 224t121.5 144t92 45.5t61 9.5q22 0 42 -6t44.5 -30.5t36.5 -31.5q21 3 40.5 31t33.5 33q-28 -121 -38.5 -163 t-35.5 -111q-11 0 -11 10q0 105 -13 168t-50 75.5t-54 12.5q-23 0 -75 -31t-77.5 -87t-62.5 -168.5t-43.5 -141.5t-6.5 -60q0 -32 10.5 -58.5t41.5 -54t78 -27.5q34 0 76 26t76.5 73.5t72.5 119.5h11q-15 -44 -29.5 -72.5t-44 -70t-67 -66t-80.5 -28.5z" />
<glyph unicode="&#xc8;" horiz-adv-x="618" d="M11 0zM676 650q6 -2 6 -21q0 -47 -29 -145.5t-41 -96.5q2 9 4.5 31.5t2.5 56.5q0 41 -7 73t-26 51t-45 26t-61 7q-23 0 -44.5 -1t-42.5 -2q-13 -1 -21 -10.5t-11 -22.5l-67 -242q-1 -5 2 -8t18 -3q28 0 67 15t54 35t35 48.5t28 61.5h8q-46 -178 -96 -339h-8q5 26 8 46 t3 37q0 26 -10 43t-34.5 29t-49.5 12q-35 0 -42 -29l-60 -241q-1 -3 -1 -6.5v-4.5q0 -21 24 -29.5t61 -8.5q18 0 39 1.5t62 5t97 80.5q45 81 91 162q4 0 4 -16q0 -47 -28 -146t-46 -99h-140.5h-187h-180.5q-1 2 -1 4.5t1 6.5q3 -1 14 -1q31 0 62.5 12t38.5 37l150 550 q5 20 -39 25q-28 1 -56 3q-1 3 -1 6t2 9h96h146h164.5t86.5 -2zM360 721q-3 6 -4 18t-1 15q0 20 1.5 31.5t3.5 17.5q-6 -11 52 -53t118 -83z" />
<glyph unicode="&#xc9;" horiz-adv-x="595" d="M11 0zM676 650q6 -2 6 -21q0 -47 -29 -145.5t-41 -96.5q2 9 4.5 31.5t2.5 56.5q0 41 -7 73t-26 51t-45 26t-61 7q-23 0 -44.5 -1t-42.5 -2q-13 -1 -21 -10.5t-11 -22.5l-67 -242q-1 -5 2 -8t18 -3q28 0 67 15t54 35t35 48.5t28 61.5h8q-46 -178 -96 -339h-8q5 26 8 46 t3 37q0 26 -10 43t-34.5 29t-49.5 12q-35 0 -42 -29l-60 -241q-1 -3 -1 -6.5v-4.5q0 -21 24 -29.5t61 -8.5q18 0 39 1.5t62 5t97 80.5q45 81 91 162q4 0 4 -16q0 -47 -28 -146t-46 -99h-140.5h-187h-180.5q-1 2 -1 4.5t1 6.5q3 -1 14 -1q31 0 62.5 12t38.5 37l150 550 q5 20 -39 25q-28 1 -56 3q-1 3 -1 6t2 9h96h146h164.5t86.5 -2zM332 667q59 40 117.5 82.5t52.5 53.5q2 -10 3.5 -25t1.5 -25q0 -22 -5 -32z" />
<glyph unicode="&#xca;" horiz-adv-x="618" d="M11 0zM676 650q6 -2 6 -21q0 -47 -29 -145.5t-41 -96.5q2 9 4.5 31.5t2.5 56.5q0 41 -7 73t-26 51t-45 26t-61 7q-23 0 -44.5 -1t-42.5 -2q-13 -1 -21 -10.5t-11 -22.5l-67 -242q-1 -5 2 -8t18 -3q28 0 67 15t54 35t35 48.5t28 61.5h8q-46 -178 -96 -339h-8q5 26 8 46 t3 37q0 26 -10 43t-34.5 29t-49.5 12q-35 0 -42 -29l-60 -241q-1 -3 -1 -6.5v-4.5q0 -21 24 -29.5t61 -8.5q18 0 39 1.5t62 5t97 80.5q45 81 91 162q4 0 4 -16q0 -47 -28 -146t-46 -99h-140.5h-187h-180.5q-1 2 -1 4.5t1 6.5q3 -1 14 -1q31 0 62.5 12t38.5 37l150 550 q5 20 -39 25q-28 1 -56 3q-1 3 -1 6t2 9h96h146h164.5t86.5 -2zM328 660l140 146l127 -146h-82l-74 92l-87 -92h-24z" />
<glyph unicode="&#xcb;" horiz-adv-x="624" d="M11 0zM676 650q6 -2 6 -21q0 -47 -29 -145.5t-41 -96.5q2 9 4.5 31.5t2.5 56.5q0 41 -7 73t-26 51t-45 26t-61 7q-23 0 -44.5 -1t-42.5 -2q-13 -1 -21 -10.5t-11 -22.5l-67 -242q-1 -5 2 -8t18 -3q28 0 67 15t54 35t35 48.5t28 61.5h8q-46 -178 -96 -339h-8q5 26 8 46 t3 37q0 26 -10 43t-34.5 29t-49.5 12q-35 0 -42 -29l-60 -241q-1 -3 -1 -6.5v-4.5q0 -21 24 -29.5t61 -8.5q18 0 39 1.5t62 5t97 80.5q45 81 91 162q4 0 4 -16q0 -47 -28 -146t-46 -99h-140.5h-187h-180.5q-1 2 -1 4.5t1 6.5q3 -1 14 -1q31 0 62.5 12t38.5 37l150 550 q5 20 -39 25q-28 1 -56 3q-1 3 -1 6t2 9h96h146h164.5t86.5 -2zM376 781q20 0 35 -14t15 -35q0 -20 -15 -35t-35 -15q-21 0 -35.5 14.5t-14.5 35.5t14 35t36 14zM526 781q21 0 35.5 -14.5t14.5 -34.5q0 -21 -14.5 -35.5t-35.5 -14.5t-35 14t-14 36q0 21 14 35t35 14z" />
<glyph unicode="&#xcc;" d="M19 0zM484 650q2 -4 2.5 -8t-2.5 -5h-12t-13 1q-32 0 -55 -8t-30 -32l-154 -546q-1 -4 -1 -10q0 -18 19 -24.5t45 -6.5h14q-1 -6 -2 -11l-275 -1q-1 6 -1 9.5t1 3.5q3 -1 19 -1q33 0 60 9t33 32l164 550q5 20 -11.5 27t-45.5 7h-32q-2 0 -4.5 2t4.5 11zM272 726 q-3 6 -4 18t-1 15q0 20 1.5 31.5t3.5 17.5q-6 -11 52 -53t118 -83z" />
<glyph unicode="&#xcd;" horiz-adv-x="356" d="M19 0zM484 650q2 -4 2.5 -8t-2.5 -5h-12t-13 1q-32 0 -55 -8t-30 -32l-154 -546q-1 -4 -1 -10q0 -18 19 -24.5t45 -6.5h14q-1 -6 -2 -11l-275 -1q-1 6 -1 9.5t1 3.5q3 -1 19 -1q33 0 60 9t33 32l164 550q5 20 -11.5 27t-45.5 7h-32q-2 0 -4.5 2t4.5 11zM256 667 q59 40 117.5 82.5t52.5 53.5q2 -10 3.5 -25t1.5 -25q0 -22 -5 -32z" />
<glyph unicode="&#xce;" horiz-adv-x="368" d="M19 0zM484 650q2 -4 2.5 -8t-2.5 -5h-12t-13 1q-32 0 -55 -8t-30 -32l-154 -546q-1 -4 -1 -10q0 -18 19 -24.5t45 -6.5h14q-1 -6 -2 -11l-275 -1q-1 6 -1 9.5t1 3.5q3 -1 19 -1q33 0 60 9t33 32l164 550q5 20 -11.5 27t-45.5 7h-32q-2 0 -4.5 2t4.5 11zM211 665l140 146 l127 -146h-82l-74 92l-87 -92h-24z" />
<glyph unicode="&#xcf;" horiz-adv-x="344" d="M19 0zM484 650q2 -4 2.5 -8t-2.5 -5h-12t-13 1q-32 0 -55 -8t-30 -32l-154 -546q-1 -4 -1 -10q0 -18 19 -24.5t45 -6.5h14q-1 -6 -2 -11l-275 -1q-1 6 -1 9.5t1 3.5q3 -1 19 -1q33 0 60 9t33 32l164 550q5 20 -11.5 27t-45.5 7h-32q-2 0 -4.5 2t4.5 11zM282 787 q20 0 35 -14t15 -35q0 -20 -15 -35t-35 -15q-21 0 -35.5 14.5t-14.5 35.5t14 35t36 14zM432 787q21 0 35.5 -14.5t14.5 -34.5q0 -21 -14.5 -35.5t-35.5 -14.5t-35 14t-14 36q0 21 14 35t35 14z" />
<glyph unicode="&#xd1;" horiz-adv-x="683" d="M28 0zM379 583l162 -411l104 363q6 20 6 34q0 38 -30 52.5t-65 14.5q-14 -1 -17 -1q0 6 1 13h259q-1 -6 -1 -11h-25q-30 0 -54 -11.5t-35 -48.5l-165 -577h-6l-200 531l-118 -446q-3 -14 -3 -24q0 -30 24.5 -40t56.5 -10h18q0 -6 1 -12h-264l1 12h15q37 0 69.5 17 t48.5 73l125 447q5 22 5 33q0 26 -17.5 40t-65.5 14h-32q-3 1 -2 5l2 8h39t37 1q55 0 82.5 -12t43.5 -54zM326 681q0 56 29.5 90.5t77.5 34.5q22 0 70 -38t76 -34q36 4 57.5 17t44.5 45q-16 -59 -35.5 -89.5t-46.5 -36.5t-31 -6q-24 0 -67.5 42t-72.5 42q-37 0 -55 -11.5 t-47 -55.5z" />
<glyph unicode="&#xd2;" horiz-adv-x="531" d="M41 0zM483 577q44 -77 44 -168q0 -128 -69.5 -225.5t-128 -140.5t-132.5 -43q-45 0 -81 29.5t-55.5 85t-19.5 126.5q0 99 44.5 192t105.5 141.5t91.5 62.5t66.5 14q17 0 45 -6.5t51 -23t38 -44.5zM337 633q-71 -40 -100 -87t-81 -186.5t-52 -196.5q0 -37 10.5 -69t31 -56 t50.5 -24q12 0 22 2.5t40.5 18t64.5 66t52.5 97t46 124.5t35 111.5t7.5 60.5q0 31 -8.5 59t-29 58t-58.5 30q-18 0 -31 -8zM290 721q-3 6 -4 18t-1 15q0 20 1.5 31.5t3.5 17.5q-6 -11 52 -53t118 -83z" />
<glyph unicode="&#xd3;" horiz-adv-x="525" d="M41 0zM483 577q44 -77 44 -168q0 -128 -69.5 -225.5t-128 -140.5t-132.5 -43q-45 0 -81 29.5t-55.5 85t-19.5 126.5q0 99 44.5 192t105.5 141.5t91.5 62.5t66.5 14q17 0 45 -6.5t51 -23t38 -44.5zM337 633q-71 -40 -100 -87t-81 -186.5t-52 -196.5q0 -37 10.5 -69t31 -56 t50.5 -24q12 0 22 2.5t40.5 18t64.5 66t52.5 97t46 124.5t35 111.5t7.5 60.5q0 31 -8.5 59t-29 58t-58.5 30q-18 0 -31 -8zM274 667q59 40 117.5 82.5t52.5 53.5q2 -10 3.5 -25t1.5 -25q0 -22 -5 -32z" />
<glyph unicode="&#xd4;" horiz-adv-x="531" d="M41 0zM483 577q44 -77 44 -168q0 -128 -69.5 -225.5t-128 -140.5t-132.5 -43q-45 0 -81 29.5t-55.5 85t-19.5 126.5q0 99 44.5 192t105.5 141.5t91.5 62.5t66.5 14q17 0 45 -6.5t51 -23t38 -44.5zM337 633q-71 -40 -100 -87t-81 -186.5t-52 -196.5q0 -37 10.5 -69t31 -56 t50.5 -24q12 0 22 2.5t40.5 18t64.5 66t52.5 97t46 124.5t35 111.5t7.5 60.5q0 31 -8.5 59t-29 58t-58.5 30q-18 0 -31 -8zM246 660l140 146l127 -146h-82l-74 92l-87 -92h-24z" />
<glyph unicode="&#xd5;" horiz-adv-x="537" d="M41 0zM186 681q0 56 29.5 90.5t77.5 34.5q22 0 70 -38t76 -34q36 4 57.5 17t44.5 45q-16 -59 -35.5 -89.5t-46.5 -36.5t-31 -6q-24 0 -67.5 42t-72.5 42q-37 0 -55 -11.5t-47 -55.5zM483 577q44 -77 44 -168q0 -128 -69.5 -225.5t-128 -140.5t-132.5 -43q-45 0 -81 29.5 t-55.5 85t-19.5 126.5q0 99 44.5 192t105.5 141.5t91.5 62.5t66.5 14q17 0 45 -6.5t51 -23t38 -44.5zM337 633q-71 -40 -100 -87t-81 -186.5t-52 -196.5q0 -37 10.5 -69t31 -56t50.5 -24q12 0 22 2.5t40.5 18t64.5 66t52.5 97t46 124.5t35 111.5t7.5 60.5q0 31 -8.5 59 t-29 58t-58.5 30q-18 0 -31 -8z" />
<glyph unicode="&#xd6;" horiz-adv-x="525" d="M41 0zM483 577q44 -77 44 -168q0 -128 -69.5 -225.5t-128 -140.5t-132.5 -43q-45 0 -81 29.5t-55.5 85t-19.5 126.5q0 99 44.5 192t105.5 141.5t91.5 62.5t66.5 14q17 0 45 -6.5t51 -23t38 -44.5zM337 633q-71 -40 -100 -87t-81 -186.5t-52 -196.5q0 -37 10.5 -69t31 -56 t50.5 -24q12 0 22 2.5t40.5 18t64.5 66t52.5 97t46 124.5t35 111.5t7.5 60.5q0 31 -8.5 59t-29 58t-58.5 30q-18 0 -31 -8zM288 793q20 0 35 -14t15 -35q0 -20 -15 -35t-35 -15q-21 0 -35.5 14.5t-14.5 35.5t14 35t36 14zM438 793q21 0 35.5 -14.5t14.5 -34.5 q0 -21 -14.5 -35.5t-35.5 -14.5t-35 14t-14 36q0 21 14 35t35 14z" />
<glyph unicode="&#xd8;" horiz-adv-x="525" d="M41 0zM483 577q44 -77 44 -168q0 -128 -69.5 -225.5t-128 -140.5t-132.5 -43q-45 0 -81 29.5t-55.5 85t-19.5 126.5q0 99 44.5 192t105.5 141.5t91.5 62.5t66.5 14q17 0 45 -6.5t51 -23t38 -44.5zM337 633q-71 -40 -100 -87t-81 -186.5t-52 -196.5q0 -37 10.5 -69t31 -56 t50.5 -24q12 0 22 2.5t40.5 18t64.5 66t52.5 97t46 124.5t35 111.5t7.5 60.5q0 31 -8.5 59t-29 58t-58.5 30q-18 0 -31 -8zM448 745q-19 -52 -98 -274.5t-111.5 -311.5t-82.5 -221q-5 -3 -10.5 -4t-12.5 -1q-15 1 -23 1l294 807q7 4 24 4h20z" />
<glyph unicode="&#xd9;" horiz-adv-x="554" d="M26 0zM656 650q2 -4 2 -6.5v-5.5q-33 0 -75.5 -7.5t-57.5 -73.5l-83 -361q-13 -60 -20.5 -79t-35.5 -52t-73.5 -51t-95.5 -18q-38 0 -74 12t-69.5 41t-40.5 47t-7 36q0 13 5 31l122 443q6 21 -33 27q-27 2 -53 4v12l259 1v-12h-29q-23 0 -38 -6.5t-21 -29.5l-132 -470 q-5 -20 -5 -36q0 -17 4.5 -28.5t32.5 -33t83 -21.5q52 0 100.5 27.5t66 56.5t32.5 100l87 405q6 27 -30 33q-41 2 -45 3t-3.5 5t0.5 7h227zM302 721q-3 6 -4 18t-1 15q0 20 1.5 31.5t3.5 17.5q-6 -11 52 -53t118 -83z" />
<glyph unicode="&#xda;" horiz-adv-x="543" d="M26 0zM656 650q2 -4 2 -6.5v-5.5q-33 0 -75.5 -7.5t-57.5 -73.5l-83 -361q-13 -60 -20.5 -79t-35.5 -52t-73.5 -51t-95.5 -18q-38 0 -74 12t-69.5 41t-40.5 47t-7 36q0 13 5 31l122 443q6 21 -33 27q-27 2 -53 4v12l259 1v-12h-29q-23 0 -38 -6.5t-21 -29.5l-132 -470 q-5 -20 -5 -36q0 -17 4.5 -28.5t32.5 -33t83 -21.5q52 0 100.5 27.5t66 56.5t32.5 100l87 405q6 27 -30 33q-41 2 -45 3t-3.5 5t0.5 7h227zM274 667q59 40 117.5 82.5t52.5 53.5q2 -10 3.5 -25t1.5 -25q0 -22 -5 -32z" />
<glyph unicode="&#xdb;" horiz-adv-x="531" d="M26 0zM656 650q2 -4 2 -6.5v-5.5q-33 0 -75.5 -7.5t-57.5 -73.5l-83 -361q-13 -60 -20.5 -79t-35.5 -52t-73.5 -51t-95.5 -18q-38 0 -74 12t-69.5 41t-40.5 47t-7 36q0 13 5 31l122 443q6 21 -33 27q-27 2 -53 4v12l259 1v-12h-29q-23 0 -38 -6.5t-21 -29.5l-132 -470 q-5 -20 -5 -36q0 -17 4.5 -28.5t32.5 -33t83 -21.5q52 0 100.5 27.5t66 56.5t32.5 100l87 405q6 27 -30 33q-41 2 -45 3t-3.5 5t0.5 7h227zM246 660l140 146l127 -146h-82l-74 92l-87 -92h-24z" />
<glyph unicode="&#xdc;" horiz-adv-x="578" d="M26 0zM656 650q2 -4 2 -6.5v-5.5q-33 0 -75.5 -7.5t-57.5 -73.5l-83 -361q-13 -60 -20.5 -79t-35.5 -52t-73.5 -51t-95.5 -18q-38 0 -74 12t-69.5 41t-40.5 47t-7 36q0 13 5 31l122 443q6 21 -33 27q-27 2 -53 4v12l259 1v-12h-29q-23 0 -38 -6.5t-21 -29.5l-132 -470 q-5 -20 -5 -36q0 -17 4.5 -28.5t32.5 -33t83 -21.5q52 0 100.5 27.5t66 56.5t32.5 100l87 405q6 27 -30 33q-41 2 -45 3t-3.5 5t0.5 7h227zM300 787q20 0 35 -14t15 -35q0 -20 -15 -35t-35 -15q-21 0 -35.5 14.5t-14.5 35.5t14 35t36 14zM450 787q21 0 35.5 -14.5 t14.5 -34.5q0 -21 -14.5 -35.5t-35.5 -14.5t-35 14t-14 36q0 21 14 35t35 14z" />
<glyph unicode="&#xe0;" horiz-adv-x="449" d="M23 0zM326 370q5 13 9 23.5t12 25.5l65 1q-11 -52 -39.5 -144.5t-44 -150.5t-15.5 -100q0 -10 13 -10q15 0 37.5 21t47 63.5t45.5 80.5q-20 -58 -49.5 -107t-54 -62t-34.5 -13q-14 0 -28 9.5t-22 21t-10 22.5t-2 24q0 20 0.5 24.5t2.5 8.5q-39 -48 -70.5 -83t-77.5 -35 q-10 0 -30 6.5t-34 30.5t-19 49.5t-5 41.5q0 65 34.5 129.5t78.5 106.5t62 53t50 15q27 0 46 -13.5t32 -38.5zM206 386q-57 -67 -86 -155t-29 -179q0 -23 9.5 -35.5t24.5 -12.5q3 0 20.5 8t44.5 36.5t56.5 75t49.5 96t20 92.5q0 42 -17.5 68.5t-44.5 26.5q-30 0 -48 -21z M150 552q-3 6 -4 18t-1 15q0 20 1.5 31.5t3.5 17.5q-6 -11 52 -53t118 -83z" />
<glyph unicode="&#xe1;" horiz-adv-x="461" d="M23 0zM326 370q5 13 9 23.5t12 25.5l65 1q-11 -52 -39.5 -144.5t-44 -150.5t-15.5 -100q0 -10 13 -10q15 0 37.5 21t47 63.5t45.5 80.5q-20 -58 -49.5 -107t-54 -62t-34.5 -13q-14 0 -28 9.5t-22 21t-10 22.5t-2 24q0 20 0.5 24.5t2.5 8.5q-39 -48 -70.5 -83t-77.5 -35 q-10 0 -30 6.5t-34 30.5t-19 49.5t-5 41.5q0 65 34.5 129.5t78.5 106.5t62 53t50 15q27 0 46 -13.5t32 -38.5zM206 386q-57 -67 -86 -155t-29 -179q0 -23 9.5 -35.5t24.5 -12.5q3 0 20.5 8t44.5 36.5t56.5 75t49.5 96t20 92.5q0 42 -17.5 68.5t-44.5 26.5q-30 0 -48 -21z M198 498q59 40 117.5 82.5t52.5 53.5q2 -10 3.5 -25t1.5 -25q0 -22 -5 -32z" />
<glyph unicode="&#xe2;" horiz-adv-x="461" d="M23 0zM326 370q5 13 9 23.5t12 25.5l65 1q-11 -52 -39.5 -144.5t-44 -150.5t-15.5 -100q0 -10 13 -10q15 0 37.5 21t47 63.5t45.5 80.5q-20 -58 -49.5 -107t-54 -62t-34.5 -13q-14 0 -28 9.5t-22 21t-10 22.5t-2 24q0 20 0.5 24.5t2.5 8.5q-39 -48 -70.5 -83t-77.5 -35 q-10 0 -30 6.5t-34 30.5t-19 49.5t-5 41.5q0 65 34.5 129.5t78.5 106.5t62 53t50 15q27 0 46 -13.5t32 -38.5zM206 386q-57 -67 -86 -155t-29 -179q0 -23 9.5 -35.5t24.5 -12.5q3 0 20.5 8t44.5 36.5t56.5 75t49.5 96t20 92.5q0 42 -17.5 68.5t-44.5 26.5q-30 0 -48 -21z M107 491l140 146l127 -146h-82l-74 92l-87 -92h-24z" />
<glyph unicode="&#xe3;" horiz-adv-x="461" d="M23 0zM326 370q5 13 9 23.5t12 25.5l65 1q-11 -52 -39.5 -144.5t-44 -150.5t-15.5 -100q0 -10 13 -10q15 0 37.5 21t47 63.5t45.5 80.5q-20 -58 -49.5 -107t-54 -62t-34.5 -13q-14 0 -28 9.5t-22 21t-10 22.5t-2 24q0 20 0.5 24.5t2.5 8.5q-39 -48 -70.5 -83t-77.5 -35 q-10 0 -30 6.5t-34 30.5t-19 49.5t-5 41.5q0 65 34.5 129.5t78.5 106.5t62 53t50 15q27 0 46 -13.5t32 -38.5zM206 386q-57 -67 -86 -155t-29 -179q0 -23 9.5 -35.5t24.5 -12.5q3 0 20.5 8t44.5 36.5t56.5 75t49.5 96t20 92.5q0 42 -17.5 68.5t-44.5 26.5q-30 0 -48 -21z M75 472q0 56 29.5 90.5t77.5 34.5q22 0 70 -38t76 -34q36 4 57.5 17t44.5 45q-16 -59 -35.5 -89.5t-46.5 -36.5t-31 -6q-24 0 -67.5 42t-72.5 42q-37 0 -55 -11.5t-47 -55.5z" />
<glyph unicode="&#xe4;" horiz-adv-x="455" d="M23 0zM326 370q5 13 9 23.5t12 25.5l65 1q-11 -52 -39.5 -144.5t-44 -150.5t-15.5 -100q0 -10 13 -10q15 0 37.5 21t47 63.5t45.5 80.5q-20 -58 -49.5 -107t-54 -62t-34.5 -13q-14 0 -28 9.5t-22 21t-10 22.5t-2 24q0 20 0.5 24.5t2.5 8.5q-39 -48 -70.5 -83t-77.5 -35 q-10 0 -30 6.5t-34 30.5t-19 49.5t-5 41.5q0 65 34.5 129.5t78.5 106.5t62 53t50 15q27 0 46 -13.5t32 -38.5zM206 386q-57 -67 -86 -155t-29 -179q0 -23 9.5 -35.5t24.5 -12.5q3 0 20.5 8t44.5 36.5t56.5 75t49.5 96t20 92.5q0 42 -17.5 68.5t-44.5 26.5q-30 0 -48 -21z M189 601q20 0 35 -14t15 -35q0 -20 -15 -35t-35 -15q-21 0 -35.5 14.5t-14.5 35.5t14 35t36 14zM339 601q21 0 35.5 -14.5t14.5 -34.5q0 -21 -14.5 -35.5t-35.5 -14.5t-35 14t-14 36q0 21 14 35t35 14z" />
<glyph unicode="&#xe5;" horiz-adv-x="455" d="M23 0zM326 370q5 13 9 23.5t12 25.5l65 1q-11 -52 -39.5 -144.5t-44 -150.5t-15.5 -100q0 -10 13 -10q15 0 37.5 21t47 63.5t45.5 80.5q-20 -58 -49.5 -107t-54 -62t-34.5 -13q-14 0 -28 9.5t-22 21t-10 22.5t-2 24q0 20 0.5 24.5t2.5 8.5q-39 -48 -70.5 -83t-77.5 -35 q-10 0 -30 6.5t-34 30.5t-19 49.5t-5 41.5q0 65 34.5 129.5t78.5 106.5t62 53t50 15q27 0 46 -13.5t32 -38.5zM206 386q-57 -67 -86 -155t-29 -179q0 -23 9.5 -35.5t24.5 -12.5q3 0 20.5 8t44.5 36.5t56.5 75t49.5 96t20 92.5q0 42 -17.5 68.5t-44.5 26.5q-30 0 -48 -21z M345 646q30 0 48.5 -18.5t18.5 -48.5q0 -10 -7 -34t-38.5 -48.5t-68.5 -24.5q-29 0 -48 18t-19 45q0 11 6 35.5t38.5 50t69.5 25.5zM255 558q-3 -9 -3 -18q0 -20 13.5 -32.5t35.5 -12.5q27 0 50.5 18t31.5 45q2 12 2 16q0 21 -13.5 34.5t-36.5 13.5q-27 0 -50 -18t-30 -46z " />
<glyph unicode="&#xe6;" horiz-adv-x="560" d="M345 197q83 9 136 76q21 30 27.5 45.5t6.5 31.5q0 17 -7 30.5t-12.5 19t-17.5 5.5q-6 0 -22 -6t-36.5 -29.5t-33.5 -51.5t-22 -57.5t-19 -63.5zM249 127q0 21 24.5 92.5t42.5 93.5q0 41 -17.5 67.5t-44.5 26.5q-30 0 -67.5 -44t-66.5 -132t-29 -179q0 -23 9.5 -35.5 t24.5 -12.5q3 0 20.5 8t44.5 36.5t52 68.5q0 1 3 4.5t4 5.5zM452 419q30 0 46.5 -3t42 -22.5t25.5 -59.5q0 -14 -15.5 -49t-72 -61t-138.5 -42l-12.5 -37.5t-11.5 -60.5q0 -11 0.5 -26t8.5 -25t34 -18.5t36 -5.5q48 16 88 60.5t64 97.5h5q-12 -55 -48.5 -100t-71.5 -57.5 t-52 -15.5t-36 -3q-28 0 -51 7t-36.5 22.5t-13.5 34.5q0 20 14 37l-3 10q-39 -49 -72.5 -80.5t-70.5 -31.5q-10 0 -30 6.5t-34 30.5t-19 49.5t-5 41.5q0 65 34.5 129.5t78.5 106.5t62 53t50 15q30 0 55 -22t29 -62q8 12 17.5 26t25 26t35 20.5t42.5 8.5z" />
<glyph unicode="&#xe7;" horiz-adv-x="333" d="M311 173h-5q-36 -75 -71 -111t-57.5 -44t-34.5 -8q-23 0 -39.5 9t-16.5 27q0 99 28 193.5t65 132.5t60 38q27 0 35 -12.5t8 -16.5q0 -10 -20 -22t-25.5 -22t-5.5 -25q0 -26 13.5 -31.5t20.5 -5.5q16 0 30.5 12.5t21 28t6.5 28.5q0 32 -20.5 50t-35.5 21.5t-40 3.5 q-63 0 -108.5 -42.5t-71.5 -104.5t-26 -123q0 -73 30 -114q21 -25 50 -34q2 -19 -12.5 -41t-46.5 -37q34 5 47.5 8t34 18t27.5 50q59 12 100.5 63.5t58.5 110.5z" />
<glyph unicode="&#xe8;" horiz-adv-x="333" d="M14 0zM298 400q35 -27 35 -67q0 -14 -15.5 -49.5t-72.5 -60.5t-146 -43q-6 -25 -11 -52.5t-5 -46.5q0 -29 8 -46.5t19 -23t28 -5.5q12 0 24 3q48 16 88 60.5t63 97.5h5q-12 -54 -49.5 -97.5t-74.5 -60t-55 -16.5q-22 0 -40 8.5t-51.5 43.5t-33.5 101q0 25 31 120.5 t109.5 126t91.5 30.5q26 0 52 -23zM232 402q-43 -15 -72 -71t-53 -134q87 8 123 54t44 62.5t8 36.5q0 18 -7 31t-13.5 18.5t-17.5 5.5q-6 0 -12 -3zM109 552q-3 6 -4 18t-1 15q0 20 1.5 31.5t3.5 17.5q-6 -11 52 -53t118 -83z" />
<glyph unicode="&#xe9;" horiz-adv-x="338" d="M14 0zM298 400q35 -27 35 -67q0 -14 -15.5 -49.5t-72.5 -60.5t-146 -43q-6 -25 -11 -52.5t-5 -46.5q0 -29 8 -46.5t19 -23t28 -5.5q12 0 24 3q48 16 88 60.5t63 97.5h5q-12 -54 -49.5 -97.5t-74.5 -60t-55 -16.5q-22 0 -40 8.5t-51.5 43.5t-33.5 101q0 25 31 120.5 t109.5 126t91.5 30.5q26 0 52 -23zM232 402q-43 -15 -72 -71t-53 -134q87 8 123 54t44 62.5t8 36.5q0 18 -7 31t-13.5 18.5t-17.5 5.5q-6 0 -12 -3zM111 498q59 40 117.5 82.5t52.5 53.5q2 -10 3.5 -25t1.5 -25q0 -22 -5 -32z" />
<glyph unicode="&#xea;" horiz-adv-x="327" d="M14 0zM298 400q35 -27 35 -67q0 -14 -15.5 -49.5t-72.5 -60.5t-146 -43q-6 -25 -11 -52.5t-5 -46.5q0 -29 8 -46.5t19 -23t28 -5.5q12 0 24 3q48 16 88 60.5t63 97.5h5q-12 -54 -49.5 -97.5t-74.5 -60t-55 -16.5q-22 0 -40 8.5t-51.5 43.5t-33.5 101q0 25 31 120.5 t109.5 126t91.5 30.5q26 0 52 -23zM232 402q-43 -15 -72 -71t-53 -134q87 8 123 54t44 62.5t8 36.5q0 18 -7 31t-13.5 18.5t-17.5 5.5q-6 0 -12 -3zM83 491l140 146l127 -146h-82l-74 92l-87 -92h-24z" />
<glyph unicode="&#xeb;" horiz-adv-x="327" d="M14 0zM298 400q35 -27 35 -67q0 -14 -15.5 -49.5t-72.5 -60.5t-146 -43q-6 -25 -11 -52.5t-5 -46.5q0 -29 8 -46.5t19 -23t28 -5.5q12 0 24 3q48 16 88 60.5t63 97.5h5q-12 -54 -49.5 -97.5t-74.5 -60t-55 -16.5q-22 0 -40 8.5t-51.5 43.5t-33.5 101q0 25 31 120.5 t109.5 126t91.5 30.5q26 0 52 -23zM232 402q-43 -15 -72 -71t-53 -134q87 8 123 54t44 62.5t8 36.5q0 18 -7 31t-13.5 18.5t-17.5 5.5q-6 0 -12 -3zM154 601q20 0 35 -14t15 -35q0 -20 -15 -35t-35 -15q-21 0 -35.5 14.5t-14.5 35.5t14 35t36 14zM304 601q21 0 35.5 -14.5 t14.5 -34.5q0 -21 -14.5 -35.5t-35.5 -14.5t-35 14t-14 36q0 21 14 35t35 14z" />
<glyph unicode="&#xec;" horiz-adv-x="286" d="M198 383q12 -28 12 -61q0 -37 -40 -128t-40 -133q0 -16 3 -34q4 -13 25 -13q11 0 31.5 15.5t45 65.5t46.5 96q-8 -57 -35 -107.5t-54 -67.5t-38 -17q-17 0 -32.5 12.5t-23.5 30t-11.5 32.5t-3.5 33q0 46 37.5 135.5t37.5 133.5q0 14 -1 21q0 12 -18 12q-14 0 -36 -20 t-43 -54.5t-33 -75.5h-11q26 74 51.5 109t46.5 47t31 12q16 0 31 -13t22 -31zM86 552q-3 6 -4 18t-1 15q0 20 1.5 31.5t3.5 17.5q-6 -11 52 -53t118 -83z" />
<glyph unicode="&#xed;" horiz-adv-x="286" d="M198 383q12 -28 12 -61q0 -37 -40 -128t-40 -133q0 -16 3 -34q4 -13 25 -13q11 0 31.5 15.5t45 65.5t46.5 96q-8 -57 -35 -107.5t-54 -67.5t-38 -17q-17 0 -32.5 12.5t-23.5 30t-11.5 32.5t-3.5 33q0 46 37.5 135.5t37.5 133.5q0 14 -1 21q0 12 -18 12q-14 0 -36 -20 t-43 -54.5t-33 -75.5h-11q26 74 51.5 109t46.5 47t31 12q16 0 31 -13t22 -31zM59 498q59 40 117.5 82.5t52.5 53.5q2 -10 3.5 -25t1.5 -25q0 -22 -5 -32z" />
<glyph unicode="&#xee;" horiz-adv-x="292" d="M198 383q12 -28 12 -61q0 -37 -40 -128t-40 -133q0 -16 3 -34q4 -13 25 -13q11 0 31.5 15.5t45 65.5t46.5 96q-8 -57 -35 -107.5t-54 -67.5t-38 -17q-17 0 -32.5 12.5t-23.5 30t-11.5 32.5t-3.5 33q0 46 37.5 135.5t37.5 133.5q0 14 -1 21q0 12 -18 12q-14 0 -36 -20 t-43 -54.5t-33 -75.5h-11q26 74 51.5 109t46.5 47t31 12q16 0 31 -13t22 -31zM14 491l140 146l127 -146h-82l-74 92l-87 -92h-24z" />
<glyph unicode="&#xef;" horiz-adv-x="292" d="M198 383q12 -28 12 -61q0 -37 -40 -128t-40 -133q0 -16 3 -34q4 -13 25 -13q11 0 31.5 15.5t45 65.5t46.5 96q-8 -57 -35 -107.5t-54 -67.5t-38 -17q-17 0 -32.5 12.5t-23.5 30t-11.5 32.5t-3.5 33q0 46 37.5 135.5t37.5 133.5q0 14 -1 21q0 12 -18 12q-14 0 -36 -20 t-43 -54.5t-33 -75.5h-11q26 74 51.5 109t46.5 47t31 12q16 0 31 -13t22 -31zM96 601q20 0 35 -14t15 -35q0 -20 -15 -35t-35 -15q-21 0 -35.5 14.5t-14.5 35.5t14 35t36 14zM246 601q21 0 35.5 -14.5t14.5 -34.5q0 -21 -14.5 -35.5t-35.5 -14.5t-35 14t-14 36q0 21 14 35 t35 14z" />
<glyph unicode="&#xf1;" horiz-adv-x="467" d="M12 0zM390 373q7 -27 7 -56q0 -48 -36 -149t-36 -141q0 -15 23 -15q8 0 28.5 11.5t43 55.5t42.5 85q-37 -96 -53.5 -121t-40 -35t-34.5 -10q-40 0 -48.5 24t-11.5 43t-3 34q0 51 37 141t37 134q0 14 -1 21t-7.5 10.5t-17.5 3.5q-25 0 -48 -34.5t-51 -95.5t-49.5 -122 t-53.5 -157h-68q12 45 43 139t44 146t13 102q0 4 -5 8.5t-16 4.5q-9 0 -35.5 -24.5t-42 -52t-38.5 -100.5q14 75 32 115t48.5 57.5t38.5 17.5q19 0 37 -15t18 -36q0 -31 1.5 -50t7.5 -39q28 62 52.5 105t70.5 43q25 0 45.5 -12.5t26.5 -35.5zM58 472q0 56 29.5 90.5 t77.5 34.5q22 0 70 -38t76 -34q36 4 57.5 17t44.5 45q-16 -59 -35.5 -89.5t-46.5 -36.5t-31 -6q-24 0 -67.5 42t-72.5 42q-37 0 -55 -11.5t-47 -55.5z" />
<glyph unicode="&#xf2;" horiz-adv-x="368" d="M17 0zM349 360q26 -51 26 -104q0 -37 -13 -74t-45 -82t-74 -75.5t-99 -30.5q-72 6 -99.5 60t-27.5 109q0 32 7 60t35.5 76t74.5 86t105 38q20 0 53.5 -8t56.5 -55zM243 409q-67 -21 -106 -115q-25 -69 -36.5 -99.5t-18 -55.5t-6.5 -48q0 -26 8.5 -44t25.5 -28.5t34 -10.5 q18 0 36 8t49 56.5t58.5 111t27.5 122.5q0 32 -7 56.5t-22 36.5t-31 12q-4 0 -12 -2zM133 552q-3 6 -4 18t-1 15q0 20 1.5 31.5t3.5 17.5q-6 -11 52 -53t118 -83z" />
<glyph unicode="&#xf3;" horiz-adv-x="373" d="M17 0zM349 360q26 -51 26 -104q0 -37 -13 -74t-45 -82t-74 -75.5t-99 -30.5q-72 6 -99.5 60t-27.5 109q0 32 7 60t35.5 76t74.5 86t105 38q20 0 53.5 -8t56.5 -55zM243 409q-67 -21 -106 -115q-25 -69 -36.5 -99.5t-18 -55.5t-6.5 -48q0 -26 8.5 -44t25.5 -28.5t34 -10.5 q18 0 36 8t49 56.5t58.5 111t27.5 122.5q0 32 -7 56.5t-22 36.5t-31 12q-4 0 -12 -2zM146 498q59 40 117.5 82.5t52.5 53.5q2 -10 3.5 -25t1.5 -25q0 -22 -5 -32z" />
<glyph unicode="&#xf4;" horiz-adv-x="379" d="M17 0zM349 360q26 -51 26 -104q0 -37 -13 -74t-45 -82t-74 -75.5t-99 -30.5q-72 6 -99.5 60t-27.5 109q0 32 7 60t35.5 76t74.5 86t105 38q20 0 53.5 -8t56.5 -55zM243 409q-67 -21 -106 -115q-25 -69 -36.5 -99.5t-18 -55.5t-6.5 -48q0 -26 8.5 -44t25.5 -28.5t34 -10.5 q18 0 36 8t49 56.5t58.5 111t27.5 122.5q0 32 -7 56.5t-22 36.5t-31 12q-4 0 -12 -2zM107 491l140 146l127 -146h-82l-74 92l-87 -92h-24z" />
<glyph unicode="&#xf5;" horiz-adv-x="379" d="M17 0zM349 360q26 -51 26 -104q0 -37 -13 -74t-45 -82t-74 -75.5t-99 -30.5q-72 6 -99.5 60t-27.5 109q0 32 7 60t35.5 76t74.5 86t105 38q20 0 53.5 -8t56.5 -55zM243 409q-67 -21 -106 -115q-25 -69 -36.5 -99.5t-18 -55.5t-6.5 -48q0 -26 8.5 -44t25.5 -28.5t34 -10.5 q18 0 36 8t49 56.5t58.5 111t27.5 122.5q0 32 -7 56.5t-22 36.5t-31 12q-4 0 -12 -2zM69 472q0 56 29.5 90.5t77.5 34.5q22 0 70 -38t76 -34q36 4 57.5 17t44.5 45q-16 -59 -35.5 -89.5t-46.5 -36.5t-31 -6q-24 0 -67.5 42t-72.5 42q-37 0 -55 -11.5t-47 -55.5z" />
<glyph unicode="&#xf6;" horiz-adv-x="373" d="M17 0zM349 360q26 -51 26 -104q0 -37 -13 -74t-45 -82t-74 -75.5t-99 -30.5q-72 6 -99.5 60t-27.5 109q0 32 7 60t35.5 76t74.5 86t105 38q20 0 53.5 -8t56.5 -55zM243 409q-67 -21 -106 -115q-25 -69 -36.5 -99.5t-18 -55.5t-6.5 -48q0 -26 8.5 -44t25.5 -28.5t34 -10.5 q18 0 36 8t49 56.5t58.5 111t27.5 122.5q0 32 -7 56.5t-22 36.5t-31 12q-4 0 -12 -2zM201 601q20 0 35 -14t15 -35q0 -20 -15 -35t-35 -15q-21 0 -35.5 14.5t-14.5 35.5t14 35t36 14zM351 601q21 0 35.5 -14.5t14.5 -34.5q0 -21 -14.5 -35.5t-35.5 -14.5t-35 14t-14 36 q0 21 14 35t35 14z" />
<glyph unicode="&#xf8;" horiz-adv-x="373" d="M17 0zM349 360q26 -51 26 -104q0 -37 -13 -74t-45 -82t-74 -75.5t-99 -30.5q-72 6 -99.5 60t-27.5 109q0 32 7 60t35.5 76t74.5 86t105 38q20 0 53.5 -8t56.5 -55zM243 409q-67 -21 -106 -115q-25 -69 -36.5 -99.5t-18 -55.5t-6.5 -48q0 -26 8.5 -44t25.5 -28.5t34 -10.5 q18 0 36 8t49 56.5t58.5 111t27.5 122.5q0 32 -7 56.5t-22 36.5t-31 12q-4 0 -12 -2zM378 663q-19 -52 -98 -274.5t-111.5 -311.5t-82.5 -221q-5 -3 -10.5 -4t-12.5 -1q-15 1 -23 1l294 807q7 4 24 4h20z" />
<glyph unicode="&#xf9;" horiz-adv-x="484" d="M14 0zM444 425q-54 -190 -108 -379q-1 -11 9 -19t23 -8q6 0 24.5 11t42.5 59q18 41 37 83h14q-45 -106 -62.5 -136.5t-64.5 -30.5q-31 0 -41.5 11.5t-15.5 31.5t-6 40.5t-1 35.5v16v8q-7 -7 -52 -78.5t-83 -71.5q-5 0 -26 5t-37 33.5t-16 66.5q0 12 2.5 39t39 126.5 t39.5 117.5q3 8 -3.5 13.5t-9.5 7.5q-50 -15 -83 -78t-43 -75h-9q34 72 67 119.5t71 47.5q9 0 26 -6.5t25 -27t8 -53.5q0 -29 -38.5 -124.5t-38.5 -146.5q0 -16 2 -31.5t22 -15.5q26 0 44.5 25t39.5 60t45 85t43 106t37 127q5 2 17 2q8 0 17 -1l18 -2q14 0 25 7zM197 552 q-3 6 -4 18t-1 15q0 20 1.5 31.5t3.5 17.5q-6 -11 52 -53t118 -83z" />
<glyph unicode="&#xfa;" horiz-adv-x="833" d="M14 0zM444 425q-54 -190 -108 -379q-1 -11 9 -19t23 -8q6 0 24.5 11t42.5 59q18 41 37 83h14q-45 -106 -62.5 -136.5t-64.5 -30.5q-31 0 -41.5 11.5t-15.5 31.5t-6 40.5t-1 35.5v16v8q-7 -7 -52 -78.5t-83 -71.5q-5 0 -26 5t-37 33.5t-16 66.5q0 12 2.5 39t39 126.5 t39.5 117.5q3 8 -3.5 13.5t-9.5 7.5q-50 -15 -83 -78t-43 -75h-9q34 72 67 119.5t71 47.5q9 0 26 -6.5t25 -27t8 -53.5q0 -29 -38.5 -124.5t-38.5 -146.5q0 -16 2 -31.5t22 -15.5q26 0 44.5 25t39.5 60t45 85t43 106t37 127q5 2 17 2q8 0 17 -1l18 -2q14 0 25 7z" />
<glyph unicode="&#xfb;" horiz-adv-x="484" d="M14 0zM444 425q-54 -190 -108 -379q-1 -11 9 -19t23 -8q6 0 24.5 11t42.5 59q18 41 37 83h14q-45 -106 -62.5 -136.5t-64.5 -30.5q-31 0 -41.5 11.5t-15.5 31.5t-6 40.5t-1 35.5v16v8q-7 -7 -52 -78.5t-83 -71.5q-5 0 -26 5t-37 33.5t-16 66.5q0 12 2.5 39t39 126.5 t39.5 117.5q3 8 -3.5 13.5t-9.5 7.5q-50 -15 -83 -78t-43 -75h-9q34 72 67 119.5t71 47.5q9 0 26 -6.5t25 -27t8 -53.5q0 -29 -38.5 -124.5t-38.5 -146.5q0 -16 2 -31.5t22 -15.5q26 0 44.5 25t39.5 60t45 85t43 106t37 127q5 2 17 2q8 0 17 -1l18 -2q14 0 25 7zM165 491 l140 146l127 -146h-82l-74 92l-87 -92h-24z" />
<glyph unicode="&#xfc;" horiz-adv-x="484" d="M14 0zM444 425q-54 -190 -108 -379q-1 -11 9 -19t23 -8q6 0 24.5 11t42.5 59q18 41 37 83h14q-45 -106 -62.5 -136.5t-64.5 -30.5q-31 0 -41.5 11.5t-15.5 31.5t-6 40.5t-1 35.5v16v8q-7 -7 -52 -78.5t-83 -71.5q-5 0 -26 5t-37 33.5t-16 66.5q0 12 2.5 39t39 126.5 t39.5 117.5q3 8 -3.5 13.5t-9.5 7.5q-50 -15 -83 -78t-43 -75h-9q34 72 67 119.5t71 47.5q9 0 26 -6.5t25 -27t8 -53.5q0 -29 -38.5 -124.5t-38.5 -146.5q0 -16 2 -31.5t22 -15.5q26 0 44.5 25t39.5 60t45 85t43 106t37 127q5 2 17 2q8 0 17 -1l18 -2q14 0 25 7zM183 601 q20 0 35 -14t15 -35q0 -20 -15 -35t-35 -15q-21 0 -35.5 14.5t-14.5 35.5t14 35t36 14zM333 601q21 0 35.5 -14.5t14.5 -34.5q0 -21 -14.5 -35.5t-35.5 -14.5t-35 14t-14 36q0 21 14 35t35 14z" />
<glyph unicode="&#xff;" horiz-adv-x="449" d="M0 0zM447 419l-140 -466q-18 -58 -81.5 -88.5t-151.5 -30.5q-34 0 -56.5 10.5t-26.5 37.5q-3 21 6.5 37.5t26.5 27t30 10.5q25 0 38 -34q4 -11 -11 -35.5t-15 -30.5q0 -12 13.5 -13t25.5 -1q42 0 76.5 20t47.5 63.5t32.5 106.5t27.5 98q-43 -59 -77 -100t-73 -41 q-13 0 -31 6.5t-30 30t-12 55.5v15q0 53 48 148t48 136v12q0 14 -21 14q-19 0 -38.5 -18t-46.5 -60.5t-51 -81.5q10 54 45 106t60.5 59.5t34.5 7.5q18 0 33 -11t20.5 -25.5t9 -29t3.5 -34.5q0 -51 -45 -137t-45 -133q0 -21 4.5 -36t17.5 -15q15 0 48 30.5t70.5 94.5t62 132 t53.5 165h15q14 0 28.5 -0.5t26.5 -1.5zM224 601q20 0 35 -14t15 -35q0 -20 -15 -35t-35 -15q-21 0 -35.5 14.5t-14.5 35.5t14 35t36 14zM374 601q21 0 35.5 -14.5t14.5 -34.5q0 -21 -14.5 -35.5t-35.5 -14.5t-35 14t-14 36q0 21 14 35t35 14z" />
<glyph unicode="&#x152;" horiz-adv-x="833" d="M522 345q6 -2 14 -2q29 0 67.5 15t53.5 35t35 48.5t28 61.5h7q-26 -101 -46.5 -174.5t-48.5 -164.5h-9q5 27 8 46t3 35q0 28 -9.5 45t-34 29t-48.5 12q-13 0 -25 -5q-5 -23 -29.5 -105t-37.5 -126t-13 -47q0 -20 23 -28.5t59 -8.5q25 0 44 2t60.5 5.5t97.5 80.5 q45 81 91 162q4 0 4 -14q0 -48 -28 -147.5t-46 -99.5h-508l-1 3l-36 -3q-45 0 -81 29.5t-55.5 85t-19.5 126.5q0 99 44.5 192t109 144.5t99.5 63t111 11.5h96h145h164.5t87 -1.5t6.5 -21.5q0 -48 -29 -146t-42 -96q3 16 5.5 38t2.5 52q0 41 -7 72t-26 50t-45.5 26t-60.5 7 q-23 0 -44.5 -1t-42.5 -2q-14 0 -22 -9t-19.5 -56t-31.5 -127.5t-20 -91.5zM417 312q21 56 31 89.5t14.5 67.5t4.5 49q0 24 -3.5 32.5t-36.5 60.5q-21 30 -59 30q-18 0 -60 -24t-71 -71t-81 -186.5t-52 -196.5q0 -37 10.5 -69t31 -56t50.5 -24q12 0 22 2.5t37.5 16.5 t58 56.5t50 88t53.5 134.5z" />
<glyph unicode="&#x153;" horiz-adv-x="613" d="M501 402q-44 -15 -73 -70.5t-53 -134.5q86 8 141 76q21 30 27.5 45.5t6.5 31.5q0 17 -7 30.5t-12.5 19t-17.5 5.5q-6 0 -12 -3zM287 182q4 10 9.5 25.5t9 30t6.5 34t3 37.5q0 29 -7 53.5t-22 36.5t-31 12q-4 0 -41.5 -11.5t-76.5 -105.5q-25 -69 -36.5 -99.5t-18 -55.5 t-6.5 -48q0 -26 8.5 -44t25.5 -28.5t34 -10.5q18 0 36 8t34 32.5t36.5 61t36.5 72.5zM362 327q52 61 95.5 78.5t56.5 17.5q14 0 26.5 -5.5t36.5 -24.5t24 -59q0 -14 -15.5 -50t-72.5 -61t-146 -43q-5 -24 -10.5 -52t-5.5 -46q0 -30 8 -47.5t19 -23t28 -5.5q12 0 24 3 q48 16 88 60.5t64 97.5h5q-11 -53 -49.5 -97t-76 -60.5t-54.5 -16.5q-21 0 -39 8.5t-32 22.5t-22.5 26.5t-15.5 25.5q-34 -42 -69 -62t-85 -20q-72 6 -99.5 60t-27.5 109q0 32 7 60t35.5 76t74.5 86t105 38q20 0 53.5 -8t46.5 -35t17 -36t6 -17z" />
<glyph unicode="&#x178;" horiz-adv-x="525" d="M39 0zM657 636h-24q-25 0 -49.5 -11.5t-51.5 -47.5l-228 -306l-56 -232q-3 -16 15.5 -22t47.5 -6h19.5t15.5 1q0 -4 0.5 -6.5t-0.5 -6.5h-294q-1 6 -1 9.5t1 3.5q55 0 84 12.5t37 46.5l58 221l-109 314q-6 18 -23 24.5t-37 6.5q-17 -1 -21 -1q-1 3 -1.5 5.5t2.5 7.5 l267 1q5 -5 5 -10t-4 -6h-19.5h-24.5q-27 0 -42 -3.5t-11 -15.5l100 -289l172 233q19 26 19 44q0 19 -19.5 25t-50.5 6h-37q-3 1 -2 5l2 8l259 1q2 -4 3 -7.5t-2 -4.5zM300 787q20 0 35 -14t15 -35q0 -20 -15 -35t-35 -15q-21 0 -35.5 14.5t-14.5 35.5t14 35t36 14zM450 787 q21 0 35.5 -14.5t14.5 -34.5q0 -21 -14.5 -35.5t-35.5 -14.5t-35 14t-14 36q0 21 14 35t35 14z" />
<glyph unicode="&#x2000;" horiz-adv-x="407" />
<glyph unicode="&#x2001;" horiz-adv-x="815" />
<glyph unicode="&#x2002;" horiz-adv-x="407" />
<glyph unicode="&#x2003;" horiz-adv-x="815" />
<glyph unicode="&#x2004;" horiz-adv-x="271" />
<glyph unicode="&#x2005;" horiz-adv-x="203" />
<glyph unicode="&#x2006;" horiz-adv-x="135" />
<glyph unicode="&#x2007;" horiz-adv-x="135" />
<glyph unicode="&#x2008;" horiz-adv-x="101" />
<glyph unicode="&#x2009;" horiz-adv-x="163" />
<glyph unicode="&#x200a;" horiz-adv-x="45" />
<glyph unicode="&#x2010;" d="M294 307h-254q9 14 13.5 31.5t7.5 33.5h253q-13 -11 -15.5 -32.5t-4.5 -32.5z" />
<glyph unicode="&#x2011;" d="M294 307h-254q9 14 13.5 31.5t7.5 33.5h253q-13 -11 -15.5 -32.5t-4.5 -32.5z" />
<glyph unicode="&#x2012;" d="M294 307h-254q9 14 13.5 31.5t7.5 33.5h253q-13 -11 -15.5 -32.5t-4.5 -32.5z" />
<glyph unicode="&#x2013;" horiz-adv-x="395" d="M340 313l-307 -6q9 14 13.5 31.5t7.5 33.5h306q-11 -9 -14.5 -26t-5.5 -33z" />
<glyph unicode="&#x2014;" horiz-adv-x="525" d="M462 313l-416 -6q9 13 13.5 31t7.5 34h415q-10 -9 -13.5 -26t-6.5 -33z" />
<glyph unicode="&#x2018;" horiz-adv-x="205" d="M297 617q2 -12 2 -17q0 -31 -17 -37t-21 -6q-9 0 -27 6t-26 6q-17 0 -20 -14.5t-3 -21.5v-11q0 -25 3.5 -43.5t23.5 -91.5q-7 -6 -13.5 5.5t-8.5 12.5q-23 54 -23 112q0 61 22.5 95t61.5 34q17 0 29.5 -7.5t16.5 -21.5z" />
<glyph unicode="&#x2019;" horiz-adv-x="242" d="M302 725q4 -15 4 -31q0 -46 -31.5 -81t-84.5 -71q-4 3 -9.5 -1t-8.5 1q4 5 48.5 41.5t44.5 63.5q0 8 -5 20q-23 6 -38.5 16t-15.5 28q0 20 7.5 34t20 17.5t16.5 3.5q18 0 33 -12t19 -29z" />
<glyph unicode="&#x201a;" horiz-adv-x="242" d="M167 194q4 -15 4 -32q0 -47 -29.5 -80t-85.5 -70q-4 2 -9.5 -1.5t-8.5 1.5q3 3 48 40t45 64q0 9 -5 21q-29 7 -41.5 17.5t-12.5 25.5q0 20 7.5 34t20 17.5t17.5 3.5q18 0 32.5 -12t17.5 -29z" />
<glyph unicode="&#x201c;" horiz-adv-x="348" d="M253 617q2 -12 2 -17q0 -31 -16.5 -37t-20.5 -6q-9 0 -27 6t-26 6q-18 0 -21 -15t-3 -27q0 -37 10 -75.5t17 -64.5q-6 -6 -12 5t-9 13q-23 54 -23 112q0 61 22.5 95t61.5 34q17 0 29.5 -7.5t15.5 -21.5zM405 617q2 -12 2 -17q0 -31 -16.5 -37t-20.5 -6q-9 0 -27 6t-26 6 q-18 0 -21 -15t-3 -29q0 -37 10 -75t17 -63q-7 -6 -13.5 5t-8.5 13q-12 28 -17.5 55.5t-5.5 57.5q0 29 6.5 54t17.5 42.5t27.5 24.5t33.5 7t29.5 -7.5t15.5 -21.5z" />
<glyph unicode="&#x201d;" horiz-adv-x="358" d="M293 725q4 -16 4 -33q0 -46 -30 -79.5t-85 -70.5q-4 3 -9.5 -1t-8.5 1q4 5 48.5 41.5t44.5 63.5q0 8 -5 20q-22 6 -38.5 16t-16.5 28q0 43 20.5 49t24.5 6q18 0 32.5 -11.5t18.5 -29.5zM439 725q4 -16 4 -33q0 -45 -31 -79t-85 -71q-4 3 -9 -1t-8 1q4 6 48.5 42t44.5 61 q0 10 -6 22q-23 7 -38.5 16.5t-15.5 27.5q0 43 20.5 49t24.5 6q18 0 32.5 -11.5t18.5 -29.5z" />
<glyph unicode="&#x201e;" horiz-adv-x="358" d="M165 188q4 -15 4 -32q0 -46 -30.5 -80t-85.5 -70q-4 3 -9 -1t-8 1q3 5 48 41t45 62q0 10 -6 22q-25 7 -39.5 15.5t-14.5 27.5q0 21 8 34.5t20.5 17t16.5 3.5q18 0 32.5 -11.5t18.5 -29.5zM311 188q4 -15 4 -31q0 -46 -30.5 -80t-85.5 -71q-3 3 -9 -1t-8 1q5 7 49 42 t44 61q0 10 -6 22q-24 7 -39 15.5t-15 27.5q0 20 7.5 34t20 17.5t17.5 3.5q18 0 32.5 -11.5t18.5 -29.5z" />
<glyph unicode="&#x2022;" horiz-adv-x="413" d="M257 442q58 0 94.5 -35.5t36.5 -90.5q0 -21 -12.5 -67.5t-75.5 -96.5t-133 -50q-58 0 -94.5 35.5t-36.5 90.5q0 21 12.5 68t75 96.5t133.5 49.5z" />
<glyph unicode="&#x2026;" horiz-adv-x="589" d="M77 78q21 0 36 -15t15 -36t-14.5 -36.5t-36.5 -15.5t-37 15t-15 37q0 21 15 36t37 15zM269 78q20 0 36 -15t16 -36q0 -22 -15 -37t-37 -15q-21 0 -36.5 15.5t-15.5 36.5t15 36t37 15zM462 78q21 0 36 -15t15 -36t-14.5 -36.5t-36.5 -15.5t-37 15t-15 37q0 21 15 36t37 15 z" />
<glyph unicode="&#x202f;" horiz-adv-x="163" />
<glyph unicode="&#x205f;" horiz-adv-x="203" />
<glyph unicode="&#x2122;" horiz-adv-x="648" d="M367 650q-5 -21 -10.5 -43.5t-13.5 -44.5q-1 9 0 17.5t2 17.5q0 17 -9 29q-15 16 -36 16l-58 -192q-3 -11 7 -15.5t33 -4.5l-112 -3l2 3q17 0 28 2.5t15 17.5l54 189q-6 3 -12 3q-9 0 -18.5 -6t-21.5 -17t-22.5 -31.5t-14.5 -28.5l23 90zM470 645q0 -25 2 -69.5t5 -89.5 l95 162q1 1 11 1h17h26h14v-5q-13 2 -25.5 -0.5t-15.5 -14.5l-52 -188q-2 -7 10 -8t23 -1v-4h-96v4q14 0 23.5 2t12.5 11l52 184l-120 -200l-10 200l-48 -172q-5 -20 2.5 -22.5t23.5 -2.5v-4h-72q0 2 1 4q14 0 22 7t12 21l49 169q3 12 -6.5 14t-24.5 2l1 5l64 -1z" />
<glyph unicode="&#xe000;" horiz-adv-x="425" d="M0 425h425v-425h-425v425z" />
<glyph horiz-adv-x="490" d="M0 0z" />
</font>
</defs>
</svg>
