<?xml version="1.0" encoding="utf-8"?>
<!-- Generator: Adobe Illustrator 16.0.0, SVG Export Plug-In . SVG Version: 6.00 Build 0)  -->
<!DOCTYPE svg PUBLIC "-//W3C//DTD SVG 1.1//EN" "http://www.w3.org/Graphics/SVG/1.1/DTD/svg11.dtd">
<svg version="1.1" xmlns="http://www.w3.org/2000/svg" xmlns:xlink="http://www.w3.org/1999/xlink" x="0px" y="0px" width="24px"
	 height="24px" viewBox="0 0 64 64" enable-background="new 0 0 64 64" xml:space="preserve">
<g id="eye">
	<path fill="#fff" d="M42.174,9.407c-0.394-0.393-0.907-0.59-1.422-0.59s-1.029,0.197-1.422,0.59
		c-0.785,0.785-0.785,2.058,0,2.843l17.805,17.806H2.354c-1.111,0-2.011,0.9-2.011,2.01c0,1.111,0.899,2.012,2.011,2.012h54.781
		L39.33,51.884c-0.785,0.785-0.785,2.058,0,2.844c0.785,0.785,2.058,0.785,2.844,0l21.237-21.24c0.785-0.785,0.785-2.058,0-2.843
		L42.174,9.407z"/>
</g>
<g id="comment">
</g>
<g id="map-marker">
</g>
<g id="earth">
</g>
<g id="heart">
</g>
<g id="twitter">
</g>
<g id="bucket">
</g>
<g id="paperclip">
</g>
<g id="undo">
</g>
<g id="redo">
</g>
<g id="chevron-left">
</g>
<g id="chevron-right">
</g>
<g id="cross">
</g>
<g id="search">
</g>
<g id="hamburger">
</g>
</svg>
