<svg width="130" height="58" viewBox="0 0 130 58" fill="none" xmlns="http://www.w3.org/2000/svg">
<circle opacity="0.6" r="5" transform="matrix(-1 0 0 1 125 5)" fill="white"/>
<circle opacity="0.6" r="5" transform="matrix(-1 0 0 1 95 29)" fill="white"/>
<circle opacity="0.6" r="5" transform="matrix(-1 0 0 1 125 29)" fill="white"/>
<circle opacity="0.6" r="5" transform="matrix(-1 0 0 1 95 53)" fill="white"/>
<circle opacity="0.6" r="5" transform="matrix(-1 0 0 1 65 53)" fill="white"/>
<circle opacity="0.6" r="5" transform="matrix(-1 0 0 1 125 53)" fill="white"/>
<circle opacity="0.6" r="5" transform="matrix(-1 0 0 1 65 5)" fill="white"/>
<circle opacity="0.6" r="5" transform="matrix(-1 0 0 1 35 29)" fill="white"/>
<circle opacity="0.6" r="5" transform="matrix(-1 0 0 1 5 53)" fill="white"/>
<circle opacity="0.6" r="5" transform="matrix(-1 0 0 1 95 5)" fill="white"/>
<circle opacity="0.6" r="5" transform="matrix(-1 0 0 1 65 29)" fill="white"/>
<circle opacity="0.6" r="5" transform="matrix(-1 0 0 1 35 53)" fill="white"/>
</svg>
