<svg width="183" height="43" viewBox="0 0 183 43" fill="none" xmlns="http://www.w3.org/2000/svg">
<path d="M72.4983 34.5938C71.7198 34.5938 71.097 34.3745 70.6299 33.9359C70.1888 33.4715 69.9682 32.8652 69.9682 32.117V11.219H62.884C61.3271 11.219 60.5486 10.5353 60.5486 9.16786C60.5486 7.80046 61.3271 7.11676 62.884 7.11676H82.0736C83.6306 7.11676 84.409 7.80046 84.409 9.16786C84.409 10.5353 83.6306 11.219 82.0736 11.219H74.9894V32.117C74.9894 32.8652 74.7559 33.4715 74.2888 33.9359C73.8476 34.3745 73.2508 34.5938 72.4983 34.5938Z" fill="white"/>
<path d="M92.161 15.0116C94.8078 15.0116 96.767 15.6695 98.0385 16.9853C99.336 18.2753 99.9847 20.249 99.9847 22.9064V32.3492C99.9847 33.0458 99.7771 33.6005 99.362 34.0133C98.9468 34.4003 98.3759 34.5938 97.6493 34.5938C96.9746 34.5938 96.4167 34.3874 95.9756 33.9746C95.5604 33.5618 95.3528 33.02 95.3528 32.3492V31.4978C94.9116 32.504 94.211 33.2909 93.2509 33.8585C92.3167 34.4261 91.2268 34.7099 89.9813 34.7099C88.7097 34.7099 87.555 34.4519 86.517 33.9359C85.479 33.4199 84.6616 32.7104 84.0648 31.8074C83.468 30.9044 83.1695 29.8982 83.1695 28.7888C83.1695 27.3956 83.5199 26.2991 84.2205 25.4993C84.9471 24.6995 86.1148 24.119 87.7237 23.7578C89.3325 23.3966 91.5512 23.216 94.3797 23.216H95.3528V22.3259C95.3528 21.0617 95.0803 20.1458 94.5354 19.5782C93.9904 18.9848 93.1082 18.6881 91.8885 18.6881C91.136 18.6881 90.3705 18.8042 89.592 19.0364C88.8135 19.2428 87.8923 19.5524 86.8284 19.9652C86.1537 20.3006 85.6607 20.4683 85.3493 20.4683C84.8822 20.4683 84.493 20.3006 84.1816 19.9652C83.8961 19.6298 83.7534 19.1912 83.7534 18.6494C83.7534 18.2108 83.8572 17.8367 84.0648 17.5271C84.2983 17.1917 84.6746 16.8821 85.1936 16.5983C86.1018 16.1081 87.1787 15.7211 88.4243 15.4373C89.6958 15.1535 90.9414 15.0116 92.161 15.0116ZM90.9544 31.2269C92.2518 31.2269 93.3028 30.8012 94.1072 29.9498C94.9376 29.0726 95.3528 27.9503 95.3528 26.5829V25.7702H94.6521C92.9135 25.7702 91.5642 25.8476 90.604 26.0024C89.6439 26.1572 88.9563 26.4281 88.5411 26.8151C88.1259 27.2021 87.9183 27.731 87.9183 28.4018C87.9183 29.2274 88.2037 29.9111 88.7746 30.4529C89.3714 30.9689 90.098 31.2269 90.9544 31.2269Z" fill="white"/>
<path d="M119.098 30.7625C120.551 30.7625 121.278 31.3688 121.278 32.5814C121.278 33.149 121.096 33.6005 120.733 33.9359C120.369 34.2455 119.825 34.4003 119.098 34.4003H106.097C105.449 34.4003 104.917 34.1939 104.501 33.7811C104.086 33.3683 103.879 32.8781 103.879 32.3105C103.879 31.7171 104.112 31.1495 104.579 30.6077L114.583 19.1138H105.903C105.176 19.1138 104.631 18.959 104.268 18.6494C103.905 18.3398 103.723 17.8883 103.723 17.2949C103.723 16.7015 103.905 16.25 104.268 15.9404C104.631 15.6308 105.176 15.476 105.903 15.476H118.475C119.15 15.476 119.682 15.6824 120.071 16.0952C120.486 16.4822 120.694 16.9724 120.694 17.5658C120.694 18.185 120.473 18.7526 120.032 19.2686L109.99 30.7625H119.098Z" fill="white"/>
<path d="M141.704 30.6464C142.223 31.1366 142.482 31.6913 142.482 32.3105C142.482 32.9039 142.262 33.4328 141.821 33.8972C141.405 34.3616 140.912 34.5938 140.341 34.5938C139.771 34.5938 139.239 34.3616 138.746 33.8972L129.637 25.6928V32.3105C129.637 33.0587 129.404 33.6263 128.937 34.0133C128.47 34.4003 127.886 34.5938 127.185 34.5938C126.484 34.5938 125.901 34.4003 125.433 34.0133C124.992 33.6263 124.772 33.0587 124.772 32.3105V9.20656C124.772 8.45836 124.992 7.89076 125.433 7.50376C125.901 7.11676 126.484 6.92326 127.185 6.92326C127.886 6.92326 128.47 7.11676 128.937 7.50376C129.404 7.89076 129.637 8.45836 129.637 9.20656V23.7578L137.967 15.8243C138.434 15.3599 138.966 15.1277 139.563 15.1277C140.16 15.1277 140.679 15.347 141.12 15.7856C141.561 16.2242 141.782 16.7402 141.782 17.3336C141.782 17.927 141.535 18.4688 141.042 18.959L134.931 24.6092L141.704 30.6464Z" fill="white"/>
<path d="M148.054 34.6325C147.353 34.6325 146.769 34.439 146.302 34.052C145.861 33.6392 145.64 33.0587 145.64 32.3105V17.3723C145.64 16.6241 145.861 16.0565 146.302 15.6695C146.769 15.2825 147.353 15.089 148.054 15.089C148.754 15.089 149.338 15.2825 149.805 15.6695C150.272 16.0565 150.506 16.6241 150.506 17.3723V32.3105C150.506 33.0587 150.272 33.6392 149.805 34.052C149.338 34.439 148.754 34.6325 148.054 34.6325ZM148.054 11.6447C147.171 11.6447 146.471 11.4125 145.952 10.9481C145.433 10.4579 145.173 9.82576 145.173 9.05176C145.173 8.27776 145.433 7.65856 145.952 7.19416C146.471 6.72976 147.171 6.49756 148.054 6.49756C148.91 6.49756 149.598 6.72976 150.117 7.19416C150.661 7.65856 150.934 8.27776 150.934 9.05176C150.934 9.82576 150.674 10.4579 150.155 10.9481C149.636 11.4125 148.936 11.6447 148.054 11.6447Z" fill="white"/>
<path d="M157.937 34.6325C157.236 34.6325 156.652 34.439 156.185 34.052C155.744 33.6392 155.523 33.0587 155.523 32.3105V9.20656C155.523 8.45836 155.744 7.89076 156.185 7.50376C156.652 7.11676 157.236 6.92326 157.937 6.92326C158.637 6.92326 159.221 7.11676 159.688 7.50376C160.155 7.89076 160.389 8.45836 160.389 9.20656V32.3105C160.389 33.0587 160.155 33.6392 159.688 34.052C159.221 34.439 158.637 34.6325 157.937 34.6325Z" fill="white"/>
<path d="M178.679 16.4822C178.887 16.0178 179.16 15.6824 179.497 15.476C179.86 15.2438 180.249 15.1277 180.665 15.1277C181.261 15.1277 181.793 15.3341 182.26 15.7469C182.754 16.1339 183 16.6241 183 17.2175C183 17.5013 182.922 17.798 182.766 18.1076L172.14 40.244C171.699 41.1212 171.011 41.5598 170.077 41.5598C169.48 41.5598 168.948 41.3663 168.481 40.9793C168.04 40.6181 167.82 40.1537 167.82 39.5861C167.82 39.3023 167.897 38.9798 168.053 38.6186L170.7 33.0845L163.46 18.1076C163.33 17.8496 163.266 17.5529 163.266 17.2175C163.266 16.6241 163.512 16.121 164.005 15.7082C164.524 15.2954 165.108 15.089 165.757 15.089C166.198 15.089 166.6 15.2051 166.963 15.4373C167.327 15.6437 167.612 15.9791 167.82 16.4435L173.269 28.4018L178.679 16.4822Z" fill="white"/>
<path d="M43.249 21.5C43.249 33.3741 33.5673 43 21.6245 43C9.68161 43 0 33.3741 0 21.5C0 9.62588 9.68161 0 21.6245 0C33.5673 0 43.249 9.62588 43.249 21.5Z" fill="white"/>
<path d="M22.1371 32.2809C21.3647 32.2809 20.7394 32.0659 20.2613 31.6361C19.8015 31.1883 19.5716 30.5972 19.5716 29.8629V17.2089H15.6821C14.873 17.2089 14.2661 17.0477 13.8615 16.7253C13.4753 16.385 13.2822 15.8745 13.2822 15.1939C13.2822 14.5133 13.4753 14.0118 13.8615 13.6894C14.2661 13.367 14.873 13.2058 15.6821 13.2058H28.592C29.4012 13.2058 29.9988 13.367 30.385 13.6894C30.7896 14.0118 30.9919 14.5133 30.9919 15.1939C30.9919 15.8745 30.7896 16.385 30.385 16.7253C29.9988 17.0477 29.4012 17.2089 28.592 17.2089H24.7025V29.8629C24.7025 30.5972 24.4634 31.1883 23.9853 31.6361C23.5255 32.0659 22.9094 32.2809 22.1371 32.2809Z" fill="#8828FF"/>
</svg>
