<svg width="124" height="30" viewBox="0 0 124 30" fill="none" xmlns="http://www.w3.org/2000/svg">
<path d="M49.1244 23.5761C48.5969 23.5761 48.1749 23.4266 47.8584 23.1277C47.5595 22.8112 47.41 22.398 47.41 21.8881V7.6457H42.6098C41.5548 7.6457 41.0273 7.17975 41.0273 6.24784C41.0273 5.31593 41.5548 4.84997 42.6098 4.84997H55.6126C56.6676 4.84997 57.1951 5.31593 57.1951 6.24784C57.1951 7.17975 56.6676 7.6457 55.6126 7.6457H50.8124V21.8881C50.8124 22.398 50.6541 22.8112 50.3376 23.1277C50.0387 23.4266 49.6343 23.5761 49.1244 23.5761Z" fill="#8828FF"/>
<path d="M62.4478 10.2304C64.2413 10.2304 65.5688 10.6788 66.4304 11.5755C67.3095 12.4547 67.7491 13.7998 67.7491 15.6109V22.0463C67.7491 22.5211 67.6084 22.8991 67.3271 23.1804C67.0458 23.4442 66.659 23.5761 66.1666 23.5761C65.7095 23.5761 65.3314 23.4354 65.0325 23.1541C64.7512 22.8727 64.6105 22.5035 64.6105 22.0463V21.4661C64.3116 22.1518 63.8369 22.6881 63.1863 23.0749C62.5533 23.4618 61.8148 23.6552 60.9708 23.6552C60.1092 23.6552 59.3268 23.4794 58.6234 23.1277C57.9201 22.776 57.3662 22.2925 56.9618 21.6771C56.5574 21.0617 56.3552 20.3759 56.3552 19.6198C56.3552 18.6704 56.5926 17.9231 57.0673 17.378C57.5597 16.8329 58.3509 16.4373 59.4411 16.1911C60.5312 15.945 62.0346 15.8219 63.9511 15.8219H64.6105V15.2153C64.6105 14.3537 64.4259 13.7295 64.0566 13.3427C63.6874 12.9382 63.0896 12.736 62.2632 12.736C61.7532 12.736 61.2345 12.8152 60.707 12.9734C60.1796 13.1141 59.5554 13.3251 58.8344 13.6064C58.3773 13.835 58.0432 13.9493 57.8322 13.9493C57.5157 13.9493 57.252 13.835 57.041 13.6064C56.8475 13.3778 56.7508 13.0789 56.7508 12.7097C56.7508 12.4107 56.8212 12.1558 56.9618 11.9448C57.1201 11.7162 57.375 11.5052 57.7267 11.3118C58.3421 10.9777 59.0718 10.714 59.9158 10.5206C60.7774 10.3271 61.6214 10.2304 62.4478 10.2304ZM61.6302 21.2815C62.5093 21.2815 63.2214 20.9913 63.7665 20.4111C64.3292 19.8133 64.6105 19.0484 64.6105 18.1165V17.5626H64.1358C62.9577 17.5626 62.0434 17.6154 61.3928 17.7209C60.7422 17.8264 60.2763 18.011 59.9949 18.2747C59.7136 18.5385 59.5729 18.8989 59.5729 19.3561C59.5729 19.9188 59.7663 20.3847 60.1532 20.754C60.5576 21.1056 61.0499 21.2815 61.6302 21.2815Z" fill="#8828FF"/>
<path d="M80.7002 20.965C81.6848 20.965 82.1771 21.3782 82.1771 22.2046C82.1771 22.5914 82.0541 22.8991 81.8079 23.1277C81.5617 23.3387 81.1925 23.4442 80.7002 23.4442H71.891C71.4514 23.4442 71.091 23.3035 70.8096 23.0222C70.5283 22.7409 70.3876 22.4068 70.3876 22.02C70.3876 21.6155 70.5459 21.2287 70.8624 20.8595L77.6407 13.0262H71.7591C71.2668 13.0262 70.8975 12.9207 70.6514 12.7097C70.4052 12.4987 70.2821 12.191 70.2821 11.7865C70.2821 11.3821 70.4052 11.0744 70.6514 10.8634C70.8975 10.6524 71.2668 10.5469 71.7591 10.5469H80.2782C80.7353 10.5469 81.0958 10.6876 81.3595 10.9689C81.6409 11.2327 81.7815 11.5668 81.7815 11.9712C81.7815 12.3932 81.6321 12.78 81.3332 13.1317L74.5285 20.965H80.7002Z" fill="#8828FF"/>
<path d="M96.0177 20.8858C96.3694 21.2199 96.5452 21.598 96.5452 22.02C96.5452 22.4244 96.3958 22.7848 96.0968 23.1013C95.8155 23.4178 95.4814 23.5761 95.0946 23.5761C94.7078 23.5761 94.3473 23.4178 94.0132 23.1013L87.8415 17.5099V22.02C87.8415 22.5299 87.6833 22.9167 87.3668 23.1804C87.0503 23.4442 86.6547 23.5761 86.1799 23.5761C85.7052 23.5761 85.3096 23.4442 84.9931 23.1804C84.6942 22.9167 84.5447 22.5299 84.5447 22.02V6.27421C84.5447 5.7643 84.6942 5.37747 84.9931 5.11372C85.3096 4.84997 85.7052 4.7181 86.1799 4.7181C86.6547 4.7181 87.0503 4.84997 87.3668 5.11372C87.6833 5.37747 87.8415 5.7643 87.8415 6.27421V16.1911L93.4857 10.7843C93.8022 10.4678 94.1627 10.3096 94.5671 10.3096C94.9715 10.3096 95.3232 10.459 95.6221 10.7579C95.921 11.0568 96.0705 11.4085 96.0705 11.8129C96.0705 12.2173 95.9034 12.5866 95.5694 12.9207L91.4285 16.7714L96.0177 20.8858Z" fill="#8828FF"/>
<path d="M100.32 23.6024C99.8456 23.6024 99.45 23.4706 99.1335 23.2068C98.8345 22.9255 98.6851 22.5299 98.6851 22.02V11.8393C98.6851 11.3294 98.8345 10.9425 99.1335 10.6788C99.45 10.4151 99.8456 10.2832 100.32 10.2832C100.795 10.2832 101.191 10.4151 101.507 10.6788C101.824 10.9425 101.982 11.3294 101.982 11.8393V22.02C101.982 22.5299 101.824 22.9255 101.507 23.2068C101.191 23.4706 100.795 23.6024 100.32 23.6024ZM100.32 7.93582C99.7225 7.93582 99.2477 7.77758 98.8961 7.46108C98.5444 7.127 98.3686 6.69621 98.3686 6.16871C98.3686 5.64122 98.5444 5.21922 98.8961 4.90272C99.2477 4.58623 99.7225 4.42798 100.32 4.42798C100.901 4.42798 101.367 4.58623 101.718 4.90272C102.087 5.21922 102.272 5.64122 102.272 6.16871C102.272 6.69621 102.096 7.127 101.745 7.46108C101.393 7.77758 100.918 7.93582 100.32 7.93582Z" fill="#8828FF"/>
<path d="M107.017 23.6024C106.542 23.6024 106.147 23.4706 105.83 23.2068C105.531 22.9255 105.382 22.5299 105.382 22.02V6.27421C105.382 5.7643 105.531 5.37747 105.83 5.11372C106.147 4.84997 106.542 4.7181 107.017 4.7181C107.492 4.7181 107.887 4.84997 108.204 5.11372C108.52 5.37747 108.679 5.7643 108.679 6.27421V22.02C108.679 22.5299 108.52 22.9255 108.204 23.2068C107.887 23.4706 107.492 23.6024 107.017 23.6024Z" fill="#8828FF"/>
<path d="M121.072 11.2327C121.213 10.9162 121.398 10.6876 121.626 10.5469C121.872 10.3887 122.136 10.3096 122.417 10.3096C122.822 10.3096 123.182 10.4502 123.499 10.7315C123.833 10.9953 124 11.3294 124 11.7338C124 11.9272 123.947 12.1294 123.842 12.3404L116.641 27.4268C116.342 28.0246 115.876 28.3235 115.243 28.3235C114.839 28.3235 114.479 28.1917 114.162 27.9279C113.863 27.6817 113.714 27.3652 113.714 26.9784C113.714 26.785 113.767 26.5652 113.872 26.319L115.665 22.5475L110.76 12.3404C110.672 12.1646 110.628 11.9624 110.628 11.7338C110.628 11.3294 110.795 10.9865 111.129 10.7052C111.481 10.4238 111.876 10.2832 112.316 10.2832C112.615 10.2832 112.887 10.3623 113.134 10.5206C113.38 10.6612 113.573 10.8898 113.714 11.2063L117.406 19.3561L121.072 11.2327Z" fill="#8828FF"/>
<path d="M29.3053 14.6527C29.3053 22.7451 22.7451 29.3053 14.6527 29.3053C6.56022 29.3053 0 22.7451 0 14.6527C0 6.56022 6.56022 0 14.6527 0C22.7451 0 29.3053 6.56022 29.3053 14.6527Z" fill="#8828FF"/>
<path d="M15 22C14.4766 22 14.053 21.8535 13.729 21.5606C13.4174 21.2554 13.2617 20.8526 13.2617 20.3521V11.7282H10.6262C10.0779 11.7282 9.66667 11.6183 9.39252 11.3986C9.13084 11.1667 9 10.8188 9 10.3549C9 9.89108 9.13084 9.5493 9.39252 9.32958C9.66667 9.10986 10.0779 9 10.6262 9H19.3738C19.9221 9 20.3271 9.10986 20.5888 9.32958C20.8629 9.5493 21 9.89108 21 10.3549C21 10.8188 20.8629 11.1667 20.5888 11.3986C20.3271 11.6183 19.9221 11.7282 19.3738 11.7282H16.7383V20.3521C16.7383 20.8526 16.5763 21.2554 16.2523 21.5606C15.9408 21.8535 15.5234 22 15 22Z" fill="white"/>
</svg>
