<svg width="70" height="80" viewBox="0 0 70 80" fill="none" xmlns="http://www.w3.org/2000/svg">
<g clip-path="url(#clip0_13190_141)">
<path d="M64.5533 71.41L70.93 0H0L0.0833333 0.926667L6.36667 71.42L6.42 72.0067L35.1967 80H35.65L64.4933 72L64.5467 71.4133L64.5533 71.41ZM35.5267 15.5967H56.1367L55.5167 22.7967L35.1833 31.8367L35.5233 33.4633H54.6033L52.4067 58.6333L35.4533 63.3333L18.5067 58.64L17.44 46.5867H24.4167L24.9767 52.6967L25.03 53.29L35.3133 56.0233H35.7567L45.9267 53.1967L45.9767 52.6067L46.9367 41.32L47.0133 40.4H16.8567L16.2233 33.1567L37.2533 24.1533L36.92 22.52H15.32L14.7033 15.5867H35.5033L35.5267 15.5967Z" fill="#00DF5E"/>
</g>
<defs>
<clipPath id="clip0_13190_141">
<rect width="70" height="80" fill="white"/>
</clipPath>
</defs>
</svg>
