<svg width="56" height="56" viewBox="0 0 56 56" fill="none" xmlns="http://www.w3.org/2000/svg">
<path d="M11.6667 12.8333C11.6667 10.6674 12.5271 8.59013 14.0587 7.05859C15.5902 5.52704 17.6675 4.66663 19.8334 4.66663H28.0001V21H19.8334C17.6675 21 15.5902 20.1395 14.0587 18.608C12.5271 17.0765 11.6667 14.9992 11.6667 12.8333Z" stroke="#00DF5E" stroke-width="2" stroke-linecap="round" stroke-linejoin="round"/>
<path d="M28 4.66663H36.1667C37.2391 4.66663 38.3011 4.87786 39.2919 5.28828C40.2827 5.69869 41.183 6.30024 41.9414 7.05859C42.6997 7.81693 43.3013 8.71722 43.7117 9.70804C44.1221 10.6989 44.3333 11.7608 44.3333 12.8333C44.3333 13.9058 44.1221 14.9677 43.7117 15.9585C43.3013 16.9494 42.6997 17.8497 41.9414 18.608C41.183 19.3663 40.2827 19.9679 39.2919 20.3783C38.3011 20.7887 37.2391 21 36.1667 21H28V4.66663Z" stroke="#00DF5E" stroke-width="2" stroke-linecap="round" stroke-linejoin="round"/>
<path d="M28 29.1667C28 28.0942 28.2112 27.0322 28.6216 26.0414C29.0321 25.0506 29.6336 24.1503 30.392 23.392C31.1503 22.6336 32.0506 22.0321 33.0414 21.6216C34.0322 21.2112 35.0942 21 36.1667 21C37.2391 21 38.3011 21.2112 39.2919 21.6216C40.2827 22.0321 41.183 22.6336 41.9414 23.392C42.6997 24.1503 43.3013 25.0506 43.7117 26.0414C44.1221 27.0322 44.3333 28.0942 44.3333 29.1667C44.3333 30.2391 44.1221 31.3011 43.7117 32.2919C43.3013 33.2827 42.6997 34.183 41.9414 34.9414C41.183 35.6997 40.2827 36.3013 39.2919 36.7117C38.3011 37.1221 37.2391 37.3333 36.1667 37.3333C35.0942 37.3333 34.0322 37.1221 33.0414 36.7117C32.0506 36.3013 31.1503 35.6997 30.392 34.9414C29.6336 34.183 29.0321 33.2827 28.6216 32.2919C28.2112 31.3011 28 30.2391 28 29.1667V29.1667Z" stroke="#00DF5E" stroke-width="2" stroke-linecap="round" stroke-linejoin="round"/>
<path d="M11.6667 45.5C11.6667 43.3341 12.5271 41.2569 14.0587 39.7253C15.5902 38.1938 17.6675 37.3334 19.8334 37.3334H28.0001V45.5C28.0001 47.666 27.1397 49.7432 25.6081 51.2747C24.0766 52.8063 21.9993 53.6667 19.8334 53.6667C17.6675 53.6667 15.5902 52.8063 14.0587 51.2747C12.5271 49.7432 11.6667 47.666 11.6667 45.5Z" stroke="#00DF5E" stroke-width="2" stroke-linecap="round" stroke-linejoin="round"/>
<path d="M11.6667 29.1667C11.6667 27.0007 12.5271 24.9235 14.0587 23.392C15.5902 21.8604 17.6675 21 19.8334 21H28.0001V37.3333H19.8334C17.6675 37.3333 15.5902 36.4729 14.0587 34.9414C12.5271 33.4098 11.6667 31.3326 11.6667 29.1667Z" stroke="#00DF5E" stroke-width="2" stroke-linecap="round" stroke-linejoin="round"/>
</svg>
