<svg width="80" height="80" viewBox="0 0 80 80" fill="none" xmlns="http://www.w3.org/2000/svg">
<path fill-rule="evenodd" clip-rule="evenodd" d="M0 0H80V80H0V0ZM61.1567 67.0667C57.4467 67.0667 55.35 65.1333 53.74 62.5L47.63 66.05C49.8367 70.41 54.3467 73.7367 61.33 73.7367C68.47 73.7367 73.7867 70.03 73.7867 63.26C73.7867 56.9833 70.18 54.1933 63.7933 51.45L61.9133 50.6467C58.6867 49.2467 57.29 48.3367 57.29 46.08C57.29 44.2567 58.69 42.86 60.89 42.86C63.0467 42.86 64.4367 43.77 65.7267 46.08L71.58 42.3233C69.1033 37.9667 65.67 36.3033 60.89 36.3033C54.1767 36.3033 49.88 40.5967 49.88 46.2367C49.88 52.3533 53.48 55.25 58.9067 57.56L60.7867 58.3667C64.2167 59.8667 66.26 60.78 66.26 63.3567C66.26 65.51 64.27 67.0667 61.1567 67.0667ZM32.0233 67.0167C29.44 67.0167 28.3633 65.25 27.1833 63.15L21.0633 66.8567C22.8367 70.61 26.3233 73.7233 32.34 73.7233C39.0033 73.7233 43.5667 70.18 43.5667 62.3967V36.73H36.05V62.2967C36.05 66.0533 34.49 67.0167 32.02 67.0167H32.0233Z" fill="#00DF5E"/>
</svg>
