<?xml version="1.0" standalone="no"?>
<!DOCTYPE svg PUBLIC "-//W3C//DTD SVG 20010904//EN"
 "http://www.w3.org/TR/2001/REC-SVG-20010904/DTD/svg10.dtd">
<svg version="1.0" xmlns="http://www.w3.org/2000/svg"
 width="350.000000pt" height="350.000000pt" viewBox="0 0 350.000000 350.000000"
 preserveAspectRatio="xMidYMid meet">
<metadata>
Created by potrace 1.11, written by Peter Selinger 2001-2013
</metadata>
<g transform="translate(0.000000,350.000000) scale(0.100000,-0.100000)"
fill="#000000" stroke="none">
<path d="M1610 3474 c-102 -15 -195 -43 -253 -77 -23 -13 -69 -39 -102 -57
-33 -18 -118 -67 -188 -107 -71 -41 -150 -86 -175 -100 -26 -14 -96 -54 -157
-88 -60 -35 -126 -72 -145 -82 -164 -93 -219 -137 -302 -241 -74 -93 -141
-231 -168 -344 -20 -83 -20 -111 -17 -660 l2 -573 28 -78 c54 -154 123 -266
232 -372 57 -56 107 -91 255 -175 102 -58 201 -113 220 -123 19 -11 45 -25 57
-33 12 -7 37 -22 55 -32 18 -11 119 -67 223 -127 211 -119 248 -138 336 -160
194 -50 426 -32 584 45 33 16 148 79 255 140 107 61 307 175 443 252 175 100
267 159 311 199 108 100 214 273 253 416 16 62 18 117 18 658 0 548 -1 594
-19 650 -51 165 -121 281 -236 395 -69 68 -183 143 -375 246 -11 6 -74 41
-140 79 -66 37 -145 82 -175 98 -30 17 -67 38 -82 49 -14 10 -28 18 -31 18 -2
0 -56 29 -118 65 -198 114 -377 150 -589 119z m242 -199 c87 -11 156 -43 421
-193 144 -82 350 -199 457 -260 247 -140 306 -194 388 -358 61 -120 62 -142
62 -728 -1 -524 -2 -532 -24 -601 -48 -147 -123 -259 -228 -338 -18 -14 -76
-50 -128 -79 -109 -63 -551 -314 -593 -337 -16 -9 -36 -21 -45 -26 -200 -120
-332 -154 -518 -132 -103 12 -162 39 -472 215 -163 93 -315 180 -337 192 -22
12 -74 42 -115 65 -41 24 -94 54 -116 67 -122 68 -226 207 -280 373 -22 69
-23 77 -23 605 -1 509 0 539 19 608 45 161 159 320 278 388 26 14 67 38 92 52
25 14 207 117 405 230 198 113 378 213 400 222 35 15 117 32 205 43 28 4 82 1
152 -8z"/>
<path d="M1520 2457 c-325 -97 -562 -403 -515 -667 16 -93 122 -217 229 -270
135 -67 280 -33 517 122 228 149 326 162 397 55 98 -147 -100 -383 -373 -446
-52 -11 -92 -19 -111 -20 -6 -1 -10 -9 -9 -18 4 -36 19 -158 21 -165 1 -5 2
-17 3 -29 1 -19 5 -21 54 -15 230 28 459 168 589 361 62 93 82 156 82 270 1
94 -1 105 -32 167 -62 126 -198 222 -321 224 -111 2 -215 -37 -386 -146 -228
-145 -303 -163 -377 -94 -46 45 -61 81 -54 132 15 109 132 231 293 304 36 16
83 33 103 36 l37 7 -21 105 c-15 74 -26 105 -36 107 -8 1 -49 -8 -90 -20z"/>
</g>
</svg>
